
<svg xmlns="http://www.w3.org/2000/svg" version="1.1" xmlns:xlink="http://www.w3.org/1999/xlink" preserveAspectRatio="none" x="0px" y="0px" width="2000px" height="2000px" viewBox="0 0 2000 2000">
<defs>
<g id="Layer1_0_FILL">
<path fill="#000000" stroke="none" d="
M 1767.4 290.1
Q 1760.85 289.1 1754.05 294 1749.3 297.45 1743.35 304.8 1686.25 374.75 1617 433.45 1547.75 492.15 1469.45 537.05 1434.8 556.95 1405.15 569.9 1369.85 585.3 1337 592.95 1322.3 596.4 1311.65 596.9 1297.6 597.5 1286.7 593.35 1267.75 586.2 1255.55 564.65 1245.9 547.65 1240.7 522.1 1234.55 491.6 1232 452.05 1230.75 431.85 1229.45 381.3 1228.2 332.5 1226.3 294.8 1224 248.4 1220.3 208.45 1219.8 202.85 1219.2 199.7 1218.2 194.9 1216.3 191.45 1214.05 187.45 1210.2 185.15 1206.1 182.7 1201.95 183.4 1198.45 184.05 1195.2 187 1193 188.95 1189.95 193 1135.05 266.3 1103.75 353.8 1072.45 441.3 1068.35 532.8 998.1 542.15 909.4 542.5 856.1 542.7 749.85 538.55 740 538.15 735.05 537.45 726.9 536.25 721.05 533.3 711.95 528.75 704.75 518.5 699.7 511.25 694 498.4 672.35 449.45 659.95 395.25 647.95 342.9 645 287.55 644.6 280.35 644.1 277.25 643.2 271.55 641.1 267.5 638.6 262.7 634.05 260.05 629.2 257.2 624.4 258.4 620.95 259.25 617.75 262.4 615.65 264.45 612.7 268.65 546.6 362.3 518.3 467.25 488 579.5 507.15 684.15 490.5 695.95 466.55 700.8 447.95 704.55 421.85 704.5 355.5 704.4 290.85 686.45 226.2 668.5 169.25 634.4 162.3 630.25 158.55 628.8 152.3 626.3 147.1 627.1 138.25 628.45 132.55 638.1 128.15 645.7 126.1 657.4 121.1 686.35 121.35 720.3 121.6 748.2 125.55 783.5 139.1 903.9 182.7 1018.3 226.25 1132.7 296.3 1231.65 316.5 1260.15 333.8 1279.3 355.75 1303.7 378.5 1319.75 390.7 1328.4 402.3 1330.85 416.5 1333.85 425.2 1326 429.8 1321.9 432.35 1314.75 434.15 1309.6 435.3 1301.2 439.45 1270.9 437.35 1240.1 435.2 1209.4 426.95 1179.85
L 526.05 1280.95
Q 533.3 1288.3 540.35 1291.3 549.35 1295.15 555.25 1290.25 558.8 1287.35 559.95 1281.65 560.8 1277.7 560.6 1271.15 558.5 1203.35 550.65 1136.7 587.85 1184.25 631.4 1226.5 635.25 1230.2 637.75 1231.85 641.6 1234.4 645.25 1234.55 650.05 1234.8 654.25 1231.25 658.15 1227.9 659.8 1222.9 661.25 1218.75 661.3 1213.1 661.3 1209.95 660.75 1203.05 653.2 1115.65 669.35 1029.4 701.35 1098.3 731.35 1152.5 766.9 1216.65 804.4 1269.1 891.85 1391.45 998.35 1462.65 1015.6 1474.2 1036.9 1486.75 1052.95 1496.15 1076.5 1509.15 1128.95 1538.05 1165.55 1555.6 1214.85 1579.3 1258.15 1593.9 1364.1 1629.7 1455.6 1619.15 1461.1 1618.55 1464.35 1617.55 1469.05 1616.1 1471.85 1613.25 1475.45 1609.55 1475.9 1603.65 1476.3 1598.2 1473.95 1592.95 1472 1588.6 1467.95 1584 1466.05 1581.8 1460.35 1576.15 1401 1518.15 1364.4 1441.95 1327.8 1365.7 1319.65 1283.15 1312.4 1209.6 1327.45 1121 1338.1 1057.95 1365.8 961.65 1413.5 1088.6 1449.2 1218.75 1451.2 1226.05 1452.55 1229.65 1454.7 1235.55 1457.65 1239.65 1461.15 1244.55 1466.1 1247.25 1471.45 1250.15 1476.85 1249.45 1484.35 1248.5 1490.1 1240.9 1494.2 1235.55 1498.1 1225.55 1528.25 1148.15 1568.5 1034.15
L 1577.9 1224.65
Q 1578.3 1232.5 1578.9 1236.5 1579.9 1243 1582.2 1247.7 1584.95 1253.3 1589.85 1256.7 1595.15 1260.4 1600.8 1259.8 1607.3 1259.15 1612.75 1252.95 1616.6 1248.5 1620.6 1240.2 1650.8 1177.75 1676.8 1099.55 1696.6 1040 1719.3 953.85 1748.1 1041 1762.1 1132.15 1763.3 1140.15 1764.25 1143.9 1765.9 1150.35 1768.6 1154.85 1771.85 1160.2 1777.1 1163.15 1782.75 1166.4 1788.3 1165.3 1795.35 1163.9 1800.2 1156.15 1803.65 1150.6 1806.35 1140.85 1889 838.1 1870.8 570.8 1868.05 530.55 1863.35 498.85 1857.7 460.6 1848.35 428.25 1837.9 391.85 1822.25 360.85 1805.2 327.15 1782.5 300.75 1778.6 296.25 1775.75 294 1771.6 290.75 1767.4 290.1
M 1324.15 623.5
Q 1340.7 622.1 1359.75 616.3 1374.1 611.95 1393.95 603.65 1498.9 559.95 1594.75 486.35 1685.5 416.75 1762.75 324.5 1799.5 370.25 1818 438.25 1832.2 490.55 1837.55 566.05 1846.65 694.2 1834.1 822.65 1821.6 951.1 1787.95 1075.1 1774.8 1020.05 1766.7 990.45 1754 943.85 1740.35 907.4 1737.55 899.9 1734.9 895.75 1731 889.8 1725.8 887.6 1719.65 885 1712.5 887.75 1705.85 890.3 1701.4 896.1 1697.65 901 1695.1 908.35 1693.55 912.75 1691.45 921.8 1660.7 1053.8 1610.45 1179.55 1605.05 1136.45 1603.9 1076.25 1603.45 1007.1 1602.85 972.55 1602.75 965.35 1602.35 961.35 1601.7 955.2 1599.9 950.55 1597.75 945.05 1593.8 941.2 1589.45 937 1584.2 936.05 1578.6 935.1 1572.85 937.95 1567.55 940.55 1563.7 945.55 1560.5 949.7 1558.05 955.85 1556.65 959.35 1554.2 967.15 1519.9 1079.25 1475.3 1188.45 1438.95 1057.95 1389.8 931.4 1386.6 923.3 1384.55 919.35 1381.15 912.9 1376.9 908.9 1371.95 904.15 1365.4 902.7 1358.4 901.2 1353 904.4 1348.7 907 1345.8 912.6 1343.9 916.25 1341.8 923.3 1309.25 1033.9 1297 1100.65 1278.75 1199.8 1286.1 1281.3 1293.7 1366 1329.2 1445 1364.7 1524 1422.95 1585.95 1361.85 1590.15 1291.1 1569.3 1237.9 1553.6 1165.75 1518.8 1079.45 1477.15 1018.5 1436.25 942.9 1385.55 891.55 1327 876.2 1309.55 856.2 1283.2 798.85 1207.8 758.2 1135.75 712.35 1054.55 686 974.75 683.65 967.75 682.3 964.7 679.85 959.3 676.55 955.9 672.7 951.85 667.35 950.7 661.6 949.4 657.35 952.3 654.35 954.35 652.4 958.55 651.1 961.35 649.85 966.45 624.25 1070.6 627.55 1178.15 603.4 1156.2 583.8 1129.8 564.2 1103.45 550.1 1073.95 545.95 1065.2 541.85 1060.65 536 1054.3 529.3 1054.85 524.8 1055.25 521.1 1058.85 517.7 1062.15 516.2 1066.85 514.95 1070.85 514.9 1076.1 514.85 1079.25 515.35 1085.5
L 528.25 1237.6
Q 495.25 1210.3 466.65 1178.1 438.15 1145.95 414.9 1109.9 409.95 1102.2 405.8 1098.55 399.8 1093.15 393.55 1093.75 387.9 1094.3 383.85 1099.45 380.05 1104.25 379.5 1110.45 379.05 1115.65 380.7 1122.1 381.6 1125.65 384.35 1133.45 398.45 1173.55 403.85 1216.1 409.25 1258.65 405.65 1301.05 382.75 1288.05 360.95 1265.35 344.4 1248.05 324.5 1220.45 255.6 1125 212.25 1014.15 168.95 903.3 154.85 786.35 150.6 751.1 150.45 723.9 150.3 690.15 156.25 661.85 226.9 700.85 298.55 719.3 376.65 739.45 450.1 733.55 469.8 731.95 485.15 728.6 503.7 724.55 518.55 717.45 525.25 714.25 529.65 710.9 535.2 706.65 538.15 701.55 543.5 692.15 541.05 677.9 540.15 672.8 538 665.4 535.45 657.1 534.3 653.1 527.7 629.95 528.7 600.1 529.35 580.45 534.45 546.4 538.45 519.8 541.5 503.5 545.85 480.1 551.1 461.2 561.5 423.85 580.85 383.5 596.8 350.35 621.25 310.45 625.85 361.5 638.2 411.45 650.6 461.4 670.45 508.65 677.25 524.85 683.35 534.3 691.95 547.5 702.85 554.25 712.45 560.15 726.35 562.5 735.25 564 751.65 564.6 851.55 568.45 909.6 568.35 996.65 568.25 1067.1 560.8 1074.75 560 1079 558.6 1085.4 556.6 1088.8 552.5 1091.75 548.95 1092.95 543.2 1093.65 539.65 1093.95 532.7 1097.7 451.3 1124.1 373.05 1150.5 294.85 1196.8 227.8
L 1203.6 401.25
Q 1205.35 445.7 1207.25 467.75 1210.4 504.65 1217 533.45 1222.35 556.8 1230.35 573.2 1240.35 593.65 1255.35 605.55 1269.05 616.4 1287.8 620.95 1305.05 625.1 1324.15 623.5
M 1218.75 841.2
Q 1231 832.6 1238.95 825.4 1249.3 816.05 1255.85 806.3 1251.6 805.25 1246.35 807 1242.9 808.2 1237.4 811.35 1186.65 840.7 1162 853.3 1119.2 875.1 1082.8 886.65 1031.7 902.85 973.1 905.9 919.8 908.65 861.3 900.5 807.6 892.95 769.1 876.7 752.25 869.6 738.05 860.75 737.7 860.25 737.45 859.9 735.65 857.45 733.6 856.1 731.4 854.65 728.8 854.6 708.75 840.45 694.55 822.3 691.35 818.15 688.1 816.25 683.9 813.8 680.75 815.95 677.65 818.1 678.55 822.85 679.3 826.75 682.25 830.7 699.65 853.95 726.15 871.55 728.9 876.2 734.2 884.35 740.4 893.95 743.4 899.45 745.05 902.4 748.3 909 751.4 915.25 753.2 918.5 755.7 922.9 761.2 931.3
L 778.5 957.75
Q 783.65 965.55 786.7 969.25 791.7 975.25 797.05 978.5 803.05 982.1 808.3 981.45 811.65 981 814.75 978.8 817.5 976.75 819.55 973.6 821.3 971 822.65 967.3 823.25 965.75 824.15 962.95 824.15 962.9 824.2 962.9 825.05 962.65 825.75 961.4 830 954.55 832.05 950.75 835.3 944.7 837 939.5 838.05 936.3 839.8 928.05 841.4 920.7 842.9 916.75 843.25 915.85 843.55 915.15 939.9 933.35 1035.15 916.25 1054.9 912.7 1073.8 907.8 1074.85 909.8 1076.45 911.95 1077.45 913.25 1080.35 916.65 1082.85 919.6 1084.1 921.45 1084.95 922.7 1086.6 925.55 1088.2 928.25 1089.15 929.65 1090.15 931.15 1092.15 933.6 1094.4 936.35 1095.25 937.5 1097.2 940.2 1100.55 946.05 1105.5 953.9 1114.4 962.7 1118.7 967.1 1122.1 968 1125.35 968.85 1128.8 967.35 1132 966 1134.3 963.15 1136.3 960.75 1137.75 957.25 1138.75 954.85 1140 950.65 1141.8 944.4 1142.95 939.5 1144.7 932.2 1148.25 913.7 1148.95 909.55 1149.75 906.8 1151.3 902.05 1152.05 899.65 1155.1 890.1 1155.75 878.05 1188.8 862.25 1218.75 841.2
M 1139.15 891.25
L 1134.4 905.05
Q 1132.7 909.95 1132.05 912.45 1131.25 915.4 1129.4 925.35 1127 937.75 1123.35 949.25 1122.9 949.75 1122.15 949.55 1121.45 949.4 1121.05 948.8 1120.75 948.35 1120.55 947.55 1120.25 946.5 1120.15 946.25 1119.6 944.95 1117.85 943.6 1115.3 941.65 1114.95 941.3 1113.6 939.95 1112.4 937.2 1110.75 933.4 1110.35 932.7 1109.3 930.95 1106.95 928.55 1104.05 925.65 1103.25 924.65 1102.15 923.25 1100.65 920.65 1098.9 917.5 1098.2 916.5 1098.05 916.3 1092.75 909.85 1089.95 906.45 1088.95 903.55 1116.2 895.5 1141.65 884.45 1140.5 887.35 1139.15 891.25
M 826 911.5
Q 825.1 914.5 824.35 917.6 823.65 918.6 822.95 919.95 813.6 938.55 808.65 957.9 808.1 960 807.55 961 806.75 962.65 805.4 963.2 802.05 964.7 798.05 959.6 795 955.75 788.75 946.6 779.05 932.05 775.15 925.8 770.85 918.9 760.45 900.45
L 752.7 886.65
Q 784.5 902.1 826 911.5
M 793.4 646.15
Q 775.1 636.8 755.1 633.05 742.7 630.7 727 630.2 717.35 629.85 698.65 630.2 678.3 630.5 667.75 631.5 650.7 633.1 637.7 637.55 623.15 642.45 612.95 651.75 601.45 662.15 598.9 675.3 597.2 683.9 599.55 693.25 601.7 701.95 607 709.85 615.4 722.5 633.2 734.7 660.8 753.65 692.65 761.55 725.75 769.8 757.4 764.55 771.3 762.2 782.85 757.65 781.5 759.65 780.6 761.7 777.35 768.85 777.6 777.4 777.85 785.5 781.1 793.2 786.7 806.6 801 818.35 815.7 830.5 834.85 837.15 853.2 843.5 873.15 844 881.45 844.2 894.35 843.35 910.15 842.3 920.55 840.9 934.8 838.95 946.25 835.5 959.6 831.5 970.4 825.05 982.35 817.9 990.45 808.25 996.85 800.75 998.95 793.45 1001.85 783.5 998.1 770.3 994.85 758.8 987.95 748.75 986.5 746.65 984.95 744.65 990.3 746.7 996.45 748.55 1037.15 760.65 1080.45 757.2 1123.75 753.75 1162.05 735.35 1202.35 716 1214.25 687.5 1219.15 675.6 1216.8 666.45 1215.2 660.35 1209.2 653.25 1200.25 642.8 1187.05 635.4 1175.05 628.65 1160.4 624.9 1147.75 621.7 1132.15 620.45 1120.55 619.55 1103.45 619.55 1083.8 619.55 1068.85 620.65 1050.3 622 1034.6 625.25 997 633.1 971.65 652.55 958.3 662.8 951.1 675.5 942.75 690.15 945.05 704.25 946.45 712.8 951.7 720.65 951.9 720.95 952.1 721.25 951.2 720.9 950.25 720.6 938.65 716.85 926.7 717 922.95 717.05 914.45 717.85 906.55 718.55 902.2 718.5 898.25 718.45 891.85 717.75 883.7 716.8 881.45 716.65 864.8 715.4 847.25 719.6 833.35 722.9 819.6 729.4 822.95 724.5 825.3 719.15 830.15 707.95 829.9 695.9 829.7 683.35 824.05 673.1 815.5 657.55 793.4 646.15
M 751.25 657.1
Q 757.5 658.15 762.3 659.45 768.1 661 775.1 663.8 779.3 665.45 787.6 669.1 795.95 672.75 800.2 675.65 806.7 680.05 809.45 685.65 811.9 690.75 811.75 697.55 811.55 704.8 808.4 711.95 805.45 718.7 800.25 724.35 791.05 734.5 775.65 740.7 748.65 751.5 713.7 746.7 694 743.95 675.25 736.8 656.55 729.6 640 718.45 630.65 712.15 626.05 706.6 622.55 702.4 619.5 696.25 615.5 688.25 615.55 682.15 615.65 676.3 619.3 670.65 622.45 665.7 627.8 661.55 639.65 652.4 658.05 649.2 670.25 647.1 691.85 647.1 691.3 648.2 692.3 649.35 693.1 650.35 694.5 650.95 699.55 652.95 707.05 653.3 711.35 653.5 720.05 653.45 726.35 653.6 740.1 655.45 748 656.55 751.25 657.1
M 796.5 769.95
Q 798.55 764.65 805.25 758.85 828.95 738.25 872 731.35 877.75 730.45 881.6 730.2 886.9 729.8 891.25 730.4 895.3 730.95 899.2 732.3 900.55 732.8 903.35 734 906.1 735.15 907.55 735.65 911.8 737.1 918.1 737.95 921.7 738.4 928.95 739.2 946.45 741.75 959.15 750.1 966.1 754.65 971.25 760.8 976.6 767.2 979.4 774.6 981.6 780.4 981.15 784.95 980.5 790.55 975.7 796.5 969.95 803.6 960.9 808.65 962.2 807.75 963.2 806.9 966.65 804.1 968.65 801 970.95 797.45 971.3 793.4 971.65 789 969.55 785.75 965.3 779.15 952.25 779.05 936.15 778.9 920.75 783.75 910.75 787 906 791.85 902.9 795.05 901.7 799.2 900.4 803.6 901.9 807.4 904 812.75 911.15 816.35 917.05 819.35 923.7 820.3 923.95 820.35 924.25 820.4 901.05 824.95 884.5 825.65 880.25 825.85 876.15 825.8 876.5 825.35 876.85 824.9 879.2 821.95 879.4 818.55 879.7 812.5 873.5 806.2 869.1 801.75 862.5 797.8 857.95 795.1 850.1 791.4 845.15 789.1 842.4 788.15 838 786.6 834.3 786.35 830.4 786.1 826.75 787.2 822.9 788.3 820.05 790.7 817.05 793.2 815.55 796.8 813.95 800.55 814.45 804.25 814.6 805.5 815.05 806.8 805.25 799.6 800.15 791.6 796.9 786.45 795.8 781.05 794.6 775 796.5 769.95
M 968.3 705.85
Q 965.3 701.9 964.75 698.85 964 694.5 967.45 688.15 979.05 666.95 1008.15 653.4 1030.1 643.2 1060.5 637.95 1065.2 637.2 1067.9 636.95 1072.05 636.6 1075.35 637 1079.15 637.45 1084.7 639.3 1093.35 642.2 1093.9 642.35 1100.9 644.35 1111.35 645.15 1117.25 645.55 1129.1 646.25 1156.2 648.6 1185.65 661.65 1197.95 667.05 1198.25 674.55 1198.45 678.25 1195.2 683.2 1188.4 693.85 1174.75 704.05 1149.15 722.9 1113.65 730.9 1082.95 737.75 1046 736.25 1033.75 735.75 1024.5 734.45 1012.95 732.8 1003.5 729.65 992.75 726.1 984.05 720.4 974.55 714.15 968.3 705.85
M 1078.05 674.9
Q 1077.3 671.05 1074.75 668.25 1072.5 665.75 1069.05 664.45 1065.8 663.2 1062.2 663.35 1057.8 663.5 1054.15 665.8 1050.25 668.25 1048.75 672.1 1047.55 675.1 1047.9 678.9 1048.05 681.8 1049 683.85 1050.1 686.5 1052.8 688.75 1055.7 691.15 1059.5 692.05 1063.3 692.95 1066.9 692 1070.55 691.1 1073.45 688.5 1076.35 685.85 1077.6 682.3 1078.8 678.75 1078.05 674.9
M 675.8 665.55
Q 669.45 665.75 664.45 670.4 659.45 675.15 659.1 681.4 658.9 685.1 660.35 688.55 661.8 692.05 664.55 694.45 667.7 697.2 672.05 698.2 676.25 699.15 680.45 698.15 686.3 696.75 689.85 692.55 692.9 688.95 693.4 683.9 693.85 678.85 691.6 674.6 689.35 670.4 685 667.9 680.6 665.4 675.8 665.55 Z"/>

<path fill="#6633CC" stroke="none" d="
M 1359.75 616.3
Q 1340.7 622.1 1324.15 623.5 1305.05 625.1 1287.8 620.95 1269.05 616.4 1255.35 605.55 1240.35 593.65 1230.35 573.2 1222.35 556.8 1217 533.45 1210.4 504.65 1207.25 467.75 1205.35 445.7 1203.6 401.25
L 1196.8 227.8
Q 1150.5 294.85 1124.1 373.05 1097.7 451.3 1093.95 532.7 1093.65 539.65 1092.95 543.2 1091.75 548.95 1088.8 552.5 1085.4 556.6 1079 558.6 1074.75 560 1067.1 560.8 996.65 568.25 909.6 568.35 851.55 568.45 751.65 564.6 735.25 564 726.35 562.5 712.45 560.15 702.85 554.25 691.95 547.5 683.35 534.3 677.25 524.85 670.45 508.65 650.6 461.4 638.2 411.45 625.85 361.5 621.25 310.45 596.8 350.35 580.85 383.5 561.5 423.85 551.1 461.2 545.85 480.1 541.5 503.5 538.45 519.8 534.45 546.4 529.35 580.45 528.7 600.1 527.7 629.95 534.3 653.1 535.45 657.1 538 665.4 540.15 672.8 541.05 677.9 543.5 692.15 538.15 701.55 535.2 706.65 529.65 710.9 525.25 714.25 518.55 717.45 503.7 724.55 485.15 728.6 469.8 731.95 450.1 733.55 376.65 739.45 298.55 719.3 226.9 700.85 156.25 661.85 150.3 690.15 150.45 723.9 150.6 751.1 154.85 786.35 168.95 903.3 212.25 1014.15 255.6 1125 324.5 1220.45 344.4 1248.05 360.95 1265.35 382.75 1288.05 405.65 1301.05 409.25 1258.65 403.85 1216.1 398.45 1173.55 384.35 1133.45 381.6 1125.65 380.7 1122.1 379.05 1115.65 379.5 1110.45 380.05 1104.25 383.85 1099.45 387.9 1094.3 393.55 1093.75 399.8 1093.15 405.8 1098.55 409.95 1102.2 414.9 1109.9 438.15 1145.95 466.65 1178.1 495.25 1210.3 528.25 1237.6
L 515.35 1085.5
Q 514.85 1079.25 514.9 1076.1 514.95 1070.85 516.2 1066.85 517.7 1062.15 521.1 1058.85 524.8 1055.25 529.3 1054.85 536 1054.3 541.85 1060.65 545.95 1065.2 550.1 1073.95 564.2 1103.45 583.8 1129.8 603.4 1156.2 627.55 1178.15 624.25 1070.6 649.85 966.45 651.1 961.35 652.4 958.55 654.35 954.35 657.35 952.3 661.6 949.4 667.35 950.7 672.7 951.85 676.55 955.9 679.85 959.3 682.3 964.7 683.65 967.75 686 974.75 712.35 1054.55 758.2 1135.75 798.85 1207.8 856.2 1283.2 876.2 1309.55 891.55 1327 942.9 1385.55 1018.5 1436.25 1079.45 1477.15 1165.75 1518.8 1237.9 1553.6 1291.1 1569.3 1361.85 1590.15 1422.95 1585.95 1364.7 1524 1329.2 1445 1293.7 1366 1286.1 1281.3 1278.75 1199.8 1297 1100.65 1309.25 1033.9 1341.8 923.3 1343.9 916.25 1345.8 912.6 1348.7 907 1353 904.4 1358.4 901.2 1365.4 902.7 1371.95 904.15 1376.9 908.9 1381.15 912.9 1384.55 919.35 1386.6 923.3 1389.8 931.4 1438.95 1057.95 1475.3 1188.45 1519.9 1079.25 1554.2 967.15 1556.65 959.35 1558.05 955.85 1560.5 949.7 1563.7 945.55 1567.55 940.55 1572.85 937.95 1578.6 935.1 1584.2 936.05 1589.45 937 1593.8 941.2 1597.75 945.05 1599.9 950.55 1601.7 955.2 1602.35 961.35 1602.75 965.35 1602.85 972.55 1603.45 1007.1 1603.9 1076.25 1605.05 1136.45 1610.45 1179.55 1660.7 1053.8 1691.45 921.8 1693.55 912.75 1695.1 908.35 1697.65 901 1701.4 896.1 1705.85 890.3 1712.5 887.75 1719.65 885 1725.8 887.6 1731 889.8 1734.9 895.75 1737.55 899.9 1740.35 907.4 1754 943.85 1766.7 990.45 1774.8 1020.05 1787.95 1075.1 1821.6 951.1 1834.1 822.65 1846.65 694.2 1837.55 566.05 1832.2 490.55 1818 438.25 1799.5 370.25 1762.75 324.5 1685.5 416.75 1594.75 486.35 1498.9 559.95 1393.95 603.65 1374.1 611.95 1359.75 616.3
M 755.1 633.05
Q 775.1 636.8 793.4 646.15 815.5 657.55 824.05 673.1 829.7 683.35 829.9 695.9 830.15 707.95 825.3 719.15 822.95 724.5 819.6 729.4 833.35 722.9 847.25 719.6 864.8 715.4 881.45 716.65 883.7 716.8 891.85 717.75 898.25 718.45 902.2 718.5 906.55 718.55 914.45 717.85 922.95 717.05 926.7 717 938.65 716.85 950.25 720.6 951.2 720.9 952.1 721.25 951.9 720.95 951.7 720.65 946.45 712.8 945.05 704.25 942.75 690.15 951.1 675.5 958.3 662.8 971.65 652.55 997 633.1 1034.6 625.25 1050.3 622 1068.85 620.65 1083.8 619.55 1103.45 619.55 1120.55 619.55 1132.15 620.45 1147.75 621.7 1160.4 624.9 1175.05 628.65 1187.05 635.4 1200.25 642.8 1209.2 653.25 1215.2 660.35 1216.8 666.45 1219.15 675.6 1214.25 687.5 1202.35 716 1162.05 735.35 1123.75 753.75 1080.45 757.2 1037.15 760.65 996.45 748.55 990.3 746.7 984.95 744.65 986.5 746.65 987.95 748.75 994.85 758.8 998.1 770.3 1001.85 783.5 998.95 793.45 996.85 800.75 990.45 808.25 982.35 817.9 970.4 825.05 959.6 831.5 946.25 835.5 934.8 838.95 920.55 840.9 910.15 842.3 894.35 843.35 881.45 844.2 873.15 844 853.2 843.5 834.85 837.15 815.7 830.5 801 818.35 786.7 806.6 781.1 793.2 777.85 785.5 777.6 777.4 777.35 768.85 780.6 761.7 781.5 759.65 782.85 757.65 771.3 762.2 757.4 764.55 725.75 769.8 692.65 761.55 660.8 753.65 633.2 734.7 615.4 722.5 607 709.85 601.7 701.95 599.55 693.25 597.2 683.9 598.9 675.3 601.45 662.15 612.95 651.75 623.15 642.45 637.7 637.55 650.7 633.1 667.75 631.5 678.3 630.5 698.65 630.2 717.35 629.85 727 630.2 742.7 630.7 755.1 633.05
M 1238.95 825.4
Q 1231 832.6 1218.75 841.2 1188.8 862.25 1155.75 878.05 1155.1 890.1 1152.05 899.65 1151.3 902.05 1149.75 906.8 1148.95 909.55 1148.25 913.7 1144.7 932.2 1142.95 939.5 1141.8 944.4 1140 950.65 1138.75 954.85 1137.75 957.25 1136.3 960.75 1134.3 963.15 1132 966 1128.8 967.35 1125.35 968.85 1122.1 968 1118.7 967.1 1114.4 962.7 1105.5 953.9 1100.55 946.05 1097.2 940.2 1095.25 937.5 1094.4 936.35 1092.15 933.6 1090.15 931.15 1089.15 929.65 1088.2 928.25 1086.6 925.55 1084.95 922.7 1084.1 921.45 1082.85 919.6 1080.35 916.65 1077.45 913.25 1076.45 911.95 1074.85 909.8 1073.8 907.8 1054.9 912.7 1035.15 916.25 939.9 933.35 843.55 915.15 843.25 915.85 842.9 916.75 841.4 920.7 839.8 928.05 838.05 936.3 837 939.5 835.3 944.7 832.05 950.75 830 954.55 825.75 961.4 825.05 962.65 824.2 962.9 824.15 962.9 824.15 962.95 823.25 965.75 822.65 967.3 821.3 971 819.55 973.6 817.5 976.75 814.75 978.8 811.65 981 808.3 981.45 803.05 982.1 797.05 978.5 791.7 975.25 786.7 969.25 783.65 965.55 778.5 957.75
L 761.2 931.3
Q 755.7 922.9 753.2 918.5 751.4 915.25 748.3 909 745.05 902.4 743.4 899.45 740.4 893.95 734.2 884.35 728.9 876.2 726.15 871.55 699.65 853.95 682.25 830.7 679.3 826.75 678.55 822.85 677.65 818.1 680.75 815.95 683.9 813.8 688.1 816.25 691.35 818.15 694.55 822.3 708.75 840.45 728.8 854.6 731.4 854.65 733.6 856.1 735.65 857.45 737.45 859.9 737.7 860.25 738.05 860.75 752.25 869.6 769.1 876.7 807.6 892.95 861.3 900.5 919.8 908.65 973.1 905.9 1031.7 902.85 1082.8 886.65 1119.2 875.1 1162 853.3 1186.65 840.7 1237.4 811.35 1242.9 808.2 1246.35 807 1251.6 805.25 1255.85 806.3 1249.3 816.05 1238.95 825.4 Z"/>

<path fill="#FFFF99" stroke="none" d="
M 824.35 917.6
Q 825.1 914.5 826 911.5 784.5 902.1 752.7 886.65
L 760.45 900.45
Q 770.85 918.9 775.15 925.8 779.05 932.05 788.75 946.6 795 955.75 798.05 959.6 802.05 964.7 805.4 963.2 806.75 962.65 807.55 961 808.1 960 808.65 957.9 813.6 938.55 822.95 919.95 823.65 918.6 824.35 917.6
M 1134.4 905.05
L 1139.15 891.25
Q 1140.5 887.35 1141.65 884.45 1116.2 895.5 1088.95 903.55 1089.95 906.45 1092.75 909.85 1098.05 916.3 1098.2 916.5 1098.9 917.5 1100.65 920.65 1102.15 923.25 1103.25 924.65 1104.05 925.65 1106.95 928.55 1109.3 930.95 1110.35 932.7 1110.75 933.4 1112.4 937.2 1113.6 939.95 1114.95 941.3 1115.3 941.65 1117.85 943.6 1119.6 944.95 1120.15 946.25 1120.25 946.5 1120.55 947.55 1120.75 948.35 1121.05 948.8 1121.45 949.4 1122.15 949.55 1122.9 949.75 1123.35 949.25 1127 937.75 1129.4 925.35 1131.25 915.4 1132.05 912.45 1132.7 909.95 1134.4 905.05
M 964.75 698.85
Q 965.3 701.9 968.3 705.85 974.55 714.15 984.05 720.4 992.75 726.1 1003.5 729.65 1012.95 732.8 1024.5 734.45 1033.75 735.75 1046 736.25 1082.95 737.75 1113.65 730.9 1149.15 722.9 1174.75 704.05 1188.4 693.85 1195.2 683.2 1198.45 678.25 1198.25 674.55 1197.95 667.05 1185.65 661.65 1156.2 648.6 1129.1 646.25 1117.25 645.55 1111.35 645.15 1100.9 644.35 1093.9 642.35 1093.35 642.2 1084.7 639.3 1079.15 637.45 1075.35 637 1072.05 636.6 1067.9 636.95 1065.2 637.2 1060.5 637.95 1030.1 643.2 1008.15 653.4 979.05 666.95 967.45 688.15 964 694.5 964.75 698.85
M 1074.75 668.25
Q 1077.3 671.05 1078.05 674.9 1078.8 678.75 1077.6 682.3 1076.35 685.85 1073.45 688.5 1070.55 691.1 1066.9 692 1063.3 692.95 1059.5 692.05 1055.7 691.15 1052.8 688.75 1050.1 686.5 1049 683.85 1048.05 681.8 1047.9 678.9 1047.55 675.1 1048.75 672.1 1050.25 668.25 1054.15 665.8 1057.8 663.5 1062.2 663.35 1065.8 663.2 1069.05 664.45 1072.5 665.75 1074.75 668.25
M 762.3 659.45
Q 757.5 658.15 751.25 657.1 748 656.55 740.1 655.45 726.35 653.6 720.05 653.45 711.35 653.5 707.05 653.3 699.55 652.95 694.5 650.95 693.1 650.35 692.3 649.35 691.3 648.2 691.85 647.1 670.25 647.1 658.05 649.2 639.65 652.4 627.8 661.55 622.45 665.7 619.3 670.65 615.65 676.3 615.55 682.15 615.5 688.25 619.5 696.25 622.55 702.4 626.05 706.6 630.65 712.15 640 718.45 656.55 729.6 675.25 736.8 694 743.95 713.7 746.7 748.65 751.5 775.65 740.7 791.05 734.5 800.25 724.35 805.45 718.7 808.4 711.95 811.55 704.8 811.75 697.55 811.9 690.75 809.45 685.65 806.7 680.05 800.2 675.65 795.95 672.75 787.6 669.1 779.3 665.45 775.1 663.8 768.1 661 762.3 659.45
M 664.45 670.4
Q 669.45 665.75 675.8 665.55 680.6 665.4 685 667.9 689.35 670.4 691.6 674.6 693.85 678.85 693.4 683.9 692.9 688.95 689.85 692.55 686.3 696.75 680.45 698.15 676.25 699.15 672.05 698.2 667.7 697.2 664.55 694.45 661.8 692.05 660.35 688.55 658.9 685.1 659.1 681.4 659.45 675.15 664.45 670.4 Z"/>

<path fill="#FF3333" stroke="none" d="
M 805.25 758.85
Q 798.55 764.65 796.5 769.95 794.6 775 795.8 781.05 796.9 786.45 800.15 791.6 805.25 799.6 815.05 806.8 814.6 805.5 814.45 804.25 813.95 800.55 815.55 796.8 817.05 793.2 820.05 790.7 822.9 788.3 826.75 787.2 830.4 786.1 834.3 786.35 838 786.6 842.4 788.15 845.15 789.1 850.1 791.4 857.95 795.1 862.5 797.8 869.1 801.75 873.5 806.2 879.7 812.5 879.4 818.55 879.2 821.95 876.85 824.9 876.5 825.35 876.15 825.8 880.25 825.85 884.5 825.65 901.05 824.95 924.25 820.4 923.95 820.35 923.7 820.3 917.05 819.35 911.15 816.35 904 812.75 901.9 807.4 900.4 803.6 901.7 799.2 902.9 795.05 906 791.85 910.75 787 920.75 783.75 936.15 778.9 952.25 779.05 965.3 779.15 969.55 785.75 971.65 789 971.3 793.4 970.95 797.45 968.65 801 966.65 804.1 963.2 806.9 962.2 807.75 960.9 808.65 969.95 803.6 975.7 796.5 980.5 790.55 981.15 784.95 981.6 780.4 979.4 774.6 976.6 767.2 971.25 760.8 966.1 754.65 959.15 750.1 946.45 741.75 928.95 739.2 921.7 738.4 918.1 737.95 911.8 737.1 907.55 735.65 906.1 735.15 903.35 734 900.55 732.8 899.2 732.3 895.3 730.95 891.25 730.4 886.9 729.8 881.6 730.2 877.75 730.45 872 731.35 828.95 738.25 805.25 758.85 Z"/>
</g>

<g id="Layer0_0_FILL">
<path fill="#000000" fill-opacity="0.2" stroke="none" d="
M 683.75 492.4
Q 669.6 473.65 661.8 454.55 657.2 443.15 652.3 424.45 634.95 357.85 633.35 302.35 633.2 297.65 632.3 294.9 631.05 290.95 628.05 289.65 625.55 288.55 622.7 289.65 620 290.7 618.25 293.05 616.75 295.1 615.9 298.05 615.3 300.15 614.85 303.6 613.15 316.9 614 333.05 614.65 344.85 617.05 362.5 621.7 396.1 628.9 429 631.15 439.25 633 446.1 635.5 455.35 638.4 462.85 646.3 483.15 662.95 504.75 673.15 518.1 695.25 541.75 698.85 545.6 700.85 547.35 704.2 550.2 707.45 551.55 711.3 553.15 715.25 552.55 719.55 551.9 721.9 548.95 724 546.35 724.05 542.5 724.1 539 722.45 535.65 721.1 532.85 718.45 529.9 716.95 528.25 713.4 524.95 695.9 508.4 683.75 492.4
M 1198.35 209.1
Q 1196.15 212.65 1195.4 218.1 1183.4 298.85 1181.2 352.3 1178.15 426.1 1190.45 485.85 1196.65 515.85 1206.85 544.1 1212.85 560.85 1218.95 572.35 1226.75 587.05 1236.55 597.15 1242.65 603.35 1247.8 605.05 1251.25 606.2 1254.7 605.7 1258.4 605.1 1260.75 602.75 1263.5 600.05 1263.9 595.65 1264.25 591.6 1262.55 587.65 1261.2 584.5 1258.4 580.8 1255 576.6 1253.3 574.45 1247.55 567.2 1242.65 557.65 1238.7 549.95 1234.6 539.4 1210.6 477.7 1208.1 395.15 1207.1 362.35 1209.35 321.5 1210.7 296.45 1214.75 248 1215.75 236.6 1215.6 230.45 1215.45 220.7 1212.95 213.3 1211.8 210 1210.1 207.9 1207.95 205.35 1205.2 205.05 1201.1 204.65 1198.35 209.1
M 1236.9 813.95
Q 1232.8 814.95 1227.3 818.25 1201.7 833.9 1188.85 841.75 1165.8 855.85 1150 864.6 1105.05 889.5 1067.95 899.8 1041.55 907.15 1008.7 910.15 984.65 912.4 948.4 912.85 912.65 913.25 887.65 911.85 872.964453125 911.025390625 859.4 909.5 858.2515625 908.03984375 856.35 906.95 852.35 904.65 848.3 905.85 846.4306640625 906.3875 844.7 907.55 835.8103515625 906.256640625 827.45 904.6 796.05 898.45 769.3 886.95 740 874.4 717.5 855.9 711.95 851.35 704.6 844.55 696.2 836.65 692 832.75 689.35 830.25 686.45 829.4 682.95 828.4 681.35 830.7 679.15 833.95 683.9 839.25
L 705.2 863.4
Q 714.55 874 719.45 879.1 727.6 887.6 734.95 893.45 741.082421875 898.3681640625 748.15 902.7 750.4703125 906.1828125 751.6 908.2 753.5 911.55 755.95 917.5 758.05 922.7 759.2 924.95 759.9 926.25 761.65 929.25 763.3 932 764.05 933.55 764.95 935.35 765.95 938 766.5 939.55 767.6 942.6 771.9 954.3 779 964.65 786.15 975.05 795.45 983.3 798.15 985.7 800.25 986.8 803.15 988.35 805.8 988.15 808.45 987.95 811.15 986 812.95 984.65 815.45 981.85 834.97890625 960.0412109375 851.95 933.65 877.284375 936.3583984375 919.1 937.4 961.35 938.4 988.05 937.1 1025.8 935.2 1056.15 928.25 1068.8056640625 925.3384765625 1082 921.1 1082.133984375 921.548046875 1082.3 922 1082.9 923.55 1084.25 926.3
L 1091.35 940.65
Q 1095.65 949.4 1098.2 953.8 1102.3 960.9 1106.6 965.9 1111.8 971.85 1117.9 975.5 1124.7 979.55 1131.75 980.15 1139.75 980.9 1145.2 977.1 1147.85 975.25 1150.1 971.95 1151.7 969.65 1153.65 965.6 1158 956.65 1162.3 945.05 1165 937.75 1169.6 923.9 1172.95 913.95 1174.55 908.25 1177 899.5 1177.95 892.2 1178.576953125 887.4255859375 1178.95 876.4 1202.811328125 862.6853515625 1235.35 842.45 1240.2 839.45 1242.6 837.5 1246.4 834.45 1248.35 831.05 1250.65 827.05 1250.2 822.5 1249.7 817.65 1246.25 815.2 1242.5 812.6 1236.9 813.95
M 1151.25 891.7
L 1146.75 905.85
Q 1141.75 921.5 1139.1 929.05 1134.55 941.85 1129.95 951.65 1128.2 951 1126.5 949.45 1125.5 948.5 1123.65 946.3 1107.7234375 926.8447265625 1097.35 915.8 1122.2130859375 906.6169921875 1148.9 892.95 1150.0537109375 892.3568359375 1151.25 891.7
M 798.35 962.85
Q 792.5 957.1 787.05 946.7 781.3 934.6 778.15 928.75 775.855859375 924.4765625 768.7 913.35 776.7587890625 916.86484375 785.7 919.85 805.5150390625 926.4779296875 829.15 930.5 818.19375 947.7888671875 803.7 962.7 802.1 964.3 800.95 964.3 799.7 964.3 798.35 962.85
M 1720.65 867.25
Q 1711.65 864 1704 866.55 1697.45 868.75 1692 875.3 1688.1 879.95 1683.75 888.35 1667.1 920.55 1649.25 975.35 1644.4 990.25 1634.9 1020.15 1626.4 1046.05 1619.2 1064.4 1617 999.85 1599.95 937.95 1597.05 927.25 1592.25 920.65 1586.05 912.2 1577.8 912.45 1571.85 912.6 1566.3 917.55 1562.3 921.1 1557.8 928.05 1532.75 966.65 1511.4 1020.15 1498.45 1052.6 1477.15 1118 1450.2 1015.65 1403.2 921.3 1401.05 917 1399.65 914.8 1397.4 911.3 1394.85 909.2 1391.8 906.7 1388.1 906.05 1384.1 905.35 1381.05 907.15 1375.75 910.35 1376.3 918.25 1376.75 924.45 1380.45 932 1409.9 991.8 1429.7 1055.65 1449.55 1119.55 1459.1 1185.5 1460.75 1196.85 1464.4 1203.85 1469.3 1213.15 1477.55 1213.9 1482.25 1214.35 1486.85 1211.55 1491.05 1208.95 1493.85 1204.55 1496.2 1200.9 1497.85 1195.55 1498.7 1192.75 1500.25 1185.95 1523.45 1080.7 1570.7 983.7 1583.15 1067.95 1582.1 1152.55 1582 1164.9 1582.6 1170.5 1583.65 1180.45 1587.35 1187.45 1591.7 1195.7 1600.3 1199.65 1609.35 1203.75 1617 1199.8 1622.2 1197.1 1625.85 1190.7 1628.25 1186.45 1630.95 1178.3
L 1717.2 918.05
Q 1732.1 946.5 1743.65 997.1 1746.8 1010.8 1752.85 1038.25 1758.45 1061.95 1764.15 1078.7 1766.4 1085.45 1768.55 1089.6 1771.45 1095.35 1775.2 1099 1779.55 1103.3 1785.35 1104.75 1791.5 1106.3 1796.5 1103.75 1804.2 1099.8 1805.35 1088.85 1806.25 1080.55 1803.35 1069.1
L 1785.15 996.15
Q 1780.1 975.95 1777.4 965.9 1772.95 949.15 1768.7 935.95 1762.45 916.5 1755.9 903.8 1747.2 887 1735.5 876.5 1728.35 870.1 1720.65 867.25
M 952.4 705.9
Q 953 713.2 962.2 720.35 971.05 727.25 983.05 732.35 992.95 736.55 1006.05 739.9 1053.25 752 1097.55 745.25 1120.75 741.75 1141.95 733.05 1163.85 724.05 1181.85 710.2 1185.3 707.55 1192.8 701.4 1199.8 695.55 1203.75 692.65 1208.8 688.85 1210.3 687.5 1213.75 684.4 1215.2 681.1 1217.75 675.45 1214.85 669.2 1211.9 663 1205.95 661.3 1199.35 659.4 1191.6 663.65 1186.85 666.25 1178.85 673.25 1142.45 705 1093.55 716.05 1044.65 727.1 998.15 714.15 988.9 711.6 982.4 708.55 974.15 704.75 968.55 699.45 966.65 697.7 966.2 697.3 964.75 696.1 963.5 695.6 959.4 694.05 955.7 697.7 952.05 701.25 952.4 705.9
M 683.8 720.3
Q 670.5 715.25 651.45 703.15 626.1 687 620.15 683.8 615.85 681.55 612.35 681.05 607.85 680.5 605.4 683.1 603.85 684.8 603.6 687.35 603.4 689.7 604.35 692.05 605.1 694 606.75 696.1 607.8 697.4 609.95 699.65 619.25 709.45 624.8 714.45 635.4 724 650.35 733.3 660.35 739.55 678.1 748.95 685.35 752.8 689.3 754.65 695.55 757.7 700.75 759.6 725.9 768.65 756.65 764.4 780.65 761.05 810.85 748.6 818 745.65 821.95 743.2 827.75 739.6 830.8 735 833.3 731.2 833.95 726.55 834.6 721.9 833.15 717.65 831.7 713.3 828.3 710.1 824.8 706.85 820.4 705.85 815.35 704.7 809 706.55 805.4 707.6 797.9 711 769.15 723.95 741.2 726.9 709.85 730.2 683.8 720.3
M 784.9 784.9
Q 785.45 787.9 787.65 791 798.95 806.95 816.8 818.15 833.65 828.75 853.85 833.5 890.15 842 933.5 831.5 959.15 825.3 977.45 814.6 987.4 808.9 992.25 802.75 995.35 798.8 996.75 794.35 998.35 789.55 997.65 785.05 996.9 780.2 993.55 776.5 990.15 772.7 985.55 772 980.05 771.15 973.7 775.05 971.6 776.3 963.2 783.1 950.4 793.35 930.8 799.15 917.9 803 894.6 806.5 881.95 808.4 875 808.85 864.15 809.6 855.45 808.2 849.85 807.3 843.05 805.1 839.05 803.85 831 800.8 819.25 796.35 813.55 793.55 804.1 788.95 797.9 783.35 794.6 780.45 792.35 779.4 788.9 777.8 786.6 779.55 784.25 781.3 784.9 784.9
M 1399.85 1513.9
Q 1395.1 1512 1386.1 1510.3 1259.9 1486.05 1166.25 1450.05 1051.5 1405.95 970.05 1339.15 925.9 1302.95 884.05 1253.9 848.1 1211.8 811.1 1156.8 784.3 1116.9 746.5 1054.1 689.1 958.65 683.8 950.1 682.2 947.45 681 946 679.25 943.9 677.3 942.9 675.0876953125 941.79375 672.65 942.25 671.6333984375 938.6357421875 669 935.25 663.75 928.45 656 927.65 650.75 927.1 645.4 929.4 640.45 931.5 636.4 935.6 632.85 939.2 629.9 944.35 627.6 948.4 625.2 954.25 616.8 975.05 613.35 1002.95 611.25 1019.85 610 1053.5
L 609.1 1078.4
Q 608.15 1106.05 608.05 1119.2 607.982421875 1126.879296875 608.1 1134 595.633984375 1119.0060546875 585.75 1104.9 572.8 1085.6 566 1076.25 554.15 1060.05 542.9 1050.55 534 1043.1 526.35 1040.95 521.5 1039.6 516.75 1040.15 511.65 1040.7 507.85 1043.4 501.85 1047.6 499.6 1056.55 498 1062.7 497.95 1073.1 497.5 1123.25 499.3 1151.65 500.78359375 1175.00859375 504.05 1195.65 460.8478515625 1151.5330078125 426.4 1099.95 421.05 1091.95 418.25 1088.6 413.3 1082.6 408 1079.5 401.75 1075.8 394.55 1076.3 386.85 1076.85 382.75 1082.1 380.55 1084.9 379.45 1089.2 378.75 1092.1 378.3 1097.15 375.85 1126.4 379.35 1172.95 380.35 1185.6 382.4 1210.9 384 1232.95 384.3 1248.9 384.3845703125 1253.6388671875 384.5 1262.4 383.5203125 1261.639453125 382.55 1260.75 379.35 1257.8 374.9 1251.75
L 309.3 1162.75
Q 293.75 1141.55 285.15 1130.9 271.2 1113.65 258.3 1101.45 256.4 1099.7 255.4 1098.95 253.7 1097.7 252.05 1097.2 250.15 1096.65 248.25 1097.15 246.25 1097.7 245.3 1099.25 244.35 1100.9 244.65 1104.5 246.05 1117.45 251.8 1132.25 255.85 1142.8 264.05 1158.45 290.75 1209.4 324.8 1256.5 336.85 1273.1 345.7 1282.75 351.7 1289.25 359.8 1296.6 365.05 1301.4 374.7 1309.6 379.4 1313.6 382 1315.5 386.2 1318.55 390.05 1320.2 394.6 1322.2 399.2 1322.35 404.2 1322.55 408.2 1320.5 419.25 1314.8 420.2 1293.45 420.4 1288.6 420.15 1285.55 419.85 1281.2 418.65 1277.85 417.3 1273.95 414.7 1271.05 414.430859375 1270.751953125 414.15 1270.45 415.7142578125 1244.838671875 412.5 1206.1 409.55 1170.35 409.45 1169 407.95 1147.8 408.2 1131.9 427.8 1164.65 459.6 1200.3 479.05 1222.1 519.55 1262 524.45 1266.85 527.45 1269.05 532.25 1272.5 536.85 1273.3 544.05 1274.6 550.45 1269.65 556.85 1264.65 557.35 1257.35 557.85 1250 552.35 1242.4 549.75390625 1238.7943359375 544.8 1234.1 544.8490234375 1232.7013671875 544.8 1231.2 544.7 1228.25 544 1222.9 537.85 1175.25 536.25 1157.55 532.9 1120.8 534.3 1092 557.95 1130.7 587.1 1165.1 590.1 1168.65 596.05 1175.65 601.15 1181.75 604.55 1186.5 610.95 1195.5 612.75 1197.6 617.85 1203.4 623.4 1205.35 628.25 1207.05 633.5 1206 638.7 1204.95 642.5 1201.5 646.25 1198.1 647.8 1192.95 649.4 1187.85 648.15 1182.9 647.05 1178.6 643.75 1174.1 642.6623046875 1172.6408203125 640.85 1170.6 641.4328125 1168.1271484375 641.8 1165.3 642.9 1156.55 643.5 1145.45 643.85 1139.45 644.3 1125.55 646.25 1074.05 650.65 1023.9 652.25 1005.3 654.4 994.75 657.7 978.9 664.3 967.55 665.9580078125 964.9607421875 667.2 962.95 671.080078125 972.9236328125 676.2 984.8 679.65 992.85 687.35 1010.1
L 715.1 1072.25
Q 720.4 1084.15 723.35 1089.95 727.0615234375 1097.2080078125 732.25 1105.7 728.7345703125 1110.1828125 727.75 1115.95 726.8 1121.4 727.95 1127.85 728.85 1132.95 731.25 1139.45 740.8 1165.6 765.6 1197.15 771.2 1204.3 787.3 1223.6 801.1 1240.15 808.65 1250.2 817.15 1261.5 831.05 1282.6 846.3 1305.8 853.1 1315.25 882.9 1356.75 924.1 1392.85 962.5 1426.5 1009.65 1454.5 1035.95 1470.1 1070.3 1486.95 1090.9 1497.05 1132.6 1516.15 1160.4 1528.9 1174.45 1534.75 1197.9 1544.6 1217.35 1550.6 1222.6 1552.2 1261.15 1562.45 1287.8 1569.5 1304.2 1576.45 1312.85 1580.15 1327.95 1587.8 1344.75 1596.3 1351.6 1599.4 1379.65 1612.1 1401.05 1611.55 1414.55 1611.2 1425.05 1604.55 1436.75 1597.1 1437.75 1585.55 1438.55 1576.35 1430.55 1563.75 1426 1556.9 1423.8 1553.4 1419.95 1547.35 1418.25 1542.6 1418.1 1542.25 1415.25 1531.85 1413.5 1525.4 1410.9 1521.85 1407.2 1516.8 1399.85 1513.9 Z"/>
</g>
</defs>

<g transform="matrix( 1, 0, 0, 1, 0,0) ">
<use xlink:href="#Layer1_0_FILL"/>
</g>

<g transform="matrix( 1, 0, 0, 1, 0,0) ">
<use xlink:href="#Layer0_0_FILL"/>
</g>
</svg>
