
<svg xmlns="http://www.w3.org/2000/svg" version="1.1" xmlns:xlink="http://www.w3.org/1999/xlink" preserveAspectRatio="none" x="0px" y="0px" width="2000px" height="2000px" viewBox="0 0 2000 2000">
<defs>
<g id="Layer1_0_FILL">
<path fill="#000000" stroke="none" d="
M 1841.2 955
Q 1827.1 947.05 1810.45 945.9 1788.55 944.45 1767.35 954.35 1746.45 964.05 1731.25 982.55 1716.25 1000.7 1708.6 1025.05 1701.05 1049.1 1702 1074.4 1702.15 1078.35 1702 1080 1701.8 1083.15 1700.6 1085.25 1699.05 1088.05 1695.6 1089.55 1693.4 1090.5 1689.1 1091.25 1651.2 1097.6 1614.1 1108.75 1598.25 1081.2 1579 1054.45 1530.5 987 1461.55 926.25 1430.75 899.2 1406.1 883.15 1346 844 1275.6 836.45 1204.6 828.85 1140.1 855.3 1112.75 866.55 1089.55 882.8 1064.8 900.2 1046 922.4 1036.8 933.3 1023.55 952.3 1005.55 978.2 1001.9 983.1 989.3 1000 978.25 1010.65 964.6 1023.85 950 1030.85 935 1038.05 916 1039.9 900.55 1041.4 880.7 1039.45 835.6 1035 792.95 1017.2 783.45 1013.25 768.05 1005.9 749.1 996.85 743.2 994.2 713.65 980.9 692 977.45 669.7 973.9 644.4 978.05 622.65 981.55 597.7 990.85 548.6 1009.25 505.35 1041.95 474.25 1065.55 455.8 1090.55 436.2 1117.05 420.5 1159.05 402.1 1208.2 391.55 1268.75 382.95 1318.45 378.55 1382.85 375.1 1433.85 375.9 1472.85 376.1 1481.9 376.55 1490.75
L 314.85 1509.7
Q 311.2 1510.8 309.05 1511 305.85 1511.25 303.55 1509.9 301.05 1508.4 299.35 1504.75 298.5 1502.95 296.9 1497.85 289.45 1473.65 270.85 1456.35 252.55 1439.3 229.9 1434.8 207.7 1430.35 184.95 1438.4 162.65 1446.25 145.65 1463.95 129.1 1481.2 119.35 1505.7 109.85 1529.55 108.6 1555.8 107.85 1572 110.6 1585.8 113.75 1601.45 121.3 1612.7 133.3 1630.5 155.05 1636.4 175.3 1641.85 196.05 1635.25 179.7 1670.85 173.1 1710.05 167.9 1740.7 171.85 1762.9 174.25 1776.55 180.15 1787.75 186.5 1799.8 195.85 1807.05 212.5 1820 235.1 1815.6 256.55 1811.45 272 1794.3 298 1765.5 303.45 1708.6 304.35 1699.95 305.05 1696.6 306.4 1690.05 309.3 1685.9 311.8 1682.3 316.2 1679.5 319 1677.75 324.5 1675.25
L 403.75 1639.5
Q 404.55 1642.3 405.4 1645.15 418.95 1690.8 429.4 1720.75 443.7 1761.45 458.9 1793.6 496.25 1872.45 547.4 1917.3 573.2 1939.9 609.25 1959.45 686.75 2001.25 756.7 1999.95 796.3 1999.3 831.9 1984.5 869.55 1968.85 896.65 1939.9 907.75 1928.05 919.4 1911.15 926.6 1900.8 939.65 1879.9 953 1858.55 959.9 1848.6 971.55 1831.6 982.5 1819.75 991.3 1810.2 1003.4 1799.8 1010.65 1793.5 1025.55 1781.7 1036.3 1773.25 1041.55 1769.3 1050.55 1762.5 1058 1757.6 1088.4 1737.95 1117.95 1733.6 1147.55 1729.3 1181.75 1739.75 1208.7 1748 1242.45 1766.9 1261.9 1777.8 1300.4 1800.65 1334.35 1819.65 1360.55 1827.5 1387.95 1835.75 1416.6 1835.75 1445.25 1835.75 1472.7 1827.55 1499.3 1819.6 1532.6 1800.65 1563.35 1783.3 1584.65 1765.15 1627.95 1728.15 1656.8 1668.85 1683.4 1614.2 1694.25 1548.25 1704.15 1487.8 1700.2 1426.6 1699 1408.1 1696.35 1386.55 1694.2 1369.5 1690.55 1346.85 1684.4 1307.85 1678.2 1278.9 1672.9 1254.4 1666.75 1232.8
L 1701.4 1225.9
Q 1706.4 1224.95 1709 1224.85 1713.2 1224.65 1716.35 1225.95 1719.95 1227.45 1723.3 1231.35 1725.25 1233.65 1728.8 1239 1743.2 1261.05 1756.55 1275.9 1773.05 1294.15 1790.45 1304.65 1810.15 1316.5 1831.35 1318.1 1854.1 1319.85 1872.35 1309.1 1894.85 1295.75 1905.45 1266.4 1915.75 1237.85 1909.6 1208.8 1903.65 1180.95 1884.45 1158.85 1866 1137.55 1840.9 1127.85 1855.95 1107.85 1864.75 1083 1873.5 1058.2 1874.9 1031.9 1876.65 998.65 1864.75 978.05 1856.4 963.55 1841.2 955
M 1830.35 979.8
Q 1837.5 983.8 1842 989.95 1848.25 998.5 1850.05 1011.6 1851.4 1022 1850 1036.05 1847.55 1060.35 1839.6 1078.95 1830.4 1100.75 1814.9 1111.55 1814.5 1111.8 1807.15 1116.5 1802.5 1119.5 1799.75 1122.1 1796.1 1125.6 1794.2 1130.05 1792.1 1135.05 1793 1139.7 1794.25 1146.5 1801.15 1150.8 1805.6 1153.6 1814.55 1156.2 1833.85 1161.8 1848.4 1171.9 1865.2 1183.55 1873.95 1200.2 1883.65 1218.5 1881.1 1240.35 1878.4 1263 1863.7 1274.15 1854.5 1281.15 1842.15 1281.95 1830.75 1282.65 1819.4 1278 1809.45 1273.9 1799.2 1265.75 1791.15 1259.4 1781.3 1249.1 1772.45 1239.85 1766.4 1232.1 1758.85 1222.4 1753.9 1212.8 1749.4 1203.2 1746.8 1198.65 1742.3 1190.9 1737.1 1187.4 1731.35 1183.55 1722.95 1183.45 1717.5 1183.4 1707.8 1185.25
L 1654.7 1195.7
Q 1643.15 1164.1 1627.5 1133.45 1631.7 1132.6 1637.7 1131.2
L 1710.25 1114.05
Q 1715.5 1112.85 1718.35 1111.55 1722.65 1109.55 1725 1106.2 1727.85 1102 1728 1095.05 1728 1091.9 1727 1082.65 1724.55 1061 1729.85 1040 1735.35 1018.45 1747.8 1002.65 1760.6 986.45 1778.95 978.8 1797.65 970.95 1816.1 974.7 1824.05 976.25 1830.35 979.8
M 1423.15 940.05
Q 1433.55 948.65 1446.85 960.85 1509.85 1018.3 1552.5 1076 1601.2 1141.85 1626.15 1211.4 1624.8 1214.6 1624.8 1218 1624.85 1223.9 1629 1228.75 1630.85 1231 1633.2 1232.5 1637.9 1248 1642.15 1265.2 1647.6 1287.2 1652.95 1315.1 1666.3 1385.2 1668.7 1441.35 1671.65 1509.9 1659 1567.05 1650.45 1606 1634.3 1641.9 1621.3 1670.8 1604.65 1694.45 1586.9 1719.8 1565.7 1738.15 1550.35 1751.4 1530.45 1763.2 1514.35 1772.8 1492.55 1782.9 1475.3 1790.95 1462.5 1795.45 1445.85 1801.3 1431.3 1803.3 1397.55 1807.9 1357.5 1794.6 1329.3 1785.2 1287.2 1762.3 1257.55 1746.1 1253 1743.7 1233.4 1733.35 1218.2 1726.75 1178.5 1709.6 1145.45 1708.25 1089.7 1705.9 1025.35 1745.6 987.5 1769.05 960.15 1798 944.5 1814.65 923 1844.15 893.5 1884.55 887.45 1892.1 866.6 1918.35 846.65 1934.65 822.45 1954.5 797.65 1961.65 783.55 1965.7 766.8 1966.35 752.95 1966.85 735.5 1965 681.7 1959.35 634.25 1937.2 583.85 1913.65 546.95 1874.35 509.95 1834.85 481.35 1773.05 460.45 1727.8 437.95 1655.25 433.4 1640.6 429.65 1627.8
L 464.9 1611.9
Q 467.3 1627.6 470.1 1641.65 482.65 1704.45 508.7 1764.2 522.1 1795.1 536.9 1819.5 553.8 1847.25 573.2 1867.85 594.5 1890.45 619.1 1904.55 645.4 1919.55 672.45 1923 701.1 1926.6 728.05 1916.55 756.25 1906.1 775.1 1883.4 787.1 1868.95 795.5 1849.35 803.15 1831.5 807.45 1810.15 811.15 1791.7 812.7 1769.15 813.9 1752.45 814.05 1727.7 815.1 1620.55 802.7 1514.35 796.65 1462.2 788.2 1418.85 778.45 1368.75 764.7 1325.8 749.55 1278.35 729 1237.8 706.9 1194.15 679.1 1159.55 663.6 1140.2 648.9 1127.85 631.15 1112.8 612.95 1106.45 596.9 1100.9 579.45 1102.05 562.6 1103.2 546.45 1110.55 530.4 1117.85 517.2 1130.2 503.65 1142.95 495 1159.35 488.8 1170.95 483.75 1186.6 480.35 1197.2 475.75 1215.45 465.15 1257.55 459.3 1289.75 451.95 1330.15 449.95 1365.35 448.35 1393.45 449.65 1428.7 450.2 1443.25 451.75 1467.6
L 404.2 1482.25
Q 403.65 1465.5 403.9 1447.6 404.5 1410.95 409.2 1358.9 413.55 1311.45 418.85 1279.1 425.85 1236 437 1201.55 449.9 1161.7 469.4 1130 490.85 1095.25 518.6 1073 529.3 1064.45 542.75 1056.4 553.7 1049.85 568.3 1042.6 603.3 1025.15 631.25 1018.35 666.55 1009.8 696.45 1016.2 714.3 1020 739.05 1031.85 742.2 1033.4 759.75 1042.1 772.3 1048.4 780.55 1052 824.35 1071.2 878.65 1076.1 906.65 1078.65 927.95 1075.75 954.45 1072.2 974.4 1060.05 998.05 1045.6 1023.8 1009.8 1030.9 999.85 1044.85 979.4 1057.5 961.25 1066.95 950.15 1109.4 900.4 1174.45 881.6 1235.9 863.85 1299.9 878.25 1353.65 890.4 1398.3 921.15 1410.15 929.25 1423.15 940.05
M 517.2 1154.85
Q 540.25 1131.2 562.3 1124.8 580.3 1119.55 600.35 1124.5 618.95 1129.1 635.95 1141.55 651 1152.6 665.2 1169.9 676.8 1184.05 689.3 1204.3 750.25 1303.55 776.5 1445.1 787.5 1504.3 793 1574.6 797.45 1630.9 799 1705.5 799.65 1736.5 798.9 1754.5 797.85 1781.5 793.5 1802.9 788.4 1828.15 778.15 1848.6 766.8 1871.2 750.45 1885.4 728.4 1904.5 698.05 1907.95 669.25 1911.25 641.4 1899.75 615.9 1889.25 592.4 1867.35 571.55 1847.95 552.85 1820.15 503.55 1746.55 481.35 1636.35 478.5 1622.15 476.05 1606.85
L 557.65 1570
Q 565.6 1566.4 569.55 1563.85 575.85 1559.8 579.35 1554.65 582.55 1549.95 584.25 1543.25 585.6 1537.85 586.1 1530.55 587.9 1505.45 580.95 1481.8 576.45 1466.65 568.55 1456.4 559.4 1444.4 547.75 1442.3 542.2 1441.3 535.25 1442.5 530.95 1443.3 522.95 1445.75
L 461.95 1464.5
Q 461.15 1450.65 460.45 1435.55 459.45 1415.25 459.2 1403.5 458.75 1385.8 459.25 1371.45 460.25 1340.4 466.45 1302.15 470.15 1279.3 479.5 1233.7 482.55 1218.6 484.6 1210.95 487.95 1198.45 492.3 1189.3 500.25 1172.25 517.2 1154.85
M 130.05 1575.55
Q 128.1 1563.15 130 1548.4 133.25 1524.2 144.35 1503.8 156.05 1482.5 173.6 1470.45 191.85 1457.9 213.7 1458 236.1 1458.1 252.9 1471.7 263.05 1479.95 270.7 1492.85 277.75 1504.7 281.95 1519.35 284 1526.5 285.15 1529.05 287.4 1534.25 290.8 1536.45 294.2 1538.7 299.1 1538.35 302.4 1538.1 307.85 1536.35
L 378.1 1514.5
Q 378.15 1515.25 378.25 1516 381.05 1514.75 383.15 1513.85 394.55 1508.95 404.05 1506.35 404.85 1506.15 406.1 1505.75
L 453.35 1491.05
Q 453.35 1491.1 453.35 1491.2 455.95 1490.5 459.55 1489.65 461.7 1489.15 463.45 1488.7 463.45 1488.3 463.4 1487.9
L 540.35 1463.95
Q 550.1 1474.05 555.55 1488.1 561.05 1502.2 561.05 1517.2 561.05 1530.1 555.9 1536.55 553.8 1539.25 550.3 1541.45 548.1 1542.75 543.65 1544.8
L 471.75 1577.35
Q 471.7 1577.15 471.7 1577 466.45 1579.5 461 1582.15 461 1582.2 461 1582.25
L 444.95 1589.55
Q 444 1589.95 443.05 1590.4 441.6 1591.05 440 1591.8
L 421.9 1599.95 421.9 1599.9
Q 410.7 1604.9 396.1 1611.3 395.95 1611.35 395.8 1611.4 395.85 1611.55 395.9 1611.75
L 318.2 1646.9
Q 307.45 1651.7 302 1655.2 293.35 1660.65 288.45 1667.6 283.05 1675.25 280.25 1687.4 278.65 1694.15 276.8 1709.5 275.05 1723.9 273.15 1733.2 270.5 1746 266.35 1755.85 261.5 1767.25 254.25 1775.55 246.3 1784.55 236.7 1788.25 229.2 1791.15 221.55 1790.35 213.4 1789.45 207.4 1784.45 198.7 1777.35 195.4 1763.1 192.75 1751.75 193.6 1736.25 195.35 1704.9 205.4 1675.1 215.45 1645.3 232.6 1620.65 237.85 1613.05 239.7 1606.9 242.15 1598.55 237.9 1593.65 231.15 1585.8 214.9 1597.5 194.5 1612.25 177 1614.05 166.4 1615.25 156.7 1611.55 146.35 1607.7 139.7 1599.35 132.35 1590 130.05 1575.55
M 645.85 1065.05
Q 645.5 1067.9 647.3 1069.1 662.35 1069.7 678.1 1080.75 689.5 1088.65 704.35 1104.75 736.5 1139.35 764.75 1178.7 778.95 1198.5 788.7 1215 800.7 1235.2 808.45 1254.35 814.5 1269.3 819.85 1288.2 823.75 1302.05 828.6 1323.05 854.75 1437.55 862.75 1546.8 871.3 1664.4 858.65 1773.2 856.9 1788.6 856.75 1795.85 856.55 1808.5 859.8 1817.85 865.75 1813.95 869.15 1804.95 871.5 1798.65 873.15 1787.9 886 1703.25 882.45 1604.65 879.45 1522.5 864.4 1421.4 854 1351.9 841.45 1306.3 824.5 1244.8 797.7 1200.8 781.95 1174.85 758 1147.5 741.55 1128.65 712.65 1099.9 696.4 1083.8 686.45 1076.2 671.1 1064.45 656.6 1060.55 651 1058.9 648.1 1060.95 646.2 1062.25 645.85 1065.05 Z"/>

<path fill="#FFFFFF" stroke="none" d="
M 130 1548.4
Q 128.1 1563.15 130.05 1575.55 132.35 1590 139.7 1599.35 146.35 1607.7 156.7 1611.55 166.4 1615.25 177 1614.05 194.5 1612.25 214.9 1597.5 231.15 1585.8 237.9 1593.65 242.15 1598.55 239.7 1606.9 237.85 1613.05 232.6 1620.65 215.45 1645.3 205.4 1675.1 195.35 1704.9 193.6 1736.25 192.75 1751.75 195.4 1763.1 198.7 1777.35 207.4 1784.45 213.4 1789.45 221.55 1790.35 229.2 1791.15 236.7 1788.25 246.3 1784.55 254.25 1775.55 261.5 1767.25 266.35 1755.85 270.5 1746 273.15 1733.2 275.05 1723.9 276.8 1709.5 278.65 1694.15 280.25 1687.4 283.05 1675.25 288.45 1667.6 293.35 1660.65 302 1655.2 307.45 1651.7 318.2 1646.9
L 395.9 1611.75
Q 395.85 1611.55 395.8 1611.4 395.95 1611.35 396.1 1611.3 410.7 1604.9 421.9 1599.9
L 421.9 1599.95 440 1591.8
Q 441.6 1591.05 443.05 1590.4 444 1589.95 444.95 1589.55
L 461 1582.25
Q 461 1582.2 461 1582.15 466.45 1579.5 471.7 1577 471.7 1577.15 471.75 1577.35
L 543.65 1544.8
Q 548.1 1542.75 550.3 1541.45 553.8 1539.25 555.9 1536.55 561.05 1530.1 561.05 1517.2 561.05 1502.2 555.55 1488.1 550.1 1474.05 540.35 1463.95
L 463.4 1487.9
Q 463.45 1488.3 463.45 1488.7 461.7 1489.15 459.55 1489.65 455.95 1490.5 453.35 1491.2 453.35 1491.1 453.35 1491.05
L 406.1 1505.75
Q 404.85 1506.15 404.05 1506.35 394.55 1508.95 383.15 1513.85 381.05 1514.75 378.25 1516 378.15 1515.25 378.1 1514.5
L 307.85 1536.35
Q 302.4 1538.1 299.1 1538.35 294.2 1538.7 290.8 1536.45 287.4 1534.25 285.15 1529.05 284 1526.5 281.95 1519.35 277.75 1504.7 270.7 1492.85 263.05 1479.95 252.9 1471.7 236.1 1458.1 213.7 1458 191.85 1457.9 173.6 1470.45 156.05 1482.5 144.35 1503.8 133.25 1524.2 130 1548.4
M 1842 989.95
Q 1837.5 983.8 1830.35 979.8 1824.05 976.25 1816.1 974.7 1797.65 970.95 1778.95 978.8 1760.6 986.45 1747.8 1002.65 1735.35 1018.45 1729.85 1040 1724.55 1061 1727 1082.65 1728 1091.9 1728 1095.05 1727.85 1102 1725 1106.2 1722.65 1109.55 1718.35 1111.55 1715.5 1112.85 1710.25 1114.05
L 1637.7 1131.2
Q 1631.7 1132.6 1627.5 1133.45 1643.15 1164.1 1654.7 1195.7
L 1707.8 1185.25
Q 1717.5 1183.4 1722.95 1183.45 1731.35 1183.55 1737.1 1187.4 1742.3 1190.9 1746.8 1198.65 1749.4 1203.2 1753.9 1212.8 1758.85 1222.4 1766.4 1232.1 1772.45 1239.85 1781.3 1249.1 1791.15 1259.4 1799.2 1265.75 1809.45 1273.9 1819.4 1278 1830.75 1282.65 1842.15 1281.95 1854.5 1281.15 1863.7 1274.15 1878.4 1263 1881.1 1240.35 1883.65 1218.5 1873.95 1200.2 1865.2 1183.55 1848.4 1171.9 1833.85 1161.8 1814.55 1156.2 1805.6 1153.6 1801.15 1150.8 1794.25 1146.5 1793 1139.7 1792.1 1135.05 1794.2 1130.05 1796.1 1125.6 1799.75 1122.1 1802.5 1119.5 1807.15 1116.5 1814.5 1111.8 1814.9 1111.55 1830.4 1100.75 1839.6 1078.95 1847.55 1060.35 1850 1036.05 1851.4 1022 1850.05 1011.6 1848.25 998.5 1842 989.95 Z"/>

<path fill="#FF3333" stroke="none" d="
M 562.3 1124.8
Q 540.25 1131.2 517.2 1154.85 500.25 1172.25 492.3 1189.3 487.95 1198.45 484.6 1210.95 482.55 1218.6 479.5 1233.7 470.15 1279.3 466.45 1302.15 460.25 1340.4 459.25 1371.45 458.75 1385.8 459.2 1403.5 459.45 1415.25 460.45 1435.55 461.15 1450.65 461.95 1464.5
L 522.95 1445.75
Q 530.95 1443.3 535.25 1442.5 542.2 1441.3 547.75 1442.3 559.4 1444.4 568.55 1456.4 576.45 1466.65 580.95 1481.8 587.9 1505.45 586.1 1530.55 585.6 1537.85 584.25 1543.25 582.55 1549.95 579.35 1554.65 575.85 1559.8 569.55 1563.85 565.6 1566.4 557.65 1570
L 476.05 1606.85
Q 478.5 1622.15 481.35 1636.35 503.55 1746.55 552.85 1820.15 571.55 1847.95 592.4 1867.35 615.9 1889.25 641.4 1899.75 669.25 1911.25 698.05 1907.95 728.4 1904.5 750.45 1885.4 766.8 1871.2 778.15 1848.6 788.4 1828.15 793.5 1802.9 797.85 1781.5 798.9 1754.5 799.65 1736.5 799 1705.5 797.45 1630.9 793 1574.6 787.5 1504.3 776.5 1445.1 750.25 1303.55 689.3 1204.3 676.8 1184.05 665.2 1169.9 651 1152.6 635.95 1141.55 618.95 1129.1 600.35 1124.5 580.3 1119.55 562.3 1124.8 Z"/>

<path fill="#9A5F25" stroke="none" d="
M 1446.85 960.85
Q 1433.55 948.65 1423.15 940.05 1410.15 929.25 1398.3 921.15 1353.65 890.4 1299.9 878.25 1235.9 863.85 1174.45 881.6 1109.4 900.4 1066.95 950.15 1057.5 961.25 1044.85 979.4 1030.9 999.85 1023.8 1009.8 998.05 1045.6 974.4 1060.05 954.45 1072.2 927.95 1075.75 906.65 1078.65 878.65 1076.1 824.35 1071.2 780.55 1052 772.3 1048.4 759.75 1042.1 742.2 1033.4 739.05 1031.85 714.3 1020 696.45 1016.2 666.55 1009.8 631.25 1018.35 603.3 1025.15 568.3 1042.6 553.7 1049.85 542.75 1056.4 529.3 1064.45 518.6 1073 490.85 1095.25 469.4 1130 449.9 1161.7 437 1201.55 425.85 1236 418.85 1279.1 413.55 1311.45 409.2 1358.9 404.5 1410.95 403.9 1447.6 403.65 1465.5 404.2 1482.25
L 451.75 1467.6
Q 450.2 1443.25 449.65 1428.7 448.35 1393.45 449.95 1365.35 451.95 1330.15 459.3 1289.75 465.15 1257.55 475.75 1215.45 480.35 1197.2 483.75 1186.6 488.8 1170.95 495 1159.35 503.65 1142.95 517.2 1130.2 530.4 1117.85 546.45 1110.55 562.6 1103.2 579.45 1102.05 596.9 1100.9 612.95 1106.45 631.15 1112.8 648.9 1127.85 663.6 1140.2 679.1 1159.55 706.9 1194.15 729 1237.8 749.55 1278.35 764.7 1325.8 778.45 1368.75 788.2 1418.85 796.65 1462.2 802.7 1514.35 815.1 1620.55 814.05 1727.7 813.9 1752.45 812.7 1769.15 811.15 1791.7 807.45 1810.15 803.15 1831.5 795.5 1849.35 787.1 1868.95 775.1 1883.4 756.25 1906.1 728.05 1916.55 701.1 1926.6 672.45 1923 645.4 1919.55 619.1 1904.55 594.5 1890.45 573.2 1867.85 553.8 1847.25 536.9 1819.5 522.1 1795.1 508.7 1764.2 482.65 1704.45 470.1 1641.65 467.3 1627.6 464.9 1611.9
L 429.65 1627.8
Q 433.4 1640.6 437.95 1655.25 460.45 1727.8 481.35 1773.05 509.95 1834.85 546.95 1874.35 583.85 1913.65 634.25 1937.2 681.7 1959.35 735.5 1965 752.95 1966.85 766.8 1966.35 783.55 1965.7 797.65 1961.65 822.45 1954.5 846.65 1934.65 866.6 1918.35 887.45 1892.1 893.5 1884.55 923 1844.15 944.5 1814.65 960.15 1798 987.5 1769.05 1025.35 1745.6 1089.7 1705.9 1145.45 1708.25 1178.5 1709.6 1218.2 1726.75 1233.4 1733.35 1253 1743.7 1257.55 1746.1 1287.2 1762.3 1329.3 1785.2 1357.5 1794.6 1397.55 1807.9 1431.3 1803.3 1445.85 1801.3 1462.5 1795.45 1475.3 1790.95 1492.55 1782.9 1514.35 1772.8 1530.45 1763.2 1550.35 1751.4 1565.7 1738.15 1586.9 1719.8 1604.65 1694.45 1621.3 1670.8 1634.3 1641.9 1650.45 1606 1659 1567.05 1671.65 1509.9 1668.7 1441.35 1666.3 1385.2 1652.95 1315.1 1647.6 1287.2 1642.15 1265.2 1637.9 1248 1633.2 1232.5 1630.85 1231 1629 1228.75 1624.85 1223.9 1624.8 1218 1624.8 1214.6 1626.15 1211.4 1601.2 1141.85 1552.5 1076 1509.85 1018.3 1446.85 960.85
M 647.3 1069.1
Q 645.5 1067.9 645.85 1065.05 646.2 1062.25 648.1 1060.95 651 1058.9 656.6 1060.55 671.1 1064.45 686.45 1076.2 696.4 1083.8 712.65 1099.9 741.55 1128.65 758 1147.5 781.95 1174.85 797.7 1200.8 824.5 1244.8 841.45 1306.3 854 1351.9 864.4 1421.4 879.45 1522.5 882.45 1604.65 886 1703.25 873.15 1787.9 871.5 1798.65 869.15 1804.95 865.75 1813.95 859.8 1817.85 856.55 1808.5 856.75 1795.85 856.9 1788.6 858.65 1773.2 871.3 1664.4 862.75 1546.8 854.75 1437.55 828.6 1323.05 823.75 1302.05 819.85 1288.2 814.5 1269.3 808.45 1254.35 800.7 1235.2 788.7 1215 778.95 1198.5 764.75 1178.7 736.5 1139.35 704.35 1104.75 689.5 1088.65 678.1 1080.75 662.35 1069.7 647.3 1069.1 Z"/>
</g>

<g id="Layer0_0_FILL">
<path fill="#000000" fill-opacity="0.2" stroke="none" d="
M 1689.8 1476.7
Q 1685.95 1472.25 1680.8 1471.9 1673.75 1471.5 1667.65 1478.85 1666.35 1480.35 1658.3 1493.15 1653.15 1501.3 1644.3 1508.9 1637.8 1514.4 1627 1521.4 1512.5 1595.3 1336.65 1609.45 1316.55 1611.05 1302.4 1611.2 1283.75 1611.45 1268.2 1609.5 1249.4 1607.15 1226.65 1600.55 1213.2 1596.65 1185.95 1587.2 1159.15 1577.85 1145.3 1573.9 1122.5 1567.35 1103.65 1565.15 1070.35 1561.3 1035.9 1568.65 1018.201953125 1572.4556640625 1001.25 1578.95 972.634765625 1588.123828125 947.55 1605.25 922.6220703125 1622.2740234375 905.6 1644.35 894.998046875 1655.5033203125 885.35 1667.85 884.4484375 1667.67421875 883.35 1667.7 879.25 1667.75 876.9 1670.7 874.9 1673.25 874.25 1677.25 873.89453125 1679.471875 873.85 1683.55 873.4767578125 1684.09921875 873.1 1684.65 870.7 1688.15 870.3 1691.7 869.85 1695.9 872.9 1697.15 873.29375 1697.311328125 873.7 1697.4 872.612109375 1738.072265625 864.1 1778.3 854.25 1824.75 835.1 1867.9 804.05 1937.65 757.3 1948.3 750.15 1949.65 746.6 1950.5 740.35 1951.9 736.45 1954.3 731.55 1957.3 729.35 1962.6 727.05 1968.25 729.75 1972.75 733 1978.1 742.85 1979.55 753.95 1981.25 767.3 1979.35 777.35 1977.95 791.4 1974 813.3 1967.85 829.8 1960.4 849.7 1951.35 864.3 1939.4 880.3 1926.35 895 1905.4 904.15 1892.4 919.45 1865.75 935.3 1838.1 943.7 1825.85 958.3 1804.6 973.85 1791.2 982.05 1784.15 993.3 1776.9 1000.45 1772.3 1014 1764.4 1038.3 1750.25 1049.75 1743.85 1069.8 1732.6 1086.2 1724.6 1098.5 1718.6 1106.85 1716.05 1118.55 1712.5 1128.5 1713.45 1133.95 1714 1142.5 1716.6 1153.25 1719.85 1156.4 1720.5 1159.45 1721.15 1175.45 1723.05 1187.05 1724.4 1193.85 1727.4 1198.45 1729.45 1204.65 1733.95 1214.8 1741.25 1214.95 1741.35 1225.5 1748.35 1242.2 1753.75 1251.75 1756.9 1271.25 1762.4 1288.85 1768 1311.3 1778.35 1324.4 1784.35 1350.25 1797.05 1362.8 1803.05 1370.5 1805.7 1381.95 1809.65 1391.75 1809.95 1398.35 1810.1 1406.4 1808.7 1411.65 1807.75 1420.75 1805.4 1448.9 1798.15 1472.7 1790.6 1515.85 1776.95 1544.8 1760.85 1581.9 1740.2 1603.5 1712 1613.75 1698.65 1622.7 1680.6 1629.3 1667.25 1637.35 1646.6 1646.25 1623.85 1661.05 1581.9 1664.75 1571.3 1665.85 1565.4 1667.5 1556 1665.25 1548.75 1663.14921875 1542.0748046875 1657.9 1537.5 1663.8130859375 1533.151171875 1668.45 1529.1 1680.75 1518.3 1687.95 1506.65 1694.9 1495.4 1694 1486.5 1693.5 1480.95 1689.8 1476.7
M 1835.3 1027.75
Q 1832.4 1030.55 1830.65 1035.2 1829.45 1038.35 1828.3 1043.95 1824.75 1060.8 1822.65 1067.45 1818.6 1080.35 1812.1 1088.7 1808.35 1093.55 1801.15 1099.9 1791.25 1108.6 1789.4 1110.45 1783.05 1116.9 1783.8 1122.15 1784.1 1124.25 1785.5 1126.15 1786.8 1127.9 1788.75 1129.05 1791.9 1131 1797.1 1131.55 1805.7 1132.45 1814.1 1129.6 1822.55 1126.8 1828.8 1120.9 1832.3 1117.6 1837.6 1110.55 1841.45 1105.4 1842.65 1103.7 1845.45 1099.8 1847.3 1096.6 1852.6 1087.5 1856.1 1075.35 1858.65 1066.3 1860.95 1052.7 1862.2 1045.3 1861.95 1040.6 1861.55 1033.9 1858.4 1029.6 1856.4 1026.95 1853.45 1025.35 1850.5 1023.7 1847.25 1023.45 1844 1023.2 1840.8 1024.35 1837.6 1025.45 1835.3 1027.75
M 1647.2 1179.7
Q 1643.35 1180.75 1641.35 1183.15 1638.35 1186.7 1639.75 1191.95 1641.1 1196.9 1645.25 1199.7 1648.8 1202.15 1654.1 1202.95 1657.7 1203.5 1663.75 1203.4 1679.65 1203 1698.25 1200.35 1712.7 1198.25 1732.4 1194.15 1742.05 1221.2 1762.05 1242.85 1782.1 1264.5 1808.3 1276.25 1805.15 1281 1805.8 1287.25 1806.5 1293.35 1810.35 1297.85 1814 1302.15 1819.8 1304.35 1825.2 1306.4 1831.25 1306.15 1841.85 1305.65 1853 1298.6 1868.3 1289.05 1880.3 1270.75 1889.25 1257.15 1898.35 1235.1 1901.45 1227.6 1902.55 1222.95 1904.15 1216 1902.85 1210.45 1900.8 1201.3 1891.4 1196.75 1881.95 1192.2 1873.9 1196.7 1869.45 1199.2 1865.95 1204.35 1863.75 1207.65 1860.5 1214.55 1857.05 1221.95 1855.2 1224.95 1851.8 1230.4 1847.65 1233.25 1840.85 1237.95 1830.9 1236.95 1822.75 1236.2 1813.35 1231.8 1797.45 1224.45 1784.1 1212.8 1770.75 1201.15 1761.35 1186.4 1755.65 1177.35 1753.4 1174.65 1748.35 1168.55 1742.55 1166.8 1738.7 1165.65 1733.65 1166.2 1730.8 1166.5 1724.65 1167.9 1689.85 1175.95 1654.25 1178.65 1649.65 1179 1647.2 1179.7
M 128.5 1569.5
Q 125.9 1569.1 123.45 1570.65 121.05 1572.1 119.9 1574.6 117.75 1579.15 119.85 1585.1 121.15 1588.85 125.2 1594.4 132 1603.85 137.45 1608.9 145.15 1615.95 153.4 1617.9 157 1618.75 162.2 1618.85 165.15 1618.9 171.1 1618.8 174.15 1618.85 180.2 1619.1 185.6 1619.2 189.3 1618.75 190.25 1618.6 196.25 1617.45 200.45 1616.65 203.2 1616.6 204.35 1616.6 208.2 1616.8 211.3 1617 213.15 1616.8 217.55 1616.35 222.15 1613.4 225.45 1611.35 229.9 1607.2 237.25 1600.35 244.5 1592.25 247.4 1589.05 249.05 1586.7 251.3 1583.45 252.3 1580.35 253.6 1576.35 252.9 1572.05 252.2 1567.7 249.65 1564.4 247.1 1561.05 243.05 1559.45 238.95 1557.8 234.8 1558.5 231.4 1559.15 227.7 1561.5 225.75 1562.75 221.35 1566.3 213.3 1572.75 205 1578.1 196.5 1583.65 190.4 1585.7 185.6 1587.3 179.3 1587.95 175.4 1588.35 167.95 1588.55 163.25 1588.7 160.9 1588.6 156.95 1588.4 153.95 1587.55 149.2 1586.15 144.4 1582.4 141 1579.8 136.3 1574.8 134.1 1572.45 132.8 1571.45 130.65 1569.8 128.5 1569.5
M 547.85 1564.2
Q 556.85 1561 561.4 1558.7 568.65 1555.1 573.05 1550.35 578.2 1544.75 579.25 1537.25 580.35 1529.25 575.8 1523.95 566.3 1512.75 540.85 1522.95
L 402 1578.8
Q 372.9 1590.55 358.8 1596.65 334.95 1606.95 316.55 1616.65 297.85 1626.55 286 1635.9 270.6 1648.1 262.5 1662.35 254.4 1676.7 249.1 1706.05 246 1723.25 244.7 1728.85 241.8 1741.55 237.75 1750.8 232.15 1763.5 223.8 1764.95 216.3 1766.3 210.35 1759.1 205.1 1752.65 203.95 1743.7 203.5 1739.1 203.15 1736.8 202.6 1732.85 201.45 1730.2 200 1726.8 197.25 1724.75 194.2 1722.45 190.9 1722.9 186.6 1723.4 184.05 1728.2 181.9 1732.2 181.65 1737.7 181.1 1749.65 185.35 1760.7 189.7 1772.2 198.15 1779.95 206.9 1788 218.7 1790.65 230.8 1793.4 241.65 1789.45 256.8 1783.9 266.4 1766.9 274.2 1753.05 277.65 1733.05
L 280 1718.05
Q 281.45 1709 282.8 1703.1 286.75 1686.25 294.6 1676.05 299.35 1669.9 306.85 1664.25 312.35 1660.15 321.3 1654.95 351.85 1637.2 392.7 1620.55 417.45 1610.45 467.2 1592.8
L 547.85 1564.2 Z"/>
</g>
</defs>

<g transform="matrix( 1, 0, 0, 1, 0,0) ">
<use xlink:href="#Layer1_0_FILL"/>
</g>

<g transform="matrix( 1, 0, 0, 1, 0,0) ">
<use xlink:href="#Layer0_0_FILL"/>
</g>
</svg>
