
<svg xmlns="http://www.w3.org/2000/svg" version="1.1" xmlns:xlink="http://www.w3.org/1999/xlink" preserveAspectRatio="none" x="0px" y="0px" width="2000px" height="2000px" viewBox="0 0 2000 2000">
<defs>
<g id="Layer1_0_FILL">
<path fill="#000000" stroke="none" d="
M 1296 779.35
Q 1299.65 764.75 1300.95 754.9 1302.8 741.35 1301.55 730.1 1300.1 717.05 1294.2 706.3 1287.85 694.55 1277.65 688.3 1262.65 679.05 1242.6 683.1 1224.3 686.8 1209.2 699.6 1197.5 709.5 1184.8 727.25 1170.9 747.9 1163.6 757.85 1159.65 763.25 1155.7 767.95 1155.65 767.85 1155.6 767.8 1154.8 766.8 1152.65 764.6 1150.7 762.65 1149.8 761.4 1147.65 758.5 1146.3 754 1145.8 752.3 1144.45 745.9 1141.5 731.95 1136.25 723.7 1132.85 718.45 1128.35 714.8 1123.45 710.85 1117.9 709.35 1110.4 707.4 1102.15 710 1094.55 712.35 1088.2 717.95 1082.7 722.75 1077.8 730.1 1074.2 735.5 1069.9 744.15 1065.7 752.45 1063.8 755.55 1059.95 761.7 1055.45 765.15 1049 770.1 1038.1 771.75 1033 772.2 1028.95 772.6 1027.5 771.5 1026.05 770.4 1001.4 751.7 989.75 745.15 968.3 733 949.05 732.45 933.85 732 924.65 739.1 916.2 745.6 913.45 758.15 911.2 768.6 913.1 781.6 916.15 801.8 925.6 820.25 935.05 838.7 949.65 852.9 959.75 862.75 974.9 872.8 981.55 877.15 1002.45 889.7 1024.85 903.05 1039.75 913.6 1059.45 927.45 1073.85 941.65 1090.5 958 1101.6 976.15 1111.65 992.55 1116.5 1009.6 1116.3 1011.95 1116.85 1015.15 1117 1016.15 1117.15 1017.15 1112.25 1015.35 1107.8 1012.95 1105.8 1011.85 1104.6 1011.85 1102.6 1011.85 1101.5 1014 1100.5 1016.1 1101.25 1018.1 1102.3 1021 1107.1 1023.7 1111.95 1026.45 1117.1 1028.65 1116.5 1032.75 1115.25 1037 1115 1037.8 1114.75 1038.65 1112.55 1038.2 1111.05 1037.6 1107.4 1036.15 1106.1 1033.3 1105.95 1032.95 1105.25 1030.8 1104.75 1029.25 1104.05 1028.5 1102.8 1027.2 1100.75 1027.4 1098.75 1027.6 1097.45 1029 1095.15 1031.55 1095.8 1036.05 1096.35 1039.8 1098.7 1043.2 1100.85 1046.4 1104.2 1048.8 1106.15 1050.2 1108.7 1051.5 1107.05 1054.2 1105.1 1056.8 1099 1065 1089.75 1072.75 1082.6 1078.75 1071.8 1085.9 1030.8 1112.95 976.25 1133.65 936.05 1148.85 873.3 1165.7 803 1183.75 768.2 1193.75 708.4 1210.9 666.15 1229.55 581.65 1266.8 517.5 1329.6 450.3 1395.4 418.3 1477.05 401.55 1519.85 394.7 1566.6 388 1612.45 391.2 1659.3 395.85 1726.55 420.9 1784.35 448 1846.85 494.65 1887.5 523.65 1912.75 566.5 1934.2 593.75 1947.85 645.9 1968.4 713.15 1994.85 751.45 2006.8 810.75 2025.3 860.6 2030.5 936.7 2038.45 1028.4 2019.75 1092.75 2006.6 1192.2 1973 1253.4 1952.3 1293.95 1936.3 1348.8 1914.65 1392.35 1891.75 1498.8 1835.9 1562.35 1760.3 1595.65 1720.65 1618.5 1674.45 1633.15 1645 1639.5 1619.5 1650.8 1574.4 1641.45 1524.5 1632.7 1477.9 1607.5 1434.6 1584.75 1395.5 1548.75 1359.05 1517.65 1327.65 1475.25 1296.8 1460.15 1285.85 1435.6 1269.3 1402.75 1247.15 1395.65 1242.2 1348.45 1209.55 1320.5 1182.3 1283.3 1145.95 1263.65 1104 1254.15 1083.7 1249.65 1063.7 1250.2 1063.9 1250.8 1064.05 1258.7 1066.1 1268.2 1062 1273 1059.95 1277 1056.9 1280.5 1064.45 1284.85 1071.15 1292.35 1082.9 1304.4 1095.45 1311.75 1103.1 1327.05 1117.05 1342 1130.75 1350.25 1137.85 1363.35 1149.1 1374.7 1157.15 1392.55 1169.75 1407.6 1174.95 1419.6 1179.15 1429.05 1178.15 1434.7 1177.55 1439.55 1175.15 1444.7 1172.55 1447.9 1168.3 1451.5 1163.55 1452.4 1157.1 1453.3 1151.1 1451.75 1144.8 1450.45 1139.35 1447.3 1133.4 1444.95 1128.9 1440.8 1122.9 1435.6 1115.4 1429.85 1108.4 1464.35 1115.25 1499.1 1112.55 1537.55 1109.6 1562.2 1094.7 1578.45 1084.9 1582.75 1072.35 1585 1065.85 1584.15 1058.4 1583.35 1051.45 1580 1044.8 1574.65 1034.1 1561.95 1023.1 1533.85 998.85 1492.45 988.25 1456.85 979.1 1413.35 980.4 1380.1 981.4 1347.7 987.75 1314.9 994.15 1284.2 1005.8 1283.7 1006 1283.2 1006.2 1277.8 1000.25 1270.25 998.1 1261.9 995.75 1250.25 998.5 1250.3 998.35 1250.3 998.25 1250.8 996 1249.05 993.9 1248.25 992.95 1247.2 992.25 1247.05 991.7 1246.95 991.15 1245.75 985.9 1242.25 982.1 1240.4 980.1 1238.35 979 1241.6 969 1246.8 964.25 1251.25 960.15 1258.25 958 1263.45 956.4 1271.4 955.6 1285.6 954.2 1305.8 954.55 1317.3 954.8 1340.35 955.6 1382.4 956.45 1407.5 947.65 1429.4 940 1441.6 925.6 1448.45 917.5 1451.55 907.7 1454.8 897.3 1453.05 887.5 1449.95 870.2 1432.9 858.35 1417.8 847.85 1397.6 845.05 1386.3 843.5 1360.3 843.6 1340.05 843.7 1327.6 842.05 1327.9 841.1 1328.05 840.1 1328.35 838.45 1328.5 835.25 1328.9 827.8 1328.6 823.75 1328.2 817.4 1326.15 812.75 1324 807.8 1319.65 803.75 1315.65 799.95 1310.35 797.45 1303.7 794.25 1293.2 792.5 1294.25 786.55 1296 779.35
M 1419.7 877.05
Q 1427.35 882.35 1428.95 889.85 1430.65 897.7 1425.4 905.7 1420.85 912.65 1412.75 917.7 1400.05 925.6 1382.95 928.9 1368.8 931.6 1350.75 931.2 1343.85 931.05 1318.6 929.4 1298.75 928.1 1286.45 928.7 1268.95 929.55 1254.7 934.45 1238.3 940.05 1227.4 950.55 1215.4 962.1 1212.1 978.6 1210.75 985.4 1211.2 991.6 1209.95 991.65 1208.65 991.7 1174.2 993.1 1139.75 989.05 1137.85 988.8 1137 988.55 1135.45 988.15 1134.5 987.4 1133.8 986.85 1132.9 985.7 1131.8 984.35 1131.35 983.9 1129.3 982 1126.35 982.25 1125.6 980.2 1124.75 978.1 1117.7 961.05 1101.85 942.75 1073.65 910.05 1037.35 885.6 1012.45 870.05 1000.1 862.15 978.15 848.1 965.3 835.65 948.4 819.15 940.7 799.05 932.15 776.65 938 756.7 955.95 755.05 976 764.3 990.8 771.15 1009.95 785.85 1034.35 804.55 1042.3 809.6 1061.35 821.65 1078.45 824.6 1096.7 827.75 1116.3 821.65 1134.35 816.1 1150.5 803.8 1164.5 793.1 1177.95 776.9 1188.1 764.65 1200.7 745.65 1209.5 732.35 1213.95 726.9 1222.05 716.95 1230.65 711.7 1240.95 705.45 1252.8 706 1265.45 706.6 1272.45 715 1278.45 722.2 1278.95 733.9 1279.3 741.85 1276.9 755.05
L 1271.45 785.45
Q 1268.85 799.85 1268.5 807.75 1267.95 820.25 1271.4 829.6 1277.35 845.7 1295.15 855.6 1310.55 864.1 1330.8 866.1 1338.3 866.85 1367.65 867.05 1390.35 867.25 1404.1 870.5 1413.4 872.7 1419.7 877.05
M 1304.85 806.9
Q 1307.8 808.3 1309.5 810.3 1312.35 813.65 1313 820.7 1313.25 823.3 1313.45 830.7 1313.55 835.65 1313.95 838.95 1304.9 835.85 1299.85 830.55 1291.6 821.85 1291.7 806.6 1291.7 804.85 1291.85 802.85 1295.2 803.75 1299.35 804.85 1302.9 805.95 1304.85 806.9
M 1329.5 1030.05
Q 1319.8 1022.95 1313.15 1018.9 1306.65 1014.95 1302.9 1016.95 1300.65 1018.15 1300.05 1020.7 1298.4 1019.45 1297.6 1019 1295.9 1018 1294.4 1017.95 1292.4 1017.85 1290.65 1019.2 1290.55 1018.85 1290.45 1018.55 1330.15 1003.65 1372.75 998.75 1417.85 993.55 1462.35 999.95 1488.75 1003.75 1508.7 1011.35 1532.7 1020.55 1548.75 1035.75 1560.8 1047.1 1558.55 1057.2 1556.8 1064.9 1545.75 1071.05 1534.1 1077.55 1519.15 1080.85 1506.55 1083.65 1490.7 1084.25 1452.2 1085.7 1414.65 1074.7 1377.05 1063.7 1345.5 1041.75 1343.3 1040.25 1329.5 1030.05
M 1326 1077.5
Q 1322.55 1074.05 1320.25 1070.95 1318.75 1068.95 1316.65 1065.6 1313.7 1060.95 1313.15 1060.1 1310.4 1055.9 1305.1 1049.2
L 1295.3 1036.65 1310.75 1044.35
Q 1327.65 1066.05 1359.15 1083 1380.5 1094.5 1403.7 1101.75 1409 1107.1 1413.35 1112.75 1428.3 1132.05 1425.35 1148.25 1421.35 1148.9 1416.65 1147.05 1413.6 1145.9 1408.6 1142.85
L 1389.25 1131.15
Q 1381.65 1126.65 1377.65 1123.8 1372.8 1120.4 1367.2 1115.55 1363.85 1112.65 1357.3 1106.6
L 1332.35 1083.55
Q 1327.95 1079.45 1326 1077.5
M 1301.75 1206.8
Q 1327.6 1231.3 1367.55 1260.05 1390.5 1276.6 1437.1 1308.8 1481.05 1340.15 1510.5 1367.3 1547.8 1401.7 1571.5 1437.7 1598.55 1478.7 1608.7 1523.6 1619.7 1572.15 1608.35 1615.75 1603.1 1635.9 1591.8 1659.1 1563.3 1717.8 1512.15 1768.55 1465.75 1814.6 1403.65 1851.4 1350.55 1882.85 1281 1910.55 1231.75 1930.15 1152.1 1955.9 1071.95 1981.85 1022.75 1992.55 950.4 2008.25 890.2 2005.9 835.4 2003.75 771.4 1985.95 725.35 1973.1 656.7 1946.3 595.35 1922.35 560.45 1902.65 509.75 1874.05 479.5 1837.8 454.05 1807.3 438.05 1765.9 423.85 1729.1 417.45 1684.65 412.65 1651.35 413.1 1620.45 413.9 1564.9 431.7 1510.15 449.15 1456.6 481 1409.55 512.1 1363.6 555.5 1326 597.8 1289.25 648.45 1263.25 693.55 1240.05 756.5 1220.35 781.25 1212.6 869.35 1188.75 939.35 1169.8 980.6 1154.45 1040.05 1132.3 1083.9 1103.4 1098.1 1094 1107.25 1085.75 1119 1075 1125.6 1063.4 1127.25 1060.55 1128.55 1057.65 1144.5 1060.9 1159.65 1059.55 1168.15 1058.8 1178.65 1056.3 1197.9 1051.8 1215.9 1043.85 1216.55 1053.85 1217.9 1062.8 1224.1 1102.5 1247.7 1141.15 1268.6 1175.4 1301.75 1206.8
M 1042.7 782.2
Q 1043.25 782.15 1043.8 782.1 1057.95 781 1067.5 773.85 1073.7 769.2 1079.35 760.35 1082.6 755.2 1088.45 744.45 1092 738.35 1095.4 734.5 1099.75 729.55 1104.7 727.2 1111.05 724.2 1115.8 726.55 1118.1 727.75 1120.35 730.8 1123.8 735.55 1126.1 743.2 1127.45 747.6 1129.6 756.65 1134.15 773.95 1144.15 779.1 1144.55 779.3 1144.95 779.5 1141.55 782.65 1138.2 785.35 1122.3 798.05 1105.4 800.75 1085.9 803.85 1063.65 793.9 1054.15 789.65 1042.7 782.2
M 1129.25 1012.75
Q 1130.1 1008.35 1130.15 1003.8 1142.7 1008.95 1159.15 1010.6 1169.9 1011.7 1186.6 1011.45 1200.5 1011.35 1212 1010.55 1213 1010.45 1215.5 1010.25 1215.45 1011.45 1215.45 1012.6 1201.55 1016.45 1184.6 1019.3 1161.55 1023.25 1145.55 1022.5 1138.65 1022.2 1132.4 1021.15 1131.25 1016.75 1129.25 1012.75
M 1133.75 1035.45
Q 1133.8 1034.8 1133.8 1034.15 1146.55 1037.2 1159.5 1036.8 1166.25 1036.65 1174.6 1035.45 1179.75 1034.75 1189.6 1032.95 1197.8 1031.45 1204.1 1030.15 1196.5 1033.2 1188.2 1035.8 1169.45 1041.65 1156.25 1042.15 1148.55 1042.45 1133.3 1040.85 1133.65 1038.15 1133.75 1035.45
M 1265.8 1012.05
Q 1267.75 1012.55 1269.35 1013.8 1262.35 1019.55 1262 1026.8 1261.9 1029.85 1263.1 1032.5 1263.95 1034.35 1265.25 1035.6 1260.25 1039.4 1254.2 1041.3 1249.5 1042.55 1247.3 1043.4 1246.85 1043.6 1246.4 1043.8 1245.55 1035.65 1245.6 1027.55 1250.9 1023.8 1254.1 1020.25 1257.5 1016.5 1259.45 1012.2 1259.5 1012.05 1259.6 1011.95 1259.85 1011.9 1260.15 1011.85 1263.3 1011.35 1265.8 1012.05 Z"/>

<path fill="#FFFFCC" stroke="none" d="
M 1133.8 1034.15
Q 1133.8 1034.8 1133.75 1035.45 1133.65 1038.15 1133.3 1040.85 1148.55 1042.45 1156.25 1042.15 1169.45 1041.65 1188.2 1035.8 1196.5 1033.2 1204.1 1030.15 1197.8 1031.45 1189.6 1032.95 1179.75 1034.75 1174.6 1035.45 1166.25 1036.65 1159.5 1036.8 1146.55 1037.2 1133.8 1034.15
M 1130.15 1003.8
Q 1130.1 1008.35 1129.25 1012.75 1131.25 1016.75 1132.4 1021.15 1138.65 1022.2 1145.55 1022.5 1161.55 1023.25 1184.6 1019.3 1201.55 1016.45 1215.45 1012.6 1215.45 1011.45 1215.5 1010.25 1213 1010.45 1212 1010.55 1200.5 1011.35 1186.6 1011.45 1169.9 1011.7 1159.15 1010.6 1142.7 1008.95 1130.15 1003.8
M 1043.8 782.1
Q 1043.25 782.15 1042.7 782.2 1054.15 789.65 1063.65 793.9 1085.9 803.85 1105.4 800.75 1122.3 798.05 1138.2 785.35 1141.55 782.65 1144.95 779.5 1144.55 779.3 1144.15 779.1 1134.15 773.95 1129.6 756.65 1127.45 747.6 1126.1 743.2 1123.8 735.55 1120.35 730.8 1118.1 727.75 1115.8 726.55 1111.05 724.2 1104.7 727.2 1099.75 729.55 1095.4 734.5 1092 738.35 1088.45 744.45 1082.6 755.2 1079.35 760.35 1073.7 769.2 1067.5 773.85 1057.95 781 1043.8 782.1
M 1367.55 1260.05
Q 1327.6 1231.3 1301.75 1206.8 1268.6 1175.4 1247.7 1141.15 1224.1 1102.5 1217.9 1062.8 1216.55 1053.85 1215.9 1043.85 1197.9 1051.8 1178.65 1056.3 1168.15 1058.8 1159.65 1059.55 1144.5 1060.9 1128.55 1057.65 1127.25 1060.55 1125.6 1063.4 1119 1075 1107.25 1085.75 1098.1 1094 1083.9 1103.4 1040.05 1132.3 980.6 1154.45 939.35 1169.8 869.35 1188.75 781.25 1212.6 756.5 1220.35 693.55 1240.05 648.45 1263.25 597.8 1289.25 555.5 1326 512.1 1363.6 481 1409.55 449.15 1456.6 431.7 1510.15 413.9 1564.9 413.1 1620.45 412.65 1651.35 417.45 1684.65 423.85 1729.1 438.05 1765.9 454.05 1807.3 479.5 1837.8 509.75 1874.05 560.45 1902.65 595.35 1922.35 656.7 1946.3 725.35 1973.1 771.4 1985.95 835.4 2003.75 890.2 2005.9 950.4 2008.25 1022.75 1992.55 1071.95 1981.85 1152.1 1955.9 1231.75 1930.15 1281 1910.55 1350.55 1882.85 1403.65 1851.4 1465.75 1814.6 1512.15 1768.55 1563.3 1717.8 1591.8 1659.1 1603.1 1635.9 1608.35 1615.75 1619.7 1572.15 1608.7 1523.6 1598.55 1478.7 1571.5 1437.7 1547.8 1401.7 1510.5 1367.3 1481.05 1340.15 1437.1 1308.8 1390.5 1276.6 1367.55 1260.05
M 892.2 1321.25
Q 928.45 1312.85 965 1312.05 971.15 1296.8 975.05 1287.65 984.05 1266.45 992.35 1249.95 994.9 1244.85 998.1 1242.1 1002.15 1238.6 1006.15 1240 1010.6 1241.55 1010.95 1247.65 1011.2 1252.5 1008.95 1258.4
L 988.05 1312.25
Q 1029.1 1313.95 1066.1 1324.95 1074.1 1301.35 1081.75 1280.4 1083.2 1276.4 1084.3 1274.25 1085.95 1271 1088.05 1268.95 1090.55 1266.55 1093.85 1265.85 1097.4 1265.1 1100.05 1266.8 1103.85 1269.25 1103.85 1275 1103.85 1279.3 1101.75 1285.15 1093.75 1307.1 1085.5 1331.5 1109.65 1340.6 1132 1353.95 1153.85 1366.95 1168 1381.15 1176.4 1389.55 1175.05 1396.3 1174.15 1400.7 1169.65 1403.25 1165.4 1405.65 1160.5 1405.2 1156.4 1404.8 1151.65 1402.55 1148.9 1401.25 1143.45 1397.9 1110.45 1377.85 1074 1366.15 1051.55 1435.25 1027.25 1521.4 1022.9 1536.75 1014.75 1566.2 1073.8 1592.1 1114.8 1617.55 1130.2 1627.1 1139.95 1635.05 1152.95 1645.6 1161 1657 1170.25 1670.15 1173.2 1685.1 1176.35 1701.2 1171.05 1714.9 1166.25 1727.15 1154.6 1737.45 1145.1 1745.85 1130.6 1753.25 1089.6 1774.15 1036.15 1778.75 999.6 1781.9 955.7 1777.45 943.55 1818.8 932.45 1853.85 931.4 1857.25 929.35 1859.35 926.9 1861.85 924.45 1860.6 922.15 1859.45 921.75 1854.6 920.15 1833.6 925.65 1807.45 928.05 1796.05 934.2 1774.85 876.25 1766.95 829.4 1750.45 827.45 1749.75 825.5 1749.05 814.4 1784.25 805.5 1816.55 802.9 1826 798.75 1831.65 793.3 1839.05 786.15 1838.25 778.85 1837.45 775.45 1828.95 772.6 1821.75 773.45 1812.6 774.6 1800.95 778.4 1787.15 781 1777.7 786.4 1762.4 790.7 1750.2 795.6 1736.85 761 1720.9 733.15 1699.25 696.3 1670.65 697.85 1641.85 698.25 1635.45 701.7 1633.8 704.8 1632.35 710 1635.2 719.4 1640.3 731.1 1650 737.75 1655.45 750.85 1666.7 775.95 1687.1 808.6 1702.4 809.8 1699.3 811 1696.2 819.55 1674.25 837.1 1630.55
L 870.3 1547.9
Q 868.3 1547 866.55 1546.25 819.35 1525.35 785.3 1503.7 770.35 1494.2 761.45 1485.9 749.55 1474.75 744.25 1462.4 737.25 1446.1 740.95 1426.7 744.35 1408.55 755.85 1393.1 766 1379.45 782.15 1367.8 795.2 1358.45 814 1349.1 851.25 1330.75 892.2 1321.25
M 1036.5 1617.1
Q 1022.95 1610.6 1004.65 1602.75 999.85 1620.25 994.15 1640.9 977.7 1700.85 966.15 1741.35 981.25 1742.5 996.55 1742.7 1030.5 1743.2 1057.7 1738.55 1090.05 1733.05 1115.4 1719.95 1123.75 1715.6 1128.7 1711 1135.15 1705 1136.6 1697.95 1140.1 1681 1115.35 1663.05 1081.95 1638.85 1036.5 1617.1
M 951.9 1581.1
Q 916 1566.9 893.2 1557.5 873.4 1609.5 861.5 1642.65 848.2 1679.65 836.8 1714.05 854.65 1720.6 874.35 1725.85 909.15 1735.1 944.75 1739.3 957.2 1697.05 972.9 1640.65 979.75 1615.75 985.6 1594.7 970.1 1588.3 951.9 1581.1
M 906.75 1522.1
Q 920.45 1527.6 938.7 1534.85 974.6 1549.15 995.8 1558.05 1002 1535.65 1006.5 1519.65 1031.7 1430.25 1054.3 1360.5 1031.35 1354.65 1007.15 1352 990.15 1350.15 973.45 1349.9
L 926.2 1471.65
Q 915.8 1498.45 906.75 1522.1
M 949.55 1350.4
Q 905.8 1352.9 864.1 1367 814.75 1383.65 788.6 1411.7 776.1 1425 776.15 1436.7 776.15 1445.05 782.2 1453.25 786.8 1459.55 795.45 1466.25 812.3 1479.3 835.35 1491.1 851.55 1499.35 878.35 1510.55 881.05 1511.65 884.3 1513
L 949.55 1350.4
M 1309.5 810.3
Q 1307.8 808.3 1304.85 806.9 1302.9 805.95 1299.35 804.85 1295.2 803.75 1291.85 802.85 1291.7 804.85 1291.7 806.6 1291.6 821.85 1299.85 830.55 1304.9 835.85 1313.95 838.95 1313.55 835.65 1313.45 830.7 1313.25 823.3 1313 820.7 1312.35 813.65 1309.5 810.3
M 1428.95 889.85
Q 1427.35 882.35 1419.7 877.05 1413.4 872.7 1404.1 870.5 1390.35 867.25 1367.65 867.05 1338.3 866.85 1330.8 866.1 1310.55 864.1 1295.15 855.6 1277.35 845.7 1271.4 829.6 1267.95 820.25 1268.5 807.75 1268.85 799.85 1271.45 785.45
L 1276.9 755.05
Q 1279.3 741.85 1278.95 733.9 1278.45 722.2 1272.45 715 1265.45 706.6 1252.8 706 1240.95 705.45 1230.65 711.7 1222.05 716.95 1213.95 726.9 1209.5 732.35 1200.7 745.65 1188.1 764.65 1177.95 776.9 1164.5 793.1 1150.5 803.8 1134.35 816.1 1116.3 821.65 1096.7 827.75 1078.45 824.6 1061.35 821.65 1042.3 809.6 1034.35 804.55 1009.95 785.85 990.8 771.15 976 764.3 955.95 755.05 938 756.7 932.15 776.65 940.7 799.05 948.4 819.15 965.3 835.65 978.15 848.1 1000.1 862.15 1012.45 870.05 1037.35 885.6 1073.65 910.05 1101.85 942.75 1117.7 961.05 1124.75 978.1 1125.6 980.2 1126.35 982.25 1129.3 982 1131.35 983.9 1131.8 984.35 1132.9 985.7 1133.8 986.85 1134.5 987.4 1135.45 988.15 1137 988.55 1137.85 988.8 1139.75 989.05 1174.2 993.1 1208.65 991.7 1209.95 991.65 1211.2 991.6 1210.75 985.4 1212.1 978.6 1215.4 962.1 1227.4 950.55 1238.3 940.05 1254.7 934.45 1268.95 929.55 1286.45 928.7 1298.75 928.1 1318.6 929.4 1343.85 931.05 1350.75 931.2 1368.8 931.6 1382.95 928.9 1400.05 925.6 1412.75 917.7 1420.85 912.65 1425.4 905.7 1430.65 897.7 1428.95 889.85 Z"/>

<path fill="#003300" stroke="none" d="
M 965 1312.05
Q 928.45 1312.85 892.2 1321.25 851.25 1330.75 814 1349.1 795.2 1358.45 782.15 1367.8 766 1379.45 755.85 1393.1 744.35 1408.55 740.95 1426.7 737.25 1446.1 744.25 1462.4 749.55 1474.75 761.45 1485.9 770.35 1494.2 785.3 1503.7 819.35 1525.35 866.55 1546.25 868.3 1547 870.3 1547.9
L 837.1 1630.55
Q 819.55 1674.25 811 1696.2 809.8 1699.3 808.6 1702.4 775.95 1687.1 750.85 1666.7 737.75 1655.45 731.1 1650 719.4 1640.3 710 1635.2 704.8 1632.35 701.7 1633.8 698.25 1635.45 697.85 1641.85 696.3 1670.65 733.15 1699.25 761 1720.9 795.6 1736.85 790.7 1750.2 786.4 1762.4 781 1777.7 778.4 1787.15 774.6 1800.95 773.45 1812.6 772.6 1821.75 775.45 1828.95 778.85 1837.45 786.15 1838.25 793.3 1839.05 798.75 1831.65 802.9 1826 805.5 1816.55 814.4 1784.25 825.5 1749.05 827.45 1749.75 829.4 1750.45 876.25 1766.95 934.2 1774.85 928.05 1796.05 925.65 1807.45 920.15 1833.6 921.75 1854.6 922.15 1859.45 924.45 1860.6 926.9 1861.85 929.35 1859.35 931.4 1857.25 932.45 1853.85 943.55 1818.8 955.7 1777.45 999.6 1781.9 1036.15 1778.75 1089.6 1774.15 1130.6 1753.25 1145.1 1745.85 1154.6 1737.45 1166.25 1727.15 1171.05 1714.9 1176.35 1701.2 1173.2 1685.1 1170.25 1670.15 1161 1657 1152.95 1645.6 1139.95 1635.05 1130.2 1627.1 1114.8 1617.55 1073.8 1592.1 1014.75 1566.2 1022.9 1536.75 1027.25 1521.4 1051.55 1435.25 1074 1366.15 1110.45 1377.85 1143.45 1397.9 1148.9 1401.25 1151.65 1402.55 1156.4 1404.8 1160.5 1405.2 1165.4 1405.65 1169.65 1403.25 1174.15 1400.7 1175.05 1396.3 1176.4 1389.55 1168 1381.15 1153.85 1366.95 1132 1353.95 1109.65 1340.6 1085.5 1331.5 1093.75 1307.1 1101.75 1285.15 1103.85 1279.3 1103.85 1275 1103.85 1269.25 1100.05 1266.8 1097.4 1265.1 1093.85 1265.85 1090.55 1266.55 1088.05 1268.95 1085.95 1271 1084.3 1274.25 1083.2 1276.4 1081.75 1280.4 1074.1 1301.35 1066.1 1324.95 1029.1 1313.95 988.05 1312.25
L 1008.95 1258.4
Q 1011.2 1252.5 1010.95 1247.65 1010.6 1241.55 1006.15 1240 1002.15 1238.6 998.1 1242.1 994.9 1244.85 992.35 1249.95 984.05 1266.45 975.05 1287.65 971.15 1296.8 965 1312.05
M 864.1 1367
Q 905.8 1352.9 949.55 1350.4
L 884.3 1513
Q 881.05 1511.65 878.35 1510.55 851.55 1499.35 835.35 1491.1 812.3 1479.3 795.45 1466.25 786.8 1459.55 782.2 1453.25 776.15 1445.05 776.15 1436.7 776.1 1425 788.6 1411.7 814.75 1383.65 864.1 1367
M 938.7 1534.85
Q 920.45 1527.6 906.75 1522.1 915.8 1498.45 926.2 1471.65
L 973.45 1349.9
Q 990.15 1350.15 1007.15 1352 1031.35 1354.65 1054.3 1360.5 1031.7 1430.25 1006.5 1519.65 1002 1535.65 995.8 1558.05 974.6 1549.15 938.7 1534.85
M 893.2 1557.5
Q 916 1566.9 951.9 1581.1 970.1 1588.3 985.6 1594.7 979.75 1615.75 972.9 1640.65 957.2 1697.05 944.75 1739.3 909.15 1735.1 874.35 1725.85 854.65 1720.6 836.8 1714.05 848.2 1679.65 861.5 1642.65 873.4 1609.5 893.2 1557.5
M 1004.65 1602.75
Q 1022.95 1610.6 1036.5 1617.1 1081.95 1638.85 1115.35 1663.05 1140.1 1681 1136.6 1697.95 1135.15 1705 1128.7 1711 1123.75 1715.6 1115.4 1719.95 1090.05 1733.05 1057.7 1738.55 1030.5 1743.2 996.55 1742.7 981.25 1742.5 966.15 1741.35 977.7 1700.85 994.15 1640.9 999.85 1620.25 1004.65 1602.75 Z"/>
</g>

<g id="Layer0_0_FILL">
<path fill="#000000" fill-opacity="0.2" stroke="none" d="
M 1305.3 801.95
Q 1302.35 799.4 1297.95 798.85 1294.95 798.5 1292.1 799.3 1289.15 800.1 1286.95 802 1284.25 804.3 1283.1 807.85 1282 811.4 1282.85 814.85 1283.7728515625 818.2498046875 1286.5 821.6 1286.7671875 823.7640625 1287.6 825.95 1288.6 828.55 1290.5 831.65 1291.1 832.65 1294.05 837 1297.3 841.9 1298.1 843 1300.5 846.3 1302.85 848.35 1305.75 850.85 1309.15 851.9 1312.9 853.05 1316.2 852.05 1320.75 850.65 1323.2 845.7 1325.5 841.05 1324.85 835.85 1324.35 831.55 1321.95 826.4 1321.1 824.5 1317.25 817.55 1315.1 813.6 1314.05 812.05 1312 809.1 1309.6 807.65 1309.4501953125 807.556640625 1309.3 807.45 1307.68359375 803.9572265625 1305.3 801.95
M 1047.95 777.85
Q 1043.65 781.05 1041.55 784.25 1039.7 787.15 1039.15 790.6 1038.6 794.1 1039.4 797.4 1040.2 800.75 1042.4 803.5 1044.55 806.3 1047.55 807.95 1051.3 810.05 1057 810.5 1058.55 810.6 1067.05 810.6 1075.45 810.6 1090.85 812.45 1102.95 813.8 1109.5 815.4 1111.9 816 1116.7 817.25 1120.9 818.25 1124 818.2 1130.6 818.15 1136.6 814.15 1142.3 810.35 1145.6 804.2 1148.65 798.45 1149.35 791.35 1149.95 784.8 1148.45 777.9 1146.05 767 1137.65 753.25 1133.05 745.7 1128.8 740.75 1127.15 738.85 1126.35 737.9 1124.95 736.2 1124.1 734.9 1123.5 734 1122.1 731.45 1120.9 729.25 1120.05 728.05 1117.65 724.85 1113.85 723.1 1110.05 721.4 1106.05 721.7 1102.05 722 1098.55 724.3 1095.1 726.65 1093.25 730.2 1092.75 731.1 1091.85 733.4 1091 735.45 1090.35 736.55 1089.15 738.55 1086.85 740.65 1084.05 743.05 1082.65 744.2 1078.1 748.05 1069.3 758.6 1061.1 768.35 1055.55 772.55 1050.45 776.05 1047.95 777.85
M 1129 1010.45
Q 1129.2296875 1013.4111328125 1130.25 1016 1128.5146484375 1016.524609375 1127 1017.2 1123.15 1018.95 1120.35 1021.95 1117.45 1025.1 1116.3 1029 1114.65 1034.7 1117.2 1040.9 1119.6 1046.75 1124.7 1050.55 1133.55 1057.1 1148.05 1056.85 1153.05 1056.75 1160.35 1055.8 1164.4 1055.25 1172.55 1054.1 1176.55 1053.65 1184.5 1052.9 1191.5 1052.1 1196.3 1050.65 1202.45 1048.75 1207 1045.15 1212.1 1041.1 1214 1035.75 1216.2169921875 1029.773828125 1213.95 1023.3 1214.099609375 1022.9220703125 1214.2 1022.5 1215.35 1017.6 1212.8 1012.5 1210.4 1007.7 1205.85 1004.6 1201.95 1002 1196.35 1000.35 1192.65 999.25 1186.05 998.1 1169.25 995.3 1155.3 994.15 1147.6 993.45 1142.45 994.4 1135.5 995.7 1131.95 1000.1 1128.55 1004.35 1129 1010.45
M 1615.6 1455.95
Q 1607.95 1454.5 1601.15 1457.25 1592.85 1460.55 1587.3 1469.15 1582.3 1476.9 1580.75 1486.85 1579.5 1494.55 1580 1505.6 1580.25 1511.85 1581.05 1524.4 1582.4 1559.55 1569.15 1599.8 1559.25 1630 1538.05 1670.9 1523.25 1699.55 1510.7 1719.2 1494.55 1744.55 1477.3 1763.25 1460.45 1781.5 1437.7 1798.75 1418.75 1813.05 1393.35 1828.4 1325.05 1869.55 1245.65 1898.2 1170.55 1925.3 1087.55 1940.55 1030.5 1951.05 983.95 1952.8 938.6 1954.5 884.6 1948.65 844.4 1944.25 786 1933.85 757.8 1928.85 739.1 1924.8 713.6 1919.3 692.85 1912.9 612.75 1888.4 545.7 1835.15 478.6 1781.85 436.65 1709.35 431.65 1700.75 428.9 1694.65 425.2 1686.35 423.75 1678.95 422.65 1673.6 422.2 1672.3 421 1668.65 418.65 1666.95 415.2 1664.4 410.55 1666.15 406.1 1667.85 404 1671.9 402.2 1675.45 402.15 1680.3 402.1 1683.8 403 1689.1 409.4 1725.85 433.1 1763.35 437.9263671875 1770.984375 443.65 1778.9 441.945703125 1779.61171875 440.5 1780.8 437.6 1783.15 436.25 1787.25 435.1 1790.85 435.2 1795.2 435.5 1803.3 439.7 1812.1 442.95 1818.85 449.2 1827.2 466.55 1850.4 489.2 1868.15 507.6 1882.65 533.55 1896.35 549.1 1904.55 581.25 1919.15 607.8 1931.2 621.85 1937.4 644.4 1947.35 662.8 1954.8 707.55 1972.95 752.65 1986.8 811.75 2005.05 859.85 2011.65 918.55 2019.65 968.85 2011.8 981.25 2009.85 999.9 2005.7 1004.698828125 2004.6392578125 1008.75 2003.75 1018.9986328125 2003.0734375 1029.5 2002.05 1070.05 1998.05 1117.85 1988.4 1211.9 1969.5 1294.25 1937.15 1383.25 1902.25 1456.5 1852.4 1484.25 1833.5 1504.6 1815.65 1528.9 1794.3 1545.9 1771.75 1556 1758.35 1566.65 1740.15 1572.9 1729.55 1585 1707 1605.5 1668.7 1614.6 1648.4 1629.5 1615.1 1635.6 1586.6 1643.95 1547.45 1640.3 1496.5 1639.45 1484.95 1637.45 1478 1634.65 1468.1 1628.6 1462.4 1623.2 1457.35 1615.6 1455.95 Z"/>
</g>
</defs>

<g transform="matrix( 1, 0, 0, 1, 0,0) ">
<use xlink:href="#Layer1_0_FILL"/>
</g>

<g transform="matrix( 1, 0, 0, 1, 0,0) ">
<use xlink:href="#Layer0_0_FILL"/>
</g>
</svg>
