
<svg xmlns="http://www.w3.org/2000/svg" version="1.1" xmlns:xlink="http://www.w3.org/1999/xlink" preserveAspectRatio="none" x="0px" y="0px" width="2000px" height="2000px" viewBox="0 0 2000 2000">
<defs>
<g id="Layer1_0_FILL">
<path fill="#000000" stroke="none" d="
M 1593.3 246.45
Q 1595.5 236.45 1587.4 226.4 1581.15 218.75 1569.3 211.55 1520.05 181.7 1462.25 161.4 1407.9 142.3 1347.4 132.1 1291.6 122.7 1229.55 120.6 1173.8 118.7 1111 122.7 1101.7 123.3 1096.5 124.35 1088.6 125.95 1083.25 129.55 1075 135.1 1070.2 146.85 1067.3 153.9 1064.1 168.8 1053.3 218.8 1029.75 282.8 1021.5 305.2 1008.3 338.55 1001.1 356.75 986.8 392.8 985.15 391.8 983.55 390.85 938.25 363.45 911.35 328.05 908.9 324.75 907.3 323.35 904.75 321.05 902.05 320.75 898.3 320.3 895.35 323.5 892.5 326.55 892.25 330.6 892.05 334.1 893.6 338.1 894.75 341.05 897.2 345.05 913.9 372.4 943.55 395.6 967.5 414.3 1002.75 432.3 1006.15 434.05 1009.55 435.75 990.65 434.55 969.3 434.35 947.05 434.15 916.4 435 890.5 435.7 874.65 437 851.75 438.95 833.35 443.05 819.05 446.3 801.95 452.1 790.6 455.9 771.2 463.35 765.05 465.7 759.65 467.8 758.75 466.85 757.75 465.85 736.15 444.85 695.35 397.6 655.45 351.45 632.7 329.65 622.5 319.8 612.8 311.7 609.7 309.1 607.95 307.95 605.1 306.05 602.5 305.25 599.45 304.25 596.45 304.75 593.15 305.25 591.1 307.35 588.45 310.05 588.3 314.85 588.2 318.2 589.45 323.4
L 599.55 366.75
Q 613.75 427.65 621.8 457.95 631.05 492.8 640.85 522.3 640.1 521.8 639.3 521.35
L 620.25 509.95
Q 598.6 497.1 588.6 491.85 584.15 489.6 581.5 488.6 577.45 487.1 573.95 487 569.85 486.9 566.4 488.8 562.65 490.85 561.4 494.35 560.25 497.65 561.4 503.65 564.3 517.85 572.4 537.4 575.9 545.8 579.45 553.55 584.3 564.1 588.05 570.6 589.15 572.5 590.2 574.15 565.35 597.35 543.5 623.15 539.5 627.85 535.65 632.65 512.45 617.15 495.45 606.05 422.55 558.35 362.6 522.6 356.85 519.15 353.5 517.6 348.2 515.2 343.6 514.65 338.15 514.05 333.35 516.2 328.15 518.5 326.1 523 324.6 526.35 324.95 530.95 325.15 534.05 326.45 539.15 334.25 570.8 339.1 587.65 346.8 614.3 355.25 635 377.6 689.6 421.85 744.4 435.15 760.9 451.85 778.9 434.95 824.8 427.75 873.15 417.15 944.05 428.65 1011.95 440.5 1081.55 474.95 1142.95 490.75 1171.1 510.2 1195.5 491.9 1211.6 476.75 1230.95 444.55 1190.3 419.85 1145.05 407.45 1122.25 405.35 1118.75 396.6 1104.15 387.65 1094.8 378.35 1085.1 370.55 1087 366.25 1088 362.95 1092.55 360.6 1095.8 358.45 1101.55 353.25 1115.5 347.6 1136.65 344.4 1148.5 338.15 1172.25 326.25 1214.95 309.65 1238.65 308.25 1240.6 307.25 1241.55 305.7 1243 304.1 1243.35 301.6 1243.9 298.95 1242.05 297.1 1240.8 294.8 1238 235.25 1165.8 184.3 1087.5 182.2 1084.25 181 1082.75 178.95 1080.25 176.8 1078.9 174.25 1077.25 171.3 1077.15 168.15 1077.05 166.05 1078.9 163.45 1081.2 163.55 1085.65 163.6 1088.8 165.1 1093.5
L 193.95 1181.8 134.15 1177.85
Q 126.2 1177.35 120.7 1179.05 113.55 1181.3 112.25 1187 111 1192.15 115.35 1197.1 118.8 1201.05 124.95 1204.2 139.75 1211.7 162.2 1218.35 175 1222.1 200.8 1229.15 209.1 1231.65 214.45 1233.8 221.8 1236.75 227.2 1240.45 232.55 1244.05 238.05 1249.85 241.55 1253.5 247.5 1260.7 278.75 1298.95 305.35 1339.75 309.45 1346.05 313.6 1349.15 319.1 1353.3 324.15 1351.5 327.4 1350.35 329.8 1346.7 331.4 1344.2 333.15 1339.55
L 365.95 1251.9 369.2 1287.95
Q 369.55 1291.65 370.2 1293.8 371.2 1296.9 373.3 1298.4 375.6 1300.1 378.9 1299.7 381.95 1299.3 384.4 1297.3 386.45 1295.6 388.25 1292.75 389.25 1291.1 391.05 1287.4
L 412.85 1241.75
Q 427.6 1250.85 439.2 1263.7 443.2 1268.05 444.15 1269 446.9 1271.6 449.55 1272.95 436.95 1296.9 429.4 1322.9 418.25 1361.5 416.65 1411.35 414 1497.15 441.3 1558.5 442.8 1561.9 444.45 1565.3 444.05 1565.9 443.7 1566.5 433 1584.45 425.3 1607.65 419.1 1626.25 413.95 1651.45 406.55 1687.45 404.45 1719.05 402.05 1755.05 406.35 1787.05 411.1 1822.15 424.1 1852.9 438 1885.7 460 1910.35 482.8 1935.8 515.85 1954.25 545.65 1970.85 582.3 1981 612.95 1989.55 652.45 1994.7 676 1997.8 723.8 2001.8 833.15 2011.05 878.95 2014 965.8 2019.6 1034.4 2019.15 1176.3 2018.2 1300.65 1991.65 1438.4 1962.25 1551.2 1902.15 1584.75 1884.25 1607.5 1867.4 1636.25 1846.05 1654.55 1821.85 1675.4 1794.25 1682.55 1762.2 1690.3 1727.65 1679.65 1697.75 1671.95 1676.15 1653.7 1655.45 1639.75 1639.7 1616.45 1621.25 1566.75 1581.9 1507.15 1550.6 1498 1545.75 1492.15 1543.75 1491.7 1543.6 1491.3 1543.45 1509.05 1505 1515.65 1464.85 1519.7 1439.95 1519.95 1411.2 1520.1 1386.95 1517.5 1357.25 1514.8 1326.1 1510.1 1302 1509 1296.35 1507.8 1290.95 1511.3 1290.05 1514.8 1289.25 1527.6 1286.4 1546.1 1283.95 1556.6 1282.6 1577.65 1280 1612.45 1275.25 1646.2 1266.8 1652.45 1265.25 1656.05 1263.25 1661.05 1260.4 1662.45 1256.05 1663.65 1252.4 1662.05 1248.3 1660.55 1244.55 1657.3 1241.8 1654.55 1239.5 1650.45 1237.75 1647.85 1236.65 1642.85 1235.05
L 1597.15 1220.7
Q 1616.7 1204.75 1677.15 1156.85 1727.35 1117.15 1756.7 1092.45 1846.95 1016.5 1901.05 949.1 1904.4 944.95 1906.05 942.3 1908.5 938.3 1909.2 934.55 1910 930.2 1908.2 926.2 1906.3 921.95 1902.45 920.65 1899.25 919.6 1895.25 920.9 1892.5 921.8 1888.35 924.25 1826.95 960.55 1771.35 1006.3
L 1739.2 931.1
Q 1737.6 927.4 1736.2 925.5 1734.05 922.7 1731.35 922.05 1726.25 920.9 1722.85 926.65 1720 931.45 1719.6 938.2 1717.3 976.2 1719.1 1014.7 1719.35 1020.35 1721.85 1024.45 1722 1024.7 1722.15 1024.95 1719.6 1026.35 1716.6 1028.75 1691.8 1048.55 1654.95 1073.65 1612.65 1101.95 1591.65 1116.3 1529.95 1158.5 1471.8 1205.3 1469.9 1202.55 1467.9 1199.9 1453.5 1180.65 1435.9 1167.25 1480.35 1106.35 1499 1025.7 1514.8 957.15 1510.05 884.1 1515.6 879.4 1524.15 872.35 1566.35 837.55 1586.95 819.55 1592.1 815 1594.5 811.45 1597.85 806.35 1597.1 801.6 1596.6 798.25 1594.1 795.45 1591.8 792.85 1588.4 791.3 1585.55 790 1581.7 789.3 1579.3 788.85 1574.7 788.4 1552.45 786.3 1528.8 784.9 1519.1 784.3 1503.9 783.55 1516.65 770.25 1534.1 751.95 1562.45 723.1 1585.2 704.75 1593.85 697.75 1611.45 684.05 1626.5 671.75 1635.55 661.15 1638.65 657.5 1640.5 654.6 1642.8 650.85 1643.75 647.3 1644.8 643.15 1643.95 639.2 1642.95 634.9 1640.05 632.3 1637.35 629.95 1633 629.1 1630.15 628.55 1625 628.5 1579.45 628.35 1524.4 638.35 1490 644.6 1434.05 658.7 1431.9 655.9 1429.7 653.15 1415 634.95 1390.05 610.8 1357.35 579.15 1329.05 557.05 1297.7 532.5 1263.35 512.65 1285.6 516.3 1309.05 519.35 1370.8 527.5 1419.05 528.45 1478.35 529.6 1528.6 520.5 1534.5 519.4 1537.7 518.4 1542.6 516.9 1546 514.5 1550 511.7 1552.05 507.45 1554.2 502.85 1553.1 498.55 1551.15 491.2 1541.75 488.85 1534.55 487 1524.2 488.25 1426.75 500.05 1326.4 490.5 1326.7 489.85 1327.05 489.15 1330.4 480.25 1332 476 1336.2 464.95 1345.8 453.75 1352.05 446.5 1364.7 434.95 1464.75 344.2 1575.1 267.3 1582.75 262 1586.35 258.3 1591.95 252.65 1593.3 246.45
M 1384.55 368.1
Q 1367 382.8 1355.85 392.75 1344.95 402.4 1335.8 411.35 1280.9 405.6 1216.45 382.2 1175.6 367.4 1098.7 331.8 1079.2 322.75 1070 318 1057.2 311.5 1047.15 305.05 1073.5 236.6 1095.1 166.6 1096.65 161.5 1098.05 158.8 1100.2 154.75 1103.35 152.85 1105.5 151.6 1108.65 151.1 1110.65 150.8 1114.4 150.7 1176 149.5 1226.65 152.3 1286.15 155.55 1338 164.65 1458.45 185.75 1548.1 239.75 1464.9 300.85 1384.55 368.1
M 1321.25 426.35
Q 1314.85 433.4 1310.4 439.45 1301.55 451.45 1297.45 463.25 1292.55 477.2 1296.25 487.2 1295.55 487.1 1294.9 487 1181.3 472.45 1071.9 431.85 1034.95 418.15 1006.45 403.55 1025.1 361.35 1041.9 318.55 1044.5 320 1047.4 321.55 1051.55 323.75 1060 327.85 1121.35 357.7 1153.15 371.95 1205.4 395.35 1248.8 410.05 1276.35 419.4 1296.25 423.2 1309.25 425.65 1321.25 426.35
M 1447.3 677.35
Q 1450.75 676.7 1455.05 675.8 1530.55 659.55 1608.1 654.35 1560.5 693.55 1536.7 714.15 1509.1 738 1486.5 759.65 1484.25 752.95 1481.8 746.45 1467.7 708.55 1447.3 677.35
M 1368.9 645.55
Q 1391.55 668.45 1405.9 687.95 1439.35 733.6 1456.15 796.8 1455.65 800.45 1456.85 804.1 1457.65 806.6 1459.05 808.4 1464.6 832.1 1467.95 858.15 1469.9 873.5 1470.95 888.55 1469.2 890.4 1467.7 892.15 1463.8 896.9 1462.85 900.7 1462.2 903.2 1462.6 905.6 1463 908.25 1464.55 910.05 1466.65 912.45 1470.3 912.95 1471.2 913.05 1472.05 913.1 1472.9 956.3 1465.95 997.15 1453.6 1069.6 1417.9 1125.9 1384.7 1178.25 1329 1220 1288.7 1250.15 1238.15 1273.75 1242 1270.4 1245.65 1266.7 1262.4 1249.85 1272.5 1228.8 1274 1225.65 1272.7 1224.3 1271.7 1223.3 1270 1223.95 1268.6 1224.45 1267.3 1225.8 1244.75 1250.05 1232.8 1261.3 1212.15 1280.75 1192.9 1289 1184.3 1292.7 1173.45 1295.3 1165.3 1297.3 1153.25 1299.2 1147.2 1300.15 1143.7 1300.55 1138.45 1301.15 1134.15 1301.15 1123.2 1301.1 1112.7 1297.6 1102.2 1294.05 1093.5 1287.45 1084.6 1280.7 1084.35 1273.65 1084.35 1272.35 1084.35 1271.7 1084.35 1270.55 1084.15 1269.8 1083.85 1268.85 1083.15 1268.2 1082.35 1267.5 1081.4 1267.6 1077.5 1269 1075.9 1273.55 1074.4 1277.85 1075.8 1282.15 1077 1285.85 1080.15 1289.4 1082.4 1292 1086.5 1295.3 1097.7 1304.3 1107.2 1308.2 1113.65 1310.8 1125.1 1313.05 1126.7 1313.35 1128.15 1313.6 1044.8 1335.8 956.1 1336.3 819.3 1337.05 697.4 1285.9 634.1 1259.4 590.8 1224.45 578.85 1214.8 567.8 1204.05 570.15 1204.9 572.55 1205.6 591.2 1211.25 610.2 1208.85 630.05 1206.35 645.15 1195.6 647.35 1194.05 647.05 1192.6 646.6 1190.75 643.15 1191 638.4 1191.45 628.35 1193.25 618.65 1194.95 613.5 1195.35 594.8 1196.9 575.75 1190.05 557.65 1183.55 542.45 1170.75 532.85 1162.65 524.65 1152.25 513.9 1136.4 504.85 1119.4 502.2 1113.6 499.85 1107.45 495.85 1096.85 492.2 1083.6 489.6 1074.35 486.05 1059.25 485 1054.5 482.5 1053.8 481.15 1053.45 479.75 1054.25 478.7 1054.8 478.1 1055.8 467 1021 462.45 984.35 456.65 937.35 462.05 891.15 466.95 849.05 480.35 808.45 494.8 822.85 511.15 838.15 559 882.85 600.5 915.25 638.05 944.5 674.6 967.1 674.7 967.35 674.85 967.6 677.75 973 682.5 979.8 690.75 991.6 698.95 998.5 709.4 1007.25 720.55 1008.95 728.35 1010.15 731.75 1006.15 728.75 1003.2 723.05 1000.9 716.5 998.6 713.35 997.15 701.95 992.05 692.9 979.75 691.9 978.4 690.9 976.9 694.5 978.95 698.1 981 714.55 990.3 726.3 994.85 742.3 1001.1 756.45 1001.7 769.85 1002.3 785.6 997.95 796.8 994.9 813.55 987.85 827.45 982.05 836.15 977.35 848.1 970.85 856.55 963.35 875.7 946.35 882.5 919.7 889.15 893.55 881.4 868.55 873.85 844.15 854.25 825.35 835.15 807 810.1 799.1 805.9 797.8 794.5 794.95 784.6 792.45 779 790.45 770.85 787.55 761.6 782.5 755.25 779 745.1 772.6 728.9 762.4 708.65 748.95 697.8 741.75 672.6 724.7
L 625.9 693.2
Q 593.3 671.2 566.7 653.35 590.85 623.85 619.65 597.9 619.3 598.9 619 599.9 611.55 624.5 616.65 645.05 621.25 663.6 636.4 679.95 644.55 688.75 655.5 696.6 657.75 699 660.25 701.45 666.1 707.15 677.7 716.5 691.05 727.35 699.4 732.75 717.4 744.3 744.35 752.45 775 761.8 802.45 762.65 834.05 763.65 859.75 753.3 866.1 750.8 868.75 747.8 867.65 746.4 865.45 746 863.9 745.7 861.35 745.9 829.95 748.2 822.45 748.5 800.45 749.3 783.7 747.05 775.65 746 765.75 743.8 759.65 742.4 748.05 739.45 736.75 736.5 730.7 734.6 721.2 731.55 714.05 727.9 709.3 725.5 701.6 720.5 713.55 724.8 726.05 727.55 757.05 734.4 787.05 730.65 803.6 728.55 819.1 723.3 831.15 726.95 839.6 727.2 845.85 727.35 851.15 726 853.8 726.1 857.25 724.9 861.95 723.3 867.25 720.05 870.5 718.1 876.5 713.75 886.6 706.55 891.55 702.65 899.7 696.2 905.45 690.2 909.8 685.65 914.5 679.55 917.7 675.35 922.7 668.2 932.9 653.55 939.25 643.25 947.85 629.35 953.65 617 967.85 586.85 968.75 559.5 967.3 560.1 966.25 561.75 965.55 562.85 964.7 565 948.35 606.2 925.5 643.45 917.25 656.95 910.15 666.35 891 691.5 864.85 708.85 863.8 707.8 862.3 707.55 861.05 707.4 859.5 707.9 859.05 708.05 856.85 709 852 711.05 845.95 711.25 873.4 695.9 891.45 672 903.2 656.35 910.15 638.6 917.7 619.4 919.2 599.05 919.45 595.8 919.5 592.6 922.9 581.5 924.35 575.75 927 565.3 927.8 556.7 928.45 549.45 928.15 537.6 927.75 523.1 926.15 514 923.95 501.2 918.75 491.95 917.75 493 917.35 494.75 917.1 495.9 917.05 497.95
L 915.9 537.85
Q 915.65 546.45 915.4 550.7 915.2 553.6 915 556.3 909.75 537.8 898.7 522.05 886.7 504.9 869.85 493.85 859.25 486.95 847.2 482.6 853.4 481.15 857.5 480.4 867.75 478.45 880.25 477.15 889.45 476.2 903.1 475.3 949.35 472.35 986.9 473.35 1031.6 474.55 1070.2 481.4 1153.1 496.05 1231.7 540.25 1306 581.95 1368.9 645.55
M 1774.75 1026.45
Q 1776.8 1025.3 1780.3 1022.35 1820.2 988.05 1865.7 961.1 1813.45 1022.9 1723.4 1096.35 1702.5 1113.45 1646.1 1157.75 1596.95 1196.4 1569.2 1219.65 1565.25 1222.9 1563.45 1226.3 1561.2 1230.6 1563.25 1233.8 1564.35 1235.55 1566.8 1236.55 1568.3 1237.2 1571.35 1237.85
L 1631.35 1249.9
Q 1608.85 1257.25 1568.95 1261.2 1539.65 1264.1 1537.1 1264.4 1519.05 1266.5 1505.65 1269.4 1504 1269.75 1502.3 1270.15 1502.25 1269.9 1502.15 1269.7
L 1465.2 1281.55
Q 1465.25 1281.7 1465.3 1281.85 1454.45 1286.05 1443 1291.35 1425.65 1299.35 1383.55 1322 1381.45 1323.15 1380.05 1323.5 1378.05 1324 1376.55 1323.2 1374.25 1322 1374.15 1318 1374.5 1313.2 1374.15 1311 1373.95 1309.8 1373.5 1308.85 1391.05 1293 1410.15 1276.85 1410.35 1276.65 1410.55 1276.5 1410.7 1276.4 1410.9 1276.2 1418.75 1269.55 1426.85 1262.9 1427.15 1262.55 1427.55 1262.2 1427.65 1262.1 1427.75 1262.05 1427.85 1261.95 1428 1261.85
L 1428.8 1261.25
Q 1436.95 1255 1440.85 1251.1 1442.55 1249.4 1445.8 1245.9 1448.75 1242.9 1451.2 1241.25 1452.3 1240.5 1455.3 1238.9 1457.95 1237.45 1459.35 1236.4 1461.6 1234.75 1464.35 1231.5 1468.45 1226.6 1468.95 1226.1 1470.55 1224.4 1472.75 1222.65 1474.3 1221.9 1476.1 1221.1
L 1483.25 1217.95
Q 1511.95 1195.85 1543.3 1173.15 1605.7 1127.95 1724.7 1048.65 1729.05 1045.7 1731.15 1043.9 1734.5 1040.95 1736.1 1037.8 1738 1034.1 1737.2 1030 1736.4 1025.7 1733.2 1023.9 1734.25 1021.25 1734.45 1017.1 1735.95 990.25 1734.9 963.35
L 1756.6 1015.4
Q 1758.85 1020.8 1761.1 1023.65 1764.35 1027.7 1768.45 1028.05 1771.45 1028.3 1774.75 1026.45
M 1567.25 810.1
Q 1559.45 815.55 1550.05 823 1544.8 827.1 1533.3 836.55
L 1507.65 857.6
Q 1507.3 854.45 1506.9 851.3 1504 828.05 1499.25 806.3 1509.6 807.55 1522.2 808 1529.7 808.25 1544.75 808.6 1558 809.1 1567.25 810.1
M 1422.6 1209.1
Q 1432.7 1218.4 1441.15 1230.5 1412.7 1254.4 1385.15 1279.4 1408.75 1245.25 1422.6 1209.1
M 1397.15 1211.9
Q 1391.9 1225.3 1386.25 1236.3 1372.4 1263.5 1348.65 1291.35 1330.95 1312.15 1301.95 1339.6 1283 1357.55 1269.25 1369 1250.9 1384.35 1233.95 1395.05 1192.45 1421.25 1152.2 1425.1 1136.25 1426.65 1116.1 1424.9 1111.1 1424.45 1103.3 1423.5 1124.2 1414.05 1144.9 1402.7 1193.3 1376.2 1239.25 1339.9 1263.35 1320.8 1278.8 1304.95 1287.3 1296.2 1295.05 1286.75 1355.05 1253.15 1397.15 1211.9
M 871.95 546.45
Q 882.7 561.95 885.85 580.45 888.9 598.3 884.7 617.05 880.65 635.15 870.5 651 858.6 669.6 840.75 682.3 825.15 693.45 805.7 699.4 787.2 705.1 767.05 705.6 730.45 706.5 690.5 690.75 669.5 682.45 657 672.4 649.2 666.15 643.65 658.6 637.75 650.5 635.05 641.65 630.7 627.35 634.5 609.75 637.4 596 645.75 578.85 647.05 576.2 648.35 573.7 655.7 567.95 663.1 562.55 666.45 562.95 668.95 561.2 671.5 559.35 672.25 556.05 700.55 536.3 729.55 521.9 740.95 516.25 752.6 511.4 759.35 511.4 775.2 511.2 790.45 510.95 799.35 511.4 827 512.7 844.8 522.05 860.95 530.55 871.95 546.45
M 738.3 476.35
Q 736.6 477 735.1 477.65 715.35 485.95 699.95 494 681.65 503.6 661.95 516.95 634.55 431.95 616 344.65 630.65 357.1 647.7 376.05 650.3 378.9 677 409.85 692.1 427.35 707.75 444.2 719.3 456.6 738.3 476.35
M 664 743.45
Q 676.3 750.35 701.05 763.8 722.85 775.9 737.35 785.3 743.2 789.1 767.9 806.35 786.55 819.4 799 826.5 805.85 830.45 819.75 838.15 831.45 845.2 838.45 852.4 854.35 868.75 855.55 893.35 856.75 918 842.55 935.8 834.7 945.65 822.15 953.25 811.8 959.5 797.4 964.7 785.9 968.85 776.5 970.6 765 972.75 755 971.75 744.6 970.75 732.85 966 724.25 962.5 712.05 955.7 664.85 929.65 616.25 891.85 617.2 890.85 618.5 889.4 630.4 876 639.35 863.85 645.6 855.4 648.7 849 652.9 840.35 653.05 832.45 650.5 835.1 647.8 838.95 646.6 840.7 643.15 845.9 631.3 863.8 618 879.25 614.5 883.4 611.85 885.7 611 886.45 610.15 887.1 607 884.55 603.8 882 591.4 872 578.4 860.8 573.6 855.2 564.15 846.25
L 542.35 825.6
Q 523.95 808.1 515.1 799.05 510.85 794.7 501.6 784.85 498.1 781.1 495.2 778.1 530.7 756.05 559.25 725.15 563.15 720.95 565.25 718 568.25 713.9 569.65 709.95 562.7 712.95 555.25 720.05 550.95 724.15 542.85 733 533.3 742.85 518 754.5 509.3 761.2 491.55 774.2
L 491.5 774.25
Q 489.6 772.25 488.05 770.7 472.7 755.15 455.65 741.15 421.1 700.95 398.25 658.75 370.4 607.2 361.25 555.05 397.4 572.95 438.95 598.55 468.4 616.7 513.7 647.2 517.3 649.6 520.75 651.95 520.45 652.3 520.2 652.65 541.05 666.05 550.5 673.05 550.75 673.25 551.05 673.45 551.3 673.05 551.6 672.65 553.15 673.7 554.65 674.7 554.55 674.85 554.45 675 553.55 676.4 552.55 678.8 551.05 682.15 550.8 682.7 547.75 689.25 540.8 696.6 536.85 700.85 528.5 708.95 525.25 712.3 524.3 714.8 523.9 715.9 524 716.9 524.1 718.05 524.9 718.55 526.85 719.9 529.85 715.85 531.15 714.2 533.2 712.5 534.05 711.8 537 709.6 550.5 699.4 556.05 687.85 558.15 683.4 559.45 677.9 580.85 692.25 587.95 696.85 630.3 724.5 664 743.45
M 612.4 525.6
Q 623.75 532.05 633.6 537.4 617.95 549.4 603.25 562.35 601 558.4 597.95 552.4 594.55 545.6 593.4 543.1 591.2 538.25 587.3 527.7
L 580.5 509 582.8 508.45
Q 603.35 520.45 612.4 525.6
M 373.35 1099.55
Q 384.95 1114 397.55 1134.75 401.7 1141.5 419.05 1171.85 432.1 1194.65 441.3 1208.25 454.4 1227.55 467.85 1241.4 468.15 1241.75 468.5 1242.05 466.1 1245.45 463.8 1248.9 461.35 1252.6 459.05 1256.35 457.7 1254.85 456.05 1253.3
L 427.95 1227.55
Q 424 1223.95 421.6 1222.35 417.75 1219.85 414.15 1219.5 408.2 1218.9 402.8 1223.6 398.1 1227.7 395.15 1234.25 393.4 1238.2 390.45 1246.35 387.55 1253.45 384.05 1257.35
L 381.7 1228.3
Q 381.3 1223.55 380.8 1221.1 380.05 1217.15 378.4 1214.4 376.45 1211.15 373.15 1209.55 369.6 1207.8 366.3 1208.95 363.4 1209.95 361.25 1213.2 359.75 1215.4 358.25 1219.5
L 318.8 1323.8 260.35 1246.5
Q 254.15 1238.35 250.8 1234.6 245.15 1228.25 239.55 1224.5 233.9 1220.65 225.9 1217.75 221.1 1216 211.2 1213.3
L 161.3 1199.8
Q 171.55 1198.55 181.9 1200.3 192.25 1202 201.55 1206.6 204.6 1208.1 206.1 1208.55 208.7 1209.35 210.75 1208.7 214.55 1207.5 215.25 1202.4 215.75 1198.4 214.3 1193.25
L 201.8 1148.85 252.5 1216.4
Q 262.9 1230.3 268.45 1237.15 277.6 1248.4 285.9 1256.5 297.25 1267.5 306.1 1265.45 309.95 1264.55 313.4 1261.15 315.9 1258.7 318.85 1254.2 329.1 1238.45 337.05 1217.8 343.1 1202.2 349.5 1178.7 356.5 1151.95 360.25 1138.65 366.75 1115.6 373.35 1099.55
M 541.5 1230.1
Q 552 1240.3 563.35 1249.65 612.15 1290 684 1320.25 753.85 1349.6 830 1363.1 905.1 1376.35 981.95 1373.4 1058.75 1370.45 1132.6 1351.45 1176.3 1340.25 1217.4 1323.8 1176.2 1355.7 1132.4 1379.9 1071.65 1413.45 1008.8 1430.5 942.6 1448.45 876.1 1447.25 806.75 1446 744.9 1424.05 717.35 1414.35 682.15 1396.65 666.6 1388.75 655.9 1382.45 641.95 1374.25 631.1 1365.9 596.35 1339.15 570.5 1293.65 555.3 1266.8 541.5 1230.1
M 1131.25 1465.6
Q 1131.1 1471 1130.65 1481.85 1130.6 1488.85 1131.5 1497.85 1131.85 1501.65 1133.35 1513.75 1140.9 1575.95 1139.2 1639.05
L 1136.25 1627.95
Q 1135.35 1624.5 1135.7 1622.75 1136.5 1620.45 1136.35 1619.3 1136.15 1617.45 1134 1616.75 1131.9 1616.1 1130.3 1617.25 1127.5 1619.15 1127.4 1624.1 1127.3 1627.45 1128.95 1634.45 1130.4 1640.35 1131.75 1645.75 1129.2 1646.65 1126.2 1647.2 1122.55 1647.9 1111.9 1648.75 1107.15 1649.1 1100.25 1650.1
L 1099.45 1619.45
Q 1099.4 1617.1 1099.2 1615.8 1098.85 1613.8 1098 1612.45 1097 1610.85 1095.2 1610.2 1093.3 1609.5 1091.8 1610.45 1089.85 1611.75 1089.65 1616.15 1088.65 1634 1088.8 1651.85 1080.3 1653.25 1069.7 1655.25 1069.7 1654.8 1069.7 1654.35 1069.7 1652.15 1069.1 1650.85 1068.85 1650.65 1068.45 1650.75 1068.05 1650.85 1067.85 1651.15 1067.6 1651.45 1067.5 1652.55 1067.45 1654.45 1067.45 1655.65 1064.7 1656.15 1061.8 1656.7 1057.45 1657.5 1053.35 1658.25 1053.3 1657.2 1053.25 1656.1 1052.95 1649.2 1052.6 1645.5 1052 1639.65 1050.75 1635.05 1049.7 1631.4 1047.65 1630.85 1046.2 1630.45 1044.85 1631.6 1043.55 1632.65 1043.25 1634.25 1043 1635.6 1043.3 1637.35 1043.4 1637.75 1044.05 1640.4 1045.1 1644.7 1045.4 1650.85 1045.55 1653.9 1045.7 1659.55 1025.05 1662.8 1011.6 1663.1 1044.15 1546.85 1041.2 1447.05 1062.6 1440.4 1083.8 1431.8 1106 1438.6 1129.25 1439.9 1129.2 1441.25 1129.35 1442.8 1129.4 1442.85 1130.5 1449.45 1131.6 1455.9 1131.25 1465.6
M 1111.1 1794.45
Q 1184.7 1781.65 1251.45 1754.4 1300.95 1734.25 1342.55 1707.65 1387.45 1678.9 1421.9 1643.45 1450.5 1614.05 1471.3 1580.5 1474.55 1582.2 1478.65 1584.05 1546.4 1614.35 1604.15 1660.65 1615.55 1669.8 1622.4 1676.7 1631.75 1686.1 1637.25 1695.6 1650.5 1718.35 1646.85 1747.8 1643.45 1775.2 1627 1798.75 1612.7 1819.25 1588.8 1837.25 1570.75 1850.85 1542.2 1866.4 1488.65 1895.6 1431.75 1917.05 1350.45 1947.75 1257.1 1964.6 1172.35 1979.85 1076.65 1983.9 993.8 1987.4 895.4 1982.7 820.75 1979.1 714.4 1969.35 682.9 1966.5 664.35 1964.3 636.85 1961.05 614.6 1956.95 581.45 1950.8 556.75 1941.7 526.5 1930.55 504.6 1913.65 469.75 1886.75 450.15 1841.65 432.2 1800.45 430 1751.8 428.1 1710.65 437 1660.5 442.15 1631.7 454.45 1584 466.65 1604.75 483.2 1624.1 507.9 1652.95 540.75 1677.1 570.45 1698.9 607.6 1717.55 639.55 1733.55 679.55 1748.4 749.55 1774.4 820.15 1788.7 893.5 1803.5 965.3 1805.15 1039.6 1806.9 1111.1 1794.45
M 1470.65 1303.3
Q 1471.9 1309.3 1473 1315.7 1475.95 1332.9 1478.35 1358.25 1480.55 1381.15 1481.2 1397.95 1482.05 1419.45 1480.7 1437.7 1477.95 1474.75 1465.55 1510.25 1453.2 1545.75 1432.25 1576.5 1402.2 1620.6 1351.75 1658.75 1293.45 1702.75 1219.2 1730.6 1150.65 1756.3 1072.05 1766.95 968 1780.95 862.7 1766.95 757.4 1752.9 660.6 1712.15 628.2 1698.5 601.8 1683.8 571.7 1667.05 547.45 1647.9 520.85 1626.85 500.75 1602.35 479.15 1576.15 466.2 1547.35 442.4 1494.25 443.05 1422.2 443.35 1382.55 451.05 1347.95 459.55 1309.5 476.85 1278.4 486.6 1260.95 501.5 1241.8 510.65 1230 525.35 1213.3 526.65 1214.75 528 1216.25 539.7 1250 547.65 1268.45 563.75 1305.95 583.4 1332 612.6 1370.75 660.35 1400.05 700.55 1424.65 755.25 1443.3 788.65 1454.65 816.95 1460.5 871.35 1471.7 929.6 1467.9 980.7 1464.55 1031.35 1449.95 1029.35 1502.75 1020.05 1555.05 1010.1 1610.95 992.1 1664.55 990.7 1668.65 990.4 1671.15 989.9 1674.9 991.2 1677.6 994.65 1684.7 1009.25 1683.5 1026.4 1682.05 1047.35 1679.2
L 1050.45 1706.65
Q 1050.75 1709.3 1051.6 1710.4 1053.75 1698.5 1053.95 1683.35 1053.95 1681.1 1053.95 1678.3 1066.1 1676.55 1089.3 1672.95 1090.25 1696.3 1093.1 1719.6 1093.5 1722.95 1094.9 1725.2 1096.65 1728 1099.15 1727.6 1100.8 1712.1 1100.9 1692.6 1100.95 1684.6 1100.7 1671.15
L 1133.2 1665.95
Q 1135.1 1665.65 1136.85 1665.35 1138.4 1671.15 1139.6 1674.45 1141.45 1679.65 1143.95 1683.3 1145.15 1683.65 1146 1682.35 1146.75 1681.2 1146.9 1679.65 1147.4 1674 1146.2 1666.95 1145.9 1665.35 1145.45 1663.2 1145.85 1663.05 1146.25 1662.9 1153.2 1660.3 1156.65 1655.5 1158.9 1652.45 1160 1647.9 1160.75 1644.75 1161.2 1639.45 1164.25 1605 1158.7 1546 1154.95 1505.45 1154.45 1499.2 1152.4 1472.6 1152.6 1452.35 1152.7 1444.65 1151.45 1439.85 1153.3 1439.75 1155.2 1439.6 1194.7 1436.65 1229.1 1419.15 1244.65 1411.2 1266.05 1396.15 1315.55 1361.15 1351.85 1321.1 1352.05 1326.25 1354.2 1332.6 1356.6 1339.75 1360.2 1344.3 1364.65 1350 1370.5 1351 1374.75 1351.75 1379.85 1349.9 1383.1 1348.7 1388.55 1345.55 1426.65 1323.4 1449.75 1312.45 1460.4 1307.4 1470.65 1303.3
M 323.95 1258.75
Q 322.9 1261 322.9 1263 322.9 1265.4 324.65 1266.05 326.2 1266.6 327.75 1265.25 328.95 1264.2 329.95 1262.25
L 351 1221.7
Q 354.85 1214.3 356.7 1210.35 359.65 1204 361.3 1198.6 359.05 1199.55 356.9 1201.7 355.45 1203.15 353.4 1205.9 345.45 1216.8 337.5 1231.65 332.7 1240.55 323.95 1258.75
M 373.15 1144.5
Q 370.8 1143.55 369.1 1144.65 368.65 1145.7 369 1147 369.3 1148.2 370.15 1149.15 370.85 1149.9 372 1150.8 372.65 1151.3 374 1152.25 376.3 1154.05 378.95 1157.7 382.75 1162.9 383.45 1163.7 385.15 1165.65 388.95 1169.05 392.8 1172.45 394.45 1174.35 396.35 1176.5 398.95 1180.45 402.05 1185.2 403.2 1186.7 409.45 1194.85 418.35 1199.4 416.65 1195.2 413.6 1190.6 411.5 1187.45 407.6 1182.45 396.4 1168.3 386.05 1156.6 380.95 1150.8 376.9 1147 374.95 1145.2 373.15 1144.5
M 683.8 813
Q 679.1 817.55 674.95 825.4 672.55 829.95 668.2 839.3 666.15 843.5 660.5 853.4 659.25 855.55 658.45 856.6 657.2 858.3 655.8 859.15 655.05 859.6 653.45 860.4 652.15 861.2 651.7 862.15 650.9 863.85 652.35 865.55 653.7 867.2 655.7 867.45 659.75 867.9 663.2 864.5 664.55 863.2 665.8 861.25 666.5 860.2 667.9 857.7
L 673.25 848.05
Q 676.8 841.6 678.35 838.4 680.95 832.95 682.25 828.3 684.3 820.7 683.8 813
M 765.2 822.9
Q 762.75 822.7 762 824.6 764.3 826.8 762.5 832.45 750.4 869.15 728.05 900.55 721.85 909.3 720.25 912 716.3 918.65 715.1 924.55 725.55 918.5 734.35 906.35 740.15 898.25 748.05 882.85 755.8 867.65 759.75 858.5 765.7 844.85 768.8 833.15 770.35 827.65 768.75 824.95 767.65 823.05 765.2 822.9
M 423.5 621.2
Q 421.85 623.8 419 627.2 417.45 629.15 414.2 633 406.9 642.1 401.85 652.6 405.05 651.7 408.2 649.2 410.45 647.35 413.45 644 427.6 628.2 437.7 609.5 439.3 606.35 438.25 604.85 437.65 604.1 436.65 603.95 435.7 603.75 434.75 604.15 433.4 604.75 431.95 606.65 430.05 609.2 427.6 613.85 424.6 619.45 423.5 621.2
M 671.6 569.8
Q 666.1 579.55 665.5 590.15 665.1 597.9 667.25 607.2 668.45 612.55 670.25 616.2 672.55 620.85 677.85 626.3 690.1 639.1 701.95 642.8 714.35 646.7 729.15 642.6 740.6 639.35 753.95 630.7 777 615.65 782.7 597.9 785.2 590.15 784.4 581.75 783.6 573.4 779.75 566.2 776.8 560.8 773 557.6 770.45 555.35 764.2 552 759.85 549.7 757.55 548.7 753.8 547 750.55 546.35 748.35 545.9 745 545.65 741.3 545.45 739.45 545.25 737.15 545.05 732.9 544.35 728.45 543.65 726.4 543.45 715.55 542.25 705.05 544.85 694.25 547.55 685.7 553.8 676.95 560.25 671.6 569.8
M 712.7 555.75
Q 718.65 554.5 723.25 555.35 725.55 555.8 728.35 556.9 729.9 557.5 733.2 559.05
L 751.95 568.1
Q 756.45 570.25 758.75 571.8 762.3 574.2 764.1 577.1 766.1 580.35 766.2 584.6 766.3 588.55 764.75 592.45 762.4 598.45 755.35 605.2 745 615.15 732.85 620.15 719.4 625.65 706.7 623.75 699.9 622.7 694.3 619.6 688.25 616.2 684.9 610.9 680.35 603.65 680.85 593.55 681.45 580.3 690.6 569.45 699.7 558.6 712.7 555.75
M 708.55 583.7
Q 707.7 585.25 707.3 588.4 707.1 590.3 707.3 591.25 707.7 593.2 709.65 594.85 711.85 596.7 714.4 596.7 715.5 596.7 716.6 596.3 719.5 595.35 720.8 592.8 722.25 590.1 721.2 586.45 720.5 584 718.75 582.3 716.9 580.45 714.6 580.3 714.35 580.75 713.65 580.85 713.6 580.9 712.35 580.95 710 581.15 708.55 583.7
M 1488.1 1224.3
Q 1483.25 1227.35 1476.75 1233.4 1462 1247.1 1449.2 1262.2 1447.6 1264.25 1447.75 1265.45 1447.85 1266.65 1449.1 1267.35 1450.25 1268.05 1451.55 1267.8 1453.3 1267.5 1455.75 1265.2 1460.65 1260.7 1468.4 1252.85
L 1501.4 1219.5
Q 1494.9 1220.1 1488.1 1224.3
M 1591.2 1171.85
Q 1599.55 1165.5 1604.4 1159.25 1606.15 1157 1606.15 1155.5 1606.2 1154.4 1605.4 1153.5 1604.6 1152.6 1603.6 1152.8 1602.9 1152.9 1601.9 1153.8 1598.75 1156.6 1595 1159.55 1590.7 1163 1580.25 1170.6
L 1552.8 1190.4
Q 1525.6 1210.05 1512.7 1220.2 1490.85 1237.4 1475.15 1253.05 1470.2 1258.05 1467.55 1261.5 1463.75 1266.5 1462.15 1271.3 1465.55 1270.55 1469.2 1268.05 1471.3 1266.55 1475.35 1263.05 1510.25 1232.35 1547.15 1204.15
L 1563.15 1192.05
Q 1573.9 1184.05 1576.1 1182.5 1590.15 1172.65 1591.2 1171.85
M 1738.15 1055.8
Q 1736.65 1055.25 1734.1 1056.95 1695.95 1082.05 1662.35 1113.25 1658.65 1116.6 1656.6 1118.9 1653.6 1122.2 1651.9 1125.4 1662.2 1120.55 1673.9 1112.35 1680.95 1107.45 1694.4 1096.9
L 1736.3 1064
Q 1739.1 1061.85 1739.7 1060.15 1740.2 1058.9 1739.8 1057.6 1739.35 1056.2 1738.15 1055.8
M 878.75 976
L 855.55 989.4
Q 851 992 849.05 993 845.4 994.95 842.35 996.05 837.45 997.85 830.25 999 821.95 1000.1 817.8 1000.75 816 1001.05 814.85 1001.7 813.4 1002.6 813.4 1003.95 813.4 1005.35 814.95 1006.2 816.25 1006.85 818.05 1006.95 830.45 1007.75 844.25 1002.2 855 997.9 868.2 988.95 872.7 985.9 875 983.4 878.25 979.85 878.75 976
M 613.6 1001.65
Q 590 1002.35 570.2 1011.25 548.4 1021.05 536.55 1038.55 521.25 1061.25 525.6 1091.6 529.75 1120.65 549.35 1142.1 567.35 1161.8 595.3 1173.1 620.15 1183.15 650.3 1185.55 674 1187.4 706.45 1184.95 725.15 1183.55 762.55 1179.7 844.15 1172.6 914.9 1182.3 995 1193.25 1059.5 1225.5 1068.05 1229.8 1085 1238.65 1100.05 1246.25 1111.25 1250.15 1125.85 1255.25 1139.4 1256.15 1154.7 1257.15 1167.5 1252.7 1181.6 1247.75 1193.3 1235.95 1203.95 1225.2 1211.2 1210.35 1217.75 1196.85 1220.05 1183.1 1222.55 1168.3 1219.8 1154.8 1215.15 1131.75 1195.6 1112.5 1178.85 1095.9 1153.6 1084.25 1112.55 1065.25 1053.25 1058.7 1031.7 1056.3 1000.7 1054.75 965.55 1053.25 948.1 1052.35 878.6 1048.8 811.6 1038.25 756.15 1029.55 700.9 1015.85 667.75 1007.7 657.55 1005.75 632.95 1001.05 613.6 1001.65
M 630.6 1020.8
Q 636.95 1022.6 645.75 1026.8 650.35 1029 659.1 1033.25 657.75 1037.3 655.3 1044
L 652.95 1050.4
Q 646.65 1067.7 643.6 1076.4
L 632.65 1108.9 624.25 1091.6
Q 620.05 1082.8 618.9 1079.9
L 616.4 1073.15
Q 614.9 1069.15 613.65 1066.55 612.9 1065 610.7 1061.05 608.8 1057.6 607.9 1055.5 607 1053.5 605.85 1050 604.5 1045.95 603.9 1044.45 603.3 1042.9 599.65 1035.3 597 1029.8 596.05 1026 595.6 1023.9 595.35 1022.8 595.15 1021.95 594.95 1021.25 598.95 1020.15 603.05 1019.5 617.55 1017.15 630.6 1020.8
M 576.65 1028.65
Q 581.6 1025.95 586.65 1023.95 588.3 1036.55 591.6 1048.65 593.9 1056.85 596.6 1061.7 597.15 1062.7 598.6 1065.1 599.95 1067.25 600.6 1068.5 601.55 1070.3 602.55 1073.15 603.1 1074.7 604.2 1077.9 605.1 1080.35 607.85 1086.55
L 618.7 1110.5
Q 621.8 1117.5 624.15 1120.95 626.2 1124 628.6 1125.75 631.5 1127.8 634.5 1127.65 638.05 1127.4 641.05 1124 643.15 1121.55 645.3 1117
L 650.4 1106.25
Q 653.6 1099.35 654.6 1095.95 655 1094.65 655.65 1092 656.3 1089.35 656.7 1088.05 657.15 1086.6 658.1 1084.15 659.15 1081.45 659.5 1080.3 660.15 1078.35 660.8 1075.5 661.5 1072.25 661.85 1070.65 662.75 1066.75 664.95 1059.15
L 667.55 1050.2
Q 669.35 1055.75 671.65 1061.7 675.3 1071.2 684 1090.8 685.8 1094.75 686.75 1096.45 688.45 1099.55 690.35 1101.6 692.6 1104.05 695.45 1105.25 698.55 1106.6 701.5 1106.1 705.55 1105.4 708.8 1101.4 711.2 1098.5 713.35 1093.35 717.85 1082.7 722 1068.85 723.75 1062.85 726.6 1052.1 736.15 1054.15 745.7 1056.15 748.05 1067.4 750 1074.45 755.4 1093.95 763.25 1108 766.45 1113.75 769.55 1116.15 771.7 1117.85 774.25 1118.4 777 1119 779.3 1118.1 781.85 1117.15 783.85 1114.3 785.15 1112.5 786.75 1108.85
L 805.25 1067
Q 895.1 1081.55 986.5 1085.1 990.8 1085.25 996.4 1085.5 999.6 1098.9 1002.9 1107.75 1008.45 1122.5 1016.6 1132.55 1021.4 1138.45 1025.9 1138.45 1028.4 1138.5 1031 1136.8 1032.85 1135.5 1035.15 1133 1044.3 1123.1 1052.6 1108.4 1056.45 1101.6 1062.4 1089.35 1066.9 1089.8 1071.1 1090.35 1079.45 1091.45 1087.35 1092.95 1090.05 1109.05 1091.85 1117.4 1094.95 1131.95 1099.05 1143.1 1104.2 1156.9 1112.7 1157.65 1117.65 1158.05 1122.3 1153.85 1125.6 1150.85 1129.25 1144.85
L 1146.7 1116.1
Q 1147.6 1114.65 1148.25 1113.5 1149.25 1114.05 1150.3 1114.65 1167.85 1124.55 1178.6 1137.95 1191.1 1153.5 1191.35 1170.45 1191.5 1179.1 1188.25 1188.1 1185.3 1196.3 1179.8 1204.15 1174.45 1211.8 1168.3 1216.7
L 1168.3 1216.65
Q 1168.4 1213.7 1166.7 1208.3 1163.1 1196.3 1160.3 1183.05 1159.3 1178.2 1158.7 1176.15 1157.55 1172.4 1155.8 1169.8 1153.75 1166.75 1150.55 1165.15 1147.1 1163.45 1143.85 1164.3 1141.05 1165.1 1137.35 1168.75 1130.45 1175.65 1123.95 1185.3 1119 1192.65 1112.95 1203.7 1110.55 1208.05 1109.55 1210.8 1108.55 1213.4 1108.25 1215.85 1108.15 1215.8 1108.05 1215.75 1048.4 1190.6 1031.45 1184.15 1006.3 1174.55 983.95 1168 976.55 1151.75 970.9 1134.65 969.55 1130.55 968.9 1129.05 967.6 1125.95 966 1123.9 964.05 1121.45 961.35 1120.15 958.4 1118.8 955.65 1119.4 953.4 1119.85 951.25 1121.7 949.7 1122.95 947.7 1125.45 936.45 1139.4 929.35 1155.85 916.95 1154 903.6 1152.75 903.4 1150.45 901.8 1147.3 891.4 1126.45 884.55 1104.6 883.05 1099.65 881.15 1096.9 878.55 1093.05 874.9 1092.75 869.2 1092.2 864 1101 853 1119.55 846.75 1143.05 845.8 1146.45 845.6 1148.65 845.55 1149.4 845.55 1150.15 831.45 1150.1 816.6 1150.55 792.45 1151.3 747.9 1154.1 700.45 1157.15 679.25 1157.95 659.2 1158.75 646.4 1158.25 644.4 1158.2 642.45 1158.1 632.6 1148.35 620.7 1134.35 597.1 1106.65 589.45 1098.95 584.65 1094 580.95 1094.7 577.8 1095.3 576.3 1099.1 575.15 1102 575.05 1106.4
L 574.55 1137.85
Q 564.9 1131.25 557.9 1122.8 547.1 1109.85 543.6 1093.5 540 1076.4 545.8 1061.5 549.85 1051.2 558.3 1042.45 566.05 1034.45 576.65 1028.65
M 583.2 1143.15
Q 582.8 1142.9 582.35 1142.7
L 582.55 1105.45 625 1156.4
Q 619.25 1155.55 614 1154.4 597.05 1150.65 583.2 1143.15
M 1028.85 1086.75
Q 1039.1 1087.3 1048.2 1088 1039.8 1097.75 1033.3 1109.1 1030.7 1113.75 1029.35 1115.55 1026.8 1118.9 1023.85 1120.3 1016.65 1110.05 1012.2 1098.3 1009.85 1092.2 1008.35 1085.95 1017.45 1086.3 1028.85 1086.75
M 1115.2 1134.45
Q 1108.85 1115.8 1104.7 1096.8 1120.95 1100.95 1134.85 1107
L 1115.2 1134.45
M 789.5 1064.35
Q 786.2 1071.1 782.75 1078.95 779.25 1086.85 773.2 1101.85 761.45 1080.55 753.45 1057.7 771.45 1061.25 789.5 1064.35
M 712.6 1049
Q 703.85 1066.35 698.5 1085.2 687.45 1063.9 680.8 1041.1 688.1 1043.2 700.55 1046.2 706.55 1047.6 712.6 1049
M 873.25 1112.65
L 880.9 1132.9
Q 883.65 1140.15 885.35 1143.75 887.55 1148.25 890.05 1151.65 875.6 1150.65 860.15 1150.3 864.4 1130.4 873.25 1112.65
M 943.9 1158.3
Q 944.05 1157.75 944.25 1157.15 948 1145.05 955.6 1135.1 960.55 1149.65 967.1 1163.4 959.6 1161.5 952.5 1160 948.25 1159.1 943.9 1158.3
M 1149.8 1213.8
Q 1152.35 1219.9 1155.15 1222.3 1155.75 1222.85 1156.45 1223.3 1156.25 1223.35 1156.05 1223.4 1145.5 1226.9 1131.85 1223.95 1129.5 1223.45 1126.8 1222.65 1128.05 1220.65 1129.35 1217.9
L 1142.25 1190.85
Q 1145.2 1202.75 1149.8 1213.8
M 854.4 788.6
Q 852.8 788.85 852.65 790.15 854.95 793.5 861.2 796.55 863.5 797.7 868.15 799.85 872.15 801.8 874.75 803.7 879.35 807 884.95 814.25 890 820.85 894.4 828.15 897.95 834.2 900.7 840.1 906 851.55 908.55 863.75 909.45 868.05 910.65 876.75 911.75 884.85 911.9 888.95 912.05 895.4 910.45 905.95 908.5 918.75 908.2 922.95 908 925.4 908.6 927.15 909.3 929.35 911.05 929.95 915.45 926.15 918.6 918.35 924 905.35 923.9 891.55 923.9 881.3 920.7 868.85 917.7 857.05 912.15 844.3 906.85 832.05 899.9 820.75 895.75 814.05 891.95 809.45 887.15 803.7 882 799.9 877.15 796.35 870.15 793.45 866 791.7 857.35 788.85 855.75 788.35 854.4 788.6
M 1360.4 704.9
Q 1339.85 665 1301.8 640.2 1262.55 614.65 1219.3 614.95 1194.5 615.15 1168.15 624.05 1190.75 614.8 1214.75 610 1213.1 606.7 1206.85 606.1 1177.75 602.9 1140.7 622.35 1105.25 641 1075.65 670.8 1047.05 699.6 1026.75 735.9 1020.4 747.3 1016.2 757.35 1004.25 781.45 998.8 811.75 993.8 839.75 994.1 875.2 994.35 906 998.7 929.45 1004 958.35 1016.05 980.4 1028.75 1003.55 1051.4 1024.1 1062.7 1034.4 1072.95 1040.3 1087.4 1048.55 1104.25 1050.9 1121.15 1053.25 1137.3 1049.25 1115.35 1044.45 1096.65 1035.75 1076.35 1026.3 1060.85 1012.7 1034.3 989.35 1019.7 952 1006.7 918.8 1004.65 878.7 1004.15 868.6 1004.25 858.6 1005.8 868.35 1008.4 877.75 1008.35 877.8 1008.35 877.85 1007.25 880.5 1008.2 885.45 1011.5 902.1 1022.7 920.25 1029.65 931.55 1045.35 951.25 1052.15 959.8 1055.95 964.25 1062 971.25 1067.5 976.3 1075.1 983.3 1085.45 990 1093.35 995.1 1105.05 1001.4 1126.85 1013.1 1145.3 1020.25 1167.5 1028.85 1187.9 1032.2 1210.85 1035.95 1232.3 1033.15 1255.45 1030.1 1274.15 1019.7 1276.2 1018.65 1276 1017.35 1275.9 1015.75 1272.95 1015.65 1264.35 1015.35 1249.75 1016 1232.85 1016.75 1226.55 1016.75 1195.25 1016.7 1164.9 1007.75 1190.35 1010.8 1216.65 1006.9 1231.2 1004.75 1244.65 1000.65 1253.7 1003.45 1264.8 1003.1 1272.35 1002.85 1281.3 1001.05 1287.85 999.7 1297.5 996.95 1312.15 992.65 1320.55 988.8 1326.45 986.05 1333.25 981.9 1337.85 979.1 1345.4 974 1360 964.2 1367.2 958.2 1380.75 947 1391.25 932.65 1401.75 918.35 1408.45 902.05 1410.95 895.9 1412.15 891 1413.65 884.9 1413.4 879.55 1397.25 907.5 1374 930.4 1350.7 953.3 1322.55 969 1311.55 975.05 1302.65 978.5 1292.7 982.25 1282.25 984.2 1290.1 979.55 1297.45 974.1 1321.35 956.4 1339.65 930.3 1356.85 905.75 1367.55 875.95 1382.9 833.3 1381.55 789.3 1380.1 743.1 1360.4 704.9
M 1318.4 698.85
Q 1331.7 718.4 1338.7 735.1 1354.1 771.9 1349.5 815.65 1345.15 856.45 1324.6 894.4 1304.35 931.7 1276.3 952.4 1247.45 973.6 1209.05 978.25 1172.25 982.75 1136.55 971.1 1093.9 957.1 1064 923.55 1032.85 888.6 1028.45 846.15 1026.15 824.1 1031.4 801.35 1036.45 779.45 1047.95 759.45 1058.95 740.35 1075.3 723.75 1090.95 707.95 1110.45 695.45 1128.95 683.6 1147.65 677 1168.3 669.65 1188.15 669.05 1209.55 668.45 1229 675.85 1249.45 683.65 1262.9 698.7 1264.45 700.4 1265.2 701.05 1266.6 702.2 1268 702.45 1270.05 702.85 1272 701.35 1273.85 699.95 1274.45 697.7 1275.45 694.3 1273.45 689.1 1267.6 673.6 1250.1 662.2 1238.35 654.6 1215.9 646.15 1238.8 647.7 1253.1 650.95 1273.25 655.55 1287.15 665.05 1295.95 671.05 1304.3 680.45 1310.9 687.85 1318.4 698.85
M 1091 767.15
Q 1080.85 777.3 1075.7 791.05 1070.55 804.95 1071.8 819.15 1073 833.25 1080.1 845.45 1082.4 849.4 1087.05 855.75 1092.35 863.05 1095.7 866.2 1101.25 871.35 1109.55 874.75 1116.15 877.45 1125.4 879.35 1139.5 882.25 1150 881.4 1157 880.85 1168.85 877.7 1181.05 874.4 1188.55 871.15 1199 866.65 1205.8 860.3 1215.1 851.55 1220.3 837.35 1224.4 826.25 1223.8 817 1223.3 809.2 1219.05 799.7 1216.65 794.25 1213.15 788.4 1206 776.9 1196.05 768.5 1185.6 759.6 1173.45 755.45 1164.7 752.5 1153.2 751.45 1146.05 750.8 1132.45 750.7 1126 750.65 1122.55 750.9 1117.1 751.35 1112.9 752.7 1108.7 754.1 1103.85 757.05 1096.75 761.4 1091 767.15
M 1123.25 760.85
Q 1121.8 762.4 1122.2 764.85 1122.6 767.15 1124.3 768.7 1125.8 770 1128.1 770.75 1129.8 771.3 1132.5 771.65 1134.6 771.95 1147.3 772.85 1156.3 773.55 1161.85 775.05 1173.15 778.15 1182.75 786.75 1191.7 794.75 1197.65 806 1200.8 812.05 1201.6 816.65 1202.35 821.05 1201.25 825.65 1200.65 828.2 1198.85 832.25 1196.6 837.4 1194.65 840.7 1191.95 845.1 1188.75 847.95 1185 851.35 1179.05 853.8 1175.5 855.25 1168.1 857.35 1157.7 860.25 1152.45 861.3 1143.65 863 1136.5 862.65 1126.35 862.15 1112.5 856.85 1108.35 855.25 1106.1 853.9 1103.9 852.6 1101.5 850.5 1100.2 849.35 1097.3 846.6 1094 843.3 1092.75 841.85 1090.3 839.1 1088.9 836.55 1087.15 833.35 1085.55 827.6 1082.15 815.3 1082.7 806.95 1083.5 795.4 1091.4 783.05 1092.95 780.65 1095.4 777.4 1099 772.75 1102.35 770.1 1105.9 767.4 1111.35 765 1117.2 762.4 1123.25 760.85
M 1132.1 806.1
Q 1130.8 804.3 1128.9 803.25 1126.9 802.2 1124.75 802.2 1124.35 802.5 1123.65 802.65 1122.8 802.7 1122.35 802.75 1120.65 802.95 1119.1 803.95 1117.65 804.95 1116.7 806.5 1114.9 809.35 1115.05 813.2 1115.15 816 1116.05 817.9 1117.05 820.05 1119.1 821.55 1121.1 823 1123.45 823.3 1125.85 823.55 1128.15 822.6 1130.45 821.65 1131.95 819.75 1133.7 817.5 1134.1 814.35 1134.65 809.65 1132.1 806.1 Z"/>

<path fill="#FFFFFF" stroke="none" d="
M 1473 1315.7
Q 1471.9 1309.3 1470.65 1303.3 1460.4 1307.4 1449.75 1312.45 1426.65 1323.4 1388.55 1345.55 1383.1 1348.7 1379.85 1349.9 1374.75 1351.75 1370.5 1351 1364.65 1350 1360.2 1344.3 1356.6 1339.75 1354.2 1332.6 1352.05 1326.25 1351.85 1321.1 1315.55 1361.15 1266.05 1396.15 1244.65 1411.2 1229.1 1419.15 1194.7 1436.65 1155.2 1439.6 1153.3 1439.75 1151.45 1439.85 1152.7 1444.65 1152.6 1452.35 1152.4 1472.6 1154.45 1499.2 1154.95 1505.45 1158.7 1546 1164.25 1605 1161.2 1639.45 1160.75 1644.75 1160 1647.9 1158.9 1652.45 1156.65 1655.5 1153.2 1660.3 1146.25 1662.9 1145.85 1663.05 1145.45 1663.2 1145.9 1665.35 1146.2 1666.95 1147.4 1674 1146.9 1679.65 1146.75 1681.2 1146 1682.35 1145.15 1683.65 1143.95 1683.3 1141.45 1679.65 1139.6 1674.45 1138.4 1671.15 1136.85 1665.35 1135.1 1665.65 1133.2 1665.95
L 1100.7 1671.15
Q 1100.95 1684.6 1100.9 1692.6 1100.8 1712.1 1099.15 1727.6 1096.65 1728 1094.9 1725.2 1093.5 1722.95 1093.1 1719.6 1090.25 1696.3 1089.3 1672.95 1066.1 1676.55 1053.95 1678.3 1053.95 1681.1 1053.95 1683.35 1053.75 1698.5 1051.6 1710.4 1050.75 1709.3 1050.45 1706.65
L 1047.35 1679.2
Q 1026.4 1682.05 1009.25 1683.5 994.65 1684.7 991.2 1677.6 989.9 1674.9 990.4 1671.15 990.7 1668.65 992.1 1664.55 1010.1 1610.95 1020.05 1555.05 1029.35 1502.75 1031.35 1449.95 980.7 1464.55 929.6 1467.9 871.35 1471.7 816.95 1460.5 788.65 1454.65 755.25 1443.3 700.55 1424.65 660.35 1400.05 612.6 1370.75 583.4 1332 563.75 1305.95 547.65 1268.45 539.7 1250 528 1216.25 526.65 1214.75 525.35 1213.3 510.65 1230 501.5 1241.8 486.6 1260.95 476.85 1278.4 459.55 1309.5 451.05 1347.95 443.35 1382.55 443.05 1422.2 442.4 1494.25 466.2 1547.35 479.15 1576.15 500.75 1602.35 520.85 1626.85 547.45 1647.9 571.7 1667.05 601.8 1683.8 628.2 1698.5 660.6 1712.15 757.4 1752.9 862.7 1766.95 968 1780.95 1072.05 1766.95 1150.65 1756.3 1219.2 1730.6 1293.45 1702.75 1351.75 1658.75 1402.2 1620.6 1432.25 1576.5 1453.2 1545.75 1465.55 1510.25 1477.95 1474.75 1480.7 1437.7 1482.05 1419.45 1481.2 1397.95 1480.55 1381.15 1478.35 1358.25 1475.95 1332.9 1473 1315.7
M 1251.45 1754.4
Q 1184.7 1781.65 1111.1 1794.45 1039.6 1806.9 965.3 1805.15 893.5 1803.5 820.15 1788.7 749.55 1774.4 679.55 1748.4 639.55 1733.55 607.6 1717.55 570.45 1698.9 540.75 1677.1 507.9 1652.95 483.2 1624.1 466.65 1604.75 454.45 1584 442.15 1631.7 437 1660.5 428.1 1710.65 430 1751.8 432.2 1800.45 450.15 1841.65 469.75 1886.75 504.6 1913.65 526.5 1930.55 556.75 1941.7 581.45 1950.8 614.6 1956.95 636.85 1961.05 664.35 1964.3 682.9 1966.5 714.4 1969.35 820.75 1979.1 895.4 1982.7 993.8 1987.4 1076.65 1983.9 1172.35 1979.85 1257.1 1964.6 1350.45 1947.75 1431.75 1917.05 1488.65 1895.6 1542.2 1866.4 1570.75 1850.85 1588.8 1837.25 1612.7 1819.25 1627 1798.75 1643.45 1775.2 1646.85 1747.8 1650.5 1718.35 1637.25 1695.6 1631.75 1686.1 1622.4 1676.7 1615.55 1669.8 1604.15 1660.65 1546.4 1614.35 1478.65 1584.05 1474.55 1582.2 1471.3 1580.5 1450.5 1614.05 1421.9 1643.45 1387.45 1678.9 1342.55 1707.65 1300.95 1734.25 1251.45 1754.4
M 1405.9 687.95
Q 1391.55 668.45 1368.9 645.55 1306 581.95 1231.7 540.25 1153.1 496.05 1070.2 481.4 1031.6 474.55 986.9 473.35 949.35 472.35 903.1 475.3 889.45 476.2 880.25 477.15 867.75 478.45 857.5 480.4 853.4 481.15 847.2 482.6 859.25 486.95 869.85 493.85 886.7 504.9 898.7 522.05 909.75 537.8 915 556.3 915.2 553.6 915.4 550.7 915.65 546.45 915.9 537.85
L 917.05 497.95
Q 917.1 495.9 917.35 494.75 917.75 493 918.75 491.95 923.95 501.2 926.15 514 927.75 523.1 928.15 537.6 928.45 549.45 927.8 556.7 927 565.3 924.35 575.75 922.9 581.5 919.5 592.6 919.45 595.8 919.2 599.05 917.7 619.4 910.15 638.6 903.2 656.35 891.45 672 873.4 695.9 845.95 711.25 852 711.05 856.85 709 859.05 708.05 859.5 707.9 861.05 707.4 862.3 707.55 863.8 707.8 864.85 708.85 891 691.5 910.15 666.35 917.25 656.95 925.5 643.45 948.35 606.2 964.7 565 965.55 562.85 966.25 561.75 967.3 560.1 968.75 559.5 967.85 586.85 953.65 617 947.85 629.35 939.25 643.25 932.9 653.55 922.7 668.2 917.7 675.35 914.5 679.55 909.8 685.65 905.45 690.2 899.7 696.2 891.55 702.65 886.6 706.55 876.5 713.75 870.5 718.1 867.25 720.05 861.95 723.3 857.25 724.9 853.8 726.1 851.15 726 845.85 727.35 839.6 727.2 831.15 726.95 819.1 723.3 803.6 728.55 787.05 730.65 757.05 734.4 726.05 727.55 713.55 724.8 701.6 720.5 709.3 725.5 714.05 727.9 721.2 731.55 730.7 734.6 736.75 736.5 748.05 739.45 759.65 742.4 765.75 743.8 775.65 746 783.7 747.05 800.45 749.3 822.45 748.5 829.95 748.2 861.35 745.9 863.9 745.7 865.45 746 867.65 746.4 868.75 747.8 866.1 750.8 859.75 753.3 834.05 763.65 802.45 762.65 775 761.8 744.35 752.45 717.4 744.3 699.4 732.75 691.05 727.35 677.7 716.5 666.1 707.15 660.25 701.45 657.75 699 655.5 696.6 644.55 688.75 636.4 679.95 621.25 663.6 616.65 645.05 611.55 624.5 619 599.9 619.3 598.9 619.65 597.9 590.85 623.85 566.7 653.35 593.3 671.2 625.9 693.2
L 672.6 724.7
Q 697.8 741.75 708.65 748.95 728.9 762.4 745.1 772.6 755.25 779 761.6 782.5 770.85 787.55 779 790.45 784.6 792.45 794.5 794.95 805.9 797.8 810.1 799.1 835.15 807 854.25 825.35 873.85 844.15 881.4 868.55 889.15 893.55 882.5 919.7 875.7 946.35 856.55 963.35 848.1 970.85 836.15 977.35 827.45 982.05 813.55 987.85 796.8 994.9 785.6 997.95 769.85 1002.3 756.45 1001.7 742.3 1001.1 726.3 994.85 714.55 990.3 698.1 981 694.5 978.95 690.9 976.9 691.9 978.4 692.9 979.75 701.95 992.05 713.35 997.15 716.5 998.6 723.05 1000.9 728.75 1003.2 731.75 1006.15 728.35 1010.15 720.55 1008.95 709.4 1007.25 698.95 998.5 690.75 991.6 682.5 979.8 677.75 973 674.85 967.6 674.7 967.35 674.6 967.1 638.05 944.5 600.5 915.25 559 882.85 511.15 838.15 494.8 822.85 480.35 808.45 466.95 849.05 462.05 891.15 456.65 937.35 462.45 984.35 467 1021 478.1 1055.8 478.7 1054.8 479.75 1054.25 481.15 1053.45 482.5 1053.8 485 1054.5 486.05 1059.25 489.6 1074.35 492.2 1083.6 495.85 1096.85 499.85 1107.45 502.2 1113.6 504.85 1119.4 513.9 1136.4 524.65 1152.25 532.85 1162.65 542.45 1170.75 557.65 1183.55 575.75 1190.05 594.8 1196.9 613.5 1195.35 618.65 1194.95 628.35 1193.25 638.4 1191.45 643.15 1191 646.6 1190.75 647.05 1192.6 647.35 1194.05 645.15 1195.6 630.05 1206.35 610.2 1208.85 591.2 1211.25 572.55 1205.6 570.15 1204.9 567.8 1204.05 578.85 1214.8 590.8 1224.45 634.1 1259.4 697.4 1285.9 819.3 1337.05 956.1 1336.3 1044.8 1335.8 1128.15 1313.6 1126.7 1313.35 1125.1 1313.05 1113.65 1310.8 1107.2 1308.2 1097.7 1304.3 1086.5 1295.3 1082.4 1292 1080.15 1289.4 1077 1285.85 1075.8 1282.15 1074.4 1277.85 1075.9 1273.55 1077.5 1269 1081.4 1267.6 1082.35 1267.5 1083.15 1268.2 1083.85 1268.85 1084.15 1269.8 1084.35 1270.55 1084.35 1271.7 1084.35 1272.35 1084.35 1273.65 1084.6 1280.7 1093.5 1287.45 1102.2 1294.05 1112.7 1297.6 1123.2 1301.1 1134.15 1301.15 1138.45 1301.15 1143.7 1300.55 1147.2 1300.15 1153.25 1299.2 1165.3 1297.3 1173.45 1295.3 1184.3 1292.7 1192.9 1289 1212.15 1280.75 1232.8 1261.3 1244.75 1250.05 1267.3 1225.8 1268.6 1224.45 1270 1223.95 1271.7 1223.3 1272.7 1224.3 1274 1225.65 1272.5 1228.8 1262.4 1249.85 1245.65 1266.7 1242 1270.4 1238.15 1273.75 1288.7 1250.15 1329 1220 1384.7 1178.25 1417.9 1125.9 1453.6 1069.6 1465.95 997.15 1472.9 956.3 1472.05 913.1 1471.2 913.05 1470.3 912.95 1466.65 912.45 1464.55 910.05 1463 908.25 1462.6 905.6 1462.2 903.2 1462.85 900.7 1463.8 896.9 1467.7 892.15 1469.2 890.4 1470.95 888.55 1469.9 873.5 1467.95 858.15 1464.6 832.1 1459.05 808.4 1457.65 806.6 1456.85 804.1 1455.65 800.45 1456.15 796.8 1439.35 733.6 1405.9 687.95
M 1301.8 640.2
Q 1339.85 665 1360.4 704.9 1380.1 743.1 1381.55 789.3 1382.9 833.3 1367.55 875.95 1356.85 905.75 1339.65 930.3 1321.35 956.4 1297.45 974.1 1290.1 979.55 1282.25 984.2 1292.7 982.25 1302.65 978.5 1311.55 975.05 1322.55 969 1350.7 953.3 1374 930.4 1397.25 907.5 1413.4 879.55 1413.65 884.9 1412.15 891 1410.95 895.9 1408.45 902.05 1401.75 918.35 1391.25 932.65 1380.75 947 1367.2 958.2 1360 964.2 1345.4 974 1337.85 979.1 1333.25 981.9 1326.45 986.05 1320.55 988.8 1312.15 992.65 1297.5 996.95 1287.85 999.7 1281.3 1001.05 1272.35 1002.85 1264.8 1003.1 1253.7 1003.45 1244.65 1000.65 1231.2 1004.75 1216.65 1006.9 1190.35 1010.8 1164.9 1007.75 1195.25 1016.7 1226.55 1016.75 1232.85 1016.75 1249.75 1016 1264.35 1015.35 1272.95 1015.65 1275.9 1015.75 1276 1017.35 1276.2 1018.65 1274.15 1019.7 1255.45 1030.1 1232.3 1033.15 1210.85 1035.95 1187.9 1032.2 1167.5 1028.85 1145.3 1020.25 1126.85 1013.1 1105.05 1001.4 1093.35 995.1 1085.45 990 1075.1 983.3 1067.5 976.3 1062 971.25 1055.95 964.25 1052.15 959.8 1045.35 951.25 1029.65 931.55 1022.7 920.25 1011.5 902.1 1008.2 885.45 1007.25 880.5 1008.35 877.85 1008.35 877.8 1008.4 877.75 1005.8 868.35 1004.25 858.6 1004.15 868.6 1004.65 878.7 1006.7 918.8 1019.7 952 1034.3 989.35 1060.85 1012.7 1076.35 1026.3 1096.65 1035.75 1115.35 1044.45 1137.3 1049.25 1121.15 1053.25 1104.25 1050.9 1087.4 1048.55 1072.95 1040.3 1062.7 1034.4 1051.4 1024.1 1028.75 1003.55 1016.05 980.4 1004 958.35 998.7 929.45 994.35 906 994.1 875.2 993.8 839.75 998.8 811.75 1004.25 781.45 1016.2 757.35 1020.4 747.3 1026.75 735.9 1047.05 699.6 1075.65 670.8 1105.25 641 1140.7 622.35 1177.75 602.9 1206.85 606.1 1213.1 606.7 1214.75 610 1190.75 614.8 1168.15 624.05 1194.5 615.15 1219.3 614.95 1262.55 614.65 1301.8 640.2
M 852.65 790.15
Q 852.8 788.85 854.4 788.6 855.75 788.35 857.35 788.85 866 791.7 870.15 793.45 877.15 796.35 882 799.9 887.15 803.7 891.95 809.45 895.75 814.05 899.9 820.75 906.85 832.05 912.15 844.3 917.7 857.05 920.7 868.85 923.9 881.3 923.9 891.55 924 905.35 918.6 918.35 915.45 926.15 911.05 929.95 909.3 929.35 908.6 927.15 908 925.4 908.2 922.95 908.5 918.75 910.45 905.95 912.05 895.4 911.9 888.95 911.75 884.85 910.65 876.75 909.45 868.05 908.55 863.75 906 851.55 900.7 840.1 897.95 834.2 894.4 828.15 890 820.85 884.95 814.25 879.35 807 874.75 803.7 872.15 801.8 868.15 799.85 863.5 797.7 861.2 796.55 854.95 793.5 852.65 790.15
M 570.2 1011.25
Q 590 1002.35 613.6 1001.65 632.95 1001.05 657.55 1005.75 667.75 1007.7 700.9 1015.85 756.15 1029.55 811.6 1038.25 878.6 1048.8 948.1 1052.35 965.55 1053.25 1000.7 1054.75 1031.7 1056.3 1053.25 1058.7 1112.55 1065.25 1153.6 1084.25 1178.85 1095.9 1195.6 1112.5 1215.15 1131.75 1219.8 1154.8 1222.55 1168.3 1220.05 1183.1 1217.75 1196.85 1211.2 1210.35 1203.95 1225.2 1193.3 1235.95 1181.6 1247.75 1167.5 1252.7 1154.7 1257.15 1139.4 1256.15 1125.85 1255.25 1111.25 1250.15 1100.05 1246.25 1085 1238.65 1068.05 1229.8 1059.5 1225.5 995 1193.25 914.9 1182.3 844.15 1172.6 762.55 1179.7 725.15 1183.55 706.45 1184.95 674 1187.4 650.3 1185.55 620.15 1183.15 595.3 1173.1 567.35 1161.8 549.35 1142.1 529.75 1120.65 525.6 1091.6 521.25 1061.25 536.55 1038.55 548.4 1021.05 570.2 1011.25
M 855.55 989.4
L 878.75 976
Q 878.25 979.85 875 983.4 872.7 985.9 868.2 988.95 855 997.9 844.25 1002.2 830.45 1007.75 818.05 1006.95 816.25 1006.85 814.95 1006.2 813.4 1005.35 813.4 1003.95 813.4 1002.6 814.85 1001.7 816 1001.05 817.8 1000.75 821.95 1000.1 830.25 999 837.45 997.85 842.35 996.05 845.4 994.95 849.05 993 851 992 855.55 989.4 Z"/>

<path fill="#990033" stroke="none" d="
M 1130.65 1481.85
Q 1131.1 1471 1131.25 1465.6 1131.6 1455.9 1130.5 1449.45 1129.4 1442.85 1129.35 1442.8 1129.2 1441.25 1129.25 1439.9 1106 1438.6 1083.8 1431.8 1062.6 1440.4 1041.2 1447.05 1044.15 1546.85 1011.6 1663.1 1025.05 1662.8 1045.7 1659.55 1045.55 1653.9 1045.4 1650.85 1045.1 1644.7 1044.05 1640.4 1043.4 1637.75 1043.3 1637.35 1043 1635.6 1043.25 1634.25 1043.55 1632.65 1044.85 1631.6 1046.2 1630.45 1047.65 1630.85 1049.7 1631.4 1050.75 1635.05 1052 1639.65 1052.6 1645.5 1052.95 1649.2 1053.25 1656.1 1053.3 1657.2 1053.35 1658.25 1057.45 1657.5 1061.8 1656.7 1064.7 1656.15 1067.45 1655.65 1067.45 1654.45 1067.5 1652.55 1067.6 1651.45 1067.85 1651.15 1068.05 1650.85 1068.45 1650.75 1068.85 1650.65 1069.1 1650.85 1069.7 1652.15 1069.7 1654.35 1069.7 1654.8 1069.7 1655.25 1080.3 1653.25 1088.8 1651.85 1088.65 1634 1089.65 1616.15 1089.85 1611.75 1091.8 1610.45 1093.3 1609.5 1095.2 1610.2 1097 1610.85 1098 1612.45 1098.85 1613.8 1099.2 1615.8 1099.4 1617.1 1099.45 1619.45
L 1100.25 1650.1
Q 1107.15 1649.1 1111.9 1648.75 1122.55 1647.9 1126.2 1647.2 1129.2 1646.65 1131.75 1645.75 1130.4 1640.35 1128.95 1634.45 1127.3 1627.45 1127.4 1624.1 1127.5 1619.15 1130.3 1617.25 1131.9 1616.1 1134 1616.75 1136.15 1617.45 1136.35 1619.3 1136.5 1620.45 1135.7 1622.75 1135.35 1624.5 1136.25 1627.95
L 1139.2 1639.05
Q 1140.9 1575.95 1133.35 1513.75 1131.85 1501.65 1131.5 1497.85 1130.6 1488.85 1130.65 1481.85
M 563.35 1249.65
Q 552 1240.3 541.5 1230.1 555.3 1266.8 570.5 1293.65 596.35 1339.15 631.1 1365.9 641.95 1374.25 655.9 1382.45 666.6 1388.75 682.15 1396.65 717.35 1414.35 744.9 1424.05 806.75 1446 876.1 1447.25 942.6 1448.45 1008.8 1430.5 1071.65 1413.45 1132.4 1379.9 1176.2 1355.7 1217.4 1323.8 1176.3 1340.25 1132.6 1351.45 1058.75 1370.45 981.95 1373.4 905.1 1376.35 830 1363.1 753.85 1349.6 684 1320.25 612.15 1290 563.35 1249.65
M 1386.25 1236.3
Q 1391.9 1225.3 1397.15 1211.9 1355.05 1253.15 1295.05 1286.75 1287.3 1296.2 1278.8 1304.95 1263.35 1320.8 1239.25 1339.9 1193.3 1376.2 1144.9 1402.7 1124.2 1414.05 1103.3 1423.5 1111.1 1424.45 1116.1 1424.9 1136.25 1426.65 1152.2 1425.1 1192.45 1421.25 1233.95 1395.05 1250.9 1384.35 1269.25 1369 1283 1357.55 1301.95 1339.6 1330.95 1312.15 1348.65 1291.35 1372.4 1263.5 1386.25 1236.3
M 1310.4 439.45
Q 1314.85 433.4 1321.25 426.35 1309.25 425.65 1296.25 423.2 1276.35 419.4 1248.8 410.05 1205.4 395.35 1153.15 371.95 1121.35 357.7 1060 327.85 1051.55 323.75 1047.4 321.55 1044.5 320 1041.9 318.55 1025.1 361.35 1006.45 403.55 1034.95 418.15 1071.9 431.85 1181.3 472.45 1294.9 487 1295.55 487.1 1296.25 487.2 1292.55 477.2 1297.45 463.25 1301.55 451.45 1310.4 439.45 Z"/>

<path fill="#663300" stroke="none" d="
M 397.55 1134.75
Q 384.95 1114 373.35 1099.55 366.75 1115.6 360.25 1138.65 356.5 1151.95 349.5 1178.7 343.1 1202.2 337.05 1217.8 329.1 1238.45 318.85 1254.2 315.9 1258.7 313.4 1261.15 309.95 1264.55 306.1 1265.45 297.25 1267.5 285.9 1256.5 277.6 1248.4 268.45 1237.15 262.9 1230.3 252.5 1216.4
L 201.8 1148.85 214.3 1193.25
Q 215.75 1198.4 215.25 1202.4 214.55 1207.5 210.75 1208.7 208.7 1209.35 206.1 1208.55 204.6 1208.1 201.55 1206.6 192.25 1202 181.9 1200.3 171.55 1198.55 161.3 1199.8
L 211.2 1213.3
Q 221.1 1216 225.9 1217.75 233.9 1220.65 239.55 1224.5 245.15 1228.25 250.8 1234.6 254.15 1238.35 260.35 1246.5
L 318.8 1323.8 358.25 1219.5
Q 359.75 1215.4 361.25 1213.2 363.4 1209.95 366.3 1208.95 369.6 1207.8 373.15 1209.55 376.45 1211.15 378.4 1214.4 380.05 1217.15 380.8 1221.1 381.3 1223.55 381.7 1228.3
L 384.05 1257.35
Q 387.55 1253.45 390.45 1246.35 393.4 1238.2 395.15 1234.25 398.1 1227.7 402.8 1223.6 408.2 1218.9 414.15 1219.5 417.75 1219.85 421.6 1222.35 424 1223.95 427.95 1227.55
L 456.05 1253.3
Q 457.7 1254.85 459.05 1256.35 461.35 1252.6 463.8 1248.9 466.1 1245.45 468.5 1242.05 468.15 1241.75 467.85 1241.4 454.4 1227.55 441.3 1208.25 432.1 1194.65 419.05 1171.85 401.7 1141.5 397.55 1134.75
M 369.1 1144.65
Q 370.8 1143.55 373.15 1144.5 374.95 1145.2 376.9 1147 380.95 1150.8 386.05 1156.6 396.4 1168.3 407.6 1182.45 411.5 1187.45 413.6 1190.6 416.65 1195.2 418.35 1199.4 409.45 1194.85 403.2 1186.7 402.05 1185.2 398.95 1180.45 396.35 1176.5 394.45 1174.35 392.8 1172.45 388.95 1169.05 385.15 1165.65 383.45 1163.7 382.75 1162.9 378.95 1157.7 376.3 1154.05 374 1152.25 372.65 1151.3 372 1150.8 370.85 1149.9 370.15 1149.15 369.3 1148.2 369 1147 368.65 1145.7 369.1 1144.65
M 322.9 1263
Q 322.9 1261 323.95 1258.75 332.7 1240.55 337.5 1231.65 345.45 1216.8 353.4 1205.9 355.45 1203.15 356.9 1201.7 359.05 1199.55 361.3 1198.6 359.65 1204 356.7 1210.35 354.85 1214.3 351 1221.7
L 329.95 1262.25
Q 328.95 1264.2 327.75 1265.25 326.2 1266.6 324.65 1266.05 322.9 1265.4 322.9 1263
M 1780.3 1022.35
Q 1776.8 1025.3 1774.75 1026.45 1771.45 1028.3 1768.45 1028.05 1764.35 1027.7 1761.1 1023.65 1758.85 1020.8 1756.6 1015.4
L 1734.9 963.35
Q 1735.95 990.25 1734.45 1017.1 1734.25 1021.25 1733.2 1023.9 1736.4 1025.7 1737.2 1030 1738 1034.1 1736.1 1037.8 1734.5 1040.95 1731.15 1043.9 1729.05 1045.7 1724.7 1048.65 1605.7 1127.95 1543.3 1173.15 1511.95 1195.85 1483.25 1217.95
L 1476.1 1221.1
Q 1474.3 1221.9 1472.75 1222.65 1470.55 1224.4 1468.95 1226.1 1468.45 1226.6 1464.35 1231.5 1461.6 1234.75 1459.35 1236.4 1457.95 1237.45 1455.3 1238.9 1452.3 1240.5 1451.2 1241.25 1448.75 1242.9 1445.8 1245.9 1442.55 1249.4 1440.85 1251.1 1436.95 1255 1428.8 1261.25
L 1428 1261.85
Q 1427.85 1261.95 1427.75 1262.05 1427.65 1262.1 1427.55 1262.2 1427.15 1262.55 1426.85 1262.9 1418.75 1269.55 1410.9 1276.2 1410.7 1276.4 1410.55 1276.5 1410.35 1276.65 1410.15 1276.85 1391.05 1293 1373.5 1308.85 1373.95 1309.8 1374.15 1311 1374.5 1313.2 1374.15 1318 1374.25 1322 1376.55 1323.2 1378.05 1324 1380.05 1323.5 1381.45 1323.15 1383.55 1322 1425.65 1299.35 1443 1291.35 1454.45 1286.05 1465.3 1281.85 1465.25 1281.7 1465.2 1281.55
L 1502.15 1269.7
Q 1502.25 1269.9 1502.3 1270.15 1504 1269.75 1505.65 1269.4 1519.05 1266.5 1537.1 1264.4 1539.65 1264.1 1568.95 1261.2 1608.85 1257.25 1631.35 1249.9
L 1571.35 1237.85
Q 1568.3 1237.2 1566.8 1236.55 1564.35 1235.55 1563.25 1233.8 1561.2 1230.6 1563.45 1226.3 1565.25 1222.9 1569.2 1219.65 1596.95 1196.4 1646.1 1157.75 1702.5 1113.45 1723.4 1096.35 1813.45 1022.9 1865.7 961.1 1820.2 988.05 1780.3 1022.35
M 1734.1 1056.95
Q 1736.65 1055.25 1738.15 1055.8 1739.35 1056.2 1739.8 1057.6 1740.2 1058.9 1739.7 1060.15 1739.1 1061.85 1736.3 1064
L 1694.4 1096.9
Q 1680.95 1107.45 1673.9 1112.35 1662.2 1120.55 1651.9 1125.4 1653.6 1122.2 1656.6 1118.9 1658.65 1116.6 1662.35 1113.25 1695.95 1082.05 1734.1 1056.95
M 1604.4 1159.25
Q 1599.55 1165.5 1591.2 1171.85 1590.15 1172.65 1576.1 1182.5 1573.9 1184.05 1563.15 1192.05
L 1547.15 1204.15
Q 1510.25 1232.35 1475.35 1263.05 1471.3 1266.55 1469.2 1268.05 1465.55 1270.55 1462.15 1271.3 1463.75 1266.5 1467.55 1261.5 1470.2 1258.05 1475.15 1253.05 1490.85 1237.4 1512.7 1220.2 1525.6 1210.05 1552.8 1190.4
L 1580.25 1170.6
Q 1590.7 1163 1595 1159.55 1598.75 1156.6 1601.9 1153.8 1602.9 1152.9 1603.6 1152.8 1604.6 1152.6 1605.4 1153.5 1606.2 1154.4 1606.15 1155.5 1606.15 1157 1604.4 1159.25
M 1476.75 1233.4
Q 1483.25 1227.35 1488.1 1224.3 1494.9 1220.1 1501.4 1219.5
L 1468.4 1252.85
Q 1460.65 1260.7 1455.75 1265.2 1453.3 1267.5 1451.55 1267.8 1450.25 1268.05 1449.1 1267.35 1447.85 1266.65 1447.75 1265.45 1447.6 1264.25 1449.2 1262.2 1462 1247.1 1476.75 1233.4 Z"/>

<path fill="#333333" stroke="none" d="
M 633.6 537.4
Q 623.75 532.05 612.4 525.6 603.35 520.45 582.8 508.45
L 580.5 509 587.3 527.7
Q 591.2 538.25 593.4 543.1 594.55 545.6 597.95 552.4 601 558.4 603.25 562.35 617.95 549.4 633.6 537.4
M 735.1 477.65
Q 736.6 477 738.3 476.35 719.3 456.6 707.75 444.2 692.1 427.35 677 409.85 650.3 378.9 647.7 376.05 630.65 357.1 616 344.65 634.55 431.95 661.95 516.95 681.65 503.6 699.95 494 715.35 485.95 735.1 477.65
M 1550.05 823
Q 1559.45 815.55 1567.25 810.1 1558 809.1 1544.75 808.6 1529.7 808.25 1522.2 808 1509.6 807.55 1499.25 806.3 1504 828.05 1506.9 851.3 1507.3 854.45 1507.65 857.6
L 1533.3 836.55
Q 1544.8 827.1 1550.05 823
M 586.65 1023.95
Q 581.6 1025.95 576.65 1028.65 566.05 1034.45 558.3 1042.45 549.85 1051.2 545.8 1061.5 540 1076.4 543.6 1093.5 547.1 1109.85 557.9 1122.8 564.9 1131.25 574.55 1137.85
L 575.05 1106.4
Q 575.15 1102 576.3 1099.1 577.8 1095.3 580.95 1094.7 584.65 1094 589.45 1098.95 597.1 1106.65 620.7 1134.35 632.6 1148.35 642.45 1158.1 644.4 1158.2 646.4 1158.25 659.2 1158.75 679.25 1157.95 700.45 1157.15 747.9 1154.1 792.45 1151.3 816.6 1150.55 831.45 1150.1 845.55 1150.15 845.55 1149.4 845.6 1148.65 845.8 1146.45 846.75 1143.05 853 1119.55 864 1101 869.2 1092.2 874.9 1092.75 878.55 1093.05 881.15 1096.9 883.05 1099.65 884.55 1104.6 891.4 1126.45 901.8 1147.3 903.4 1150.45 903.6 1152.75 916.95 1154 929.35 1155.85 936.45 1139.4 947.7 1125.45 949.7 1122.95 951.25 1121.7 953.4 1119.85 955.65 1119.4 958.4 1118.8 961.35 1120.15 964.05 1121.45 966 1123.9 967.6 1125.95 968.9 1129.05 969.55 1130.55 970.9 1134.65 976.55 1151.75 983.95 1168 1006.3 1174.55 1031.45 1184.15 1048.4 1190.6 1108.05 1215.75 1108.15 1215.8 1108.25 1215.85 1108.55 1213.4 1109.55 1210.8 1110.55 1208.05 1112.95 1203.7 1119 1192.65 1123.95 1185.3 1130.45 1175.65 1137.35 1168.75 1141.05 1165.1 1143.85 1164.3 1147.1 1163.45 1150.55 1165.15 1153.75 1166.75 1155.8 1169.8 1157.55 1172.4 1158.7 1176.15 1159.3 1178.2 1160.3 1183.05 1163.1 1196.3 1166.7 1208.3 1168.4 1213.7 1168.3 1216.65
L 1168.3 1216.7
Q 1174.45 1211.8 1179.8 1204.15 1185.3 1196.3 1188.25 1188.1 1191.5 1179.1 1191.35 1170.45 1191.1 1153.5 1178.6 1137.95 1167.85 1124.55 1150.3 1114.65 1149.25 1114.05 1148.25 1113.5 1147.6 1114.65 1146.7 1116.1
L 1129.25 1144.85
Q 1125.6 1150.85 1122.3 1153.85 1117.65 1158.05 1112.7 1157.65 1104.2 1156.9 1099.05 1143.1 1094.95 1131.95 1091.85 1117.4 1090.05 1109.05 1087.35 1092.95 1079.45 1091.45 1071.1 1090.35 1066.9 1089.8 1062.4 1089.35 1056.45 1101.6 1052.6 1108.4 1044.3 1123.1 1035.15 1133 1032.85 1135.5 1031 1136.8 1028.4 1138.5 1025.9 1138.45 1021.4 1138.45 1016.6 1132.55 1008.45 1122.5 1002.9 1107.75 999.6 1098.9 996.4 1085.5 990.8 1085.25 986.5 1085.1 895.1 1081.55 805.25 1067
L 786.75 1108.85
Q 785.15 1112.5 783.85 1114.3 781.85 1117.15 779.3 1118.1 777 1119 774.25 1118.4 771.7 1117.85 769.55 1116.15 766.45 1113.75 763.25 1108 755.4 1093.95 750 1074.45 748.05 1067.4 745.7 1056.15 736.15 1054.15 726.6 1052.1 723.75 1062.85 722 1068.85 717.85 1082.7 713.35 1093.35 711.2 1098.5 708.8 1101.4 705.55 1105.4 701.5 1106.1 698.55 1106.6 695.45 1105.25 692.6 1104.05 690.35 1101.6 688.45 1099.55 686.75 1096.45 685.8 1094.75 684 1090.8 675.3 1071.2 671.65 1061.7 669.35 1055.75 667.55 1050.2
L 664.95 1059.15
Q 662.75 1066.75 661.85 1070.65 661.5 1072.25 660.8 1075.5 660.15 1078.35 659.5 1080.3 659.15 1081.45 658.1 1084.15 657.15 1086.6 656.7 1088.05 656.3 1089.35 655.65 1092 655 1094.65 654.6 1095.95 653.6 1099.35 650.4 1106.25
L 645.3 1117
Q 643.15 1121.55 641.05 1124 638.05 1127.4 634.5 1127.65 631.5 1127.8 628.6 1125.75 626.2 1124 624.15 1120.95 621.8 1117.5 618.7 1110.5
L 607.85 1086.55
Q 605.1 1080.35 604.2 1077.9 603.1 1074.7 602.55 1073.15 601.55 1070.3 600.6 1068.5 599.95 1067.25 598.6 1065.1 597.15 1062.7 596.6 1061.7 593.9 1056.85 591.6 1048.65 588.3 1036.55 586.65 1023.95
M 1455.05 675.8
Q 1450.75 676.7 1447.3 677.35 1467.7 708.55 1481.8 746.45 1484.25 752.95 1486.5 759.65 1509.1 738 1536.7 714.15 1560.5 693.55 1608.1 654.35 1530.55 659.55 1455.05 675.8
M 1355.85 392.75
Q 1367 382.8 1384.55 368.1 1464.9 300.85 1548.1 239.75 1458.45 185.75 1338 164.65 1286.15 155.55 1226.65 152.3 1176 149.5 1114.4 150.7 1110.65 150.8 1108.65 151.1 1105.5 151.6 1103.35 152.85 1100.2 154.75 1098.05 158.8 1096.65 161.5 1095.1 166.6 1073.5 236.6 1047.15 305.05 1057.2 311.5 1070 318 1079.2 322.75 1098.7 331.8 1175.6 367.4 1216.45 382.2 1280.9 405.6 1335.8 411.35 1344.95 402.4 1355.85 392.75 Z"/>

<path fill="#FF9900" stroke="none" d="
M 701.05 763.8
Q 676.3 750.35 664 743.45 630.3 724.5 587.95 696.85 580.85 692.25 559.45 677.9 558.15 683.4 556.05 687.85 550.5 699.4 537 709.6 534.05 711.8 533.2 712.5 531.15 714.2 529.85 715.85 526.85 719.9 524.9 718.55 524.1 718.05 524 716.9 523.9 715.9 524.3 714.8 525.25 712.3 528.5 708.95 536.85 700.85 540.8 696.6 547.75 689.25 550.8 682.7 551.05 682.15 552.55 678.8 553.55 676.4 554.45 675 554.55 674.85 554.65 674.7 553.15 673.7 551.6 672.65 551.3 673.05 551.05 673.45 550.75 673.25 550.5 673.05 541.05 666.05 520.2 652.65 520.45 652.3 520.75 651.95 517.3 649.6 513.7 647.2 468.4 616.7 438.95 598.55 397.4 572.95 361.25 555.05 370.4 607.2 398.25 658.75 421.1 700.95 455.65 741.15 472.7 755.15 488.05 770.7 489.6 772.25 491.5 774.25
L 491.55 774.2
Q 509.3 761.2 518 754.5 533.3 742.85 542.85 733 550.95 724.15 555.25 720.05 562.7 712.95 569.65 709.95 568.25 713.9 565.25 718 563.15 720.95 559.25 725.15 530.7 756.05 495.2 778.1 498.1 781.1 501.6 784.85 510.85 794.7 515.1 799.05 523.95 808.1 542.35 825.6
L 564.15 846.25
Q 573.6 855.2 578.4 860.8 591.4 872 603.8 882 607 884.55 610.15 887.1 611 886.45 611.85 885.7 614.5 883.4 618 879.25 631.3 863.8 643.15 845.9 646.6 840.7 647.8 838.95 650.5 835.1 653.05 832.45 652.9 840.35 648.7 849 645.6 855.4 639.35 863.85 630.4 876 618.5 889.4 617.2 890.85 616.25 891.85 664.85 929.65 712.05 955.7 724.25 962.5 732.85 966 744.6 970.75 755 971.75 765 972.75 776.5 970.6 785.9 968.85 797.4 964.7 811.8 959.5 822.15 953.25 834.7 945.65 842.55 935.8 856.75 918 855.55 893.35 854.35 868.75 838.45 852.4 831.45 845.2 819.75 838.15 805.85 830.45 799 826.5 786.55 819.4 767.9 806.35 743.2 789.1 737.35 785.3 722.85 775.9 701.05 763.8
M 419 627.2
Q 421.85 623.8 423.5 621.2 424.6 619.45 427.6 613.85 430.05 609.2 431.95 606.65 433.4 604.75 434.75 604.15 435.7 603.75 436.65 603.95 437.65 604.1 438.25 604.85 439.3 606.35 437.7 609.5 427.6 628.2 413.45 644 410.45 647.35 408.2 649.2 405.05 651.7 401.85 652.6 406.9 642.1 414.2 633 417.45 629.15 419 627.2
M 762 824.6
Q 762.75 822.7 765.2 822.9 767.65 823.05 768.75 824.95 770.35 827.65 768.8 833.15 765.7 844.85 759.75 858.5 755.8 867.65 748.05 882.85 740.15 898.25 734.35 906.35 725.55 918.5 715.1 924.55 716.3 918.65 720.25 912 721.85 909.3 728.05 900.55 750.4 869.15 762.5 832.45 764.3 826.8 762 824.6
M 674.95 825.4
Q 679.1 817.55 683.8 813 684.3 820.7 682.25 828.3 680.95 832.95 678.35 838.4 676.8 841.6 673.25 848.05
L 667.9 857.7
Q 666.5 860.2 665.8 861.25 664.55 863.2 663.2 864.5 659.75 867.9 655.7 867.45 653.7 867.2 652.35 865.55 650.9 863.85 651.7 862.15 652.15 861.2 653.45 860.4 655.05 859.6 655.8 859.15 657.2 858.3 658.45 856.6 659.25 855.55 660.5 853.4 666.15 843.5 668.2 839.3 672.55 829.95 674.95 825.4 Z"/>

<path fill="#020202" stroke="none" d="
M 885.85 580.45
Q 882.7 561.95 871.95 546.45 860.95 530.55 844.8 522.05 827 512.7 799.35 511.4 790.45 510.95 775.2 511.2 759.35 511.4 752.6 511.4 740.95 516.25 729.55 521.9 700.55 536.3 672.25 556.05 671.5 559.35 668.95 561.2 666.45 562.95 663.1 562.55 655.7 567.95 648.35 573.7 647.05 576.2 645.75 578.85 637.4 596 634.5 609.75 630.7 627.35 635.05 641.65 637.75 650.5 643.65 658.6 649.2 666.15 657 672.4 669.5 682.45 690.5 690.75 730.45 706.5 767.05 705.6 787.2 705.1 805.7 699.4 825.15 693.45 840.75 682.3 858.6 669.6 870.5 651 880.65 635.15 884.7 617.05 888.9 598.3 885.85 580.45
M 665.5 590.15
Q 666.1 579.55 671.6 569.8 676.95 560.25 685.7 553.8 694.25 547.55 705.05 544.85 715.55 542.25 726.4 543.45 728.45 543.65 732.9 544.35 737.15 545.05 739.45 545.25 741.3 545.45 745 545.65 748.35 545.9 750.55 546.35 753.8 547 757.55 548.7 759.85 549.7 764.2 552 770.45 555.35 773 557.6 776.8 560.8 779.75 566.2 783.6 573.4 784.4 581.75 785.2 590.15 782.7 597.9 777 615.65 753.95 630.7 740.6 639.35 729.15 642.6 714.35 646.7 701.95 642.8 690.1 639.1 677.85 626.3 672.55 620.85 670.25 616.2 668.45 612.55 667.25 607.2 665.1 597.9 665.5 590.15
M 1338.7 735.1
Q 1331.7 718.4 1318.4 698.85 1310.9 687.85 1304.3 680.45 1295.95 671.05 1287.15 665.05 1273.25 655.55 1253.1 650.95 1238.8 647.7 1215.9 646.15 1238.35 654.6 1250.1 662.2 1267.6 673.6 1273.45 689.1 1275.45 694.3 1274.45 697.7 1273.85 699.95 1272 701.35 1270.05 702.85 1268 702.45 1266.6 702.2 1265.2 701.05 1264.45 700.4 1262.9 698.7 1249.45 683.65 1229 675.85 1209.55 668.45 1188.15 669.05 1168.3 669.65 1147.65 677 1128.95 683.6 1110.45 695.45 1090.95 707.95 1075.3 723.75 1058.95 740.35 1047.95 759.45 1036.45 779.45 1031.4 801.35 1026.15 824.1 1028.45 846.15 1032.85 888.6 1064 923.55 1093.9 957.1 1136.55 971.1 1172.25 982.75 1209.05 978.25 1247.45 973.6 1276.3 952.4 1304.35 931.7 1324.6 894.4 1345.15 856.45 1349.5 815.65 1354.1 771.9 1338.7 735.1
M 1075.7 791.05
Q 1080.85 777.3 1091 767.15 1096.75 761.4 1103.85 757.05 1108.7 754.1 1112.9 752.7 1117.1 751.35 1122.55 750.9 1126 750.65 1132.45 750.7 1146.05 750.8 1153.2 751.45 1164.7 752.5 1173.45 755.45 1185.6 759.6 1196.05 768.5 1206 776.9 1213.15 788.4 1216.65 794.25 1219.05 799.7 1223.3 809.2 1223.8 817 1224.4 826.25 1220.3 837.35 1215.1 851.55 1205.8 860.3 1199 866.65 1188.55 871.15 1181.05 874.4 1168.85 877.7 1157 880.85 1150 881.4 1139.5 882.25 1125.4 879.35 1116.15 877.45 1109.55 874.75 1101.25 871.35 1095.7 866.2 1092.35 863.05 1087.05 855.75 1082.4 849.4 1080.1 845.45 1073 833.25 1071.8 819.15 1070.55 804.95 1075.7 791.05 Z"/>

<path fill="#FFCC00" stroke="none" d="
M 723.25 555.35
Q 718.65 554.5 712.7 555.75 699.7 558.6 690.6 569.45 681.45 580.3 680.85 593.55 680.35 603.65 684.9 610.9 688.25 616.2 694.3 619.6 699.9 622.7 706.7 623.75 719.4 625.65 732.85 620.15 745 615.15 755.35 605.2 762.4 598.45 764.75 592.45 766.3 588.55 766.2 584.6 766.1 580.35 764.1 577.1 762.3 574.2 758.75 571.8 756.45 570.25 751.95 568.1
L 733.2 559.05
Q 729.9 557.5 728.35 556.9 725.55 555.8 723.25 555.35
M 707.3 588.4
Q 707.7 585.25 708.55 583.7 710 581.15 712.35 580.95 713.6 580.9 713.65 580.85 714.35 580.75 714.6 580.3 716.9 580.45 718.75 582.3 720.5 584 721.2 586.45 722.25 590.1 720.8 592.8 719.5 595.35 716.6 596.3 715.5 596.7 714.4 596.7 711.85 596.7 709.65 594.85 707.7 593.2 707.3 591.25 707.1 590.3 707.3 588.4
M 1122.2 764.85
Q 1121.8 762.4 1123.25 760.85 1117.2 762.4 1111.35 765 1105.9 767.4 1102.35 770.1 1099 772.75 1095.4 777.4 1092.95 780.65 1091.4 783.05 1083.5 795.4 1082.7 806.95 1082.15 815.3 1085.55 827.6 1087.15 833.35 1088.9 836.55 1090.3 839.1 1092.75 841.85 1094 843.3 1097.3 846.6 1100.2 849.35 1101.5 850.5 1103.9 852.6 1106.1 853.9 1108.35 855.25 1112.5 856.85 1126.35 862.15 1136.5 862.65 1143.65 863 1152.45 861.3 1157.7 860.25 1168.1 857.35 1175.5 855.25 1179.05 853.8 1185 851.35 1188.75 847.95 1191.95 845.1 1194.65 840.7 1196.6 837.4 1198.85 832.25 1200.65 828.2 1201.25 825.65 1202.35 821.05 1201.6 816.65 1200.8 812.05 1197.65 806 1191.7 794.75 1182.75 786.75 1173.15 778.15 1161.85 775.05 1156.3 773.55 1147.3 772.85 1134.6 771.95 1132.5 771.65 1129.8 771.3 1128.1 770.75 1125.8 770 1124.3 768.7 1122.6 767.15 1122.2 764.85
M 1128.9 803.25
Q 1130.8 804.3 1132.1 806.1 1134.65 809.65 1134.1 814.35 1133.7 817.5 1131.95 819.75 1130.45 821.65 1128.15 822.6 1125.85 823.55 1123.45 823.3 1121.1 823 1119.1 821.55 1117.05 820.05 1116.05 817.9 1115.15 816 1115.05 813.2 1114.9 809.35 1116.7 806.5 1117.65 804.95 1119.1 803.95 1120.65 802.95 1122.35 802.75 1122.8 802.7 1123.65 802.65 1124.35 802.5 1124.75 802.2 1126.9 802.2 1128.9 803.25 Z"/>

<path fill="#FFFFCC" stroke="none" d="
M 1155.15 1222.3
Q 1152.35 1219.9 1149.8 1213.8 1145.2 1202.75 1142.25 1190.85
L 1129.35 1217.9
Q 1128.05 1220.65 1126.8 1222.65 1129.5 1223.45 1131.85 1223.95 1145.5 1226.9 1156.05 1223.4 1156.25 1223.35 1156.45 1223.3 1155.75 1222.85 1155.15 1222.3
M 944.25 1157.15
Q 944.05 1157.75 943.9 1158.3 948.25 1159.1 952.5 1160 959.6 1161.5 967.1 1163.4 960.55 1149.65 955.6 1135.1 948 1145.05 944.25 1157.15
M 880.9 1132.9
L 873.25 1112.65
Q 864.4 1130.4 860.15 1150.3 875.6 1150.65 890.05 1151.65 887.55 1148.25 885.35 1143.75 883.65 1140.15 880.9 1132.9
M 698.5 1085.2
Q 703.85 1066.35 712.6 1049 706.55 1047.6 700.55 1046.2 688.1 1043.2 680.8 1041.1 687.45 1063.9 698.5 1085.2
M 782.75 1078.95
Q 786.2 1071.1 789.5 1064.35 771.45 1061.25 753.45 1057.7 761.45 1080.55 773.2 1101.85 779.25 1086.85 782.75 1078.95
M 1104.7 1096.8
Q 1108.85 1115.8 1115.2 1134.45
L 1134.85 1107
Q 1120.95 1100.95 1104.7 1096.8
M 1048.2 1088
Q 1039.1 1087.3 1028.85 1086.75 1017.45 1086.3 1008.35 1085.95 1009.85 1092.2 1012.2 1098.3 1016.65 1110.05 1023.85 1120.3 1026.8 1118.9 1029.35 1115.55 1030.7 1113.75 1033.3 1109.1 1039.8 1097.75 1048.2 1088
M 582.35 1142.7
Q 582.8 1142.9 583.2 1143.15 597.05 1150.65 614 1154.4 619.25 1155.55 625 1156.4
L 582.55 1105.45 582.35 1142.7
M 645.75 1026.8
Q 636.95 1022.6 630.6 1020.8 617.55 1017.15 603.05 1019.5 598.95 1020.15 594.95 1021.25 595.15 1021.95 595.35 1022.8 595.6 1023.9 596.05 1026 597 1029.8 599.65 1035.3 603.3 1042.9 603.9 1044.45 604.5 1045.95 605.85 1050 607 1053.5 607.9 1055.5 608.8 1057.6 610.7 1061.05 612.9 1065 613.65 1066.55 614.9 1069.15 616.4 1073.15
L 618.9 1079.9
Q 620.05 1082.8 624.25 1091.6
L 632.65 1108.9 643.6 1076.4
Q 646.65 1067.7 652.95 1050.4
L 655.3 1044
Q 657.75 1037.3 659.1 1033.25 650.35 1029 645.75 1026.8 Z"/>
</g>

<g id="Layer0_0_FILL">
<path fill="#000000" fill-opacity="0.2" stroke="none" d="
M 377.1 1186.7
Q 371.9 1184.45 365.65 1185.95 359.9 1187.3 355.05 1191.3 351 1194.7 347.3 1200.15 344.8 1203.8 341.3 1210.4 319.716796875 1251.408203125 308.45 1288.2 294.0693359375 1274.979296875 279.3 1258.1 264.6 1241.35 243.35 1213.6 239.85 1209.1 238.3 1207.3 235.3 1203.9 232.5 1201.7 227.45 1197.85 220.25 1195.7 214.5 1193.95 206.6 1193.15 197.4 1192.4 192.8 1191.95 184.75 1191.15 179.25 1189.6 175.75 1188.55 173.95 1188.05 170.85 1187.1 168.6 1186.9 165.65 1186.6 163.1 1187.35 160.25 1188.15 158.5 1190.1 156.4 1192.5 156.35 1196.1 156.3 1199.55 158.1 1202.5 160.9 1207.25 168.3 1210.65 175 1213.7 184.15 1215.45 189.35 1216.4 200.7 1217.7 205.2 1218.25 207.55 1218.75 211.3 1219.6 214 1221.05 216.9 1222.6 219.75 1225.5 221.45 1227.25 224.6 1231.15
L 248 1260.45
Q 257.4 1272.15 262.4 1277.75 266.95 1282.9 279.35 1295.4
L 305.8 1321.9
Q 309.95 1326.05 312.7 1327.95 316.95 1330.8 320.95 1331 325.2 1331.2 328.8 1328.5 332.45 1325.8 333.45 1321.7 334.25 1318.4 333.25 1314.65 332.4353515625 1311.662890625 330.55 1308.8 337.0779296875 1296.8611328125 344.5 1277.75 355.45 1249.6 362.6 1237.9 362.3 1243.85 362.65 1247.25 363.15 1252.45 365.15 1256.05 367.85 1260.85 373.25 1263.2 378.65 1265.55 384 1264.25 390.65 1262.65 397.35 1254.7 401.05 1250.1 402.9 1247.8 406.2 1243.7 408.75 1241.35 411.05 1239.25 412.9 1239.3 414.05 1239.3 416.15 1240.55
L 436.5 1252.6
Q 443.1 1256.5 446.7 1258.1 452.6 1260.7 457.75 1261 463.8 1261.4 468.95 1258.35 474.45 1255.1 475.65 1249.7 477.75 1240.1 465.25 1229.45 458.05 1223.35 448.05 1216.95 442.2 1213.25 429.75 1206.05 423.85 1202.65 420.55 1201.3 415.3 1199.15 410.75 1199.1 405.8 1199.05 400.1 1201.5 396.55 1203 390.25 1206.85 389.1 1200 386.05 1194.9 382.5 1189 377.1 1186.7
M 1078.15 1937.75
Q 1026.7 1942.55 989.5 1943.3 931.3 1944.45 873.4 1937.3 815.5 1930.15 759.4 1914.85 739.3 1909.35 715.2 1901.65 698.25 1896.25 671.4 1887.1 631.55 1873.55 609.85 1864.75 576.3 1851.2 551.15 1836.2 520.55 1817.95 490.75 1790.85 465.15 1767.55 438.3 1736.05 435.95 1733.3 434.35 1732.05 431.85 1730.15 429.4 1730.1 426.1 1730.05 423.7 1733 421.4 1735.8 421.35 1739.4 421.3 1742.45 422.75 1745.95 422.9265625 1746.3736328125 423.15 1746.85 422.4958984375 1747.1462890625 421.85 1747.55 418 1749.9 416.35 1754.05 413.8 1760.55 416.7 1770.9 420.2 1783.2 428.6 1796.1 429.8109375 1797.9548828125 431.2 1799.9 431.2337890625 1801.488671875 431.4 1803.2 432.95 1818.75 441 1836.15 446.45 1848 458.1 1866.55 465.8 1878.8 470.85 1885.75 478.3 1896 485.75 1903.15 492.8 1909.9 502.75 1916.8 509 1921.1 521.15 1928.5 547.9 1944.85 562.45 1952.1 586.05 1963.9 606.7 1968.15 617.55 1970.4 632.65 1971.5 641.35 1972.1 658.85 1972.95 683.7521484375 1974.4662109375 710.85 1978.3 739.2 1985.05 774.1 1989.75 799.05 1993.1 838.05 1996.65 958.25 2007.55 1044.75 2006.65 1157 2005.45 1249.45 1985.25 1332.45 1967.1 1415.15 1930.65 1468.2576171875 1907.2703125 1520.3 1876.75 1550.1208984375 1862.950390625 1577.35 1847.35 1584.15 1843.45 1587.95 1840.7 1593.55 1836.65 1597 1832.2 1600.054296875 1828.19140625 1601.45 1823.65 1618.362109375 1810.6794921875 1630.65 1797.75 1640.55 1787.4 1650.5 1774.05 1658.5 1763.3 1668.05 1748.5 1676.35 1735.65 1678.85 1725.1 1682.05 1711.25 1674.75 1702.65 1668.05 1694.75 1655.95 1695.35 1644.6 1695.95 1635.7 1703.15 1628.65 1708.8 1621.7 1719.4 1617.7 1725.4 1610.15 1737.85 1598.05 1756.25 1578 1773.7 1563.3 1786.5 1539.1 1802.9 1495.253125 1832.637890625 1450.05 1856.9 1390.1732421875 1880.8146484375 1322.25 1898 1215.65 1925 1078.15 1937.75
M 1849.5 960.25
Q 1846.65 961.45 1842.45 964.55 1778.87734375 1011.3703125 1722.25 1066.8 1717.39140625 1069.046484375 1710.65 1073.15 1683.6 1089.55 1665.75 1106.3 1662.25 1109.65 1660.8 1113.05 1658.95 1117.3 1661.25 1120.15 1661.4728515625 1120.4263671875 1661.7 1120.65 1659.4595703125 1122.3189453125 1657.1 1124 1634.45 1139.6 1623.2 1147.45 1617.7181640625 1151.2775390625 1612.6 1155 1614.286328125 1152.622265625 1614 1151 1613.75 1149.3 1611.95 1148.25 1610.45 1147.4 1608.35 1147.25 1603.95 1147 1598.85 1149 1595.55 1150.35 1590.05 1153.6 1556.056640625 1173.85 1523.95 1196.85 1519.344140625 1197.16328125 1514.25 1199.5 1510.45 1201.25 1504.8 1205 1480.15 1221.35 1459.1 1242.2 1453.8 1247.45 1450.9 1251.35 1446.9 1256.8 1445.35 1262.1 1444.45 1265.2 1445.1 1268.05 1445.5859375 1270.2712890625 1446.95 1271.45 1430.948828125 1280.8970703125 1421.3 1286.9 1396.665625 1302.26640625 1377.95 1316.4 1377.9423828125 1316.193359375 1377.9 1316 1376.05 1307.5 1367.55 1302.9 1359.05 1298.3 1350.9 1301.4 1345.8 1303.3 1340.95 1308.35 1338.4 1311 1333.05 1318.05 1312.4 1345.2 1287.85 1362.1 1281.2837890625 1366.60625 1272.9 1371.35 1274.5279296875 1370.003515625 1276.15 1368.6 1292.25 1354.65 1317.4 1329.2 1348.6880859375 1297.6205078125 1370.25 1273.45 1371.7546875 1277.9220703125 1375.6 1280.05 1378.3 1281.55 1381.75 1281.4 1384.95 1281.3 1388 1279.9 1392.6 1277.75 1397.95 1271.95 1401.35 1268.25 1405.25 1263.3 1406.8201171875 1261.2916015625 1409.75 1257.4 1412.28515625 1257.3712890625 1414.9 1256.75 1419.1 1255.75 1423.95 1253.15 1426.7 1251.65 1432.3 1248 1438.85 1243.7 1442 1240.85 1446.9 1236.4 1448.65 1231.45 1450.95 1225 1447.9 1218.2 1445.74765625 1213.4365234375 1441.95 1210.75 1442.10078125 1209.8759765625 1442.2 1209 1443.1 1200.85 1439.25 1194.7 1435.05 1187.95 1426.3 1185.45 1418.15 1183.1 1409.65 1185.25 1402.55 1187.05 1394.6 1191.9 1390.25 1194.55 1380.9 1201.5 1309.5 1254.35 1227.15 1289.75 1144.85 1325.2 1057.35 1340.7 1056.6109375 1340.830859375 1055.85 1340.95 1056.3931640625 1340.6181640625 1056.95 1340.25 1061.65 1337.15 1064.8 1335.75 1069.95 1333.5 1077.3 1332.5 1079.15 1332.25 1090.3 1331.35 1098.05 1330.75 1103.25 1329.25 1110.1 1327.35 1114.65 1323.5 1119.8 1319.15 1121.2 1312.4 1122.6 1305.25 1118.6 1300.45 1115.85 1297.15 1108.9 1294.5 1100.8 1291.4 1098.25 1289.5 1095.7 1287.55 1092.45 1283.05 1088.7 1277.85 1087.05 1276.2 1079.95 1269.2 1067.25 1268.45 1059.4 1268 1044.3 1270.3 979.4 1280.2 898.05 1268.7 865.45 1264.05 825.2 1255.35 799.6 1249.8 753.1 1238.45 715.3 1229.25 696.3 1223.15 665.2 1213.2 642.55 1200.2 638 1197.6 636 1196.65 632.25 1194.95 629 1194.6 625.1 1194.25 621.75 1196.05 618.1 1198 617.2 1201.4 606.95 1197.3 599.7 1195.9 589.8 1193.95 581.8 1195.9 572.6 1198.15 566.8 1206.05 560.75 1214.3 563.3 1222.7 564.0650390625 1225.144140625 565.55 1227.35 549.6513671875 1215.1203125 533.8 1201.55 528.5 1197 523.5 1195.35 517.2 1193.3 513.6 1197.05 510.3 1200.5 511.95 1206.3 513.25 1210.85 517.15 1215.9 523.0380859375 1223.4720703125 529.3 1230.75 529.0828125 1234.9875 530.45 1239.65 542.5 1281.1 550.95 1301.85 564.6 1335.55 583.05 1357.9 600.05 1378.5 627.55 1397.3 644.9 1409.15 679.25 1428.05 695.55 1437 704.5 1441.45 718.7 1448.4 730.8 1452.45 743.45 1456.65 763.4 1460.5 794 1466.45 796.45 1467 801.9 1468.25 829.6 1475.75 849.85 1481.2 863.05 1483.15 881.65 1485.95 904.8 1485.2 920 1484.75 946.65 1482.1 995.05 1477.3 1022.95 1471.4 1063.1078125 1462.894921875 1092.65 1447.25 1095.9880859375 1448.620703125 1099.55 1449.9 1108.9 1453.2 1122.55 1456.7 1133.42265625 1459.4869140625 1141.55 1460.95 1146.1689453125 1536.5369140625 1139.75 1627.65 1139.5 1631.35 1139.15 1633.3 1138.6 1636.4 1137.35 1638.6 1135.75 1641.45 1131.5 1644.85 1120.2 1653.7 1104 1658.7 1091.05 1662.7 1073.25 1664.7 1060.0845703125 1665.8419921875 1051.1 1666.65 1050.5248046875 1666.2134765625 1049.8 1665.9 1047.95 1665.1 1046.15 1665.6 1044.524609375 1666.0728515625 1043.35 1667.35 1042.73515625 1667.4435546875 1042.15 1667.5 1023.85 1669.3 1011.5 1672.55 1005.45 1674.15 1001.6 1677.15 996.8 1680.9 997.15 1685.7 997.45 1690.1 1001.95 1693.2 1004.61875 1695.0033203125 1008.25 1696.1 1003.541796875 1696.146875 998.85 1696.1 964.95 1695.8 925.1 1690.65 894.65 1686.7 851.95 1678.6 804.85 1669.75 755.85 1658.6 672.45 1639.7 620.45 1618.2 548.8 1588.6 504.05 1543.5 500.4 1539.85 496.85 1538.4 496.4287109375 1538.2287109375 496 1538.1 493.7234375 1535.303125 491.4 1532.35 483.45 1522.2 472.65 1506.8 454.85 1481.3 438.6 1455.45 436.95 1452.85 435.6 1451.55 433.65 1449.7 431.5 1449.55 427.2 1449.3 425.8 1454.6 424.5 1459.3 426.1 1464.4 430.6 1478.9 439.8 1494.75 446.5 1506.3 458.3 1522.7 459.05625 1523.748828125 459.8 1524.8 459.008984375 1525.423046875 458.35 1526.25 456.15 1529 456.15 1533.35 456.1 1536.55 457.35 1541.15 465.75 1572.85 488.7 1603.05 489.530078125 1604.1453125 490.35 1605.25 476.0931640625 1587.712890625 463.75 1568.55 460.55 1563.6 457.9 1561.2 454.05 1557.75 449.95 1558 446 1558.3 443.25 1561.9 440.65 1565.3 440.55 1569.6 440.45 1573.25 442 1577.5 443.05 1580.3 445.5 1584.95 483.5 1656.2 547.75 1708.45 611.95 1760.7 689.45 1783.4 698.7833984375 1786.1279296875 708.75 1788.55 713.534765625 1790.362109375 718.35 1791.95 732.05 1796.45 749.05 1799.9 761.5 1802.45 780.35 1805.3 844.35 1815 892.9 1817.05 917.1 1818.05 947.55 1817.6 965.1 1817.3 1002.2 1816.1 1055.35 1814.3 1082.2 1812.3 1126.5 1809 1161.4 1802.1 1185.1 1797.4 1211.9 1789.6 1233.85 1783.25 1261.5 1773.65 1291.95 1763.15 1314.4 1753.8 1342.45 1742.15 1365.25 1729.5 1381.15 1720.65 1399.25 1708.7 1412.8 1699.7 1431.95 1685.9 1454.8 1669.4 1467.75 1658.3 1486.6 1642.1 1498.9 1625.95 1504.25 1618.9 1506.8 1613.05 1510.1 1605.45 1509.4 1598.65 1508.45 1590.05 1501.3 1584.05 1500.667578125 1583.5228515625 1500 1583.05 1500.21796875 1575.9447265625 1496.85 1569.5 1493.308203125 1562.7048828125 1487.4 1560.05 1493.546484375 1552.944140625 1496.85 1547.8 1499.6953125 1543.402734375 1501.45 1539.1 1502.48515625 1537.69140625 1503.35 1536.25 1507.6 1529.15 1507.65 1521.15 1507.75 1512.55 1502.8 1506.85 1498.3 1501.65 1490.6 1500.15 1483.5 1498.75 1476.2 1500.9 1470.05 1502.75 1463.25 1507.05 1459.25 1509.55 1451.5 1515.5 1398.75 1555.9 1349.45 1586.25 1293.9 1620.45 1239.7 1643.85 1198.007421875 1661.8744140625 1156.5 1673.75 1156.4572265625 1673.5748046875 1156.4 1673.4 1156.9943359375 1673.165625 1157.5 1672.95 1162.95 1670.55 1166.1 1667.1 1169.25 1663.6 1171 1658.05 1172.2 1654.3 1173.2 1647.75 1177.85 1617 1179.3 1578.15 1180.15 1554.5 1180.05 1508.15 1180 1489.25 1179.9 1481.4 1179.7158203125 1470.3482421875 1179.3 1461.05 1185.7068359375 1459.7310546875 1192.7 1457.4 1200.8 1454.7 1215 1448.65 1241.05 1437.55 1257.95 1429.35 1281.1 1418.2 1299.2 1406.9 1332.5173828125 1386.0953125 1354.8 1361.45 1354.9775390625 1361.6857421875 1355.15 1361.9 1357.7 1365 1361.7 1366.9 1365.4 1368.7 1369.75 1369.15 1376.3 1369.85 1386.3 1367.45 1406 1362.75 1432.1 1349.45 1437.55 1346.7 1454.05 1337.85 1467.8 1330.5 1476.15 1326.5 1482.9 1323.25 1485.5 1321.7 1490.55 1318.65 1493.4 1315.05 1497.1 1310.4 1497.9 1304.25 1498.7 1298.1 1496.3 1292.7 1493.95 1287.25 1488.85 1283.7 1483.8 1280.1 1477.9 1279.7 1477.2634765625 1279.6580078125 1476.6 1279.65 1476.852734375 1279.6017578125 1477.1 1279.55 1481.5 1278.6 1483.55 1277.95 1486.6 1277.05 1492.4 1274.6 1498.25 1272.1 1501.25 1271.2 1506.5 1269.7 1513.9 1269.2 1518.2 1268.95 1526.8 1268.65 1537.7 1268.05 1557.75 1264.75
L 1606.75 1256.8
Q 1610.8 1256.2 1613.1 1255.6 1616.6 1254.7 1619.1 1253.25 1622.05 1251.6 1623.9 1248.95 1625.85 1246.05 1625.8 1242.95 1625.75 1239.05 1622.5 1235.9 1619.5 1232.95 1615.25 1232.05 1611.7 1231.3 1607.15 1231.75 1604.7 1232 1599 1233.05 1591.15 1234.45 1578.1 1235.95 1562.05 1237.8 1557.15 1238.5 1555.2 1238.75 1538.45 1241.45 1527.15 1243.3 1519.7 1243.9 1511.55 1244.45 1507.5 1244.8 1500.35 1245.35 1495.45 1246.55 1491.2318359375 1247.58046875 1486.6 1249.45 1531.8130859375 1213.448828125 1579.2 1182.25 1568.9458984375 1191.851171875 1561.65 1200.75 1553.65 1210.55 1556.65 1217.1 1558.4 1220.85 1563.05 1222.05 1567.4 1223.15 1571.65 1221.5 1575.2 1220.1 1578.8 1216.8 1580.6 1215.2 1584.85 1210.55 1603.15 1190.7 1636.5 1166.9 1645.75 1160.3 1664.4 1147.35 1680.95 1135.7 1691.8 1127.15 1709.1 1113.5 1730.55 1093.05 1743 1081.15 1767.55 1056.85 1789.65 1035.25 1805.45 1021.9 1826.75 1003.75 1846.75 991.45 1853.3 987.45 1855.8 985.45 1860.6 981.7 1862.8 977.45 1865.4 972.45 1863.85 966.8 1862.25 960.85 1857.2 959.5 1853.7 958.5 1849.5 960.25
M 580.55 1238.65
Q 583.271484375 1239.9072265625 586.55 1241.25 611.4 1251.45 646.35 1268.25 666.1 1277.7 705.5 1296.85 758.7373046875 1322.0794921875 800 1335.5 783.619921875 1332.80546875 769.3 1329.45 674.29609375 1307.0890625 580.55 1238.65
M 581.45 1309.3
Q 578.18515625 1306.423828125 575 1305 560.2462890625 1281.201171875 552.15 1255.15 591.3392578125 1293.5634765625 642.3 1322.25 714.2 1362.65 798.25 1377.6 818.05 1381.15 842.8 1384 858.75 1385.8 887.65 1388.4 920.85 1391.4 938.9 1392.55 967.3 1394.4 990.3 1394.15 1022.4341796875 1393.8052734375 1055.25 1389.55 1045.44921875 1394.142578125 1034.1 1399.3 1007.1 1411.55 993 1416.85 969.75 1425.6 950.15 1428.65 932.55 1431.4 910.3 1430.8 897.1 1430.4 870.3 1428.05 845.1 1425.8 832.6 1424.35 811.7 1422 795.15 1418.85 737.15 1407.75 681.2 1378.5 628.45 1350.95 581.45 1309.3
M 647.4 1379.85
Q 629.0181640625 1367.5712890625 613 1352 629.6755859375 1366.5228515625 647.4 1379.85
M 1185.35 1358.55
Q 1167.3935546875 1372.2470703125 1152.2 1384.65 1148.8 1387.45 1147.2 1388.95 1144.55 1391.45 1142.85 1393.85 1140.85 1396.7 1140 1399.8 1139.05 1403.15 1139.6 1406.25 1139.6345703125 1406.434375 1139.65 1406.6 1127.466796875 1409.5841796875 1116.6 1409.2 1115.226953125 1406.0828125 1112.6 1403.85 1110.3693359375 1401.9625 1107.5 1400.95 1119.47734375 1395.135546875 1127.65 1390.8 1153.86953125 1376.8162109375 1173.85 1362.4 1179.615625 1360.5548828125 1185.35 1358.55
M 668.75 1732.35
Q 665.3578125 1730.3712890625 662.2 1728.55 669.2103515625 1731.4595703125 676.3 1734.15 686.754296875 1738.0916015625 698.3 1741.9 683.332421875 1737.6896484375 668.75 1732.35
M 519.1 1636.75
Q 528.001171875 1645.137109375 538.05 1653.5 568.95 1679.2 603.85 1699.55 616.692578125 1707.0384765625 629.9 1713.7 629.5669921875 1713.762890625 629.25 1713.85 628.2953125 1714.1158203125 627.45 1714.55 597.6986328125 1699.731640625 569.95 1679.8 542.4548828125 1660.0447265625 519.1 1636.75
M 1457.6 1014.7
Q 1456.2 1018.2 1453.55 1025.3 1450.4 1033.15 1445.25 1042.1 1441.6 1048.35 1435.25 1058 1398.15 1114.15 1360.8 1153 1315.85 1199.8 1266.45 1226.25 1261.4 1228.95 1258.95 1231.15 1255.25 1234.4 1254.8 1238.3 1254.629296875 1239.723046875 1254.9 1241.1 1252.710546875 1242.379296875 1251.35 1243.55 1248.2 1246.3 1247.9 1249.6 1247.6 1252.6 1249.75 1255.25 1251.8 1257.8 1254.9 1258.8 1257.6 1259.7 1261 1259.55 1263.55 1259.4 1267.25 1258.65 1284.2 1255.1 1303.4 1245.15 1315.4 1238.9 1336.8 1225.05 1351.2 1215.85 1358.8 1210.7 1370.85 1202.55 1380.1 1195.3 1390.3 1187.3 1404.95 1174 1426 1155 1440.55 1139.95 1459 1120.85 1472.55 1102.7 1477.25 1096.4 1479.25 1091.65 1481.95 1085.1 1480.65 1079.55 1479.331640625 1073.9943359375 1474.2 1070.55 1476.7091796875 1066.8453125 1478.55 1063.9 1488.9 1047.3 1493.95 1032.5 1496.05 1026.25 1496.75 1021.35 1497.65 1015.2 1496.55 1010 1495.3 1004.15 1491.35 999.85 1487.15 995.25 1481.65 994.5 1476.35 993.8 1471 996.9 1466.15 999.7 1462.75 1004.65 1460.1 1008.55 1457.6 1014.7
M 886.85 541.75
Q 886.05 548.2 889.9 557.15 892.05 562.2 896.45 572.25 899 580.25 898.45 590.5 898.05 597.65 895.7 609 891 631.5 884.85 646.95 876.9 666.9 864.85 680.25 859.3 686.45 851.55 692.55 845.55 697.3 836.75 703.15 827.85 709 821.05 712.55 812.25 717.15 804.2 719.5 795 722.1 783.7 722.6 774.8 723 762.8 722.1 749.1 721.05 737.95 719 724.85 716.55 713.8 712.55 696.9 706.45 679.15 694.65 665.45 685.5 648.05 670.6 646.4 669.2 645.4 668.65 643.85 667.7 642.4 667.75 640.35 667.8 638.8 669.6 637.35 671.3 637.2 673.5 636.95 676.6 639.4 681.65 647.4 697.6 661.45 712.2 682.05 733.6 710.4 747.45 737.5 760.7 768.35 765.45 796.3 769.8 817.9 765.35 837.15 761.4 856.7 749.65 872.9 739.85 890.35 723.9 898.65 716.3 904.45 709.9 911.6 702 916.55 694.2 927.15 677.55 932.25 654.2 935.95 637.05 937.55 610.85 938.85 588.95 937.4 575.05 935.35 555.5 927.55 541.45 920.4 528.6 910.6 525.95 902.8 523.8 895.35 528.8 887.85 533.75 886.85 541.75
M 1368.95 885.35
Q 1366.15 879.85 1361.15 877.5 1355.8 875 1349.25 876.7 1343.25 878.25 1338.4 882.65 1334.5 886.2 1330.6 892.15 1326.35 899.3 1324.2 902.8 1306.45 932.6 1275.7 956.8 1248.75 978.05 1212.6 994.4 1202.45 999 1194.45 1001.85 1184.5 1005.4 1175.6 1007.15 1175.001171875 1007.265625 1174.4 1007.35 1171.953515625 1004.533203125 1167.45 1002 1161.45 998.6 1152.25 995.25 1141.7 991.6 1136.45 989.65 1109.35 979.6 1084.55 961 1061.25 943.6 1041.45 919.85 1032.45 909.05 1026.55 899.6 1023.0529296875 893.9998046875 1020.35 888.5 1018.7779296875 881.3896484375 1017.3 873.5 1016.75 870.65 1015.6 868.9 1014.15 866.6 1012 866.75 1011.0408203125 866.8322265625 1010.25 867.45 1009.0482421875 866.54375 1007.65 866.2 1005.35 865.65 1002.95 866.8 1000.7 867.85 999.1 869.9 996.35 873.45 995.9 878.9 995.55 883.05 996.55 888.9 1000.35 910.65 1012.1 931.95 1013.3427734375 934.208203125 1014.65 936.45 1017.923046875 950.1583984375 1022.4 963.65 1025.7 973.5 1028.95 980.8 1032.95 989.85 1037.75 996.85 1046.25 1009.3 1060.45 1020.2 1088.3 1041.55 1125.85 1047.9 1161.45 1053.9 1197.65 1045.25 1231.15 1037.25 1263.7 1017.5 1293 999.75 1320.5 973.05 1349.55 944.95 1364.3 918 1367.5 912.15 1369.15 907.65 1371.25 901.75 1371.4 896.5 1371.55 890.5 1368.95 885.35
M 1363.05 329.05
Q 1342.5 348.6 1316.45 380.45 1307.3 391.55 1301.6 399.35 1293.9 410 1288.75 419.6 1283.75 428.9 1279 441.35 1276.25 448.6 1271.2 463.9 1269.2 470.05 1268.5 473.25 1267.4 478.55 1267.9 482.8 1268.5 487.85 1271.5 491.75 1274.75 495.95 1279.35 496.65 1290.6 498.45 1299.95 478.65 1317.15 442.3 1341.15 409.85 1343.45 415.05 1349.75 416.85 1355.7 418.6 1361.5 416.45 1366.4 414.65 1371.35 410.3 1374.2 407.8 1379.65 401.85 1412.1 366.35 1457.8 326.25 1482.85 304.3 1541.3 256.35 1546.35 252.2 1548.6 249.95 1552.4 246.2 1554.5 242.45 1557 238.05 1557.25 233.25 1557.5 228 1554.9 224.2 1551.3 219 1543.75 217.85 1537.35 216.9 1529.9 219 1521.8 221.25 1512.35 226.05 1506.75 228.9 1495.85 235.45 1449.55 263.2 1426.75 278.65 1389.3 304.05 1363.05 329.05
M 659.75 443.25
L 649.55 414.55
Q 637.75 381.35 631.05 365.05 627.05 355.4 624.05 350.6 622.3 347.8 620.15 346.35 617.5 344.55 615.15 345.55 613.75 346.15 612.9 347.65 612.15 349.05 612.05 350.7 611.95 352.75 613.3 356.9
L 628.45 401.25
Q 632.75 413.75 635.2 421.9 637.55 429.65 641.65 445.35
L 660.3 517.3
Q 661.7 522.65 662.8 525.45 664.55 529.8 667.15 532.5 670.25 535.7 674.65 536.35 679.3 537.1 682.3 534.35 684.35 532.45 685.05 529.35 685.7 526.5 685.1 523.4 684.65 521 683.3 517.8 681.75 514.2 681 512.35 679.5 508.6 678.15 503.4 678 502.95 675.95 494.25 673.15 482.65 668.55 468.55 665.7 459.9 659.75 443.25
M 575 514.45
Q 576.25 519.25 580.45 530.15
L 589.6 553.45
Q 592.35 560.45 594 563.85 596.75 569.5 599.95 573.35 602.5 576.4 605.55 577.85 609.15 579.5 612.05 578.05 614.1 576.95 615.15 574.55 616.15 572.25 615.9 569.75 615.7 567.6 614.7 565.1 614.1 563.6 612.65 560.65 600.35 535.9 593.25 509 591.75 503.45 589.75 500.35 587 496 582.95 495.8 580.1 495.65 577.65 497.8 575.3 499.75 574.4 502.75 573.05 507.35 575 514.45
M 1567.15 797.45
Q 1562.35 797.4 1556.25 800.35 1548.25 804.1 1535.7 813.3 1514.7 828.55 1493.6 844.85 1490.65 847.1 1489.25 848.75 1487.1 851.2 1486.75 853.7 1486.2 857.45 1489.25 860.6 1492.15 863.6 1496.2 864.1 1499.7 864.55 1503.8 863.25 1506.85 862.25 1511 860 1520.55 854.8 1536.9 842.5 1554.05 829.6 1562.6 824.65 1568.15 821.4 1568.95 820.85 1572.5 818.55 1574.55 816.1 1577.1 813.1 1577.85 809.45 1578.65 805.5 1576.85 802.45 1575.45 800.1 1572.7 798.75 1570.15 797.5 1567.15 797.45
M 1555.55 675.1
Q 1545.15 680.6 1540.1 683.6 1531.4 688.85 1518.9 698.5 1498.7 714.1 1479.85 731.25 1476.9 733.9 1475.45 735.65 1473.25 738.3 1472.4 741 1470.85 746 1474.15 750.9 1474.4662109375 751.376953125 1474.8 751.8 1474.1044921875 754.25546875 1474.4 756.85 1474.9 761.05 1477.9 763.25 1480.85 765.45 1485.4 764.9 1488.8 764.5 1493.4 762.5 1504.7 757.55 1517.8 749.4 1525.85 744.4 1540.9 734
L 1564.45 717.8
Q 1573.8 711.4 1578.45 707.95 1586.05 702.25 1591.6 697 1595.7 693.15 1603.1 685.05 1610.65 676.8 1614.55 673.1 1615.66796875 672.0255859375 1616.55 671.15 1618.3623046875 670.0533203125 1619.5 669.2 1622.3 667.1 1623.75 664.75 1626.3 660.65 1625.25 655.55 1624.25 650.45 1620.3 647.65 1618.184375 646.1544921875 1615.5 645.5 1613.3837890625 644.686328125 1611.1 644.65 1607.671875 644.6173828125 1604.25 646.4 1601.862109375 647.240234375 1599.25 648.6 1597.1 649.7 1592.85 652.35
L 1570.65 666.05
Q 1561.6 671.65 1555.55 675.1
M 678.6 591.6
Q 676.75 590.55 674.45 591.5 672.25 592.45 671.25 594.5 669.55 598 671.45 603.05 674.65 611.45 685.35 618.35 704.8 631 729.45 629.35 754.15 627.7 771.75 612.6 775.65 609.3 777.35 605.45 779.4 600.8 777.05 597.55 775.45 595.3 772.3 594.7 769.35 594.2 766.45 595.25 764.1 596.1 761.4 598.1 758.35 600.5 756.8 601.65 743.25 612.1 725.35 613.65 707.4 615.2 692.25 607.2 685.05 603.5 682.65 598.55 681.65 595.9 681.1 594.65 680.05 592.45 678.6 591.6
M 1219.55 819.9
Q 1217.65 818.15 1215.25 817.6 1211.7 816.75 1207.4 818.65 1204.75 819.9 1200.2 823.15 1184.8 834.1 1167.55 841.45 1159.4 844.95 1152.65 846.65 1144.4 848.7 1137.15 848.4 1131.3 848.15 1120.85 845.5 1115.4 844.2 1112.15 843.1 1107.45 841.55 1103.95 839.5 1101.3 837.95 1098.2 835.4 1096.95 834.35 1092.85 830.7 1087.5 825.95 1080.9 820.75 1079.6 819.75 1078.85 819.35 1077.65 818.7 1076.6 818.75 1075.05 818.8 1073.85 820.1 1072.7 821.35 1072.5 823.05 1072.15 825.55 1073.85 829.25 1079.15 841 1090.45 850.3 1100.4 858.55 1114.05 864.15 1118.8 866.2 1123.8 867.6 1134.55 870.6 1146.7 870 1157.9 869.45 1169.5 865.85 1179.9 862.6 1190.85 856.9 1200.1 852.05 1210.75 844.9 1214.85 842.15 1217.2 840 1220.45 836.95 1221.9 833.65 1224.05 828.7 1222.3 824 1221.4 821.65 1219.55 819.9
M 570 682.4
Q 569.8 678.95 568 676 566.1 672.95 563.1 671.7 560.5 670.65 557.4 671.1 554.5 671.5 551.8 673.1 549.55 674.45 547.2 676.7 545.7 678.2 543.15 681.05 539.65 685 538.15 687.25 535.65 690.95 534.9 694.4 534 698.4 535.4 701.85 535.684765625 702.56171875 536.05 703.2 525.7046875 712.308203125 518.45 714.35 516.65 714.8 516.05 715 514.75 715.5 513.95 716.25 512.85 717.3 512.65 719 512.45 720.65 513.15 722.1 514.5 724.9 517.95 725.95 521.05 726.9 525.1 726.1 527.75 725.55 532.1 723.8 535.95 722.3 537.9 721.3 541 719.75 543.05 717.95 544.9 716.3 547.9 712.45 549.5404296875 710.325390625 550.8 708.85 551.53515625 708.726171875 552.25 708.5 560.7 705.85 566.5 695.25 570.35 688.25 570 682.4
M 352.15 582.1
Q 352.3 584.3 353.4 587.65 373.6 649.45 419.5 710.25 456.65 759.45 515.45 813.6 560.6234375 855.1517578125 609.05 892.25 609.4037109375 893.430859375 610.1 894.5 611.55 896.75 613.85 897.25 614.77421875 897.4552734375 615.75 897.35 664.5337890625 934.2296875 716.6 966.65 733.2 977 743.85 981.85 759.5 989 773.4 990.2 795.95 992.2 821 979.7 838.9 970.75 863.2 951.15 870.65 945.1 874.15 941.35 879.7 935.35 881.95 929.25 884.6 922.1 882.25 914.7 879.8 906.9 873.2 904.45 866.4 901.9 858.1 906.3 852.7 909.15 844.65 916.5 827.95 931.85 808.75 944.05 799.2 950.15 791.7 953.15 781.95 957.05 773.2 956.9 764.95 956.7 755.55 952.75 749.25 950.15 739.15 944.2 728.2451171875 937.8052734375 717.45 931.15 719.9705078125 930.2830078125 722.25 927.8 723.75 926.15 726.6 921.75 730.45 915.8 739.6 904.2 748.55 892.85 752.5 886.55 755.05 882.5 759.05 875.05
L 775.65 844.55
Q 779.65 837.25 780.9 833.3 781.35 831.9 782.25 828.5 783.1 825.4 783.7 823.7 783.95 823 785.95 818.5 787.3 815.35 787.75 813.15 788.4 810.15 787.6 807.45 786.7 804.45 784.35 803.15 782.55 802.1 780.2 802.35 778.05 802.55 776.15 803.75 773.15 805.65 770.65 810.35 769.45 812.7 768.1 816.15 767.3 818.15 765.8 822.1 763.05 829.1 756.8 840.8 744.3 864.25 733.45 882.15 729.25 888.95 726.8 892.05 725.75 893.35 723.2 896.2 720.85 898.85 719.65 900.4 718.2 902.25 715.95 905.7 713.35 909.6 712.3 911.05 708.8 915.85 707.95 917.4 705.9619140625 921.0853515625 706.3 924.25 672.04921875 902.68203125 639 878.75 639.7048828125 878.0451171875 640.35 877.4 640.459375 877.290625 640.55 877.15 640.8525390625 877.7 641.2 878.2 643.4 881.4 646.7 881.6 649.55 881.75 652.45 879.6 654.4 878.1 656.95 874.9 669.55 859 675.15 850.3 684.3 836 687.9 822.95 689 818.9 688.65 815.7 688.15 811.65 685.4 809.9 677.2 813.3 669.85 821.65 666.609375 825.3388671875 662.2 831.7 661.8234375 831.300390625 661.3 831.05 659.6 830.15 656.7 831.45 651.6 833.8 646.65 839.5 643.75 842.8 638.5 849.95 635.55 853.7 624.85 865.1 623.9369140625 866.07109375 623.05 867 565.6962890625 824.0640625 512.05 773.8 523.4869140625 767.6087890625 529.5 764.05 541.95 756.65 551.1 749.55 559.05 743.35 564.15 737.45 570.4 730.1 573.1 722.35 574.65 717.8 572.8 715.7 571.45 714.1 568.85 714.25 566.75 714.4 564.35 715.65 558.35 718.85 550.75 726.15 539.9 736.65 538.15 738.1 530.6 744.35 516.5 751.4 504.4064453125 757.4802734375 498.35 760.75 454.3671875 718.387109375 426.25 682 417.231640625 670.305859375 409.3 658.6 409.918359375 657.55859375 410.65 656.2 417.85 642.65 425.95 629.65 428.9 624.85 429.9 622.75 431.85 618.75 432.25 615.3 432.65 611.9 430.95 610.55 429.7 609.5 427.7 609.95 426.15 610.3 424.35 611.55 416.45 617.1 409.2 629.55 408.45 630.8 403.35 640.2 401.8830078125 642.8859375 400.55 645.1 382.664453125 616.3677734375 371.45 587.6 369.85 583.5 368.9 581.65 367.2 578.5 364.95 576.65 362.35 574.55 358.9 574.5 355.3 574.45 353.45 576.95 351.95 578.95 352.15 582.1 Z"/>
</g>
</defs>

<g transform="matrix( 1, 0, 0, 1, 0,0) ">
<use xlink:href="#Layer1_0_FILL"/>
</g>

<g transform="matrix( 1, 0, 0, 1, 0,0) ">
<use xlink:href="#Layer0_0_FILL"/>
</g>
</svg>
