
<svg xmlns="http://www.w3.org/2000/svg" version="1.1" xmlns:xlink="http://www.w3.org/1999/xlink" preserveAspectRatio="none" x="0px" y="0px" width="2000px" height="2000px" viewBox="0 0 2000 2000">
<defs>
<g id="Layer1_0_FILL">
<path fill="#000000" stroke="none" d="
M 1515.15 686
Q 1518.45 680.75 1526 670.05 1531.5 660.55 1529.4 653 1528.1 648.4 1523.9 644.2 1521 641.35 1515.4 637.65 1479.15 613.6 1433.45 594.1 1396 578.15 1345.65 562.65 1321.6 555.25 1255.2 536.75 1198 520.85 1165.1 509.95 1155.25 506.6 1148.45 504.35 1143.15 501.65 1137.25 499.15 1126.3 494.5 1110.25 489.45 1081.7 480.5 1057.9 476.35 1029.45 471.45 1004.3 472.65 976.15 474 951.45 483.2 924.85 493.1 905.85 510.85 897.7 518.5 892.3 526.5 890.2 526.6 888.35 528.7 886.1 531.2 885.05 535.1 883.3 541.7 882.05 550.2 880.75 556.35 880.6 562.9 880.2 567.05 879.6 572.95 874.65 623.2 862.1 679.1 851.45 726.5 834.05 783.15 788.5 931.8 722.35 1066.65 722.3 1066.65 722.25 1066.6 718.65 1064.65 716.55 1067.05 718.05 1069.75 719.55 1072.4 708.95 1093.8 697.85 1114.85 697.35 1113.9 696.9 1113 695.45 1110.05 694.1 1108.55 692.15 1106.4 689.95 1106.75 686.8 1107.25 686.55 1111.25 686.35 1114.75 688.15 1118.25 690 1121.75 692.25 1125.35 686.15 1136.6 680 1147.8 679.3 1145.3 678.75 1142.8 678.15 1139.9 677.25 1138.3 676 1136.05 674 1135.6 670.2 1134.75 669.05 1139.6 668 1144.05 669.75 1148.45 671.75 1153.55 673.95 1158.55 665.2 1174 656.3 1189.15 646.05 1184.85 634.95 1180.1 631.5 1178.6 627.7 1179.7 623.7 1180.9 625.1 1183.8 625.7 1184.95 627.8 1186.05 639.65 1192.4 650.9 1198.25 557.8 1353.65 438.4 1479.85 421.1 1498.1 389.05 1530.45
L 320.75 1599.4
Q 317.1 1603.1 315.5 1605.2 312.8 1608.65 311.85 1612 310.7 1615.95 312.1 1619.8 313.55 1623.9 317.1 1625.2 317.45 1625.35 317.8 1625.45 317.55 1632.1 321.3 1639.45 324.3 1645.3 331.15 1653.65 356.6 1684.6 384 1712.95 383.95 1714.7 384.05 1724.7 384.1 1730.35 380.55 1742.35 377.15 1753.7 377.7 1760 378.4 1768 384.3 1776.15 388.25 1781.55 396.65 1789.5 481.8 1869.4 564.95 1918.8 662.75 1976.85 760.25 1994.35 802.9 2001.95 835.75 1999.3 842.85 1998.7 847.4 1997.55 853.65 1995.95 857.9 1992.75 863.2 1988.75 866.8 1981.25 869.1 1976.4 871.8 1967.05 871.8 1967 871.85 1966.95 919.55 1973.05 967.1 1972.7 977.9 1972.65 983.3 1969.2 983.65 1969.45 984 1969.65 988.6 1972.4 992.95 1970.9 997.45 1969.35 999.8 1963.8 1001.5 1959.85 1002.3 1953.1 1032.15 1706.55 1180.55 1441.55 1188 1442.4 1194.35 1441.8 1195.2 1441.7 1196 1441.6 1195.3 1443.65 1194.7 1445.6 1188.95 1463.9 1186.55 1485.45 1184.5 1503.9 1184.8 1526.2 1185.3 1562.2 1192.25 1590.25 1200.6 1624 1218.55 1647.85 1229.25 1662.1 1241.05 1668.6 1244.85 1670.65 1247.1 1669.8 1248.75 1669.15 1249.5 1667.3 1250.25 1665.55 1249.9 1663.65 1249.65 1662.05 1248.65 1660.25 1248.05 1659.25 1246.6 1657.15 1226.65 1628.9 1216.15 1594.05 1206.05 1560.45 1205.8 1524.5 1205.6 1490.1 1214.35 1454.85 1221.05 1427.65 1232.85 1401.2 1234.25 1401.05 1235.5 1400.9 1229.5 1435.55 1235.3 1472.15 1241.65 1511.85 1260.9 1547.75 1283.05 1589.25 1313.45 1602 1314.8 1602.6 1316 1602.55 1317.45 1602.45 1317.85 1601.4 1318.25 1600.25 1316.8 1598.4 1305.8 1584.55 1299.85 1576.55 1290.7 1564.3 1284.15 1553.75 1260.95 1516.5 1252.9 1474 1245.4 1434.5 1252.45 1397.4 1253.3 1403.1 1255.2 1409.3 1265.5 1443 1300.25 1475.45 1312.3 1486.6 1321.55 1491.75 1325.95 1494.2 1331.6 1496.55 1335.5 1498.1 1342.05 1500.4 1351.25 1503.6 1356.65 1504.95 1364.85 1506.95 1371.65 1506.9 1384.65 1506.75 1396.6 1499.4 1408.15 1492.25 1415.05 1480.65 1421.65 1469.5 1423.3 1455.75 1424.85 1442.6 1421.7 1429.4 1420.2 1422.9 1416.6 1413.55 1410.9 1398.7 1404.8 1389.95 1402.5 1386.6 1399.1 1382.7 1397.3 1380.6 1392.95 1375.8 1390.35 1372.95 1388.15 1370.65 1400.4 1370.7 1411.2 1368.55 1428.45 1365.1 1446.35 1355.2 1461.05 1347.1 1477.7 1333.7 1486.9 1326.3 1492.85 1320.25 1500.6 1312.4 1505.45 1304.45 1511 1295.35 1512.95 1285.6 1515.1 1275.05 1512.55 1265.65 1508.85 1251.9 1495.8 1241.7 1484.4 1232.8 1468.4 1228.35 1449 1222.95 1427.35 1224.05 1407.05 1225.1 1386.55 1231.8 1351.45 1243.2 1314.15 1271.85 1302.15 1281.05 1294.35 1288.9 1286.25 1297.05 1280.9 1305.45 1275.3 1300.8 1268.45 1297.55 1267.95 1297.3 1267.45 1297.1 1276.15 1283.8 1284.3 1272.2 1312.9 1231.35 1358.9 1176.4 1480.7 1031.2 1620.45 903.25 1627.8 900.4 1634.35 896.95 1654.15 886.6 1661.65 872.8 1666.65 863.6 1667.05 851.7 1667.45 841.15 1664.2 829.65 1659.1 811.65 1646.9 794.9 1635.8 779.75 1619.65 766.65 1606 755.55 1587.3 744.75 1574.8 737.5 1552.55 726.45 1529.05 714.7 1505.35 703.25 1507.5 700.3 1509.85 695.8 1514 687.85 1515.15 686
M 1317.35 647.1
Q 1335.05 654.75 1367.6 669.85
L 1519.95 740.2
Q 1543.2 750.95 1554.25 756.7 1573.05 766.45 1586.85 776.15 1622.2 801.1 1636.1 832.95 1643.5 849.7 1638.6 860.55 1636.75 864.65 1633.2 868.05 1632.2 868.95 1631.15 869.8 1630.05 870.65 1628.85 871.45 1623.65 874.85 1615.05 877.95 1581.4 890.2 1539.85 893.3 1506 895.8 1462.45 892.4
L 1498.55 817.9
Q 1501.8 811.2 1502.7 806.65 1503.95 800.15 1501.25 795.7 1498.15 790.65 1490.65 789.3 1485.6 788.35 1476.9 789.05 1415.9 794.05 1343.55 775.35 1292.2 762.05 1215.1 730.25 1171.85 712.4 1145.1 699.2 1107.45 680.6 1079.25 660.55 1073.75 656.65 1071 653.1 1067.2 648.2 1067.75 643.35 1068.2 639.5 1071.4 635.95 1073.85 633.3 1078.2 630.5 1097.95 617.75 1122.75 611.75 1145.8 606.2 1171.2 606.9 1194.05 607.5 1219.35 613.1 1240.9 617.9 1266.15 626.8 1289.35 634.95 1317.35 647.1
M 1480.35 684.85
Q 1478.85 687.45 1478 690.15 1401.55 653.95 1322.8 620.8 1283.6 604.35 1259.5 596.35 1224.05 584.65 1193.85 580.95 1158.3 576.6 1126.15 583.05 1090.85 590.1 1064.75 609.35 1053.1 617.95 1046.9 628.1 1041.2 637.4 1041.2 646.4 1036.2 653.6 1030.4 663.6 1023.5 675.5 1009.45 702.45 1007.65 705.9 1006.85 708.9 1002.35 705.55 998.1 702.2 955.3 668.7 926.35 631.75 890.9 586.55 900.05 551.55 904.25 535.5 917.85 522.25 929.85 510.5 947.15 502.8 967.65 493.7 992.15 491 1014.45 488.5 1039.05 491.4 1060.15 493.9 1084.85 500.55 1093.65 502.95 1104.5 506.35 1104.65 506.5 1104.8 506.65 1107.55 509.45 1112.4 511.5 1136.75 521.95 1154.75 529.5 1157.4 530.05 1161.6 531.1 1168.15 532.7 1181.4 535.6 1192.9 538.35 1200.55 541.8 1210.1 546.1 1212.4 552.25 1233.25 559.8 1251.75 565.5 1264.3 569.35 1286.8 575.6 1311.65 582.5 1321.95 585.55 1413.55 612.75 1497.2 659.5 1495.25 664.95 1489.4 672.45 1482.1 681.8 1480.35 684.85
M 1568.9 915.85
Q 1575.45 914.95 1581.5 913.85 1517.1 972.6 1456.9 1035.9 1367.8 1129.65 1289.25 1232.05 1262.55 1266.9 1245.55 1292 1243.65 1291.9 1241.7 1292 1237.85 1292.2 1235.25 1293.15 1235.1 1293.15 1234.9 1293.15 1111.65 1273.45 993.35 1234.35 908.9 1206.5 849.3 1173.85 787.05 1139.75 743.5 1096.4 739.35 1090.1 735.3 1083.8 819.05 912.8 870.4 718.7 884.4 665.9 890.75 627.95 892.05 620.2 893.15 612.6 898.35 623.1 905.65 633.75 926.25 663.85 961.7 696.3 1015.65 745.55 1087.85 787.1 1149 822.25 1228.6 854.8 1320.95 892.55 1395.9 908 1488.9 927.2 1568.9 915.85
M 1450.25 852.4
Q 1442.55 870.55 1438.95 889.8 1414.95 887.4 1387.85 881.4 1365.5 876.4 1337.7 868.2 1203.6 828.5 1082.35 758.2 1047.95 738.25 1020.4 718.75 1020.45 718.65 1020.55 718.6 1022.75 716.8 1024.65 713.75 1025.7 712 1027.55 708 1037.45 686.85 1049.35 666.75 1049.65 667.1 1049.95 667.45 1054.7 672.95 1063.55 679.7 1090.2 699.8 1126.75 718.25 1151.5 730.75 1194.55 748.85 1276.4 783.2 1329.15 798.2 1404.95 819.75 1469.3 818.25 1457.95 834.2 1450.25 852.4
M 1477.8 1261.85
Q 1482.3 1264.35 1484.55 1267.95 1486.8 1271.65 1486.85 1276.45 1486.85 1280.95 1484.95 1285.3 1483.35 1289.05 1480.3 1292.95 1478.1 1295.75 1474.25 1299.7 1446.55 1328.2 1418.15 1336.95 1391.8 1345.05 1358.05 1338.7 1344.8 1336.2 1328.7 1331.1 1319 1328 1300 1321.1 1307.7 1308.7 1321.95 1297.75 1331.8 1290.15 1349.45 1280.2 1368.55 1269.5 1381.35 1264 1399.4 1256.25 1415.35 1253.8 1441.85 1249.8 1469.1 1258.25 1474.45 1259.9 1477.8 1261.85
M 1302 1352.8
Q 1309.05 1355.55 1322.4 1359.2 1347.85 1366.15 1364 1368.65 1371.15 1374.25 1377.45 1381.05 1388.95 1393.45 1396.2 1408.45 1406.4 1429.4 1403.7 1446.95 1402.15 1457.15 1396.05 1465.25 1389.6 1473.8 1380.4 1476.75 1366.5 1481.25 1346.55 1472.15 1319.95 1459.95 1301.35 1436 1282.75 1412.05 1277.45 1383.3 1276.55 1378.5 1276.35 1377.55 1276.1 1376.5 1275.8 1375.55 1281.7 1370.65 1284.7 1367.25 1290.65 1360.55 1294.45 1351.05 1294.75 1350.4 1295 1349.75 1298.3 1351.35 1302 1352.8
M 414.55 1533.45
Q 436.2 1511 448.05 1498.55 466.45 1479.2 480.95 1463.15 585.6 1347.45 668.55 1207.4 693.55 1220.25 714.9 1230.45 732.25 1254.45 753.75 1276.5 808.15 1332.3 879.2 1365.65 947.8 1397.9 1027.05 1407.3 1051.8 1410.25 1076.65 1410.85 1116 1425.85 1158.5 1436.9 1101.2 1540.85 1062.05 1636.95 997.7 1794.9 977.1 1943.45 976.95 1944.65 976.8 1945.8 974.25 1944.85 971.15 1944.35 967.85 1943.8 961.25 1943.5 885.2 1940 820.15 1928.15 746.55 1914.8 683.85 1890.25 608.2 1860.65 531.8 1808.15 467.2 1763.85 396.5 1699.15 373.05 1677.7 359.6 1662.85 340.6 1641.9 329.15 1621.6 330.9 1620.15 332.75 1618.2
L 414.55 1533.45
M 710.4 1132.7
Q 715.1 1123.8 719.7 1114.8 723.8 1106.85 727.8 1098.85 735.55 1107.7 744.55 1116.45 761.5 1145.8 773.2 1164.25 796.25 1200.6 819.3 1229.6 763.75 1188.3 719.8 1142.9 714.2 1137.1 710.4 1132.7
M 705.75 1143.55
Q 713.25 1152.3 727.25 1165.9 778.1 1215.15 826.9 1253 829.1 1254.7 831.3 1256.4 791.45 1243.95 745.3 1225.9 732.75 1221 714 1213.3 701.3 1196.2 693.2 1180.85 690.9 1176.5 688.9 1172.15 697.05 1157.55 705.05 1142.75 705.4 1143.15 705.75 1143.55
M 775.1 1142.9
Q 789.15 1153.85 805.95 1165.2 887.8 1220.55 991.25 1258.3 1055.55 1281.75 1129.1 1298.7 1087.05 1299 1046.1 1296.15 960.55 1290.15 881.8 1270.55 859.95 1251.45 843 1232.45 829.35 1217 810.25 1191.45 792.3 1167.45 775.1 1142.9
M 940.45 1307.4
Q 939.1 1306.65 937.75 1305.9 961.3 1310.35 985.75 1313.65 1055.1 1323.05 1133.25 1323.5 1168.15 1323.7 1190.25 1320.5 1202.85 1318.65 1214.1 1315.5 1222 1316.8 1228.75 1317.7 1218.9 1333.15 1207.65 1351.85 1200.2 1364.2 1193 1376.5 1182.3 1375.8 1166.05 1373.95 1113.8 1368 1076.8 1360 1028.95 1349.7 991.05 1333.15 970.1 1324 940.45 1307.4
M 841.65 1281.75
Q 859.6 1287.45 878.2 1292.4 925.75 1335.3 985.9 1368.75 999.15 1376.15 1012.9 1382.95 955.15 1375.2 902.7 1354.85 846.85 1333.15 799.35 1298 764.15 1271.95 736.05 1240.35 792.2 1266 841.65 1281.75
M 699.3 1207.25
Q 687.9 1202.5 674.7 1196.95 679.5 1188.7 684.2 1180.45 691.2 1194.1 699.3 1207.25
M 1266.45 1320.5
Q 1270.65 1323.65 1272.85 1327.4 1273.55 1328.6 1274.25 1330.25 1274.3 1330.45 1274.35 1330.65 1274.65 1331.6 1275.1 1332.55 1275.2 1332.95 1275.35 1333.35 1276.3 1336.65 1276 1338.75 1275.75 1340.9 1273.65 1344.5 1269.75 1351.25 1267.35 1354.05 1263.05 1359.05 1256.35 1362.6 1249.6 1366.15 1244.8 1364.9 1241.9 1364.15 1237.7 1360.55 1234.7 1357.95 1231.45 1354.8 1244.4 1333.35 1253.5 1318.85 1254.65 1317 1255.85 1315.15 1261.6 1316.8 1266.45 1320.5
M 1220.45 1376.5
Q 1219.35 1376.55 1218.3 1376.65 1218.7 1375.9 1219.15 1375.15 1219.75 1375.8 1220.45 1376.5
M 1040.1 1372.05
Q 1049.3 1375.2 1058.55 1378.05 1075.65 1383.35 1092.65 1387.5 1084.8 1387.65 1077 1387.6 1058.4 1380.35 1040.1 1372.05
M 1204.55 1420.2
Q 1203.45 1422.65 1202.45 1425 1202.05 1424.65 1201.6 1424.3 1199.2 1422.55 1195.65 1421.45 1194.4 1421.05 1192.45 1420.6 1197.3 1412.1 1203.15 1402.15 1208.2 1402.25 1213.1 1402.15 1207.55 1413.45 1204.55 1420.2
M 1170.2 1415.95
Q 1155.4 1412.6 1140.8 1408.6 1158.85 1406.9 1177 1404 1173.55 1409.95 1170.2 1415.95
M 831.65 1972.7
Q 828.7 1973.3 823.6 1973.2 767.6 1972.15 710.15 1957.45 655.7 1943.5 602.35 1917.9 506.45 1871.85 413.65 1788.1 405.45 1780.7 401.35 1775.7 395.25 1768.2 393.15 1760.7 391.5 1754.7 391.9 1746.3 392 1744.35 393.3 1731.55 393.8 1726.8 393.9 1723.05 425.95 1755.2 460.7 1783.9 533.1 1843.75 613.5 1885.4 696.25 1928.3 785.15 1950.55 813.5 1957.65 841.8 1962.5 841.75 1962.6 841.75 1962.7 840.7 1966.95 838.45 1969.3 836 1971.85 831.65 1972.7 Z"/>

<path fill="#FFFFCC" stroke="none" d="
M 823.6 1973.2
Q 828.7 1973.3 831.65 1972.7 836 1971.85 838.45 1969.3 840.7 1966.95 841.75 1962.7 841.75 1962.6 841.8 1962.5 813.5 1957.65 785.15 1950.55 696.25 1928.3 613.5 1885.4 533.1 1843.75 460.7 1783.9 425.95 1755.2 393.9 1723.05 393.8 1726.8 393.3 1731.55 392 1744.35 391.9 1746.3 391.5 1754.7 393.15 1760.7 395.25 1768.2 401.35 1775.7 405.45 1780.7 413.65 1788.1 506.45 1871.85 602.35 1917.9 655.7 1943.5 710.15 1957.45 767.6 1972.15 823.6 1973.2
M 1140.8 1408.6
Q 1155.4 1412.6 1170.2 1415.95 1173.55 1409.95 1177 1404 1158.85 1406.9 1140.8 1408.6
M 1058.55 1378.05
Q 1049.3 1375.2 1040.1 1372.05 1058.4 1380.35 1077 1387.6 1084.8 1387.65 1092.65 1387.5 1075.65 1383.35 1058.55 1378.05
M 674.7 1196.95
Q 687.9 1202.5 699.3 1207.25 691.2 1194.1 684.2 1180.45 679.5 1188.7 674.7 1196.95
M 878.2 1292.4
Q 859.6 1287.45 841.65 1281.75 792.2 1266 736.05 1240.35 764.15 1271.95 799.35 1298 846.85 1333.15 902.7 1354.85 955.15 1375.2 1012.9 1382.95 999.15 1376.15 985.9 1368.75 925.75 1335.3 878.2 1292.4
M 937.75 1305.9
Q 939.1 1306.65 940.45 1307.4 970.1 1324 991.05 1333.15 1028.95 1349.7 1076.8 1360 1113.8 1368 1166.05 1373.95 1182.3 1375.8 1193 1376.5 1200.2 1364.2 1207.65 1351.85 1218.9 1333.15 1228.75 1317.7 1222 1316.8 1214.1 1315.5 1202.85 1318.65 1190.25 1320.5 1168.15 1323.7 1133.25 1323.5 1055.1 1323.05 985.75 1313.65 961.3 1310.35 937.75 1305.9
M 805.95 1165.2
Q 789.15 1153.85 775.1 1142.9 792.3 1167.45 810.25 1191.45 829.35 1217 843 1232.45 859.95 1251.45 881.8 1270.55 960.55 1290.15 1046.1 1296.15 1087.05 1299 1129.1 1298.7 1055.55 1281.75 991.25 1258.3 887.8 1220.55 805.95 1165.2
M 727.25 1165.9
Q 713.25 1152.3 705.75 1143.55 705.4 1143.15 705.05 1142.75 697.05 1157.55 688.9 1172.15 690.9 1176.5 693.2 1180.85 701.3 1196.2 714 1213.3 732.75 1221 745.3 1225.9 791.45 1243.95 831.3 1256.4 829.1 1254.7 826.9 1253 778.1 1215.15 727.25 1165.9
M 719.7 1114.8
Q 715.1 1123.8 710.4 1132.7 714.2 1137.1 719.8 1142.9 763.75 1188.3 819.3 1229.6 796.25 1200.6 773.2 1164.25 761.5 1145.8 744.55 1116.45 735.55 1107.7 727.8 1098.85 723.8 1106.85 719.7 1114.8
M 448.05 1498.55
Q 436.2 1511 414.55 1533.45
L 332.75 1618.2
Q 330.9 1620.15 329.15 1621.6 340.6 1641.9 359.6 1662.85 373.05 1677.7 396.5 1699.15 467.2 1763.85 531.8 1808.15 608.2 1860.65 683.85 1890.25 746.55 1914.8 820.15 1928.15 885.2 1940 961.25 1943.5 967.85 1943.8 971.15 1944.35 974.25 1944.85 976.8 1945.8 976.95 1944.65 977.1 1943.45 997.7 1794.9 1062.05 1636.95 1101.2 1540.85 1158.5 1436.9 1116 1425.85 1076.65 1410.85 1051.8 1410.25 1027.05 1407.3 947.8 1397.9 879.2 1365.65 808.15 1332.3 753.75 1276.5 732.25 1254.45 714.9 1230.45 693.55 1220.25 668.55 1207.4 585.6 1347.45 480.95 1463.15 466.45 1479.2 448.05 1498.55
M 1438.95 889.8
Q 1442.55 870.55 1450.25 852.4 1457.95 834.2 1469.3 818.25 1404.95 819.75 1329.15 798.2 1276.4 783.2 1194.55 748.85 1151.5 730.75 1126.75 718.25 1090.2 699.8 1063.55 679.7 1054.7 672.95 1049.95 667.45 1049.65 667.1 1049.35 666.75 1037.45 686.85 1027.55 708 1025.7 712 1024.65 713.75 1022.75 716.8 1020.55 718.6 1020.45 718.65 1020.4 718.75 1047.95 738.25 1082.35 758.2 1203.6 828.5 1337.7 868.2 1365.5 876.4 1387.85 881.4 1414.95 887.4 1438.95 889.8
M 1581.5 913.85
Q 1575.45 914.95 1568.9 915.85 1488.9 927.2 1395.9 908 1320.95 892.55 1228.6 854.8 1149 822.25 1087.85 787.1 1015.65 745.55 961.7 696.3 926.25 663.85 905.65 633.75 898.35 623.1 893.15 612.6 892.05 620.2 890.75 627.95 884.4 665.9 870.4 718.7 819.05 912.8 735.3 1083.8 739.35 1090.1 743.5 1096.4 787.05 1139.75 849.3 1173.85 908.9 1206.5 993.35 1234.35 1111.65 1273.45 1234.9 1293.15 1235.1 1293.15 1235.25 1293.15 1237.85 1292.2 1241.7 1292 1243.65 1291.9 1245.55 1292 1262.55 1266.9 1289.25 1232.05 1367.8 1129.65 1456.9 1035.9 1517.1 972.6 1581.5 913.85
M 1478 690.15
Q 1478.85 687.45 1480.35 684.85 1482.1 681.8 1489.4 672.45 1495.25 664.95 1497.2 659.5 1413.55 612.75 1321.95 585.55 1311.65 582.5 1286.8 575.6 1264.3 569.35 1251.75 565.5 1233.25 559.8 1212.4 552.25 1210.1 546.1 1200.55 541.8 1192.9 538.35 1181.4 535.6 1168.15 532.7 1161.6 531.1 1157.4 530.05 1154.75 529.5 1136.75 521.95 1112.4 511.5 1107.55 509.45 1104.8 506.65 1104.65 506.5 1104.5 506.35 1093.65 502.95 1084.85 500.55 1060.15 493.9 1039.05 491.4 1014.45 488.5 992.15 491 967.65 493.7 947.15 502.8 929.85 510.5 917.85 522.25 904.25 535.5 900.05 551.55 890.9 586.55 926.35 631.75 955.3 668.7 998.1 702.2 1002.35 705.55 1006.85 708.9 1007.65 705.9 1009.45 702.45 1023.5 675.5 1030.4 663.6 1036.2 653.6 1041.2 646.4 1041.2 637.4 1046.9 628.1 1053.1 617.95 1064.75 609.35 1090.85 590.1 1126.15 583.05 1158.3 576.6 1193.85 580.95 1224.05 584.65 1259.5 596.35 1283.6 604.35 1322.8 620.8 1401.55 653.95 1478 690.15
M 1367.6 669.85
Q 1335.05 654.75 1317.35 647.1 1289.35 634.95 1266.15 626.8 1240.9 617.9 1219.35 613.1 1194.05 607.5 1171.2 606.9 1145.8 606.2 1122.75 611.75 1097.95 617.75 1078.2 630.5 1073.85 633.3 1071.4 635.95 1068.2 639.5 1067.75 643.35 1067.2 648.2 1071 653.1 1073.75 656.65 1079.25 660.55 1107.45 680.6 1145.1 699.2 1171.85 712.4 1215.1 730.25 1292.2 762.05 1343.55 775.35 1415.9 794.05 1476.9 789.05 1485.6 788.35 1490.65 789.3 1498.15 790.65 1501.25 795.7 1503.95 800.15 1502.7 806.65 1501.8 811.2 1498.55 817.9
L 1462.45 892.4
Q 1506 895.8 1539.85 893.3 1581.4 890.2 1615.05 877.95 1623.65 874.85 1628.85 871.45 1630.05 870.65 1631.15 869.8 1632.2 868.95 1633.2 868.05 1636.75 864.65 1638.6 860.55 1643.5 849.7 1636.1 832.95 1622.2 801.1 1586.85 776.15 1573.05 766.45 1554.25 756.7 1543.2 750.95 1519.95 740.2
L 1367.6 669.85 Z"/>
</g>

<g id="Layer0_0_FILL">
<path fill="#000000" fill-opacity="0.2" stroke="none" d="
M 1435.15 617.3
Q 1411.55 604.45 1402.2 599.75 1365 581.05 1315.6 564.25 1286.1 554.25 1225.8 536.75
L 1104.1 501.6
Q 1083.3 495.55 1072.4 493 1054.65 488.8 1040.1 487.6 1011.5 485.25 978.35 492.45 950.85 498.35 930.3 509.3 906.1 522.2 892.6 541.6 884.45 553.25 882.8 565.95 880.95 580.3 888.65 589.7 891.2 592.8 897.45 597.6 903.75 602.5 906.25 605.5 909.3 609.2 911.95 615.35 913.45 618.9 916.2 626.1 922.5 640.85 936.15 655.6 944.55 664.75 962.6 680.3 996.45 709.45 1014.05 723.25 1043.35 746.2 1069.1 761.15 1082.35 768.85 1109.65 783.05 1133.85 796.2 1148.45 807.55 1154.4 812.2 1171.2 827.25 1185.15 839.85 1194.5 846.15 1208 855.35 1221.9 858.9 1237.65 862.95 1251.2 858.8 1253.65 858.1 1258.4 856.35 1262.65 854.95 1265.75 854.75 1269.45 854.5 1274.05 855.75 1276.5 856.45 1282.1 858.5 1334.75 878.4 1402.4 887.1 1451.05 893.35 1526.65 895.4 1549.4109375 896.041796875 1562.65 895.5 1536.9435546875 904.0845703125 1510.95 924.25 1489.6 940.85 1455.6 976.9 1374.8 1062.7 1334.8 1109.2 1270.05 1184.5 1226.4 1251.2 1213.7916015625 1270.47421875 1200.9 1292.1 1162.053125 1289.755078125 1131.25 1285.3 1089.7 1279.35 1038.7 1266.45 1014.33046875 1260.2673828125 970.35 1247.65 949.47734375 1238.308203125 943.3 1235.45 874.6 1203.65 811.9 1161.1 808.1 1158.55 806.1 1157.45 802.75 1155.7 799.75 1155.25 796.25 1154.75 793.05 1156.2 792.012890625 1156.6880859375 791.2 1157.3 775.3193359375 1144.4998046875 759.1 1130.2 750.85 1122.9 746.7 1118.15 740.45 1110.9 737.8 1103.7 735.35 1095.6 733.7 1091.9 730.8 1085.45 725.9 1083.95 720.4 1082.3 715.6 1087 710.95 1091.6 711 1097.7 711.05 1103 714.15 1108.8 716.3 1112.85 720.95 1118.55 738.85 1140.3 765.5 1163.2 781.75 1177.15 815.1 1202.6 830 1214 837.6 1219.35 850.35 1228.3 861.3 1234.2 881.1 1244.85 911.2 1253.85 916.5541015625 1255.4484375 923.6 1257.45 944.91328125 1267.451953125 966.9 1276.1 983.1 1282.5 994 1284.3 1003.808203125 1285.955859375 1012.1 1284.65 1014.4353515625 1285.4677734375 1016.85 1286.3 1050.35 1297.8 1070.8 1303.05 1103.25 1311.35 1144.8 1315.85 1148.9603515625 1316.2931640625 1153.75 1316.75 1130.6611328125 1320.5861328125 1116.7 1321.6 1087.3 1323.65 1051 1318.8 1028 1315.75 985.9 1307.05 946 1298.75 925.05 1293.1 904.9119140625 1287.6736328125 887.7 1281.25 876.13515625 1273.4697265625 863.3 1263.75 783.55 1203.35 717.55 1128.4 709 1118.65 702.6 1121.35 699.85 1122.5 698.5 1125.7 697.25 1128.75 697.8 1132 698.3 1134.8 700.05 1137.8 701.25 1139.95 703.6 1143.05 727.9 1175.65 761.65 1208.6 789 1235.3 827.4 1266.75 855.65 1289.9 875.85 1303.4 903.4 1321.8 929.05 1331.8 958.85 1343.4 988.4 1344.3 1006.9435546875 1344.9037109375 1023.55 1341.15 1028.8009765625 1342.275390625 1034.4 1343.45 1053.65 1347.5 1063.65 1349.25 1079.95 1352.05 1093.2 1352.9 1112.75 1354.1 1137.1 1351.65 1148.9220703125 1350.4517578125 1169.75 1347.3 1165.00390625 1356.173828125 1160.2 1365.35 1154.8419921875 1375.5892578125 1148.45 1388.15 1139.1953125 1385.28671875 1126.85 1384.2 1124.45 1383.95 1101.75 1382.95 1071.5 1381.6 1031.25 1374.55 1026.1896484375 1373.5736328125 1021.4 1372.65 1022.8619140625 1372.42265625 1024.15 1372 1027.95 1370.8 1030.4 1367.65 1032.95 1364.3 1032.3 1360.7 1031.05 1353.7 1018.65 1350.9 996.7 1346.05 952.5 1343.85 930.05 1342.75 919.2 1341.8 900.75 1340.2 886.3 1337.1 855.1 1330.4 825 1313.8 796.9 1298.3 771.55 1275.2 763.0169921875 1267.4259765625 754.75 1258.7 763.552734375 1260.8888671875 773.4 1262.95 779.5 1264.25 783.05 1264.5 788.4 1264.85 792.5 1263.45 797.3 1261.8 800.1 1257.55 803.1 1253 801.6 1248.6 800.1 1244 794.6 1241.45 792.55 1240.5 789.75 1239.85 788.3 1239.5 784.7 1238.85 760.85 1234.6 731.8 1226.25 729.6064453125 1225.621484375 727.15 1224.9 707.4560546875 1195.9314453125 689 1159.45 687.5 1156.6 685.9 1156.2 684 1155.8 682.65 1157.8 681.7318359375 1159.237109375 681.45 1161 679.8296875 1160.076953125 678.1 1159.7 676.45 1159.35 675 1159.65 673.35 1160.05 672.55 1161.25 671.05 1163.55 673.55 1167.95 689.36640625 1195.9919921875 703.55 1217.65 692.9109375 1214.3310546875 679.8 1210.1 671.2 1207.3 666.65 1205.65 659.4 1203 653.9 1200.2 646.5 1196.4 643.75 1199.65 642.9 1200.65 642.75 1202.2 642.65 1203.6 643.2 1204.95 643.95 1206.85 646.6 1209.4 654.75 1217.2 669.75 1225.65 697.109375 1241.094140625 726.65 1250.8 739.7533203125 1270.5119140625 752.8 1286.55 792.9 1335.8 839.9 1360.9 864.75 1374.2 898.55 1384.2 919.25 1390.35 960.15 1399.4 1013.3 1411.25 1040.45 1415.6 1085.45 1422.75 1121.8 1421.9 1127.3517578125 1421.769140625 1131.9 1421.35 1118.343359375 1448.83984375 1101.55 1483.8 1071.15 1547.1 1050.7 1590 1009.35 1676.6 990.6 1723.3 960.35 1798.5 947.4 1862.25 940.7 1895.55 938.75 1924.7 938.2 1933.1 938.55 1938.3 939 1945.75 941.35 1951.35 944.1 1957.95 949.6 1962.05 955.5 1966.5 962 1966 976.3 1964.95 985.1 1940.9 992.75 1920 999.3 1894.4 1004.25 1874.95 1010 1846.9 1011.4 1839.9 1011.85 1836 1012.5 1829.95 1011.8 1825.1 1010.95 1819.3 1007.95 1814.75 1004.7 1809.8 999.85 1807.75 1023.9 1744.5 1058.5 1667.45 1079.5 1620.75 1122.7 1529.55 1153.4 1464.55 1170.15 1431 1195.499609375 1380.019140625 1218.5 1339.7
L 1249.85 1334.8
Q 1255.75 1333.9 1258.9 1333.05 1263.85 1331.65 1267.15 1329.25 1271.1 1326.4 1272.75 1321.95 1274.5 1317.2 1272.55 1313.25 1269.05 1306.2 1254.9 1305.65 1248.3306640625 1305.3546875 1241.6 1305.4 1241.47578125 1305.00234375 1241.3 1304.6 1240.884765625 1303.6634765625 1240.35 1302.8 1241.9580078125 1300.240625 1243.55 1297.65 1244.3443359375 1298.28671875 1245.3 1298.7 1249.8 1300.6 1256.1 1297.05 1261.85 1293.8 1267.3 1287.55 1270.7 1283.7 1276.25 1275.6 1341.1 1181.4 1393.75 1117.9 1461.75 1035.85 1530.6 977.7 1549.75 961.65 1553.5 958.3 1566.15 947 1574.45 937 1581.708984375 928.2890625 1580.6 921.95 1583.7541015625 920.1810546875 1587.3 918.15 1593.85 914.25 1597.3 910.1 1601.75 904.65 1600.25 899.25 1598.8138671875 894.1146484375 1593 892.05 1596.0296875 891.447265625 1598.9 890.75 1616.2 886.6 1628.5 877.9 1642.9 867.75 1647.2 853.5 1651.15 840.45 1646.1 825.8 1641.55 812.45 1631 801.4 1622.65 792.6 1608.95 783.45 1592.7 773.3 1584.65 768.15 1576.15 762.7 1558.25 750.25 1541 738.25 1531.7 732.4 1500.4 712.7 1474.4 707.7 1476.95 704.45 1483.25 697.6 1489.35 690.95 1492.1 687.4 1501.5 675.2 1500.05 664.4 1498.7 654.35 1488.5 646.25 1482.05 641.1 1468.2 634.5 1455.9 628.6 1435.15 617.3
M 722.8 1919
Q 703.25 1909.2 695.85 1905.8 682.75 1899.8 663.3 1892.5 641.25 1884.4 630.3 1880.25 590.45 1865.05 567.65 1849.55 558.5 1843.35 543.75 1831.2 526.95 1817.45 520.15 1812.45 509.4 1804.6 494.2 1795.6 491.95 1794.25 467.35 1780.2 433.55 1760.9 416.4 1745.65 416.5041015625 1744.585546875 416.6 1743.75 417.35 1738.75 417.55 1736.2 417.95 1731.85 417.2 1728.7 415.95 1723.45 411.35 1720.1 406.6 1716.65 401.5 1717.55 396.9 1718.35 393.35 1722.35 390.15 1725.95 388.65 1731 387.55 1734.75 387 1740.65 386.15 1749.85 386.05 1750.4 385.75 1752.5 385.05 1756.65 384.6 1760.3 384.95 1762.9 385.4 1766.05 387 1768.75 388.65 1771.55 391.15 1773.3 393.3056640625 1774.8216796875 395.9 1775.45 397.1466796875 1778.5427734375 399.6 1781.6 401.85 1784.4 406.2 1788.35 418.3 1799.35 434.55 1811.6 444.65 1819.25 464.35 1833.1
L 495.25 1854.95
Q 516.8 1870.15 527.7 1877.55 545.85 1889.9 560.85 1899.05 586.6 1914.7 620.1 1931.2 641.45 1941.7 681.25 1959.8 688.9 1963.25 693 1964.65 699.7 1966.95 705.35 1967.1 712.05 1967.3 717.75 1964.45 718.9734375 1963.8333984375 720.05 1963.1 725.32265625 1965.6931640625 731.35 1968.65 752.25 1978.15 768.65 1981.7 780.2 1984.2 794.45 1984.95 804.85 1985.5 820.5 1985.2 827.8 1985.05 831.75 1984.55 837.9 1983.8 842.5 1981.8 847.95 1979.45 851.55 1975.15 855.45 1970.5 855.75 1965.15 856.15 1957.95 850.25 1952.05 844.75 1946.55 836.9 1944.8 830.85 1943.4 821.95 1943.85 811.9 1944.65 806.85 1944.8 781.75 1945.55 750 1931.9 739.9 1927.6 722.8 1919 Z"/>
</g>
</defs>

<g transform="matrix( 1, 0, 0, 1, 0,0) ">
<use xlink:href="#Layer1_0_FILL"/>
</g>

<g transform="matrix( 1, 0, 0, 1, 0,0) ">
<use xlink:href="#Layer0_0_FILL"/>
</g>
</svg>
