
<svg xmlns="http://www.w3.org/2000/svg" version="1.1" xmlns:xlink="http://www.w3.org/1999/xlink" preserveAspectRatio="none" x="0px" y="0px" width="2000px" height="2000px" viewBox="0 0 2000 2000">
<defs>
<g id="Layer1_0_FILL">
<path fill="#000000" stroke="none" d="
M 1585.6 625.9
Q 1544 619.6 1502.55 621.25 1377.7 626.15 1239.3 704.35 1156.9 750.85 1094.15 808.75 1066.1 834.6 1037.65 866.8 1013.2 894.45 986.15 929.45 955.85 968.7 928.55 1008.7 912.95 1031.5 883.65 1076.65 853.65 1122.9 838.8 1144.65 785.3 1223.2 737.65 1271.1 715.35 1293.5 695.15 1308.4 670.7 1326.4 646.2 1335.95 618.7 1346.7 590.8 1346.65 560.85 1346.6 536.75 1333.9 505.55 1317.45 480 1276.4 452.2 1231.8 447.35 1188.25 442.6 1145.75 459.35 1098.45 473.1 1059.5 501.95 1016.1 512.3 1000.55 528.5 978.35 546.8 953.6 555.8 941.1 588.4 896 604.6 863.2 626.65 818.5 630.35 774.25 634.55 724.4 613.9 686 599.25 658.8 572.3 638.1 547.4 619.05 515.55 608.05 487.55 598.35 453.05 594.4 437.15 592.55 418.05 591.85 421.25 589.2 424.45 586.6 435.1 577.9 439 574.6 447.1 567.7 452.95 561.8 455.25 559.45 456.15 557.1 457.25 554.1 455.5 552.35 453.75 550.5 449.1 551.2 430.75 554.15 411.55 563.6
L 426.4 550.1
Q 431.1 545.8 433.25 543.3 436.75 539.2 438.1 535.15 439.75 530.4 438.25 525.6 436.65 520.45 432.4 518.7 424.1 515.25 412.7 527.3 393.25 547.7 358.8 585.25
L 352.1 592.55
Q 347.3 592.95 343 593.45 324.05 595.65 308.25 600.6 307.3 600.65 306.3 600.75 278.4 603.5 249.4 617.85 225.05 629.9 198.9 650.65 175.8 668.9 160.9 686.4 145.55 704.35 133 727.95 122.25 748.25 112.9 774 88.3 841.8 84.2 914.8 80.1 987.8 96.95 1057.9 98.9 1065.9 102.95 1071.05 107.95 1077.3 114 1075.75 117.8 1074.75 120.55 1070.55 122.4 1067.75 124.3 1062.35 137.2 1025.55 153.8 994.65 154.75 994.75 155.85 994.75 165.2 994.8 178.75 992.3 212.55 986.05 244.45 972.3 276.3 958.55 304.1 938.25 313.25 931.55 319.75 925.65 328.15 918.1 337.35 907.35 342.9 900.8 353.25 887.5
L 371.85 863.6
Q 376.05 858.2 378.15 855.05 381.45 850.15 383.1 845.7 385.7 846.55 388.85 847.5 398.6 850.4 402.8 852.2 410.2 855.35 415.15 860.4 420.8 866.15 421.7 873 422.5 878.7 419.8 885.2 417.8 890.1 413.35 896.25 402.5 911.25 384.25 928.25 373.7 938.1 351.7 957.05 323.35 982.4 303.75 1006.55 280.55 1035.2 267.55 1064.6 254.55 1094.05 249.2 1130 244.5 1161.2 245.5 1198.35 247.2 1260.85 263.35 1319.6 280.05 1380.35 310.9 1432.2 327.45 1460.15 344.25 1477.3 366.45 1500.05 397.4 1514.25 426.7 1527.7 460.15 1531.9 519.7 1539.3 588.85 1517.45 652.9 1497.25 722.45 1452.25 769 1422.15 843.05 1362.8 850.6 1356.75 855.75 1354.3 863.35 1350.65 869.9 1352.15 876.15 1353.6 881.25 1359.75 884.9 1364.05 888.85 1372.1 900.2 1395.4 920.35 1443.5 939.3 1485.75 958.55 1510.7 966.7 1521.3 975.8 1526.45 986.95 1532.85 996.5 1528.75 1002.2 1526.3 1006.55 1520.05 1009.75 1515.3 1012.7 1507.55 1015.45 1500.25 1025 1467.05 1032.2 1442.15 1040.05 1427.8 1045.5 1417.95 1052 1418.35 1055.15 1418.55 1058 1421.25 1060 1423.15 1062.3 1426.85 1067.9 1436.05 1074.5 1450.65 1072.85 1483.7 1061.95 1521.7 1053.6 1551.05 1036.3 1593.7 1023.9 1624.25 1001.95 1674.35 975.45 1734.95 967.05 1754.85 934.9 1830.95 917 1890.5 915 1889.45 912.5 1888.8 910.1 1888.2 906.7 1887.9 902.85 1887.65 900.9 1887.5 887.5 1886.5 864.25 1879.55 838.95 1872 827.75 1870.45 823.95 1869.95 821.5 1870 818.05 1870.05 815.4 1871.05 812.35 1872.25 810.4 1874.8 808.35 1877.5 808.6 1880.5 808.75 1882.65 810.2 1884.9 811.15 1886.35 813.25 1888.65 830.35 1907.2 848.75 1921.9 818.45 1924.55 788.35 1930.15 782.7 1931.2 779.3 1932.85 774.65 1935.1 773.15 1938.95 771.05 1944.5 775.85 1950.2 779.85 1954.95 786.8 1958.1 802.15 1965.1 821.35 1969.4 836.8 1972.9 857.45 1975.1 878.1 1977.35 904 1978.45 919.55 1979.15 950.65 1979.85
L 1057.15 1982.3
Q 1064.2 1982.45 1068.5 1981.25 1074.6 1979.6 1076.85 1975.15 1080 1968.95 1074.5 1962 1070.1 1956.4 1061.9 1952.05
L 1027.55 1933.7
Q 1021.7 1930.6 1018.75 1928.15 1014.3 1924.45 1013.05 1920 1012.15 1916.7 1012.95 1912.45 1013.45 1909.75 1015.1 1905.05
L 1142.1 1541.55
Q 1147.95 1536.45 1152.45 1527.8 1158.05 1516.85 1162.55 1502.25 1165.4 1493.05 1169.65 1475.55 1179.05 1436.7 1188.6 1394.15
L 1223.05 1488.7
Q 1227.2 1500.05 1232.65 1506.5 1239.85 1515.05 1248.6 1513.95 1255.65 1513.1 1261 1505.8 1264.85 1500.6 1268.3 1491.15
L 1318.1 1355.05
Q 1340.85 1378.35 1358.55 1420 1363.9 1432.65 1372.75 1456.5 1382.15 1481.95 1386.7 1493.05 1391.3 1504.1 1396.45 1510.35 1403.4 1518.8 1412.1 1519.65 1426 1520.95 1439.9 1502.55 1443.15 1498.25 1446.3 1493.5 1442.3 1522.55 1436.3 1554.65 1429 1593.65 1412.55 1666.95 1395.4 1743.4 1388.5 1779.25 1376.4 1842 1371.7 1892.6 1371.2 1897.9 1370.45 1900.6 1369.3 1904.95 1366.8 1907.5 1364.65 1909.7 1361.05 1911.05 1358.85 1911.85 1354.35 1912.8
L 1253.2 1933.55
Q 1246.85 1934.85 1243.6 1935.9 1238.4 1937.55 1234.9 1940.2 1230.75 1943.3 1228.9 1947.95 1226.9 1952.95 1228.65 1957.35 1230.5 1961.9 1236.1 1964.6 1239.95 1966.5 1246.85 1967.95
L 1298.6 1978.7
Q 1292.25 1981.6 1289.25 1983.4 1284.2 1986.3 1281.05 1989.7 1277.35 1993.75 1276.1 1998.9 1274.75 2004.4 1276.95 2008.9 1282.45 2020.1 1305 2017.6 1352.2 2012.25 1409.9 1998.15 1444.5 1989.65 1513.05 1969.8 1518.6 1968.2 1521.45 1966.7 1525.85 1964.45 1527.85 1961.05 1530.4 1956.75 1529.05 1951.15 1527.75 1945.95 1523.75 1942.15 1520.4 1938.9 1515.1 1936.5 1511.9 1935 1505.25 1932.8
L 1444.45 1912.75 1454.8 1851.05
Q 1460.45 1817.4 1463.55 1800.9 1468.8 1773.05 1474.35 1751.15 1480.45 1727.15 1492.1 1690.75 1508.95 1638.1 1511.15 1630.75 1516.7 1612.3 1522.9 1589 1526.55 1575.35 1533.85 1547
L 1568 1413.95 1593.7 1458.3
Q 1598.15 1466 1600.8 1469.85 1605.15 1476 1609.7 1479.9 1615.15 1484.6 1621.55 1486.5 1628.5 1488.55 1634.7 1486.7 1640.65 1484.85 1645.9 1479.25 1649.75 1475.15 1654.05 1467.9 1664.6 1450.2 1674.3 1427.2 1681.1 1411.2 1690.6 1384.6 1702.65 1350.8 1706.2 1341.65 1715.45 1317.55 1724.45 1299.85 1766.75 1357.9 1794.95 1424 1804.95 1447.5 1818.2 1446.1 1831.15 1444.75 1836.4 1421.15
L 1860.35 1313.7
Q 1865.7 1289.8 1868.3 1276.9 1872.4 1256.45 1874.55 1239.8 1876.4 1225.7 1877.65 1208.3 1878.5 1196.65 1879.5 1176.65 1883.2 1103.1 1882.8 1057.65 1882.2 992.3 1874 939.3 1864.3 877.05 1842.9 824.5 1819.2 766.4 1782.35 723.1 1759.6 696.45 1735.2 679.45 1707.55 660.2 1666.35 645.9 1626.85 632.15 1585.6 625.9
M 1370.2 679.35
Q 1411.55 664.9 1445.45 658.8 1485.35 651.65 1528.25 653 1568.8 654.25 1610.75 663.05 1652.65 671.9 1681.65 686.1 1720.55 705.2 1752.1 740.3 1781.4 772.9 1801.2 815.45 1818.85 853.45 1829.45 900.3 1838.35 939.5 1843.15 989.15 1852.65 1087 1844.05 1185.5 1835.5 1284 1809.25 1378.75 1785.4 1328.4 1752.35 1283.15 1746.15 1274.6 1741.15 1270.25 1734 1264.1 1726.5 1263.35 1716.15 1262.3 1706.6 1271 1699.15 1277.8 1692.8 1289.85 1684.1 1306.5 1675.45 1329.3 1672.1 1338.15 1661.05 1370.1 1652.25 1395.35 1645.9 1410.45 1636.75 1432.15 1626.45 1448.65 1589.7 1391.95 1557.65 1331.7 1549.05 1315.4 1540.85 1307.1 1529.35 1295.35 1516.4 1296.15 1497.25 1297.3 1482.85 1326.05 1474.85 1341.9 1466.5 1364.55 1461.7 1377.65 1452.6 1404.15 1444.3 1427.65 1437.3 1442.9 1427.95 1463.4 1416.8 1478.85 1399.55 1434.25 1389.55 1412.35 1372.95 1376 1354.8 1349.8 1345.85 1336.9 1336.25 1330.25 1324.05 1321.75 1312.45 1324.6 1302.5 1327.1 1295.2 1337.8 1290.15 1345.2 1285.1 1359
L 1247.4 1462.85
Q 1232.3 1416.05 1212.05 1371.55 1200.15 1345.45 1184.45 1346.45 1174.95 1347.05 1168.4 1357.15 1163.4 1364.9 1160.55 1377.45 1155.85 1398.25 1147.45 1440.25 1139.25 1476.8 1128.75 1501.2 1113 1457.8 1090.4 1417.7 1083.65 1405.7 1077.55 1399.2 1069.05 1390.15 1059.25 1388.2 1051.35 1386.65 1042.95 1389.7 1035.2 1392.55 1028.8 1398.55 1023.25 1403.7 1018.4 1411.5 1014.85 1417.2 1010.55 1426.3 994.6 1460.1 985.6 1496 966.35 1473.15 948.45 1433.15 929.65 1387.4 918.85 1365.35 898.1 1323.2 870.4 1321.4 858.5 1320.55 845.15 1327.65 836.65 1332.2 822.8 1343.2 780.4 1377.05 751 1398.05 710.85 1426.75 674.85 1446.5 586.5 1495 504.05 1500.85 457.05 1504.2 423.4 1491.55 392.55 1479.95 366.75 1453.2 371.45 1456 376.35 1458.55 398.2 1469.9 422.15 1474.3 428.5 1475.5 432.9 1475.2 438.8 1474.8 442.55 1471.75 446.05 1468.9 447.55 1463.95 448.85 1459.5 448.3 1454.35 447.9 1450.6 446.35 1445 444.15 1437.05 443.85 1435.8 442.6 1430.25 442.45 1424.25 448.6 1426.8 452.05 1427.85 457.5 1429.55 462.1 1429.7 467.5 1429.9 472.15 1427.85 477.25 1425.65 479.8 1421.5 482.7 1416.75 482.35 1408.55 481.4 1399.15 481.55 1394.55 484.85 1393.4 490.75 1392.1 497.45 1390.7 500.05 1389.9 511.25 1386.5 515.1 1379.1 517.35 1374.8 517.35 1367.9 517.35 1359.15 514.7 1351.15 521.05 1355.45 527.65 1358.85 557.4 1374.15 594.45 1373.1 628.8 1372.15 662.15 1357.5 691.65 1344.6 720.85 1321 744.55 1301.9 771.3 1272.95 809.8 1231.25 852 1173.15 874.9 1141.6 925.15 1067.15 971.55 998.25 998.85 961.7 1041.3 904.8 1081.35 863.6 1141.6 801.65 1215.15 754.75 1288.65 707.85 1370.2 679.35
M 1497.3 1371.2
Q 1507.3 1346 1518.25 1328.15
L 1547.5 1378.6
Q 1544.2 1383.4 1542 1390.1 1531.8 1420.7 1521.6 1466.6 1515.85 1492.4 1504.65 1544.1 1496 1580.75 1479.95 1635.95 1455.25 1720.85 1453.4 1727.4 1438.95 1779.6 1431.1 1819.45 1421.3 1869.3 1419.05 1913.1 1418.7 1919.5 1419.1 1923.25 1419.7 1928.85 1422 1932.7 1425.2 1938.2 1431.8 1941.1 1436.55 1943.2 1445.25 1944.55 1458.75 1946.7 1459.85 1946.95 1468.05 1948.7 1473.1 1952.05 1416.7 1969.9 1358.35 1980.8 1364 1978.15 1364.1 1970.75 1364.25 1963.55 1359.35 1959.1 1355 1955.15 1348.05 1953.75 1342.65 1952.65 1335.1 1953 1323 1953.55 1322.2 1953.55 1314.85 1953.5 1309.65 1951.65
L 1370.2 1936.25
Q 1375.95 1934.8 1379.05 1933.5 1383.75 1931.5 1386.5 1928.5 1389.65 1925 1391.05 1919.15 1391.9 1915.55 1392.4 1908.45 1396.05 1855.95 1408.5 1790.1 1414.9 1756.5 1433.55 1672.9 1450.15 1598.45 1457.45 1555.65 1467.45 1496.55 1469.8 1446.9 1474.9 1434.05 1480.95 1416.65 1493 1382 1497.3 1371.2
M 321.85 612.75
Q 322.2 612.25 322.45 611.7 329.1 610.45 336.35 609.75 325.7 621.35 316.85 630.75 286.55 662.75 254.15 691.9 253.9 688.85 255.15 685.25 255.95 682.8 257.95 678.95 260.2 674.75 261 672.8 262.5 669.25 262.65 666.2 262.85 662.6 261.05 659.55 259.1 656.3 255.9 655.6 251.7 654.7 247.75 658.55 244.75 661.4 242.15 666.7
L 227.95 695.7
Q 226.05 699.55 225.2 701.75 223.85 705.15 223.45 708.1 223 711.55 223.85 714.7 224.75 718.15 227.05 720.3 227.15 720.4 227.25 720.5 228.1 725.3 231.2 728.25 235.5 732.3 242.75 731.65 248.6 731.1 255.3 727.7 264.9 722.75 275.55 714.25 279.3 711.3 285.6 705.75 280.75 714.5 279.8 722.15 278.6 732.25 283.55 744.1 288.2 755 296.7 764.2 304.9 773 315.65 779.15 335.6 790.55 361.85 791.85 392.15 793.35 424.15 780.75 452.25 769.65 479.85 748.5 491.75 739.35 498.05 732.1 502.5 727 508.2 718.4 514.75 708.45 517.75 701 521.85 690.9 521.2 682 520.7 675.05 517.35 668.35 514.2 662.05 509 656.8 500.1 647.8 485.05 641.45 466.7 633.75 446.5 632.45 426.3 631.15 407.1 636.45 399.4 638.55 387.3 643.3 372 649.2 367.65 650.7 365.05 651.6 352.35 655.5 342.95 658.4 337.2 660.75 336.4 661.1 335.6 661.45 365.4 635.45 396 610 446.6 612.45 471 616.7 515.3 624.3 544.85 643.7 574.85 663.4 592.4 696.4 609.9 729.35 609.5 765.25 609.2 792.2 598.65 821.7 590 845.95 573.5 874.25 558.3 900.35 534.1 934.25 520.15 953.75 491.7 992.4 467.5 1025.95 454.2 1049.6 435.8 1082.25 427.95 1112.15 425.2 1122.7 423.55 1133.4 418.65 1138.1 413.85 1143.2 413.85 1133.75 411.2 1124.6 409.25 1118.15 405.95 1115.95 403.45 1114.25 400.05 1114.45 396.9 1114.65 394 1116.3 391.6 1117.65 389.15 1120.2 387.7 1121.65 385 1124.95 377 1134.75 366.15 1147.4 364.1 1149.7 362.65 1149.25 360.95 1148.8 360.65 1145.6 357.8 1119.4 357.7 1093.5 357.65 1089.05 356.95 1086.45 355.85 1082.65 353.15 1081.15 350.45 1079.7 346.85 1080.85 343.95 1081.8 340.85 1084.25 332.05 1091.15 319.1 1108.6 305.8 1126.45 297.6 1133.25 299.6 1113.1 300.85 1104.65 302.4 1094 304.6 1085.3 306.2 1079 308.45 1072.1 313.45 1056.65 318.5 1044.65 322.3 1036.15 324.1 1031.85 324.75 1030.35 325.4 1028.8 338.25 1013 355.4 996.35 362.5 989.4 390.15 963.9 411.75 944.05 424.2 930.9 440 914.25 447.45 899.25 457.05 879.95 453.15 862.8 450.4 850.6 440.7 840.1 432.1 830.75 419.4 824.15 407.8 818.15 396.6 816.75 386.9 815.55 378.85 818.1 373.85 816.45 365.7 817.5 343.65 820.35 322.6 825.05 292.3 831.8 272.05 841.45 248.85 852.5 225.7 873 208.5 888.25 186.25 913.65 161.1 942.5 145.8 965.05 125.9 994.5 115.85 1022.6 110.2 998.25 108.75 969.65 107.55 945.75 109.25 916.1 112.3 862.45 123.15 818.6 135.75 767.65 159.2 727.8 185.2 683.7 224.4 654.4 266.2 623.1 313.3 616.4 316.45 615.95 318.05 615.4 320.6 614.5 321.85 612.75
M 303.55 740.95
Q 298.9 732.65 299.45 725.35 299.85 720.25 302.95 714.3 310.1 700.1 327.65 686.6 340.15 676.95 351.7 672.45 361.35 668.65 370.8 668 374.85 667.7 380.55 667.9 383.75 668 390.25 668.3 397.95 668.55 414.95 667.95 431 667.35 439.65 667.8 469.2 669.35 485.65 683.25 491.05 687.75 492 692.35 492.75 695.95 490.8 701.2 486.8 712.15 476.35 722.45 469.75 729 455.8 739.2 446.3 746.1 441.6 749.25 433.5 754.6 426.5 757.9 415.85 762.9 400.05 766.75 385.55 770.3 373.5 771.25 359.1 772.4 346.8 770 333 767.35 321.8 760.1 309.8 752.3 303.55 740.95
M 347.8 861.15
Q 333.45 880.55 325.65 889.8 312.7 905.2 300.3 915.4 293.45 921 284.65 926.8 277.95 931.2 268.1 937 243.2 951.65 225.1 959.5 210.4 965.85 191.9 971.55 180 975.25 162.05 979.95 183.25 944.2 209.8 917.1 240.55 885.7 278.05 866.75 317.7 846.7 358.75 843.85 356.95 847.9 354 852.45 352 855.55 347.8 861.15
M 332.4 1111.15
Q 339.15 1101.75 345.5 1097.45 345.95 1122.15 348.6 1145.7 349 1149.25 349.35 1151.2 349.95 1154.2 351 1156.5 352.25 1159.15 354.2 1161.05 356.35 1163.1 358.95 1163.75 363.3 1164.8 368.1 1161.8 371.45 1159.7 375.7 1155
L 397.95 1130.3
Q 398 1130.85 398.2 1138.9 398.3 1144.05 399.05 1147.35 400 1151.9 402.55 1155.25 405.35 1159 409.25 1160.05 414.4 1161.45 420.2 1158 420.75 1157.65 421.35 1157.3 420.6 1179.05 424.35 1200.4 431.65 1242.1 456.95 1285.5 477.05 1319.9 500.95 1340.6 499.55 1341.8 498.8 1343.5 497.05 1347.65 499.15 1354.15 499.7 1355.9 500.95 1359.3 502.05 1362.35 502.3 1364.55 502.75 1368.95 500.8 1371.45 499.65 1372.9 497.5 1373.85 496.1 1374.45 493.45 1375.1
L 478.4 1378.8
Q 474.5 1379.8 472.5 1380.65 469.35 1382 467.6 1384.05 463.5 1389 466 1399.35 467.55 1405.75 467.8 1407.2 468.45 1411.75 467.45 1415.05 455.65 1415.35 444.7 1411.85 440.3 1410.45 437.75 1410.3 433.8 1410.1 431.85 1412.4 430.45 1414.05 430.35 1416.75 430.3 1418.6 430.85 1421.6 432.7 1431.55 433.85 1436.4 435.75 1444.6 438.2 1450.85 439.25 1453.45 439.55 1454.7 440.1 1456.95 439.7 1458.65 439.2 1460.9 437.2 1462.5 435.35 1464.05 432.85 1464.5 430.75 1464.9 428.1 1464.6 426.35 1464.4 423.4 1463.75 403.05 1459.05 383.95 1450.05 364.9 1441.1 348.2 1428.45 345.2 1426.25 343.5 1424.55 341.1 1421.05 338.8 1417.5 338.15 1416.05 337.7 1415.25 336.95 1413.9 336 1413.1 324.45 1394.3 314.6 1371.8 294.65 1326.3 284.8 1277.2 275 1228.1 275.85 1178.4 276.4 1147.8 281.15 1122.7 286.2 1096.2 296.15 1074.35 293.4 1084.65 291.25 1096.9 289.4 1107.85 286.9 1128 285.95 1136.35 286.05 1140 286.15 1144.9 288.05 1147.2 289.95 1149.55 293.4 1149.85 296.65 1150.15 299.55 1148.6 302 1147.35 304.55 1144.85 305.5 1143.9 308.75 1140.15 310.15 1138.6 315 1133.6 318.85 1129.55 321.05 1126.9 328.6 1116.4 332.4 1111.15
M 1083.55 1472
Q 1084.8 1475.2 1086.1 1478.55 1100.2 1514.85 1109.25 1530.65 1113 1537.1 1116.55 1540.75 1117.75 1541.95 1119.05 1542.95
L 992.55 1900.05
Q 989.3 1909.3 988.3 1914.65 986.75 1922.9 988.5 1929.35 991.2 1938.95 1001.4 1946.3 1008.35 1951.3 1021.65 1956.8 926.4 1959.3 832 1948.25
L 906.9 1942.5
Q 913.4 1942 916.85 1941.2 922.25 1939.9 925.65 1937.05 929.55 1933.85 931.75 1927.8 933 1924.3 934.5 1916.6 944.2 1865.15 967.65 1802.4 979.15 1771.65 1013.3 1691.65 1043.1 1621.9 1057.05 1580.6 1076.7 1522.35 1083.55 1472
M 879.95 1920
Q 873.35 1915.65 865.75 1909.85 860.35 1905.75 850.5 1897.9 856.9 1900.05 866.8 1901.75 883.15 1904.55 883.4 1904.6 885.4 1905.05 889.45 1905.9 892.9 1906.6 895.55 1906.8 897.2 1906.95 901.05 1907 904.55 1907.05 906.5 1907.25 910.05 1907.6 912 1907.8 910.3 1913.8 908.8 1919.6 894.35 1919.45 879.95 1920
M 371.9 730.55
Q 377.05 728.25 380 722.95 382.9 717.7 382.1 712.1 381.3 706.45 377.05 702.2 372.8 697.95 367.2 697.15 362.3 696.5 357.6 698.55 352.9 700.65 350.15 704.75 347 709.45 347.35 715.45 347.65 721.5 351.3 725.8 354.95 730.15 360.85 731.5 366.7 732.85 371.9 730.55
M 466.3 776.45
Q 465 777.15 464.3 778 463.4 779.1 463.85 780.1 464.45 781.4 466.95 781.5 472.2 781.65 478.6 779.95 482.55 778.95 489.9 776.25 495.6 774.15 498.25 773.05 502.85 771.15 506.25 769.1 509.55 767.1 513.3 764 515.7 762.05 519.9 758.25 524.75 754 527.25 751.25 531.2 747.1 534.3 742.15 535.7 739.85 536.4 738.7 537.6 736.65 538.6 735.35 539.4 734.3 541.8 731.5 543.85 729.15 544.9 727.6 548.2 722.75 550.25 713.5 551.55 707.8 553.45 696.2 553.75 694.05 553.05 693.3 552.25 692.5 550.9 693.05 549.8 693.45 548.7 694.55 542.7 700.55 540.15 704.3 538.95 706.05 536.3 710.85 533.95 715.05 532.25 717.25 531.35 718.5 529.25 720.85 527.2 723.15 526.25 724.4 525.3 725.65 524.1 727.6 523.4 728.75 522.05 730.95 519.35 735.2 515.2 739.95 512.5 743 507.4 748.2
L 501.65 754.1
Q 497.8 758.05 495.7 759.85 490.45 764.35 481.55 768.9 476.5 771.45 466.3 776.45
M 1346.4 983.4
Q 1347.9 977.55 1347.35 972.55 1335.95 981.4 1322.4 1002.2 1313.1 1016.45 1311.55 1018.65 1305.2 1027.8 1299.35 1033.9 1296.45 1036.9 1294.1 1038.45 1290.9 1040.55 1287.75 1040.7 1282.25 1041.05 1277.3 1035.95 1274.15 1032.7 1269.95 1025.35 1264.35 1015.6 1257.25 1006.8 1253.4 1002.05 1250 999.6 1245.45 996.35 1240.9 996.5 1234.6 996.75 1227.45 1004.2 1219.2 1012.8 1211.55 1025.85 1207.35 1032.95 1198.85 1050 1191 1065.75 1185.95 1073.85 1178.15 1086.5 1169.35 1094.8
L 1160.9 1038.35
Q 1160.25 1034.05 1159.7 1031.85 1158.8 1028.3 1157.3 1025.75 1155.5 1022.8 1152.65 1021.1 1149.55 1019.25 1146.4 1019.7 1143.1 1020.2 1140.25 1023.25 1138.25 1025.35 1135.85 1029.5 1112.8 1069.85 1098.3 1114 1100.2 1067.25 1107.4 1021.95 1107.75 1019.95 1107.75 1018.8 1107.7 1017.05 1107 1015.8 1105.6 1013.4 1102.3 1013.55 1099.1 1013.7 1097.15 1015.95 1095.45 1017.9 1094.65 1021 1094.1 1023.05 1093.75 1026.75
L 1084.15 1129.8
Q 1083.8 1133.4 1083.8 1135.25 1083.8 1138.3 1084.5 1140.65 1085.3 1143.4 1087.2 1145.35 1089.25 1147.5 1091.85 1147.85 1096 1148.45 1099.65 1144.55 1102.4 1141.55 1104.6 1136.25 1117 1104.3 1123.5 1088.45 1134.9 1060.65 1146.4 1042.75 1148.25 1065.85 1152.95 1088.9 1153.95 1093.75 1154.85 1096.5 1156.15 1100.6 1158.05 1103.55 1160.3 1107 1163.65 1109 1167.25 1111.2 1171 1110.9 1174.55 1110.65 1178.1 1108.2 1180.7 1106.35 1183.85 1102.85 1195.55 1089.7 1210.3 1060.35 1218.4 1044.15 1221.9 1037.95 1228.8 1025.65 1235.65 1017 1238.3 1013.6 1240.65 1013.45 1243.8 1013.15 1247.1 1018.05
L 1261.2 1038.45
Q 1266.55 1046.2 1270.45 1050 1276.3 1055.7 1282.65 1056.95 1297.3 1059.95 1313.7 1040.55 1331.45 1019.3 1342.6 993.8 1345.25 987.8 1346.4 983.4
M 1733.35 1065.65
Q 1725.6 1071.95 1719.05 1085.85 1717.2 1089.7 1713.75 1097.6 1710.6 1104.5 1707.85 1108.9 1705.1 1113.25 1702.3 1113.05 1699.75 1112.95 1697.2 1108.9
L 1679.9 1082.4
Q 1678 1079.45 1676.65 1077.95 1674.6 1075.65 1672.3 1074.8 1667 1072.85 1660 1077.45 1654.25 1081.15 1648.8 1087.7 1645.45 1091.7 1639.7 1100.15
L 1622 1126.25
Q 1620.15 1129 1618.5 1128.7 1616.6 1128.35 1615.95 1124.8 1611.7 1100.55 1601.45 1078.75 1599.45 1074.4 1597.5 1071.95 1594.8 1068.6 1591.4 1067.65 1587.35 1066.5 1582.65 1068.95 1579.25 1070.7 1575.1 1074.7 1560.15 1089.2 1545.3 1110.6 1536.2 1123.65 1520.2 1150.2 1522.95 1114.8 1521 1080.1 1520.85 1077.7 1520.05 1076.05 1519.05 1074 1517.3 1073.95 1515.25 1073.85 1514.25 1076.25 1513.45 1078.2 1513.55 1080.95 1515 1113.5 1511.3 1145.85 1510.85 1149.65 1510.8 1151.6 1510.7 1154.85 1511.35 1157.3 1512.1 1160.25 1514.05 1162.35 1516.15 1164.65 1518.85 1165.1 1522.1 1165.65 1525.5 1163.4 1528 1161.75 1530.95 1158.3 1537.2 1150.8 1544.7 1139.4 1549 1132.85 1557.45 1119.7 1573.15 1095.75 1587.5 1084.8 1596.15 1102.05 1599.55 1121.05 1600 1123.35 1600.8 1127.85 1601.6 1131.75 1602.7 1134.5 1604.05 1137.9 1606.25 1140.45 1608.65 1143.25 1611.7 1144.5 1617 1146.6 1623.3 1143.95 1628.6 1141.65 1633.45 1136.65 1640.1 1129.75 1647.8 1116.65 1658.15 1098.95 1660.6 1095.45 1664.1 1090.5 1667.4 1091.15 1668.75 1091.45 1669.95 1092.7 1670.75 1093.5 1671.8 1095.15
L 1684.2 1114.75
Q 1688.55 1121.6 1692.3 1125 1697.6 1129.85 1703.3 1129.65 1711.85 1129.3 1719.8 1116.95 1735.15 1093.45 1739.1 1069.55 1739.75 1065.3 1737.6 1064.35 1735.85 1063.55 1733.35 1065.65
M 1551.9 757.95
Q 1549.7 759.25 1549.4 764 1548.1 786.3 1553.45 807.8 1554.6 812.85 1556.6 814.95 1558.9 817.45 1562.8 817.8 1566.45 818.1 1569.8 816.45 1572.65 815.05 1575.45 812.25 1577.25 810.5 1580.2 806.85
L 1590.45 794.25
Q 1594.3 789.5 1596.35 787.25 1599.75 783.5 1602.95 781
L 1609.95 808.7
Q 1611.4 814.4 1612.6 817.25 1614.55 821.8 1617.6 824.35 1621.45 827.6 1625.6 826.95 1627.95 826.6 1630.3 824.85 1631.85 823.75 1634.25 821.25
L 1650.45 804.45
Q 1652.9 801.95 1654.4 800.7 1656.7 798.85 1659 798.15 1661.85 797.25 1665.1 797.95 1668.05 798.55 1670.8 800.3 1673.1 801.75 1675.6 804.2 1676.9 805.4 1679.9 808.7 1685.5 814.75 1689.9 817.65 1696.05 821.75 1702 821.45 1708.9 821.1 1715 815.1 1719 811.1 1723.4 802.95 1725.7 798.75 1726.65 795.9 1728 791.8 1727.6 788.35 1727.3 785.6 1725.65 784.65 1724.05 783.75 1721.25 785.05 1716.55 787.35 1713.4 791.55 1712.35 792.95 1710.65 796.05 1708.9 799.1 1707.85 800.5 1706.15 802.85 1704 804.2 1701.55 805.7 1699.1 805.6 1696.4 805.45 1693.7 803.2 1692.1 801.95 1689.35 798.7 1680.8 788.7 1672.35 785 1667.05 782.7 1661.6 782.6 1655.75 782.5 1651.1 785 1648.55 786.35 1645.85 788.85 1644.25 790.35 1641.35 793.55
L 1631.55 804.3
Q 1626.15 810.25 1622.05 809.05
L 1616.5 784.45
Q 1615.3 779.15 1614 776.3 1612 772.05 1608.75 770.25 1605.45 768.45 1601.25 769.15 1597.4 769.8 1594.05 772.25 1591.3 774.25 1588.5 777.75 1587.5 779 1583.85 784.1 1575.2 795.9 1563.9 805.6 1557.55 787.8 1559.15 769.05 1559.4 766.05 1559.4 764.9 1559.35 762.55 1558.6 760.85 1557.75 758.85 1555.7 757.9 1553.6 756.9 1551.9 757.95 Z"/>

<path fill="#FF9933" stroke="none" d="
M 1086.1 1478.55
Q 1084.8 1475.2 1083.55 1472 1076.7 1522.35 1057.05 1580.6 1043.1 1621.9 1013.3 1691.65 979.15 1771.65 967.65 1802.4 944.2 1865.15 934.5 1916.6 933 1924.3 931.75 1927.8 929.55 1933.85 925.65 1937.05 922.25 1939.9 916.85 1941.2 913.4 1942 906.9 1942.5
L 832 1948.25
Q 926.4 1959.3 1021.65 1956.8 1008.35 1951.3 1001.4 1946.3 991.2 1938.95 988.5 1929.35 986.75 1922.9 988.3 1914.65 989.3 1909.3 992.55 1900.05
L 1119.05 1542.95
Q 1117.75 1541.95 1116.55 1540.75 1113 1537.1 1109.25 1530.65 1100.2 1514.85 1086.1 1478.55
M 1518.25 1328.15
Q 1507.3 1346 1497.3 1371.2 1493 1382 1480.95 1416.65 1474.9 1434.05 1469.8 1446.9 1467.45 1496.55 1457.45 1555.65 1450.15 1598.45 1433.55 1672.9 1414.9 1756.5 1408.5 1790.1 1396.05 1855.95 1392.4 1908.45 1391.9 1915.55 1391.05 1919.15 1389.65 1925 1386.5 1928.5 1383.75 1931.5 1379.05 1933.5 1375.95 1934.8 1370.2 1936.25
L 1309.65 1951.65
Q 1314.85 1953.5 1322.2 1953.55 1323 1953.55 1335.1 1953 1342.65 1952.65 1348.05 1953.75 1355 1955.15 1359.35 1959.1 1364.25 1963.55 1364.1 1970.75 1364 1978.15 1358.35 1980.8 1416.7 1969.9 1473.1 1952.05 1468.05 1948.7 1459.85 1946.95 1458.75 1946.7 1445.25 1944.55 1436.55 1943.2 1431.8 1941.1 1425.2 1938.2 1422 1932.7 1419.7 1928.85 1419.1 1923.25 1418.7 1919.5 1419.05 1913.1 1421.3 1869.3 1431.1 1819.45 1438.95 1779.6 1453.4 1727.4 1455.25 1720.85 1479.95 1635.95 1496 1580.75 1504.65 1544.1 1515.85 1492.4 1521.6 1466.6 1531.8 1420.7 1542 1390.1 1544.2 1383.4 1547.5 1378.6
L 1518.25 1328.15 Z"/>

<path fill="#663300" stroke="none" d="
M 345.5 1097.45
Q 339.15 1101.75 332.4 1111.15 328.6 1116.4 321.05 1126.9 318.85 1129.55 315 1133.6 310.15 1138.6 308.75 1140.15 305.5 1143.9 304.55 1144.85 302 1147.35 299.55 1148.6 296.65 1150.15 293.4 1149.85 289.95 1149.55 288.05 1147.2 286.15 1144.9 286.05 1140 285.95 1136.35 286.9 1128 289.4 1107.85 291.25 1096.9 293.4 1084.65 296.15 1074.35 286.2 1096.2 281.15 1122.7 276.4 1147.8 275.85 1178.4 275 1228.1 284.8 1277.2 294.65 1326.3 314.6 1371.8 324.45 1394.3 336 1413.1 336.95 1413.9 337.7 1415.25 338.15 1416.05 338.8 1417.5 341.1 1421.05 343.5 1424.55 345.2 1426.25 348.2 1428.45 364.9 1441.1 383.95 1450.05 403.05 1459.05 423.4 1463.75 426.35 1464.4 428.1 1464.6 430.75 1464.9 432.85 1464.5 435.35 1464.05 437.2 1462.5 439.2 1460.9 439.7 1458.65 440.1 1456.95 439.55 1454.7 439.25 1453.45 438.2 1450.85 435.75 1444.6 433.85 1436.4 432.7 1431.55 430.85 1421.6 430.3 1418.6 430.35 1416.75 430.45 1414.05 431.85 1412.4 433.8 1410.1 437.75 1410.3 440.3 1410.45 444.7 1411.85 455.65 1415.35 467.45 1415.05 468.45 1411.75 467.8 1407.2 467.55 1405.75 466 1399.35 463.5 1389 467.6 1384.05 469.35 1382 472.5 1380.65 474.5 1379.8 478.4 1378.8
L 493.45 1375.1
Q 496.1 1374.45 497.5 1373.85 499.65 1372.9 500.8 1371.45 502.75 1368.95 502.3 1364.55 502.05 1362.35 500.95 1359.3 499.7 1355.9 499.15 1354.15 497.05 1347.65 498.8 1343.5 499.55 1341.8 500.95 1340.6 477.05 1319.9 456.95 1285.5 431.65 1242.1 424.35 1200.4 420.6 1179.05 421.35 1157.3 420.75 1157.65 420.2 1158 414.4 1161.45 409.25 1160.05 405.35 1159 402.55 1155.25 400 1151.9 399.05 1147.35 398.3 1144.05 398.2 1138.9 398 1130.85 397.95 1130.3
L 375.7 1155
Q 371.45 1159.7 368.1 1161.8 363.3 1164.8 358.95 1163.75 356.35 1163.1 354.2 1161.05 352.25 1159.15 351 1156.5 349.95 1154.2 349.35 1151.2 349 1149.25 348.6 1145.7 345.95 1122.15 345.5 1097.45 Z"/>

<path fill="#666666" stroke="none" d="
M 325.65 889.8
Q 333.45 880.55 347.8 861.15 352 855.55 354 852.45 356.95 847.9 358.75 843.85 317.7 846.7 278.05 866.75 240.55 885.7 209.8 917.1 183.25 944.2 162.05 979.95 180 975.25 191.9 971.55 210.4 965.85 225.1 959.5 243.2 951.65 268.1 937 277.95 931.2 284.65 926.8 293.45 921 300.3 915.4 312.7 905.2 325.65 889.8
M 322.45 611.7
Q 322.2 612.25 321.85 612.75 320.6 614.5 318.05 615.4 316.45 615.95 313.3 616.4 266.2 623.1 224.4 654.4 185.2 683.7 159.2 727.8 135.75 767.65 123.15 818.6 112.3 862.45 109.25 916.1 107.55 945.75 108.75 969.65 110.2 998.25 115.85 1022.6 125.9 994.5 145.8 965.05 161.1 942.5 186.25 913.65 208.5 888.25 225.7 873 248.85 852.5 272.05 841.45 292.3 831.8 322.6 825.05 343.65 820.35 365.7 817.5 373.85 816.45 378.85 818.1 386.9 815.55 396.6 816.75 407.8 818.15 419.4 824.15 432.1 830.75 440.7 840.1 450.4 850.6 453.15 862.8 457.05 879.95 447.45 899.25 440 914.25 424.2 930.9 411.75 944.05 390.15 963.9 362.5 989.4 355.4 996.35 338.25 1013 325.4 1028.8 324.75 1030.35 324.1 1031.85 322.3 1036.15 318.5 1044.65 313.45 1056.65 308.45 1072.1 306.2 1079 304.6 1085.3 302.4 1094 300.85 1104.65 299.6 1113.1 297.6 1133.25 305.8 1126.45 319.1 1108.6 332.05 1091.15 340.85 1084.25 343.95 1081.8 346.85 1080.85 350.45 1079.7 353.15 1081.15 355.85 1082.65 356.95 1086.45 357.65 1089.05 357.7 1093.5 357.8 1119.4 360.65 1145.6 360.95 1148.8 362.65 1149.25 364.1 1149.7 366.15 1147.4 377 1134.75 385 1124.95 387.7 1121.65 389.15 1120.2 391.6 1117.65 394 1116.3 396.9 1114.65 400.05 1114.45 403.45 1114.25 405.95 1115.95 409.25 1118.15 411.2 1124.6 413.85 1133.75 413.85 1143.2 418.65 1138.1 423.55 1133.4 425.2 1122.7 427.95 1112.15 435.8 1082.25 454.2 1049.6 467.5 1025.95 491.7 992.4 520.15 953.75 534.1 934.25 558.3 900.35 573.5 874.25 590 845.95 598.65 821.7 609.2 792.2 609.5 765.25 609.9 729.35 592.4 696.4 574.85 663.4 544.85 643.7 515.3 624.3 471 616.7 446.6 612.45 396 610 365.4 635.45 335.6 661.45 336.4 661.1 337.2 660.75 342.95 658.4 352.35 655.5 365.05 651.6 367.65 650.7 372 649.2 387.3 643.3 399.4 638.55 407.1 636.45 426.3 631.15 446.5 632.45 466.7 633.75 485.05 641.45 500.1 647.8 509 656.8 514.2 662.05 517.35 668.35 520.7 675.05 521.2 682 521.85 690.9 517.75 701 514.75 708.45 508.2 718.4 502.5 727 498.05 732.1 491.75 739.35 479.85 748.5 452.25 769.65 424.15 780.75 392.15 793.35 361.85 791.85 335.6 790.55 315.65 779.15 304.9 773 296.7 764.2 288.2 755 283.55 744.1 278.6 732.25 279.8 722.15 280.75 714.5 285.6 705.75 279.3 711.3 275.55 714.25 264.9 722.75 255.3 727.7 248.6 731.1 242.75 731.65 235.5 732.3 231.2 728.25 228.1 725.3 227.25 720.5 227.15 720.4 227.05 720.3 224.75 718.15 223.85 714.7 223 711.55 223.45 708.1 223.85 705.15 225.2 701.75 226.05 699.55 227.95 695.7
L 242.15 666.7
Q 244.75 661.4 247.75 658.55 251.7 654.7 255.9 655.6 259.1 656.3 261.05 659.55 262.85 662.6 262.65 666.2 262.5 669.25 261 672.8 260.2 674.75 257.95 678.95 255.95 682.8 255.15 685.25 253.9 688.85 254.15 691.9 286.55 662.75 316.85 630.75 325.7 621.35 336.35 609.75 329.1 610.45 322.45 611.7
M 464.3 778
Q 465 777.15 466.3 776.45 476.5 771.45 481.55 768.9 490.45 764.35 495.7 759.85 497.8 758.05 501.65 754.1
L 507.4 748.2
Q 512.5 743 515.2 739.95 519.35 735.2 522.05 730.95 523.4 728.75 524.1 727.6 525.3 725.65 526.25 724.4 527.2 723.15 529.25 720.85 531.35 718.5 532.25 717.25 533.95 715.05 536.3 710.85 538.95 706.05 540.15 704.3 542.7 700.55 548.7 694.55 549.8 693.45 550.9 693.05 552.25 692.5 553.05 693.3 553.75 694.05 553.45 696.2 551.55 707.8 550.25 713.5 548.2 722.75 544.9 727.6 543.85 729.15 541.8 731.5 539.4 734.3 538.6 735.35 537.6 736.65 536.4 738.7 535.7 739.85 534.3 742.15 531.2 747.1 527.25 751.25 524.75 754 519.9 758.25 515.7 762.05 513.3 764 509.55 767.1 506.25 769.1 502.85 771.15 498.25 773.05 495.6 774.15 489.9 776.25 482.55 778.95 478.6 779.95 472.2 781.65 466.95 781.5 464.45 781.4 463.85 780.1 463.4 779.1 464.3 778 Z"/>

<path fill="#FFFFFF" stroke="none" d="
M 299.45 725.35
Q 298.9 732.65 303.55 740.95 309.8 752.3 321.8 760.1 333 767.35 346.8 770 359.1 772.4 373.5 771.25 385.55 770.3 400.05 766.75 415.85 762.9 426.5 757.9 433.5 754.6 441.6 749.25 446.3 746.1 455.8 739.2 469.75 729 476.35 722.45 486.8 712.15 490.8 701.2 492.75 695.95 492 692.35 491.05 687.75 485.65 683.25 469.2 669.35 439.65 667.8 431 667.35 414.95 667.95 397.95 668.55 390.25 668.3 383.75 668 380.55 667.9 374.85 667.7 370.8 668 361.35 668.65 351.7 672.45 340.15 676.95 327.65 686.6 310.1 700.1 302.95 714.3 299.85 720.25 299.45 725.35
M 380 722.95
Q 377.05 728.25 371.9 730.55 366.7 732.85 360.85 731.5 354.95 730.15 351.3 725.8 347.65 721.5 347.35 715.45 347 709.45 350.15 704.75 352.9 700.65 357.6 698.55 362.3 696.5 367.2 697.15 372.8 697.95 377.05 702.2 381.3 706.45 382.1 712.1 382.9 717.7 380 722.95 Z"/>

<path fill="#663333" stroke="none" d="
M 1445.45 658.8
Q 1411.55 664.9 1370.2 679.35 1288.65 707.85 1215.15 754.75 1141.6 801.65 1081.35 863.6 1041.3 904.8 998.85 961.7 971.55 998.25 925.15 1067.15 874.9 1141.6 852 1173.15 809.8 1231.25 771.3 1272.95 744.55 1301.9 720.85 1321 691.65 1344.6 662.15 1357.5 628.8 1372.15 594.45 1373.1 557.4 1374.15 527.65 1358.85 521.05 1355.45 514.7 1351.15 517.35 1359.15 517.35 1367.9 517.35 1374.8 515.1 1379.1 511.25 1386.5 500.05 1389.9 497.45 1390.7 490.75 1392.1 484.85 1393.4 481.55 1394.55 481.4 1399.15 482.35 1408.55 482.7 1416.75 479.8 1421.5 477.25 1425.65 472.15 1427.85 467.5 1429.9 462.1 1429.7 457.5 1429.55 452.05 1427.85 448.6 1426.8 442.45 1424.25 442.6 1430.25 443.85 1435.8 444.15 1437.05 446.35 1445 447.9 1450.6 448.3 1454.35 448.85 1459.5 447.55 1463.95 446.05 1468.9 442.55 1471.75 438.8 1474.8 432.9 1475.2 428.5 1475.5 422.15 1474.3 398.2 1469.9 376.35 1458.55 371.45 1456 366.75 1453.2 392.55 1479.95 423.4 1491.55 457.05 1504.2 504.05 1500.85 586.5 1495 674.85 1446.5 710.85 1426.75 751 1398.05 780.4 1377.05 822.8 1343.2 836.65 1332.2 845.15 1327.65 858.5 1320.55 870.4 1321.4 898.1 1323.2 918.85 1365.35 929.65 1387.4 948.45 1433.15 966.35 1473.15 985.6 1496 994.6 1460.1 1010.55 1426.3 1014.85 1417.2 1018.4 1411.5 1023.25 1403.7 1028.8 1398.55 1035.2 1392.55 1042.95 1389.7 1051.35 1386.65 1059.25 1388.2 1069.05 1390.15 1077.55 1399.2 1083.65 1405.7 1090.4 1417.7 1113 1457.8 1128.75 1501.2 1139.25 1476.8 1147.45 1440.25 1155.85 1398.25 1160.55 1377.45 1163.4 1364.9 1168.4 1357.15 1174.95 1347.05 1184.45 1346.45 1200.15 1345.45 1212.05 1371.55 1232.3 1416.05 1247.4 1462.85
L 1285.1 1359
Q 1290.15 1345.2 1295.2 1337.8 1302.5 1327.1 1312.45 1324.6 1324.05 1321.75 1336.25 1330.25 1345.85 1336.9 1354.8 1349.8 1372.95 1376 1389.55 1412.35 1399.55 1434.25 1416.8 1478.85 1427.95 1463.4 1437.3 1442.9 1444.3 1427.65 1452.6 1404.15 1461.7 1377.65 1466.5 1364.55 1474.85 1341.9 1482.85 1326.05 1497.25 1297.3 1516.4 1296.15 1529.35 1295.35 1540.85 1307.1 1549.05 1315.4 1557.65 1331.7 1589.7 1391.95 1626.45 1448.65 1636.75 1432.15 1645.9 1410.45 1652.25 1395.35 1661.05 1370.1 1672.1 1338.15 1675.45 1329.3 1684.1 1306.5 1692.8 1289.85 1699.15 1277.8 1706.6 1271 1716.15 1262.3 1726.5 1263.35 1734 1264.1 1741.15 1270.25 1746.15 1274.6 1752.35 1283.15 1785.4 1328.4 1809.25 1378.75 1835.5 1284 1844.05 1185.5 1852.65 1087 1843.15 989.15 1838.35 939.5 1829.45 900.3 1818.85 853.45 1801.2 815.45 1781.4 772.9 1752.1 740.3 1720.55 705.2 1681.65 686.1 1652.65 671.9 1610.75 663.05 1568.8 654.25 1528.25 653 1485.35 651.65 1445.45 658.8
M 1549.4 764
Q 1549.7 759.25 1551.9 757.95 1553.6 756.9 1555.7 757.9 1557.75 758.85 1558.6 760.85 1559.35 762.55 1559.4 764.9 1559.4 766.05 1559.15 769.05 1557.55 787.8 1563.9 805.6 1575.2 795.9 1583.85 784.1 1587.5 779 1588.5 777.75 1591.3 774.25 1594.05 772.25 1597.4 769.8 1601.25 769.15 1605.45 768.45 1608.75 770.25 1612 772.05 1614 776.3 1615.3 779.15 1616.5 784.45
L 1622.05 809.05
Q 1626.15 810.25 1631.55 804.3
L 1641.35 793.55
Q 1644.25 790.35 1645.85 788.85 1648.55 786.35 1651.1 785 1655.75 782.5 1661.6 782.6 1667.05 782.7 1672.35 785 1680.8 788.7 1689.35 798.7 1692.1 801.95 1693.7 803.2 1696.4 805.45 1699.1 805.6 1701.55 805.7 1704 804.2 1706.15 802.85 1707.85 800.5 1708.9 799.1 1710.65 796.05 1712.35 792.95 1713.4 791.55 1716.55 787.35 1721.25 785.05 1724.05 783.75 1725.65 784.65 1727.3 785.6 1727.6 788.35 1728 791.8 1726.65 795.9 1725.7 798.75 1723.4 802.95 1719 811.1 1715 815.1 1708.9 821.1 1702 821.45 1696.05 821.75 1689.9 817.65 1685.5 814.75 1679.9 808.7 1676.9 805.4 1675.6 804.2 1673.1 801.75 1670.8 800.3 1668.05 798.55 1665.1 797.95 1661.85 797.25 1659 798.15 1656.7 798.85 1654.4 800.7 1652.9 801.95 1650.45 804.45
L 1634.25 821.25
Q 1631.85 823.75 1630.3 824.85 1627.95 826.6 1625.6 826.95 1621.45 827.6 1617.6 824.35 1614.55 821.8 1612.6 817.25 1611.4 814.4 1609.95 808.7
L 1602.95 781
Q 1599.75 783.5 1596.35 787.25 1594.3 789.5 1590.45 794.25
L 1580.2 806.85
Q 1577.25 810.5 1575.45 812.25 1572.65 815.05 1569.8 816.45 1566.45 818.1 1562.8 817.8 1558.9 817.45 1556.6 814.95 1554.6 812.85 1553.45 807.8 1548.1 786.3 1549.4 764
M 1719.05 1085.85
Q 1725.6 1071.95 1733.35 1065.65 1735.85 1063.55 1737.6 1064.35 1739.75 1065.3 1739.1 1069.55 1735.15 1093.45 1719.8 1116.95 1711.85 1129.3 1703.3 1129.65 1697.6 1129.85 1692.3 1125 1688.55 1121.6 1684.2 1114.75
L 1671.8 1095.15
Q 1670.75 1093.5 1669.95 1092.7 1668.75 1091.45 1667.4 1091.15 1664.1 1090.5 1660.6 1095.45 1658.15 1098.95 1647.8 1116.65 1640.1 1129.75 1633.45 1136.65 1628.6 1141.65 1623.3 1143.95 1617 1146.6 1611.7 1144.5 1608.65 1143.25 1606.25 1140.45 1604.05 1137.9 1602.7 1134.5 1601.6 1131.75 1600.8 1127.85 1600 1123.35 1599.55 1121.05 1596.15 1102.05 1587.5 1084.8 1573.15 1095.75 1557.45 1119.7 1549 1132.85 1544.7 1139.4 1537.2 1150.8 1530.95 1158.3 1528 1161.75 1525.5 1163.4 1522.1 1165.65 1518.85 1165.1 1516.15 1164.65 1514.05 1162.35 1512.1 1160.25 1511.35 1157.3 1510.7 1154.85 1510.8 1151.6 1510.85 1149.65 1511.3 1145.85 1515 1113.5 1513.55 1080.95 1513.45 1078.2 1514.25 1076.25 1515.25 1073.85 1517.3 1073.95 1519.05 1074 1520.05 1076.05 1520.85 1077.7 1521 1080.1 1522.95 1114.8 1520.2 1150.2 1536.2 1123.65 1545.3 1110.6 1560.15 1089.2 1575.1 1074.7 1579.25 1070.7 1582.65 1068.95 1587.35 1066.5 1591.4 1067.65 1594.8 1068.6 1597.5 1071.95 1599.45 1074.4 1601.45 1078.75 1611.7 1100.55 1615.95 1124.8 1616.6 1128.35 1618.5 1128.7 1620.15 1129 1622 1126.25
L 1639.7 1100.15
Q 1645.45 1091.7 1648.8 1087.7 1654.25 1081.15 1660 1077.45 1667 1072.85 1672.3 1074.8 1674.6 1075.65 1676.65 1077.95 1678 1079.45 1679.9 1082.4
L 1697.2 1108.9
Q 1699.75 1112.95 1702.3 1113.05 1705.1 1113.25 1707.85 1108.9 1710.6 1104.5 1713.75 1097.6 1717.2 1089.7 1719.05 1085.85
M 1347.35 972.55
Q 1347.9 977.55 1346.4 983.4 1345.25 987.8 1342.6 993.8 1331.45 1019.3 1313.7 1040.55 1297.3 1059.95 1282.65 1056.95 1276.3 1055.7 1270.45 1050 1266.55 1046.2 1261.2 1038.45
L 1247.1 1018.05
Q 1243.8 1013.15 1240.65 1013.45 1238.3 1013.6 1235.65 1017 1228.8 1025.65 1221.9 1037.95 1218.4 1044.15 1210.3 1060.35 1195.55 1089.7 1183.85 1102.85 1180.7 1106.35 1178.1 1108.2 1174.55 1110.65 1171 1110.9 1167.25 1111.2 1163.65 1109 1160.3 1107 1158.05 1103.55 1156.15 1100.6 1154.85 1096.5 1153.95 1093.75 1152.95 1088.9 1148.25 1065.85 1146.4 1042.75 1134.9 1060.65 1123.5 1088.45 1117 1104.3 1104.6 1136.25 1102.4 1141.55 1099.65 1144.55 1096 1148.45 1091.85 1147.85 1089.25 1147.5 1087.2 1145.35 1085.3 1143.4 1084.5 1140.65 1083.8 1138.3 1083.8 1135.25 1083.8 1133.4 1084.15 1129.8
L 1093.75 1026.75
Q 1094.1 1023.05 1094.65 1021 1095.45 1017.9 1097.15 1015.95 1099.1 1013.7 1102.3 1013.55 1105.6 1013.4 1107 1015.8 1107.7 1017.05 1107.75 1018.8 1107.75 1019.95 1107.4 1021.95 1100.2 1067.25 1098.3 1114 1112.8 1069.85 1135.85 1029.5 1138.25 1025.35 1140.25 1023.25 1143.1 1020.2 1146.4 1019.7 1149.55 1019.25 1152.65 1021.1 1155.5 1022.8 1157.3 1025.75 1158.8 1028.3 1159.7 1031.85 1160.25 1034.05 1160.9 1038.35
L 1169.35 1094.8
Q 1178.15 1086.5 1185.95 1073.85 1191 1065.75 1198.85 1050 1207.35 1032.95 1211.55 1025.85 1219.2 1012.8 1227.45 1004.2 1234.6 996.75 1240.9 996.5 1245.45 996.35 1250 999.6 1253.4 1002.05 1257.25 1006.8 1264.35 1015.6 1269.95 1025.35 1274.15 1032.7 1277.3 1035.95 1282.25 1041.05 1287.75 1040.7 1290.9 1040.55 1294.1 1038.45 1296.45 1036.9 1299.35 1033.9 1305.2 1027.8 1311.55 1018.65 1313.1 1016.45 1322.4 1002.2 1335.95 981.4 1347.35 972.55 Z"/>
</g>

<g id="Layer0_0_FILL">
<path fill="#000000" fill-opacity="0.2" stroke="none" d="
M 1522.35 1270.9
Q 1504 1266.65 1481.5 1288.55 1458.8 1310.7 1443.1 1338.25 1427.15 1366.15 1420.05 1396.65 1405.75 1367.45 1383.6 1343.05 1361.5 1318.65 1333.8 1301.6 1323.5 1295.2 1315.25 1292.6 1304.45 1289.2 1295.45 1291.45 1283.75 1294.35 1274.75 1306.6 1268.6 1314.95 1261.95 1330.9
L 1234.9 1395.9
Q 1229.85 1379.1 1224.3 1368 1217.05 1353.5 1207.05 1344.3 1195.65 1333.8 1180.6 1331.05 1164.65 1328.1 1152.6 1335.8 1142.05 1342.55 1135.85 1357 1131.75 1366.55 1128.1 1384.35
L 1119.85 1424.9
Q 1113.3279296875 1412.2193359375 1103.8 1398.7 1095.3 1386.6 1082.05 1370.65 1076.8 1364.35 1073 1361.35 1067.35 1356.85 1061.65 1356.4 1055.85 1355.95 1049.75 1359.55 1045.1 1362.3 1039.75 1367.8 1034 1373.75 1027.55 1381.95 1023.75 1386.7 1016.25 1396.85
L 988.4 1434.7
Q 982.744921875 1442.4228515625 979.15 1447.35 972.345703125 1439.96484375 968.3 1435.25 957.15 1422.25 949.85 1410.7 947.95 1407.65 944.95 1402.5 941.3 1396.3 940.1 1394.3 935.75 1387.05 929.7 1378.2 926.45 1373.4 918.7 1362.55
L 900.25 1336.75
Q 896.35 1331.25 892.75 1331.7 890.85 1331.95 889.5 1333.75 888.3 1335.45 888.2 1337.55 888.1 1339.35 888.8 1341.5 889.25 1342.95 890.35 1345.3 895.8 1357.05 907.65 1378.85
L 921.65 1404.7
Q 933.55 1426.65 940.25 1437.45 947.95234375 1449.82265625 955.75 1459.55 955.0650390625 1459.81171875 954.4 1460.15 951.75 1461.55 949.8 1464.25 948.05 1466.75 947.2 1469.9 945.45 1476.15 947.6 1482.35 949.25 1487 954.15 1493.05 958.25 1498.05 962.55 1502.45 969.45 1509.5 975.3 1511.4 979.25 1512.65 983.15 1511.85 987.3 1510.95 989.65 1507.95 991.9 1505.05 991.9 1500.9 991.8927734375 1500.3517578125 991.85 1499.8 995.702734375 1499.07265625 999.05 1496.65 1001.5625 1494.843359375 1003.8 1492.15 1004.8927734375 1491.0376953125 1005.7 1489.7 1006.452734375 1488.676953125 1007.15 1487.55 1009.3 1484.1 1012.8 1476.5 1028.55 1442.5 1048 1410.45 1072.9 1446.8 1094.1 1485.55 1101.75 1499.5 1105.3 1504.95 1112.15 1515.5 1119.55 1521.95 1127.5 1528.85 1134.4 1528.6 1138.05 1528.45 1141.35 1526.35 1144.6 1524.3 1146.45 1521.05 1148.25 1517.85 1148.5 1514 1148.75 1510.25 1147.45 1506.7 1146.1841796875 1503.2515625 1143.1 1499.35 1143.4458984375 1499.12734375 1143.8 1498.85 1149.8 1494.2 1150.4 1487.35 1151 1480.9 1146.6 1473.3 1146.268359375 1472.820703125 1145.95 1472.35
L 1167.8 1377.95
Q 1168.5 1374.75 1169.35 1372.95 1170.6 1370.4 1172.6 1369.3 1176.1 1367.45 1180.25 1370.25 1183.65 1372.6 1186.2 1376.95 1195.15 1392.15 1205.15 1424.15 1215.5 1457.45 1223.3 1471.75 1227.65 1479.7 1232.75 1484.4 1239.1 1490.3 1246.2 1490.6 1252.45 1490.9 1258.3 1486.8 1263.65 1483.05 1266.95 1476.9 1269.7 1471.85 1271.4 1464.65 1272.2 1461.3 1273.8 1451.7 1283.25 1395.35 1309.25 1344.5 1324.65 1350.25 1338.75 1364.4 1349.25 1374.95 1361.35 1392.9 1383.45 1425.7 1400.15 1461.1 1404.6 1470.55 1406.65 1474.3 1410.7 1481.5 1415.1 1486.2 1420.5 1491.85 1427.25 1494.45 1434.7 1497.35 1441.45 1495.55 1448.3 1493.8 1453.45 1487.6 1458.1 1482.05 1460.2 1474.4 1461.880859375 1468.4181640625 1462.3 1460.05 1462.7439453125 1459.9619140625 1463.2 1459.85 1467.45 1458.9 1472.4 1455.05 1477.25 1451.2 1482.1 1445.1 1485.05 1441.4 1490.2 1433.75
L 1524.2 1383.55
Q 1526.45 1388.15 1528.15 1396.1 1528.5455078125 1397.9482421875 1528.9 1399.55 1525.8166015625 1408.0130859375 1521.7 1423.45
L 1487.65 1552.5
Q 1478.95 1585.6 1475.25 1600.1 1468.45 1626.7 1463.7 1647.85 1455 1686.55 1440.1 1764.55 1425.95 1834.5 1411.35 1879.9 1408.9 1887.65 1408.1 1890.9 1406.65 1897.15 1406.8 1902.2 1407 1908.25 1409.7 1913.3 1412.6 1918.75 1417.55 1921.05 1423.8 1923.95 1431.15 1921.15 1438.05 1918.55 1442.45 1912.45 1446.15 1907.3 1448.35 1899.6 1449.7 1894.95 1451.3 1885.55 1490.64765625 1653.733984375 1551.05 1427.15 1553.205859375 1426.96953125 1555.3 1426.15 1558.7 1424.85 1561.15 1422.2 1563.55 1419.65 1564.75 1416.15 1565.95 1412.7 1565.7 1409.1 1565.55 1406.65 1564.65 1403.6 1564.35 1402.55 1562.9 1398.25 1561.846484375 1395.1212890625 1560.75 1391.3 1560.8943359375 1390.8662109375 1561 1390.4
L 1604.45 1446.75
Q 1610.9 1455.05 1615.4 1458.95 1622.2 1464.9 1629.35 1465.95 1638.2 1467.2 1646.55 1461.15 1654.25 1455.55 1658.25 1446.45 1661.45 1439.1 1662.85 1428.45 1664 1415.9 1664.6 1409.7 1667.8 1376.15 1681.5 1344.75 1695.15 1313.4 1717.55 1288.2 1750.1 1326.4 1773.25 1371.05 1777.8 1379.85 1779.55 1382.7 1783.4 1389.05 1787.55 1393.1 1792.55 1398 1798.75 1400.1 1805.55 1402.4 1811.55 1400.55 1819.1 1398.2 1823.25 1390.2 1827.15 1382.7 1826.4 1374.1 1825.75 1366.8 1821.9 1358.5 1819.5 1353.3 1813.9 1344.1 1797.9 1317.9 1787.3 1302.25 1772.1 1279.65 1757.7 1262.55 1748.05 1251.05 1739.6 1245.15 1728.25 1237.2 1717.05 1237.45 1707.3 1237.65 1697.4 1244.05 1689.8 1248.95 1681.15 1258.25 1656.7 1284.5 1641 1317.35 1625.3 1350.2 1620.2 1385.75 1582.05 1345.25 1551.9 1298.65 1544.35 1286.85 1539.4 1281.55 1531.35 1272.95 1522.35 1270.9
M 1516.15 1332.25
Q 1514.8466796875 1333.6076171875 1513.6 1335.25 1511.7 1337.7 1508.45 1343.05 1498.3 1360.15 1492.6 1369.3 1483.65 1383.7 1475.8 1394.9 1471.31796875 1401.3259765625 1468.15 1405.9 1471.3658203125 1393.452734375 1476.4 1381.3 1489.2 1350.35 1511.65 1326.45
L 1516.15 1332.25
M 1082.7 1478.65
Q 1079.6 1476.85 1076.95 1478 1072.2 1480.05 1073.4 1489.5 1076.15 1511.35 1081.3 1528.15 1087.45 1548.45 1097.6 1563.7 1098.0544921875 1564.37734375 1098.5 1565
L 1067.45 1655
Q 1057.15 1684.9 1052.7 1700.1 1050.6 1707.3 1046.65 1721.7 1043 1734.65 1040.05 1743.15 1037.25 1751.25 1032.35 1763.15 1029.6 1769.75 1024.15 1782.95 1017.55 1799.75 1010.75 1821.1 1006.5 1834.45 999.1 1859.85
L 986.6 1902.8
Q 985.1 1907.8 984.6 1910.75 983.85 1915.2 984.5 1918.8 985.2 1923 988.1 1926.1 991.15 1929.35 995.1 1929.45 1000.6 1929.55 1004.45 1923.65 1007.3 1919.2 1009.05 1911.75 1016.35 1880.5 1029.05 1841.45 1035.05 1823 1052.8 1772.2 1064.45 1738.7 1084.8 1679
L 1105.3 1618.95
Q 1112.05 1599.1 1115 1589.25 1116.88828125 1583.024609375 1118.4 1577.2 1120.3607421875 1576.990625 1122.1 1576.2 1127.25 1573.85 1129.05 1567.45 1130.75 1561.55 1128.8 1555.55 1127.3 1550.85 1123.35 1545.1 1118.6 1538.7 1116.35 1535.4 1111.1 1527.85 1102.25 1509 1093.95 1491.4 1087.5 1483.05 1085.25 1480.1 1082.7 1478.65
M 1546.85 772.85
Q 1545.45 775.75 1546.25 781 1547.15 787 1550.75 798.75 1554.35 810.4 1555.25 816.5 1555.7 819.55 1556.6 825.8 1557.7 831 1560.25 834 1562.6 836.8 1566.25 838 1569.9 839.15 1573.45 838.25 1579.2 836.85 1585.1 828.85 1592.45 818.75 1595.4 816.55 1598.2 823.75 1599.9 827.2 1602.75 832.95 1606.1 836.8 1610.05 841.4 1615.25 843.75 1620.95 846.35 1626.35 845.4 1629.4 844.85 1632.9 843.05 1634.95 842 1638.9 839.4
L 1658.65 826.3
Q 1662.05 824.05 1664.2 823.1 1667.45 821.7 1670.25 822.05 1672.35 822.3 1674.65 823.6 1676.2 824.45 1678.6 826.35 1684.7 831.2 1685.95 832.1 1690.2 835.2 1693.85 836.85 1698.4 838.9 1702.9 839.1 1707.9 839.35 1711.8 837.25 1714.75 835.7 1717.5 832.45 1719.15 830.55 1721.9 826.3
L 1729 815.4
Q 1732.9 809.4 1734.25 805.1 1736.15 799 1733.8 794.55 1731.5 790.15 1725.95 788.85 1720.7 787.6 1715.75 789.65 1711.45 791.45 1707.5 795.55 1704.6 798.55 1701.15 803.7 1700.05 805.4 1699.2 806.25 1697.9 807.5 1696.55 807.75 1694.85 808.05 1692.95 806.85 1692.1 806.3 1689.75 804.25 1684.85 799.9 1678.55 798.15 1672.15 796.4 1664.85 797.6 1658.25 798.65 1651.55 801.95 1646.25 804.55 1639.7 809.15 1632.2 814.65 1628.4 817.35 1626.05 819.05 1624.6 818.6 1623.6 818.25 1622.65 816.9 1620.55 813.9 1618.9 809.5 1618 807.2 1616.3 801.5 1614.85 796.4 1613.65 793.55 1611.85 789.25 1609.45 786.4 1606.6 783 1602.75 781.4 1598.55 779.6 1594.65 780.7 1591.6 781.55 1588.7 784.25 1586.9 785.95 1584 789.6
L 1571.7 805.5 1557.75 774.6
Q 1555.9 770.4 1553.6 769.5 1551.7 768.8 1549.7 769.85 1547.8 770.9 1546.85 772.85
M 1352 986.55
Q 1350 985.55 1346.5 986.85 1340.55 988.95 1334.45 993.6 1329.95 997 1324.1 1002.9 1308.3 1018.75 1295 1038 1293.5 1040.2 1292.5 1041.25 1290.95 1042.85 1289.25 1043.4 1286 1044.4 1280.85 1041.45 1271.05 1035.75 1263.65 1027.45 1254.9 1017.7 1253.35 1016.35 1246.95 1010.75 1240.65 1011.05 1235.7 1011.3 1230.8 1015.1 1227.5 1017.65 1222.9 1023.05
L 1205 1044.25
Q 1192.35 1059.25 1185.85 1067.45 1175.55 1080.55 1168.4 1091.9
L 1160.15 1055.4
Q 1158.7 1049.1 1156.3 1045.3 1153.05 1040.3 1148.35 1040.3 1144.6 1040.25 1141.3 1043.65 1139 1046 1136.45 1050.65
L 1117.45 1085.45
Q 1109.65 1099.7 1105.95 1107.35 1100 1119.65 1096.65 1130.15 1095.65 1133.4 1095.55 1135.55 1095.45 1138.6 1096.85 1140.6 1098.5 1142.9 1101.8 1143.25 1104.85 1143.55 1107.55 1142 1109.85 1140.7 1111.95 1138.15 1113.25 1136.5 1115.35 1133.2 1129.6 1110.3 1143 1085.3 1144.85 1089.05 1146.25 1094.55 1147.1 1097.7 1148.5 1104.1 1149.9 1109.7 1151.55 1113.45 1153.75 1118.35 1156.85 1121.55 1160.4 1125.25 1165.3 1126.5 1170.5 1127.8 1174.7 1125.6 1177.7 1124.05 1180.2 1120.55 1181.6 1118.6 1184.1 1113.9 1193.75 1095.75 1209.95 1075.75 1219.7 1063.7 1240.6 1040.95 1245 1044.15 1253.4 1052 1261.55 1059.55 1266.3 1062.9 1273.85 1068.25 1281.75 1070 1290.8 1072.05 1298.1 1068.85 1302.4 1066.95 1306.6 1062.75 1309.2 1060.2 1313.6 1054.65
L 1342.55 1018.2
Q 1348.4 1010.8 1350.85 1006.35 1354.7 999.35 1354.8 992.95 1354.9 988.05 1352 986.55
M 1723.3 1080.9
Q 1721.15 1083.55 1718.35 1088.2 1709.7 1102.8 1704.55 1116.2 1700.2 1114.2 1695.25 1109.7 1689.8 1104.3 1687 1101.7 1676.05 1091.65 1666.6 1093.35 1662.6 1094.1 1658.45 1097.15 1655.8 1099.15 1651.65 1103.4
L 1624.3 1131.45
Q 1621.65 1134.1 1619.7 1133.85 1617.7 1133.5 1616 1130
L 1602.2 1100.95
Q 1602.341796875 1098.7142578125 1601.5 1096.75 1600.464453125 1094.2130859375 1598.25 1092.6
L 1595.9 1087.65
Q 1593.6 1082.75 1591.55 1080.15 1588.6 1076.35 1584.95 1075.35 1582.2 1074.6 1579.15 1075.4 1576.35 1076.15 1573.8 1078 1570.5 1080.45 1565.85 1086.7
L 1519.2 1149.35
Q 1517.85 1151.15 1517.3 1152.3 1516.45 1154.05 1516.6 1155.6 1516.8 1157.6 1518.55 1159.05 1519.8041015625 1160.0828125 1521.3 1160.45 1522.112109375 1163.344140625 1524.2 1165.1 1526.6 1167.15 1530.2 1167.15 1533.55 1167.15 1536.65 1165.5 1539.2 1164.15 1541.85 1161.55 1543.2 1160.2 1546.35 1156.65 1564.4615234375 1135.94453125 1586.2 1119.7 1588.2806640625 1124.4798828125 1589.9 1127.85 1595.85 1140.2 1602.55 1148.95 1608.3 1156.5 1613.9 1159.5 1617.45 1161.45 1621.35 1161.85 1625.45 1162.25 1628.9 1160.7 1631.3 1159.65 1633.75 1157.4 1635.1 1156.15 1637.85 1153 1652.85 1135.8 1670.4 1120.35
L 1693.55 1139.95
Q 1698.35 1144 1701.4 1145.75 1706.1 1148.4 1710.4 1148.2 1714.1 1148 1717.65 1145.7 1720.8 1143.65 1723.25 1140.3 1725.3 1137.55 1727.1 1133.55 1727.8 1132.05 1730.1 1126.3 1735.45 1113.5 1742.45 1102.05 1745.25 1097.5 1746.1 1095.85 1748 1092.25 1748.8 1089.2 1749.75 1085.55 1749.15 1082.05 1748.45 1078.2 1746 1075.8 1743 1072.85 1738.15 1072.75 1733.65 1072.7 1729.7 1075.05 1726.3 1077.1 1723.3 1080.9
M 265.1 1244.25
Q 263.6 1247.25 263.4 1251.55 262.75 1271 269.1 1294.1 273.4 1309.75 283.65 1335.1 299.15 1373.45 311.5 1396.85 328.85 1429.7 349.05 1452.65 372.65 1479.4 402.15 1494.55 434.3 1511 466.7 1509.85 471.4 1509.7 480.75 1508.95 489.05 1508.5 494.7 1509.15 497.65 1509.5 503.3 1510.7 509.1 1511.9 511.9 1512.25 520.55 1513.4 531.45 1511.8 538 1510.85 550.8 1507.8 572.75 1502.55 583.4 1499.7 601.4 1494.8 615.4 1489.6 632.3 1483.35 650.7 1474 666 1466.2 684.45 1455.2 704.55 1443.2 763.5 1404.3 812.55 1371.95 843.6 1355.25 853.9 1349.65 859.1 1344.45 866.4 1337.05 865.45 1328.95 864.75 1323.25 860 1318.85 855.55 1314.7 849.45 1313.35 844.15 1312.15 837.6 1312.95 832.9 1313.5 825.9 1315.35 802.2 1321.85 776.8 1334.8 756.8 1345.05 731 1361.9 716 1371.65 686.35 1391.85 659.8 1409.55 640.7 1420 598.6283203125 1443.0486328125 543.85 1459.25 509.916796875 1462.5708984375 473.8 1455.5 434.1 1447.7 395.5 1428.2 387.75 1424.25 382.6 1421.1 375.75 1416.9 370.7 1412.5 365 1407.55 359.1 1400.1 355.45 1395.6 348.95 1386.35
L 298.95 1315.6
Q 288.4060546875 1286.7802734375 278.05 1249.7 275.5 1240.45 270.25 1240.5 266.95 1240.55 265.1 1244.25
M 298.8 728.8
Q 297.1140625 726.156640625 296.05 725 294 722.9 291.75 722.85 289.45 722.8 287.6 724.75 285.95 726.5 285.3 729.05 282.55 739.6 294.2 752.45 307 766.75 324.45 775.65 341.85 784.6 360.95 786.65 365.95 787.2 372.4 787.35 375.75 787.45 383.95 787.45 391.55 787.45 395.35 787.3 401.65 787.05 406.65 786.2 420 784 434.4 776.25 445.1 770.5 459.4 759.85 466.25 754.75 470.3 751.15 476.05 746.05 479.8 741 482.3771484375 737.5484375 486.15 730.8 495.8775390625 720.588671875 507.55 706.1 510.7 702.2 512.15 699.9 514.5 696.35 515.45 693.05 516.65 689.2 515.95 685.4 515.2 681.3 512.5 678.8 509.65 676.2 505.3 675.95 501.3 675.7 497.5 677.45 496.081640625 678.1046875 494.65 679.05 491.8166015625 679.6234375 489 681.8 485.75 684.35 482.2 689.3 478.2623046875 694.8810546875 474.7 700.45 473.4888671875 701.944921875 472.15 703.55 464.25 712.75 458.05 718.6 445.05 730.85 428.85 738.95 412.7 747.1 395.15 750.25 377.6 753.4 359.6 751.4 341.65 749.4 325.2 742.45 315.15 738.2 306.05 732.4 303.45 730.75 302.3 730.15 300.4490234375 729.2029296875 298.8 728.8
M 435.35 858.55
Q 436.25 864 435.65 871.6 434.05 893.7 425.5 914.3 429 916.95 434.65 909.65 437.15 906.35 442.2 901.8 448.45 896.15 450.15 894.3 462.8 880.75 463 860.7 463.2 840.65 450.9 826.8 439.4 813.95 419.05 808.6 403.45 804.55 380.85 804.65 330.7 804.8 288.6 817.6 241 832.1 208.35 861.55 202.3 867 195.3 874.35 190.9 879 182.9 887.85 169.75 902.35 162.9 910.6 152.15 923.45 144.75 934.75 134.9 949.9 123.65 974.15 117.35 987.75 104.9 1014.9 102.7 1019.45 102 1021.35 100.6 1025.05 100.5 1028.15 100.4 1031.9 102.2 1035 104.15 1038.35 107.4 1039.2 112.2 1040.5 116.75 1036.1 120.3 1032.7 123.05 1026.55 135.35 997.5 141.95 983.2 153.4 958.55 165.15 942.4 170.1 935.65 176.95 927.7 181.05 923 189.6 913.7 210.05 891.35 221.9 880.7 240.9 863.5 259.3 854.5 275.7 846.5 298 841.8 312 838.9 338.65 835.7 362.05 832.9 374.5 832.5 394.45 831.9 410 835.5 424.75 838.9 430.7 846.75 434.25 851.5 435.35 858.55 Z"/>
</g>
</defs>

<g transform="matrix( 1, 0, 0, 1, 0,0) ">
<use xlink:href="#Layer1_0_FILL"/>
</g>

<g transform="matrix( 1, 0, 0, 1, 0,0) ">
<use xlink:href="#Layer0_0_FILL"/>
</g>
</svg>
