
<svg xmlns="http://www.w3.org/2000/svg" version="1.1" xmlns:xlink="http://www.w3.org/1999/xlink" preserveAspectRatio="none" x="0px" y="0px" width="2000px" height="2000px" viewBox="0 0 2000 2000">
<defs>
<g id="Layer1_0_FILL">
<path fill="#000000" stroke="none" d="
M 1695.2 1116.1
Q 1691.4 1116.15 1658.4 1117.6 1524.8 1123.55 1391.25 1110.75 1257.65 1097.95 1127 1066.65 1117.85 1064.4 1112.9 1063.95 1106.3 1063.2 1100.95 1064.6 1102.3 1058.75 1103.4 1053.2 1108 1030.4 1109.1 1009.85 1112.75 942.15 1081.15 875.2 1051.9 813.3 1000 766.5 959.45 730.05 904.2 701.35 907.4 700.9 910.55 700.35 927.25 697.4 941.7 690.75 957.35 683.5 969.3 672.5 978 664.45 982.9 655.3 988.6 644.7 988.3 634.1 988.05 625.05 983.3 616.45 978.9 608.4 971.7 602.7 960.1 593.55 940.15 589.55 916.85 584.9 889.3 587.15 866.95 589.05 838.6 595.85 847.45 586.65 855.95 574.4 863 564.25 870.7 550.55 878.35 536.95 882.45 526.8 887.85 513.25 889.1 501.05 890.6 487 886.35 474.25 881.75 460.55 872 453.4 865.25 448.4 856.45 447 848.3 445.7 839.7 447.6 825.9 450.65 809.3 462.8 772.1 489.85 749.35 534.3 726.65 578.7 724.8 628.05 724.65 632.25 724.6 634.5 710.6 631.8 698.3 631.5 690.5 631.3 677.8 632.1 661.95 633.1 657.25 633.2 649.65 633.35 634.15 632.9 618.85 632.45 611.05 632.65 586.35 633.35 559.25 640.4 535.75 646.5 509.1 657.8 447.1 683.95 396.3 725.1 342.35 768.7 306.3 825.05 268.3 884.35 253.15 953.85 237.4 1026.15 249.85 1094.45 255.65 1126.2 267.35 1156.05 279.05 1185.9 296.05 1212.15 317.7 1245.65 348.4 1274.05 377 1300.45 412.2 1321.4 444.2 1340.45 482.5 1355.5 500.5 1362.55 520.55 1368.95 515.65 1414.55 521.9 1460.75 528.85 1512 548.7 1558.05 568.6 1604.15 600.25 1642.2 631.85 1680.3 671.6 1706.1 697.4 1722.95 734.35 1738.8 828.9 1779.3 934.4 1790.6 943.6 1791.6 952.8 1792.4 953.3 1870 957.4 1948.5
L 906.75 1971.9
Q 899.3 1975.35 895.3 1978.75 889.65 1983.55 888.65 1989.8 887.6 1996.85 892.65 2003.2 897.15 2009 904.2 2011.6 907.65 2012.9 917.5 2015.05 925.95 2016.9 930.55 2019.3 924.25 2022.75 920.65 2025.45 915.5 2029.35 912.45 2033.9 908.9 2039.15 908.4 2045.55 907.85 2052.4 911.25 2057.15 916.25 2064 928.9 2064.45 942.55 2064.95 958 2060.5 970.55 2056.95 985.9 2049.6 987.9 2048.65 1012.7 2035.9 1028.9 2027.6 1039.95 2023.4 1049.15 2019.9 1049.2 2019.9 1054.45 2017.75 1058.05 2015.3 1061.2 2013.2 1063.65 2010.5 1101.15 2025.6 1140.3 2034.4 1145.15 2035.45 1147.95 2035.55 1152.25 2035.65 1155.25 2033.9 1159.95 2031.15 1161.45 2024.55 1162.85 2018.4 1160.8 2012.4 1159.05 2007.3 1155 2002.2 1152.45 1999 1147 1993.65 1161.2 1988.2 1175.55 1985.1 1183.1 1983.5 1184.5 1983.15 1189.5 1981.8 1193.05 1979.9 1197.4 1977.5 1200.25 1973.75 1203.45 1969.65 1204 1964.85 1204.5 1960.5 1202.7 1955.95 1201.1 1951.8 1197.95 1948.35 1195.3 1945.5 1191.3 1942.85 1188.95 1941.25 1183.95 1938.45
L 1133.65 1910.45
Q 1130.55 1908.75 1129.05 1907.7 1126.6 1906 1125.15 1904.05 1123.25 1901.55 1122.1 1897.75 1121.35 1895.3 1120.5 1890.65 1111.6 1840.1 1107.35 1789.1 1123.75 1787.1 1140.25 1784.4 1253.05 1765.8 1355.2 1716.4 1460.8 1665.25 1544.65 1586.05 1631.2 1504.35 1689.25 1397.4 1748.8 1287.6 1769.45 1167.2 1771.3 1156.5 1771.25 1149.85 1771.15 1140.15 1767.6 1133.5 1762.9 1124.8 1752.25 1120.6 1744.25 1117.5 1732 1116.6 1716.15 1115.55 1695.2 1116.1
M 1702.25 1157.7
Q 1718.85 1157.6 1731.65 1159.55 1713.45 1280.8 1650.55 1391.7 1606.3 1469.7 1545.4 1533.45 1544.85 1533.15 1544.2 1532.85 1542.85 1532.3 1539.8 1531.65 1537.6 1531.15 1535.45 1530.6 1535.3 1530.35 1535.1 1530.15 1530.65 1525.2 1522.6 1528.55 1520 1529.65 1508.9 1536.7 1498.35 1543.4 1485.45 1541.75 1472.55 1540.1 1463.55 1530.95 1457.1 1523.15 1453.8 1519.45 1447.95 1512.85 1442.35 1511.4 1436.45 1509.9 1429.5 1513.25 1424.95 1515.45 1417.7 1521.15 1389.85 1543.25 1370.2 1552.5 1342.1 1565.75 1318 1561 1296.3 1556.65 1275.5 1537.15 1260.8 1523.35 1241.95 1496.75 1238.3 1491.65 1236.1 1489.3 1232.45 1485.6 1228.7 1484.35 1221.7 1482.1 1213.8 1487.65 1208.7 1491.25 1201.15 1500.05 1171.95 1534.1 1141.65 1541 1120.9 1545.8 1097.85 1538.4 1077.2 1531.75 1057.65 1516.45 1042.05 1504.15 1024.15 1483.9 1023.95 1483.65 993.7 1447.55 989.75 1442.8 986.55 1440.65 982.1 1437.65 978.1 1438.65 975.45 1439.35 972.9 1441.95 971.4 1443.5 968.8 1447.1 956.85 1463.85 945.7 1472.65 931.1 1484.25 916.5 1483.75 898.6 1483.2 880.4 1464.4 859.7 1443.05 846.45 1407.9 840.1 1391.15 834.55 1368.25 865.65 1355.95 896.1 1338.8 950.2 1308.4 991.35 1268.45 1036.9 1224.3 1063.5 1171.35 1078.9 1140.6 1091.6 1099.15 1092.6 1099.9 1093.7 1100.55 1099.15 1103.85 1108.45 1106.05 1247.3 1138.9 1389.1 1152.1 1530.95 1165.35 1672.75 1158.7 1694.45 1157.7 1702.25 1157.7
M 1438.05 1539.9
Q 1440.15 1540.5 1442.35 1542.55 1443.25 1543.45 1445.95 1546.55 1461.45 1564.75 1485.85 1567.15 1502.55 1568.75 1516.3 1562.2 1507.85 1570.1 1499.1 1577.75 1432.15 1636.25 1353.15 1677.1 1275.2 1717.35 1190.7 1737.65 1107.45 1757.7 1020.35 1757.9 934.65 1758.1 849.75 1739.05 803.95 1728.8 766.55 1714.5 723.4 1698 688.45 1675.1 649.95 1649.75 620.85 1616.15 589.65 1580.05 572.5 1538 559.55 1506.1 551.5 1461.75 543.7 1418.7 541.85 1375.45 548.9 1377.45 556.25 1379.45 584.55 1387.1 608.45 1391.55 636.35 1396.7 661.4 1398.15 720.6 1401.55 782 1385.5 803.3 1379.95 824.35 1372.2 829.75 1402.1 841.35 1429.65 856.7 1466.25 878.25 1483.8 891.2 1494.4 906.3 1498 922.4 1501.85 936.6 1496.55 948.55 1492.15 960.3 1480.45 967.7 1473.05 979.75 1457.25 999.5 1480.5 1020.85 1502.75 1048.35 1531.25 1070.6 1545.25 1100.65 1564.05 1128.7 1562.55 1153.6 1561.2 1179.55 1543.55 1198.75 1530.55 1222.8 1505 1245.35 1539.7 1268.1 1559.3 1296.95 1584.25 1327.05 1586.15 1351.1 1587.65 1378.75 1574.15 1396.55 1565.4 1426.15 1544.05 1429.65 1541.5 1431.9 1540.55 1435.25 1539.15 1438.05 1539.9
M 849.75 492.45
Q 850.05 490.35 848.8 489.55 847.65 488.85 845.2 490 819.1 504.05 795.25 533.85 785.7 545.8 775.5 561.75 768.55 572.6 757.6 591.3 753.7 597.85 751.5 602.4 748.95 607.65 744.7 618.95 741.2 628.25 738.7 633.6 738.45 628.5 739.45 622.35 740.2 617.85 742 611 753.9 564.45 772.6 532.6 783.55 514 797.15 499.5 811.65 484.05 828.25 474.4 840.35 467.45 849.4 467.2 855.25 467.1 860.35 469.65 865.8 472.35 868.65 477.4 871.85 483.05 871.55 491.25 871.3 497.5 868.9 505.75 864.25 521.8 856.45 536.45 848.65 551 838.15 563.25 832.3 570.05 823.15 578.65 789.45 610.2 749.2 629.15 749.75 628.3 750.3 627.5 769.55 599.05 780.1 583.95 796.8 559.95 811.05 541.4 819.45 530.4 825 524.35
L 832.6 516.55
Q 837.1 511.8 839.85 508.35 842.95 504.45 848.35 495.9 849.45 494.15 849.75 492.45
M 797.6 656.45
Q 800.9 656.05 806.55 655.4 814.7 654.4 820.1 654.1 822.1 654 827.7 653.8 832.45 653.55 835.25 653.35 839.1 653 857.35 649.55 870.85 647.05 879.45 647.8 882.4 648.05 884.05 647.75 886.5 647.25 887.45 645.3 876.05 638.8 860.35 637.2 849.7 636.15 831.7 637.25 808.6 638.7 792.05 641.3 810.6 633.5 830 627.9 872.65 615.65 916.3 615.1 927.95 614.95 935.6 616.15 946.05 617.8 953.8 622.25 961.1 626.55 961.2 632.25 961.25 636.75 956 641.9 935.25 662.15 900.45 667.7 887.35 669.75 870.05 670 864.5 670.05 839.5 669.55 835.95 669.5 832.95 669.55 816.15 663 797.6 656.45
M 1078.55 1792.1
Q 1080.3 1815.15 1084.2 1841.5 1087.7 1864.85 1094 1897 1095.85 1906.35 1097.3 1911.1 1099.6 1918.75 1103.1 1923.9 1106.45 1928.75 1112 1933.15 1115.5 1935.85 1122.55 1940.3
L 1151.05 1958.15
Q 1146.6 1960.35 1139.15 1961.6 1128.9 1963.45 1126.95 1963.95 1120.3 1965.7 1115.6 1969.75 1110.2 1974.4 1109.2 1980.75 1107.6 1991.4 1118.9 2002.7 1094.05 2000.95 1070.95 1990.75 1069.8 1990.25 1068.85 1989.85 1068.35 1987.75 1067.6 1985.5 1064.1 1977.2 1062.35 1973.1 1057.3 1961.2 1054.75 1944.95 1053.15 1934.9 1051.65 1915.5 1048.8 1878.45 1048.2 1859.3 1047.25 1828.05 1050 1803.2 1050.65 1797.6 1050.8 1794 1064.65 1793.3 1078.55 1792.1
M 1018.1 1794.9
Q 1017.9 1796.7 1017.75 1798.75 1013 1871.5 1021.6 1943.2 1023.3 1957.4 1025.2 1966.5 1027.85 1979 1032.1 1988.6
L 974.95 2014.4
Q 974.15 2002.8 964.5 1995.45 954.85 1988.05 944.75 1991.3 947.85 1987.2 953.55 1984.05 956.15 1982.7 964.25 1979.4 971 1976.7 974.35 1974.35 979.35 1970.9 981.6 1966 983.2 1962.45 983.6 1957.55 983.85 1954.35 983.6 1948.6
L 977.6 1794
Q 997.8 1794.95 1018.1 1794.9
M 652.95 664.95
Q 663.6 665.75 676.3 668.1 685.55 669.8 699.4 673.1 745 683.95 788.65 698.6 834.45 714 870.45 731.35 912.9 751.8 946.55 777.25 984.05 805.5 1011.75 840.85 1041.65 879 1057.45 922.05 1068.05 950.95 1069.95 976.6 1070.95 990.2 1069.7 1005.8 1068.65 1018.85 1065.9 1034.75 1058.55 1077.7 1044.25 1115.55 1029 1155.85 1006.6 1188.4 961.45 1253.75 878.6 1300 830.85 1326.7 782.05 1340.95 730.3 1356.15 680 1356.6 638.05 1357 584.7 1346.6 543.85 1338.75 509.5 1327.45 470.5 1314.65 437.7 1296.8 401.75 1277.15 372.6 1251 341.4 1223 319.9 1189.1 287.65 1138.25 277.8 1075.05 267.9 1011.85 282.9 952 297.6 893.05 336.25 836.5 385.1 765 456.65 719.95 528.85 674.55 608.55 665.95 633.35 663.35 652.95 664.95
M 680.65 863.95
Q 679.8 860.55 676.1 859.9 672.5 859.2 669.95 861.6 668.1 863.35 666.2 867.5 659.2 882.3 655.25 898.65 651.35 915 650.75 931.75 650.55 939.4 654.05 941 657.35 937.45 659.6 931.65 661.15 927.6 662.7 920.75 667.6 898.95 668.35 896.25 672.1 882.45 677.6 873.5 679.5 870.4 680.1 868.9 681.2 866.15 680.65 863.95
M 1005.95 927.6
Q 997.95 921.25 985.2 917.6 970.1 914.1 962.6 912.3 949.55 909.3 945.5 908.45 949.45 907.4 953.4 906.35 960.25 904.45 963.95 902.5 969.5 899.55 972.05 894.9 974.95 889.65 973.75 882.9 972.55 876.4 968.35 871.85 964.45 867.7 958.65 865.7 953.35 863.9 947.3 864.1 942.3 864.35 936.1 865.95 932.55 866.9 925.1 869.4 865.1 889.4 815.5 899.35 756.15 911.2 703.5 910.55
L 712.25 884.75
Q 715.3 875.85 711.8 872.5 709.8 870.6 706.65 871.25 704 871.85 701.3 874 695.9 878.25 691 885.25 687.35 890.45 682.95 898.85 678.65 906.9 677.15 912.75 675 920.9 677.25 927.25 678.9 931.9 682.9 935.4 686.55 938.6 691.35 940.2 695.4 941.55 700.65 941.9 704 942.1 710.15 941.95 807.55 939.25 902.1 918.8 889 927.1 885.2 928.8 879.5 931.4 871.45 933.5 862 935.75 857.25 936.85 821.75 945.35 792.65 964.4 761.15 985.05 742 1015.3 739.1 1019.8 737.7 1023.2 736.65 1025.75 736.2 1028.2 735.45 1028.5 734.85 1029.1 733.25 1030.7 732.35 1034.7 728.1 1053.45 731.75 1077.3 734.05 1092.5 741.8 1119.6 743.6 1125.7 745.1 1128.75 747.45 1133.55 750.85 1135.75
L 742.55 1089.2
Q 739.35 1071.5 738.6 1061.9 738.45 1059.8 738.35 1057.75 742.1 1074.35 748.85 1090.25 759.7 1115.8 777 1135.85 779.05 1138.25 781.45 1139.1 784.25 1140.1 785.6 1138.05 767.4 1106.5 759.3 1089.1 750.7 1070.65 745.75 1053.7 749.3 1057.75 754.85 1061.1 757.2 1062.55 759.75 1063.8 764.45 1069.8 771.6 1076.05 793.6 1095.3 816 1099.15 821.55 1100.1 828.45 1100.3 832.85 1100.4 840.9 1100.15 867.05 1099.35 883.25 1097.1 906.35 1093.9 924.25 1086.5 949.2 1076.15 969.35 1055.8 989.45 1035.45 1001.05 1008.8 1008.4 992.15 1009.2 978.25 1012.5 973.95 1014.75 969.5 1020.65 958.1 1018.65 947.4 1017.55 941.55 1014 936.25 1010.8 931.4 1005.95 927.6
M 1001.85 958.2
Q 1001.8 961.8 1000.2 965.15 998.9 967.9 996.65 970.5 996.4 970.65 996.15 970.8 994.85 971.75 993.55 973.55 992.5 974.5 991.3 975.5 965.15 997.75 924.6 1009.05 908.95 1013.45 888.45 1016.95 879.5 1018.5 851.85 1022.45 814.55 1027.85 775.7 1034.55 766.65 1036.15 761.75 1036.15 753.95 1036.2 748.35 1033.2 751.45 1020.9 761.35 1009.15 767.7 1001.6 781.1 990.1 788.9 983.4 792.9 980.15 799.5 974.8 805.1 971 823.2 958.8 847.55 951.25 866.05 945.55 893.1 941.3 903 939.75 906.2 939.05 913.55 937.6 919.05 935.7 920.85 935.05 924.35 933.75 927.4 932.7 929.75 932.35 933.75 931.8 940.5 932.95 965.6 937.05 989.95 945.05 993.55 946.2 995.65 947.35 998.6 949 1000.15 951.45 1001.9 954.25 1001.85 958.2
M 994.05 993.35
Q 991 1002.9 988.15 1009.4 978.85 1030.65 960.95 1047.25 944.35 1062.65 922.8 1071.75 903.55 1080 880.1 1083.35 860.45 1086.25 835.95 1085.95 820.8 1085.75 812.3 1083.75 799.15 1080.65 782.6 1070.3 791.4 1071.5 802.6 1071.45 813.15 1071.45 826.4 1070.55 834.3 1070 850.15 1068.55 861.95 1067.55 868.45 1066.75 878.55 1065.55 886.65 1063.9 921.3 1056.75 951.5 1034.8 974.4 1018.15 991.35 995.6 992.7 994.5 994.05 993.35
M 763.95 1054.95
Q 763.5 1054.4 763.1 1053.85 767.4 1053.9 775.55 1052.95 824 1047.35 861.55 1041.6 883.6 1038.25 898.45 1035.15 918.45 1031 934.7 1025.5 940.35 1023.6 945.75 1021.45 935.35 1029.55 925.9 1035 900.6 1049.5 865.6 1054.85 842.15 1058.4 801.7 1058.8 791.65 1058.9 785.95 1058.6 777.25 1058.15 770.35 1056.7 766.95 1055.95 763.95 1054.95
M 883.3 974.35
Q 884.2 975.05 886 975.8 889.5 977.25 891.5 976.35 892.55 975.85 893.9 974.35 895.1 973 895.6 971.75 896.05 970.45 895.95 969 895.8 966.2 893.9 963.9 891.95 961.7 889.4 961.3
L 889.4 961.85
Q 885.85 961.4 883.4 963.65 882.15 964.75 881.5 966.4 880.8 968.1 880.95 969.8 881.2 972.6 883.3 974.35
M 445.25 1081.8
Q 443.4 1083.05 442.25 1084.45 440.35 1086.85 439.55 1090.75 439.05 1093.2 438.8 1097.9
L 434.65 1184.1
Q 434 1197.35 433.85 1204.05 433.6 1215.15 434.15 1224 434.5 1229.95 435.25 1234 436.25 1239.45 438.15 1243.5 440.4 1248.2 444 1251.25 447.9 1254.55 452.2 1254.9 456 1255.2 460.45 1253.2 463.3 1251.9 468.1 1248.7 489.8 1234.2 511.55 1219.95 512.5 1221.25 513.7 1222.45 516.15 1225 519.65 1227.35 522.05 1228.95 526.25 1231.15 544.05 1240.65 557.95 1243.9 575.95 1248.15 590.4 1242.85 598.55 1239.9 608.4 1232.6 634.7 1212.9 657 1177.3 671.35 1154.2 677.25 1134.7 681.15 1121.7 681.9 1109.5 684.7 1106.25 686.2 1102.65 689.15 1095.45 686.95 1086.85 684.9 1078.8 679.3 1072.75 674.5 1067.55 667.1 1063.7 661.7 1060.95 653.1 1058.05 608.75 1043.4 561.6 1046.1 514.5 1048.8 471.7 1068.4 463.95 1071.95 448.75 1079.8 446.4 1081.05 445.25 1081.8
M 455.4 1104.3
Q 463.35 1103.85 473.45 1100.85 476.15 1100.05 491.15 1094.95 532.15 1081 570.3 1079.7 612.95 1078.25 648.75 1092.85 629.6 1105.9 600.6 1123.6 584.35 1133.45 551.85 1153.2 493.4 1189.4 459.4 1220.5 458.2 1221.75 457.25 1221.4 456.25 1221 456.15 1218.8
L 455.65 1208.35
Q 455.15 1194.25 456.1 1156.25 456.9 1123.4 455.4 1104.3
M 607.25 1207.5
Q 595.6 1215.45 585.5 1217.8 563 1223 535.1 1204.55 600.15 1162.15 665.8 1121.4 665.05 1124.15 664.2 1126.85 659.65 1141.15 650.95 1157.05 643.15 1171.2 635.2 1181.25 623.15 1196.6 607.25 1207.5
M 660.4 789.25
Q 660.2 782.6 658.35 777.55 656.25 771.75 651.75 768 647 764.1 641.8 764.6 637.6 765 633.9 768.35 630.5 771.45 628.45 776.1 626.7 780.05 625.75 785.4 625.15 788.55 624.45 795.1
L 622.25 816.25
Q 621.85 820.05 621.3 822.15 620.45 825.35 618.75 827.15 617.3 828.75 614.85 829.7 613.3 830.25 610.35 830.85 571.9 838.5 516.65 840.4 453.65 841.4 422.2 842.65 414.45 842.95 410.4 843.45 403.9 844.3 398.9 846.15 392 848.65 390.5 853.45 389.5 856.55 390.95 860 392.3 863.25 395.1 865.2 397.45 866.9 400.85 867.75 403.2 868.4 407.05 868.7 421.05 870.2 444.55 871.05 456.35 871.45 467.25 871.7 438.6 876.9 416.45 884.65 383.25 896.1 358.7 914.75 354.4 918.1 352.25 921.05 349.2 925 349.35 929.25 330.55 949.75 314.2 972.55 307.45 981.95 304.7 989.4 300.95 999.5 303.6 1007.7 306.45 1016.35 315.6 1021.05 318.85 1022.65 322.55 1023.7 334.35 1037.6 355.7 1047.7 376.7 1057.6 397.75 1060.8 420.4 1064.2 441.05 1059.4 464.55 1053.9 489.55 1036.5 506.8 1024.45 532.3 1000.6 545.35 988.4 552.4 980.6 562.95 969 569.55 957.8 576.05 946.7 580 934.05
L 580.05 934.45
Q 583.65 953.5 584.45 963.95 584.85 968.5 585.15 980.35
L 585.55 1001.85
Q 585.75 1009.8 585.3 1013.7 585.15 1015.25 584.7 1018.25 584.4 1020.9 584.55 1022.8 584.6 1023.2 585.3 1027.55 585.8 1030.45 585.45 1032.3 585.1 1034.05 585.2 1034.55 585.3 1035.15 585.8 1035.5 586.3 1035.8 586.75 1035.5
L 590.65 1019.1
Q 592.25 1012.5 592.7 1008.95 593.3 1004.55 593.4 995.5 593.6 986.4 593.65 981.85 593.75 974 593.45 968.25 593.05 960.55 592.05 953.5 591.2 947.25 588.5 934.1 595 948.7 602 966.2 607.7 980.45 618.9 1009.95 620.45 1010.8 621.45 1008.7 622.4 1006.75 622.2 1004.45 619.3 974.45 607.5 946.6 598.35 925.1 584.95 907.25 584.95 906.75 585 906.25 585.3 900.8 584.1 896.85 583.2 893.9 581.6 892.3 580.65 890.8 579 890.2 577.7 889.7 576.4 889.95 576.25 889.55 576.1 889.2 572.6 880.45 560.15 874.6 554.9 872.15 549.1 870.45 582.75 868.1 611.6 862.5 620.45 860.8 625.8 858.95 633.45 856.35 638.8 852.2 648.55 844.6 653.95 829.8 658.2 818.1 659.85 801.35 660.6 794.1 660.4 789.25
M 507.15 890.55
Q 516.85 889.75 524.5 890.25 544.3 891.55 557.5 901.2 541.1 920.9 514.65 937.25 498.3 947.35 465.25 962.85 421.75 983.3 398.65 991.3 360.8 1004.4 329.2 1004.9 322.85 1005 319.6 1003.6 317.2 1002.55 315.55 1000.55 313.75 998.4 313.45 995.8 313.2 993.7 314 991.15 314.55 989.45 315.95 986.7 322.25 974.75 331.55 962.3 339.05 952.25 349.85 940.15 353.7 935.9 356.1 933.5 359.75 930 363.1 927.9 367.15 925.3 373.05 923.3 374.55 922.8 383.55 920.15 392.25 917.6 412.2 910.5 430.6 903.95 441 901.15 451.65 898.35 465.25 896.05 473.35 894.75 489.8 892.55 501.55 891 507.15 890.55
M 508.4 975.5
Q 500.1 982.55 488.8 989.65 481.85 994.1 468.1 1001.8 459.75 1006.6 455 1008.95 447.7 1012.7 441.45 1014.8 429.25 1019 411.1 1020.3 391.5 1021.7 372.1 1020.45 381.95 1017.75 395.1 1013.3 421.95 1004.1 447.8 993.25 481.35 979.35 506.2 965.3 521 956.9 534.05 947.9 521.15 964.7 508.4 975.5
M 551.2 954.85
Q 543.5 969.75 532.75 981.95 527.3 988.15 519.85 995 514.95 999.5 506.1 1006.95 493.05 1018.05 485.8 1023.6 474.25 1032.4 464.1 1037.8 431.75 1055.05 394.25 1049.55 363.55 1045.05 339.8 1026.75 345.95 1027.7 355.65 1028.9 379.05 1031.75 392.45 1032.45 412.8 1033.5 429.25 1031.25 472.15 1025.4 511 995.05 533.1 977.8 551.2 954.85
M 424.5 934.45
Q 423.5 937.45 424.1 940.15 424.65 942.7 426.6 944.6 428.5 946.45 430.85 946.65 433.25 946.95 435.45 945.55 437.65 944.15 438.65 941.7 439.7 939.35 439.3 936.55 438.9 933.85 437.3 931.9 435.1 929.2 431.75 929 431.8 929.75 430.55 929.55 428 929.3 426.15 931.35 425.1 932.55 424.5 934.45
M 678.7 765.1
Q 677.15 764.4 676.05 765.35 675.25 766.1 674.65 768.2
L 652.8 846.1
Q 651.85 849.5 652.05 852.2 652.35 855.55 654.55 856.6 656.8 857.65 659.2 855.45 661.1 853.6 662.5 850.35 669.5 834 674.25 812.8 677.8 797.15 681.1 773.5 681.7 769.25 680.85 767.2 680.2 765.7 678.7 765.1 Z"/>

<path fill="#FFFFCC" stroke="none" d="
M 676.3 668.1
Q 663.6 665.75 652.95 664.95 633.35 663.35 608.55 665.95 528.85 674.55 456.65 719.95 385.1 765 336.25 836.5 297.6 893.05 282.9 952 267.9 1011.85 277.8 1075.05 287.65 1138.25 319.9 1189.1 341.4 1223 372.6 1251 401.75 1277.15 437.7 1296.8 470.5 1314.65 509.5 1327.45 543.85 1338.75 584.7 1346.6 638.05 1357 680 1356.6 730.3 1356.15 782.05 1340.95 830.85 1326.7 878.6 1300 961.45 1253.75 1006.6 1188.4 1029 1155.85 1044.25 1115.55 1058.55 1077.7 1065.9 1034.75 1068.65 1018.85 1069.7 1005.8 1070.95 990.2 1069.95 976.6 1068.05 950.95 1057.45 922.05 1041.65 879 1011.75 840.85 984.05 805.5 946.55 777.25 912.9 751.8 870.45 731.35 834.45 714 788.65 698.6 745 683.95 699.4 673.1 685.55 669.8 676.3 668.1
M 676.05 765.35
Q 677.15 764.4 678.7 765.1 680.2 765.7 680.85 767.2 681.7 769.25 681.1 773.5 677.8 797.15 674.25 812.8 669.5 834 662.5 850.35 661.1 853.6 659.2 855.45 656.8 857.65 654.55 856.6 652.35 855.55 652.05 852.2 651.85 849.5 652.8 846.1
L 674.65 768.2
Q 675.25 766.1 676.05 765.35
M 658.35 777.55
Q 660.2 782.6 660.4 789.25 660.6 794.1 659.85 801.35 658.2 818.1 653.95 829.8 648.55 844.6 638.8 852.2 633.45 856.35 625.8 858.95 620.45 860.8 611.6 862.5 582.75 868.1 549.1 870.45 554.9 872.15 560.15 874.6 572.6 880.45 576.1 889.2 576.25 889.55 576.4 889.95 577.7 889.7 579 890.2 580.65 890.8 581.6 892.3 583.2 893.9 584.1 896.85 585.3 900.8 585 906.25 584.95 906.75 584.95 907.25 598.35 925.1 607.5 946.6 619.3 974.45 622.2 1004.45 622.4 1006.75 621.45 1008.7 620.45 1010.8 618.9 1009.95 607.7 980.45 602 966.2 595 948.7 588.5 934.1 591.2 947.25 592.05 953.5 593.05 960.55 593.45 968.25 593.75 974 593.65 981.85 593.6 986.4 593.4 995.5 593.3 1004.55 592.7 1008.95 592.25 1012.5 590.65 1019.1
L 586.75 1035.5
Q 586.3 1035.8 585.8 1035.5 585.3 1035.15 585.2 1034.55 585.1 1034.05 585.45 1032.3 585.8 1030.45 585.3 1027.55 584.6 1023.2 584.55 1022.8 584.4 1020.9 584.7 1018.25 585.15 1015.25 585.3 1013.7 585.75 1009.8 585.55 1001.85
L 585.15 980.35
Q 584.85 968.5 584.45 963.95 583.65 953.5 580.05 934.45
L 580 934.05
Q 576.05 946.7 569.55 957.8 562.95 969 552.4 980.6 545.35 988.4 532.3 1000.6 506.8 1024.45 489.55 1036.5 464.55 1053.9 441.05 1059.4 420.4 1064.2 397.75 1060.8 376.7 1057.6 355.7 1047.7 334.35 1037.6 322.55 1023.7 318.85 1022.65 315.6 1021.05 306.45 1016.35 303.6 1007.7 300.95 999.5 304.7 989.4 307.45 981.95 314.2 972.55 330.55 949.75 349.35 929.25 349.2 925 352.25 921.05 354.4 918.1 358.7 914.75 383.25 896.1 416.45 884.65 438.6 876.9 467.25 871.7 456.35 871.45 444.55 871.05 421.05 870.2 407.05 868.7 403.2 868.4 400.85 867.75 397.45 866.9 395.1 865.2 392.3 863.25 390.95 860 389.5 856.55 390.5 853.45 392 848.65 398.9 846.15 403.9 844.3 410.4 843.45 414.45 842.95 422.2 842.65 453.65 841.4 516.65 840.4 571.9 838.5 610.35 830.85 613.3 830.25 614.85 829.7 617.3 828.75 618.75 827.15 620.45 825.35 621.3 822.15 621.85 820.05 622.25 816.25
L 624.45 795.1
Q 625.15 788.55 625.75 785.4 626.7 780.05 628.45 776.1 630.5 771.45 633.9 768.35 637.6 765 641.8 764.6 647 764.1 651.75 768 656.25 771.75 658.35 777.55
M 442.25 1084.45
Q 443.4 1083.05 445.25 1081.8 446.4 1081.05 448.75 1079.8 463.95 1071.95 471.7 1068.4 514.5 1048.8 561.6 1046.1 608.75 1043.4 653.1 1058.05 661.7 1060.95 667.1 1063.7 674.5 1067.55 679.3 1072.75 684.9 1078.8 686.95 1086.85 689.15 1095.45 686.2 1102.65 684.7 1106.25 681.9 1109.5 681.15 1121.7 677.25 1134.7 671.35 1154.2 657 1177.3 634.7 1212.9 608.4 1232.6 598.55 1239.9 590.4 1242.85 575.95 1248.15 557.95 1243.9 544.05 1240.65 526.25 1231.15 522.05 1228.95 519.65 1227.35 516.15 1225 513.7 1222.45 512.5 1221.25 511.55 1219.95 489.8 1234.2 468.1 1248.7 463.3 1251.9 460.45 1253.2 456 1255.2 452.2 1254.9 447.9 1254.55 444 1251.25 440.4 1248.2 438.15 1243.5 436.25 1239.45 435.25 1234 434.5 1229.95 434.15 1224 433.6 1215.15 433.85 1204.05 434 1197.35 434.65 1184.1
L 438.8 1097.9
Q 439.05 1093.2 439.55 1090.75 440.35 1086.85 442.25 1084.45
M 985.2 917.6
Q 997.95 921.25 1005.95 927.6 1010.8 931.4 1014 936.25 1017.55 941.55 1018.65 947.4 1020.65 958.1 1014.75 969.5 1012.5 973.95 1009.2 978.25 1008.4 992.15 1001.05 1008.8 989.45 1035.45 969.35 1055.8 949.2 1076.15 924.25 1086.5 906.35 1093.9 883.25 1097.1 867.05 1099.35 840.9 1100.15 832.85 1100.4 828.45 1100.3 821.55 1100.1 816 1099.15 793.6 1095.3 771.6 1076.05 764.45 1069.8 759.75 1063.8 757.2 1062.55 754.85 1061.1 749.3 1057.75 745.75 1053.7 750.7 1070.65 759.3 1089.1 767.4 1106.5 785.6 1138.05 784.25 1140.1 781.45 1139.1 779.05 1138.25 777 1135.85 759.7 1115.8 748.85 1090.25 742.1 1074.35 738.35 1057.75 738.45 1059.8 738.6 1061.9 739.35 1071.5 742.55 1089.2
L 750.85 1135.75
Q 747.45 1133.55 745.1 1128.75 743.6 1125.7 741.8 1119.6 734.05 1092.5 731.75 1077.3 728.1 1053.45 732.35 1034.7 733.25 1030.7 734.85 1029.1 735.45 1028.5 736.2 1028.2 736.65 1025.75 737.7 1023.2 739.1 1019.8 742 1015.3 761.15 985.05 792.65 964.4 821.75 945.35 857.25 936.85 862 935.75 871.45 933.5 879.5 931.4 885.2 928.8 889 927.1 902.1 918.8 807.55 939.25 710.15 941.95 704 942.1 700.65 941.9 695.4 941.55 691.35 940.2 686.55 938.6 682.9 935.4 678.9 931.9 677.25 927.25 675 920.9 677.15 912.75 678.65 906.9 682.95 898.85 687.35 890.45 691 885.25 695.9 878.25 701.3 874 704 871.85 706.65 871.25 709.8 870.6 711.8 872.5 715.3 875.85 712.25 884.75
L 703.5 910.55
Q 756.15 911.2 815.5 899.35 865.1 889.4 925.1 869.4 932.55 866.9 936.1 865.95 942.3 864.35 947.3 864.1 953.35 863.9 958.65 865.7 964.45 867.7 968.35 871.85 972.55 876.4 973.75 882.9 974.95 889.65 972.05 894.9 969.5 899.55 963.95 902.5 960.25 904.45 953.4 906.35 949.45 907.4 945.5 908.45 949.55 909.3 962.6 912.3 970.1 914.1 985.2 917.6
M 676.1 859.9
Q 679.8 860.55 680.65 863.95 681.2 866.15 680.1 868.9 679.5 870.4 677.6 873.5 672.1 882.45 668.35 896.25 667.6 898.95 662.7 920.75 661.15 927.6 659.6 931.65 657.35 937.45 654.05 941 650.55 939.4 650.75 931.75 651.35 915 655.25 898.65 659.2 882.3 666.2 867.5 668.1 863.35 669.95 861.6 672.5 859.2 676.1 859.9
M 806.55 655.4
Q 800.9 656.05 797.6 656.45 816.15 663 832.95 669.55 835.95 669.5 839.5 669.55 864.5 670.05 870.05 670 887.35 669.75 900.45 667.7 935.25 662.15 956 641.9 961.25 636.75 961.2 632.25 961.1 626.55 953.8 622.25 946.05 617.8 935.6 616.15 927.95 614.95 916.3 615.1 872.65 615.65 830 627.9 810.6 633.5 792.05 641.3 808.6 638.7 831.7 637.25 849.7 636.15 860.35 637.2 876.05 638.8 887.45 645.3 886.5 647.25 884.05 647.75 882.4 648.05 879.45 647.8 870.85 647.05 857.35 649.55 839.1 653 835.25 653.35 832.45 653.55 827.7 653.8 822.1 654 820.1 654.1 814.7 654.4 806.55 655.4
M 848.8 489.55
Q 850.05 490.35 849.75 492.45 849.45 494.15 848.35 495.9 842.95 504.45 839.85 508.35 837.1 511.8 832.6 516.55
L 825 524.35
Q 819.45 530.4 811.05 541.4 796.8 559.95 780.1 583.95 769.55 599.05 750.3 627.5 749.75 628.3 749.2 629.15 789.45 610.2 823.15 578.65 832.3 570.05 838.15 563.25 848.65 551 856.45 536.45 864.25 521.8 868.9 505.75 871.3 497.5 871.55 491.25 871.85 483.05 868.65 477.4 865.8 472.35 860.35 469.65 855.25 467.1 849.4 467.2 840.35 467.45 828.25 474.4 811.65 484.05 797.15 499.5 783.55 514 772.6 532.6 753.9 564.45 742 611 740.2 617.85 739.45 622.35 738.45 628.5 738.7 633.6 741.2 628.25 744.7 618.95 748.95 607.65 751.5 602.4 753.7 597.85 757.6 591.3 768.55 572.6 775.5 561.75 785.7 545.8 795.25 533.85 819.1 504.05 845.2 490 847.65 488.85 848.8 489.55
M 1442.35 1542.55
Q 1440.15 1540.5 1438.05 1539.9 1435.25 1539.15 1431.9 1540.55 1429.65 1541.5 1426.15 1544.05 1396.55 1565.4 1378.75 1574.15 1351.1 1587.65 1327.05 1586.15 1296.95 1584.25 1268.1 1559.3 1245.35 1539.7 1222.8 1505 1198.75 1530.55 1179.55 1543.55 1153.6 1561.2 1128.7 1562.55 1100.65 1564.05 1070.6 1545.25 1048.35 1531.25 1020.85 1502.75 999.5 1480.5 979.75 1457.25 967.7 1473.05 960.3 1480.45 948.55 1492.15 936.6 1496.55 922.4 1501.85 906.3 1498 891.2 1494.4 878.25 1483.8 856.7 1466.25 841.35 1429.65 829.75 1402.1 824.35 1372.2 803.3 1379.95 782 1385.5 720.6 1401.55 661.4 1398.15 636.35 1396.7 608.45 1391.55 584.55 1387.1 556.25 1379.45 548.9 1377.45 541.85 1375.45 543.7 1418.7 551.5 1461.75 559.55 1506.1 572.5 1538 589.65 1580.05 620.85 1616.15 649.95 1649.75 688.45 1675.1 723.4 1698 766.55 1714.5 803.95 1728.8 849.75 1739.05 934.65 1758.1 1020.35 1757.9 1107.45 1757.7 1190.7 1737.65 1275.2 1717.35 1353.15 1677.1 1432.15 1636.25 1499.1 1577.75 1507.85 1570.1 1516.3 1562.2 1502.55 1568.75 1485.85 1567.15 1461.45 1564.75 1445.95 1546.55 1443.25 1543.45 1442.35 1542.55 Z"/>

<path fill="#6666CC" stroke="none" d="
M 763.1 1053.85
Q 763.5 1054.4 763.95 1054.95 766.95 1055.95 770.35 1056.7 777.25 1058.15 785.95 1058.6 791.65 1058.9 801.7 1058.8 842.15 1058.4 865.6 1054.85 900.6 1049.5 925.9 1035 935.35 1029.55 945.75 1021.45 940.35 1023.6 934.7 1025.5 918.45 1031 898.45 1035.15 883.6 1038.25 861.55 1041.6 824 1047.35 775.55 1052.95 767.4 1053.9 763.1 1053.85
M 988.15 1009.4
Q 991 1002.9 994.05 993.35 992.7 994.5 991.35 995.6 974.4 1018.15 951.5 1034.8 921.3 1056.75 886.65 1063.9 878.55 1065.55 868.45 1066.75 861.95 1067.55 850.15 1068.55 834.3 1070 826.4 1070.55 813.15 1071.45 802.6 1071.45 791.4 1071.5 782.6 1070.3 799.15 1080.65 812.3 1083.75 820.8 1085.75 835.95 1085.95 860.45 1086.25 880.1 1083.35 903.55 1080 922.8 1071.75 944.35 1062.65 960.95 1047.25 978.85 1030.65 988.15 1009.4
M 532.75 981.95
Q 543.5 969.75 551.2 954.85 533.1 977.8 511 995.05 472.15 1025.4 429.25 1031.25 412.8 1033.5 392.45 1032.45 379.05 1031.75 355.65 1028.9 345.95 1027.7 339.8 1026.75 363.55 1045.05 394.25 1049.55 431.75 1055.05 464.1 1037.8 474.25 1032.4 485.8 1023.6 493.05 1018.05 506.1 1006.95 514.95 999.5 519.85 995 527.3 988.15 532.75 981.95
M 488.8 989.65
Q 500.1 982.55 508.4 975.5 521.15 964.7 534.05 947.9 521 956.9 506.2 965.3 481.35 979.35 447.8 993.25 421.95 1004.1 395.1 1013.3 381.95 1017.75 372.1 1020.45 391.5 1021.7 411.1 1020.3 429.25 1019 441.45 1014.8 447.7 1012.7 455 1008.95 459.75 1006.6 468.1 1001.8 481.85 994.1 488.8 989.65 Z"/>

<path fill="#FFFFFF" stroke="none" d="
M 1000.2 965.15
Q 1001.8 961.8 1001.85 958.2 1001.9 954.25 1000.15 951.45 998.6 949 995.65 947.35 993.55 946.2 989.95 945.05 965.6 937.05 940.5 932.95 933.75 931.8 929.75 932.35 927.4 932.7 924.35 933.75 920.85 935.05 919.05 935.7 913.55 937.6 906.2 939.05 903 939.75 893.1 941.3 866.05 945.55 847.55 951.25 823.2 958.8 805.1 971 799.5 974.8 792.9 980.15 788.9 983.4 781.1 990.1 767.7 1001.6 761.35 1009.15 751.45 1020.9 748.35 1033.2 753.95 1036.2 761.75 1036.15 766.65 1036.15 775.7 1034.55 814.55 1027.85 851.85 1022.45 879.5 1018.5 888.45 1016.95 908.95 1013.45 924.6 1009.05 965.15 997.75 991.3 975.5 992.5 974.5 993.55 973.55 994.85 971.75 996.15 970.8 996.4 970.65 996.65 970.5 998.9 967.9 1000.2 965.15
M 886 975.8
Q 884.2 975.05 883.3 974.35 881.2 972.6 880.95 969.8 880.8 968.1 881.5 966.4 882.15 964.75 883.4 963.65 885.85 961.4 889.4 961.85
L 889.4 961.3
Q 891.95 961.7 893.9 963.9 895.8 966.2 895.95 969 896.05 970.45 895.6 971.75 895.1 973 893.9 974.35 892.55 975.85 891.5 976.35 889.5 977.25 886 975.8
M 524.5 890.25
Q 516.85 889.75 507.15 890.55 501.55 891 489.8 892.55 473.35 894.75 465.25 896.05 451.65 898.35 441 901.15 430.6 903.95 412.2 910.5 392.25 917.6 383.55 920.15 374.55 922.8 373.05 923.3 367.15 925.3 363.1 927.9 359.75 930 356.1 933.5 353.7 935.9 349.85 940.15 339.05 952.25 331.55 962.3 322.25 974.75 315.95 986.7 314.55 989.45 314 991.15 313.2 993.7 313.45 995.8 313.75 998.4 315.55 1000.55 317.2 1002.55 319.6 1003.6 322.85 1005 329.2 1004.9 360.8 1004.4 398.65 991.3 421.75 983.3 465.25 962.85 498.3 947.35 514.65 937.25 541.1 920.9 557.5 901.2 544.3 891.55 524.5 890.25
M 424.1 940.15
Q 423.5 937.45 424.5 934.45 425.1 932.55 426.15 931.35 428 929.3 430.55 929.55 431.8 929.75 431.75 929 435.1 929.2 437.3 931.9 438.9 933.85 439.3 936.55 439.7 939.35 438.65 941.7 437.65 944.15 435.45 945.55 433.25 946.95 430.85 946.65 428.5 946.45 426.6 944.6 424.65 942.7 424.1 940.15 Z"/>

<path fill="#FF9933" stroke="none" d="
M 585.5 1217.8
Q 595.6 1215.45 607.25 1207.5 623.15 1196.6 635.2 1181.25 643.15 1171.2 650.95 1157.05 659.65 1141.15 664.2 1126.85 665.05 1124.15 665.8 1121.4 600.15 1162.15 535.1 1204.55 563 1223 585.5 1217.8
M 473.45 1100.85
Q 463.35 1103.85 455.4 1104.3 456.9 1123.4 456.1 1156.25 455.15 1194.25 455.65 1208.35
L 456.15 1218.8
Q 456.25 1221 457.25 1221.4 458.2 1221.75 459.4 1220.5 493.4 1189.4 551.85 1153.2 584.35 1133.45 600.6 1123.6 629.6 1105.9 648.75 1092.85 612.95 1078.25 570.3 1079.7 532.15 1081 491.15 1094.95 476.15 1100.05 473.45 1100.85
M 1017.75 1798.75
Q 1017.9 1796.7 1018.1 1794.9 997.8 1794.95 977.6 1794
L 983.6 1948.6
Q 983.85 1954.35 983.6 1957.55 983.2 1962.45 981.6 1966 979.35 1970.9 974.35 1974.35 971 1976.7 964.25 1979.4 956.15 1982.7 953.55 1984.05 947.85 1987.2 944.75 1991.3 954.85 1988.05 964.5 1995.45 974.15 2002.8 974.95 2014.4
L 1032.1 1988.6
Q 1027.85 1979 1025.2 1966.5 1023.3 1957.4 1021.6 1943.2 1013 1871.5 1017.75 1798.75
M 1084.2 1841.5
Q 1080.3 1815.15 1078.55 1792.1 1064.65 1793.3 1050.8 1794 1050.65 1797.6 1050 1803.2 1047.25 1828.05 1048.2 1859.3 1048.8 1878.45 1051.65 1915.5 1053.15 1934.9 1054.75 1944.95 1057.3 1961.2 1062.35 1973.1 1064.1 1977.2 1067.6 1985.5 1068.35 1987.75 1068.85 1989.85 1069.8 1990.25 1070.95 1990.75 1094.05 2000.95 1118.9 2002.7 1107.6 1991.4 1109.2 1980.75 1110.2 1974.4 1115.6 1969.75 1120.3 1965.7 1126.95 1963.95 1128.9 1963.45 1139.15 1961.6 1146.6 1960.35 1151.05 1958.15
L 1122.55 1940.3
Q 1115.5 1935.85 1112 1933.15 1106.45 1928.75 1103.1 1923.9 1099.6 1918.75 1097.3 1911.1 1095.85 1906.35 1094 1897 1087.7 1864.85 1084.2 1841.5 Z"/>

<path fill="#663333" stroke="none" d="
M 1731.65 1159.55
Q 1718.85 1157.6 1702.25 1157.7 1694.45 1157.7 1672.75 1158.7 1530.95 1165.35 1389.1 1152.1 1247.3 1138.9 1108.45 1106.05 1099.15 1103.85 1093.7 1100.55 1092.6 1099.9 1091.6 1099.15 1078.9 1140.6 1063.5 1171.35 1036.9 1224.3 991.35 1268.45 950.2 1308.4 896.1 1338.8 865.65 1355.95 834.55 1368.25 840.1 1391.15 846.45 1407.9 859.7 1443.05 880.4 1464.4 898.6 1483.2 916.5 1483.75 931.1 1484.25 945.7 1472.65 956.85 1463.85 968.8 1447.1 971.4 1443.5 972.9 1441.95 975.45 1439.35 978.1 1438.65 982.1 1437.65 986.55 1440.65 989.75 1442.8 993.7 1447.55 1023.95 1483.65 1024.15 1483.9 1042.05 1504.15 1057.65 1516.45 1077.2 1531.75 1097.85 1538.4 1120.9 1545.8 1141.65 1541 1171.95 1534.1 1201.15 1500.05 1208.7 1491.25 1213.8 1487.65 1221.7 1482.1 1228.7 1484.35 1232.45 1485.6 1236.1 1489.3 1238.3 1491.65 1241.95 1496.75 1260.8 1523.35 1275.5 1537.15 1296.3 1556.65 1318 1561 1342.1 1565.75 1370.2 1552.5 1389.85 1543.25 1417.7 1521.15 1424.95 1515.45 1429.5 1513.25 1436.45 1509.9 1442.35 1511.4 1447.95 1512.85 1453.8 1519.45 1457.1 1523.15 1463.55 1530.95 1472.55 1540.1 1485.45 1541.75 1498.35 1543.4 1508.9 1536.7 1520 1529.65 1522.6 1528.55 1530.65 1525.2 1535.1 1530.15 1535.3 1530.35 1535.45 1530.6 1537.6 1531.15 1539.8 1531.65 1542.85 1532.3 1544.2 1532.85 1544.85 1533.15 1545.4 1533.45 1606.3 1469.7 1650.55 1391.7 1713.45 1280.8 1731.65 1159.55 Z"/>
</g>

<g id="Layer0_0_FILL">
<path fill="#000000" fill-opacity="0.2" stroke="none" d="
M 1047.55 1972.5
Q 1047.5197265625 1972.6822265625 1047.5 1972.85 1045.43828125 1968.6794921875 1041 1967.2 1037.6 1966.05 1033.15 1966.95 1030.35 1967.45 1025.35 1969.35 1004.5 1977.3 994.6 1981.55 977.7 1988.75 965 1996.15 961.45 1998.25 959.35 1999.8 956.45 2002 954.6 2004.4 952.5 2007.2 951.85 2010.5 951.15 2014.05 952.5 2016.95 954.05 2020.4 957.95 2022.2 961.6 2023.9 965.75 2023.55 969.25 2023.3 973.35 2021.65 975.65 2020.75 980.55 2018.3 1005.45 2005.9 1030.85 1997.35 1036.35 1995.55 1038.9 1994.3 1043.2 1992.25 1045.75 1989.4 1048.9205078125 1985.8462890625 1049.15 1981.15 1052.2697265625 1986.55703125 1060.95 1990.85 1067.55 1994.05 1078.55 1997.4 1093.8 2002 1096.6 2003 1099.55 2004.05 1105.4 2006.1 1110.5 2007.65 1114.5 2007.7 1119.45 2007.75 1123.55 2005.35 1128 2002.75 1129.2 1998.5 1130.15 1995.05 1128.8 1991.25 1127.5 1987.8 1124.65 1985.05 1122.2 1982.75 1118.55 1980.9 1116 1979.6 1111.65 1977.95 1088.15 1969.15 1063.8 1964.9 1059.9 1964.2 1057.45 1964.25 1053.9 1964.35 1051.55 1965.9 1048.25 1968.1 1047.55 1972.5
M 1042.95 1779.8
Q 1042.4 1779.9 1032.9 1781.9 1026.9 1783.15 1022.85 1783.6 1016.2 1784.3 1003.85 1783.8
L 981.3 1783
Q 977.25 1782.85 975.2 1782.9 971.85 1783 969.2 1783.65 966.05 1784.35 963.55 1785.95 960.8 1787.7 959.35 1790.2 957.4 1793.5 957.8 1797.7 958.15 1801.65 960.45 1805 964.45 1810.85 973.15 1813.75 976.35 1814.8 980.8 1815.55 980.95 1815.6 988.55 1816.75 992.95 1817.4 1001.7 1818.9 1009.55 1820.2 1014.9 1820.6 1028.05 1821.6 1046.85 1819 1057.45 1817.5 1078.7 1814.2 1087.8 1813.05 1091.55 1812.05 1098.55 1810.2 1102.5 1806.15 1105.1 1803.55 1106.45 1799.95 1107.8 1796.4 1107.6 1792.7 1107.4 1789 1105.7 1785.6 1104 1782.2 1101.1 1779.85 1096.1 1775.75 1088 1775.1 1082.65 1774.65 1073.35 1775.75
L 1059.15 1777.5
Q 1048.2 1778.8 1042.95 1779.8
M 1372.3 1562.65
Q 1357 1569.75 1345.15 1571.55 1329.25 1574 1312.15 1569 1296.45 1564.4 1282.05 1554.2 1269.5 1545.35 1257.2 1531.9 1250.741015625 1524.8630859375 1243.3 1515.3 1242.77578125 1507.8662109375 1236 1502.35 1232.648828125 1499.660546875 1229.15 1498.55 1226.500390625 1496.788671875 1223.75 1496.75 1220.4623046875 1496.6736328125 1217.85 1498.9 1213.56796875 1500.523828125 1209.15 1504.4 1208.35 1505.1 1200.35 1513.25 1181.5 1532.65 1154.4 1540.5 1127.3 1548.35 1101 1542.05 1070.65 1534.8 1041.45 1508.9 1030.05 1498.8 1017.3 1484.4 1010.1 1476.3 995.05 1458.1 991.9107421875 1454.293359375 988.95 1451.9 987.2263671875 1449.7779296875 984.85 1448.3 980.9 1445.8 975.9 1445.55 971 1445.25 966.6 1447.2 962.1 1449.2 957.4 1453.95 954.7 1456.75 949.6 1462.65 942.8 1470.05 935 1475.1 926.5 1480.55 917.5 1482.75 907.9 1485.1 898.35 1483.5 888.35 1481.85 880.85 1476.25 877.05 1473.4 873.15 1468.95 870.65 1466.05 866.6 1460.55 856.5 1447 851.35 1438.7 843.6 1426.2 839.85 1414.9 838.246484375 1410.1337890625 836.9 1404.15 843.0466796875 1402.08828125 849.05 1399.8 883.15 1386.7 913.7 1367.25 995.4 1315.1 1058.2 1212.9 1077 1182.4 1087.85 1156.6 1101.15 1125 1104.85 1095.8 1106.45 1083.1 1103.6 1073.35 1100.15 1061.45 1090.8 1058.1 1082.8 1055.2 1074.15 1060.05 1066.15 1064.55 1061.8 1072.9 1058.4 1079.5 1056.45 1089.7 1055.3 1095.55 1053.5 1107.35 1050.6 1122.7 1043.2 1139.85 1039.369140625 1148.77734375 1033.5 1159.8 1030.087890625 1160.031640625 1026.65 1161.3 1022.35 1162.9 1017.55 1166.25 1014.85 1168.1 1009.35 1172.65 917.8 1247.35 801.05 1280.55 684.35 1313.75 567.2 1298.45 497.95 1289.35 445.9 1265.05 398.35 1242.8 352.9 1202.2 315.45 1168.7 275.75 1119.15 273.85 1116.8 272.6 1115.8 270.6 1114.2 268.55 1114.15 266 1114.1 264.1 1116.3 262.25 1118.4 262.05 1121.15 261.9 1123.5 262.85 1126.3 263.5 1128.25 265.05 1131.15 275.85 1151.9 294.2 1174.6 305.45 1188.6 329.05 1214.05 341.9 1228 349.25 1235.45 360.6 1247.1 370.5 1255.75 404.1072265625 1285.0234375 448.15 1304.55 449.9251953125 1306.4701171875 453.15 1309.05 510.75 1355.5 605.95 1371.7 651 1379.35 686.95 1377.3 713.4 1375.75 745.75 1368.3 765.2 1363.8 803.3 1352.75 839.25 1342.3 857.05 1336.4 877.6072265625 1329.6400390625 894.8 1322.6 867.65078125 1341.1357421875 838.45 1353 831.9142578125 1355.6556640625 825.05 1358.05 823.921484375 1357.186328125 822.55 1356.8 819.7 1356 816.75 1357.55 813.95 1359 812.25 1361.75 812.084375 1362.0224609375 811.9 1362.3 779.3142578125 1372.1052734375 740.5 1376.25 699.8 1380.65 638.8 1379.55 608.05 1379.05 589.95 1376.4 563.2 1372.55 543.75 1362.6 535.95 1358.6 532.15 1357.5 525.35 1355.6 520.65 1358.15 516.45 1360.45 514.85 1365.6 513.3 1370.45 514.75 1375.4 517.05 1383.2 526.45 1390.85 541.65 1403.3 564.35 1410.5 581 1415.8 606.9 1419.45 720.762890625 1435.540625 810.5 1412.1 812.894921875 1425.307421875 818.15 1436.25 821.25 1442.75 829.15 1454.85 843.7 1476.9 853.8 1489.35 859.05 1495.8 863.4 1499.95 868.95 1505.35 874.6 1508.65 887.95 1516.55 907.8 1516.45 930.45 1516.3 951.45 1505.95 967.3306640625 1498.123046875 979.15 1486 992.297265625 1507.7025390625 1013.9 1527.05 1036.35 1547.15 1069.6 1566 1077.05 1570.25 1082.3 1572.75 1089.4 1576.1 1095.7 1577.85 1102.85 1579.85 1111.8 1580.55 1118.15 1581.05 1128.2 1581 1149.2 1580.8 1162.45 1578.4 1183.45 1574.55 1202.25 1563.45 1216.9212890625 1554.8037109375 1228.4 1542.8 1232.7044921875 1549.680078125 1237 1554.8 1242.4 1561.2 1250.15 1567.8 1255.7 1572.45 1264.8 1579.1 1282.05 1591.75 1294.15 1597.95 1311.25 1606.65 1326.8 1607.95 1334.0966796875 1608.564453125 1342.25 1607.65 1287.0861328125 1632.35 1231.3 1649.7 1149.5 1675.15 1068.8 1684 984.3 1693.25 902.55 1684.05 817.55 1674.5 741.2 1645.55 700.65 1630.2 673.1 1612.55 640.65 1591.8 611.7 1559.45 586.5 1531.35 563.2 1493.6 560.75 1489.65 559.25 1487.8 556.8 1484.75 554.05 1483.3 550.8 1481.6 547.2 1482.35 543.35 1483.1 541.95 1486.15 541.1 1487.95 541.35 1490.45 541.5 1492.15 542.3 1494.85 551.35 1525.95 567.9 1554.15 584.45 1582.35 607.2 1605.35 599.95 1609.15 597.6 1618.25 595.4 1626.9 598.55 1635.2 601.3 1642.4 607.7 1649.25 612.25 1654.2 620.45 1660.6 641.35 1677 669.8 1694.25 686.55 1704.4 721.75 1723.95 746.3 1737.55 758.75 1743.75 779.65 1754.05 797.35 1759.9 820.95 1767.65 850.85 1771.4 872.05 1774.1 905.7 1775.6 949.25 1777.55 979.7 1777.05 1096.2 1775.3 1209.25 1741.3 1322.25 1707.3 1420.4 1644.45 1450 1625.5 1474.95 1605.9 1483.75 1599 1488.55 1594.05 1489.9521484375 1592.6072265625 1491.2 1591.15 1514.9125 1590.4482421875 1528.1 1579.65 1534.7 1574.25 1536.7 1567.75 1538 1563.45 1537.1 1558.85 1536.2 1554.25 1533.35 1550.7 1530.5 1547.2 1526.15 1545.4 1521.8 1543.6 1517.3 1544 1512.15 1544.5 1504 1549.1 1501.1689453125 1550.6884765625 1498.8 1551.85 1497.08515625 1548.8173828125 1494.45 1546.45 1489.2 1541.75 1481.2 1540.7 1473.95 1539.75 1466.4 1542.05 1461.162890625 1543.6126953125 1455.15 1546.9 1454.175390625 1546.321875 1453.2 1545.7 1452.9193359375 1543.7326171875 1452.15 1541.65 1449.3 1533.8 1442.2 1531.05 1437.95 1529.4 1432.85 1529.85 1428.3 1530.25 1423.6 1532.3 1419.85 1533.95 1415.3 1536.95 1414.8 1537.3 1407.4 1542.5 1390.45 1554.4 1372.3 1562.65
M 947.65 1278.3
Q 944.9984375 1280.969921875 942.3 1283.55 942.4857421875 1282.3486328125 942.55 1281.1 942.9419921875 1272.95390625 938.85 1267.3 951.335546875 1260.9259765625 963.65 1254 969.93359375 1250.48125 975.8 1247 962.2005859375 1263.6349609375 947.65 1278.3
M 645.55 1120.2
Q 643.35 1121.65 638 1124.9 618.3 1136.95 599.65 1149.35 584.1 1159.85 574.8 1167 568.3 1172.05 558.1 1180.5
L 542.85 1193.15
Q 539.55 1195.9 538.05 1197.55 535.55 1200.2 534.55 1202.9 533.35 1206.05 534.3 1209.35 535.35 1212.8 538.25 1213.95 542.55 1215.7 549.3 1210.9 556.65 1205.8 567.6 1196.85 582.2 1184.85 585.5 1182.3 595.75 1174.35 609.25 1165.45 617.35 1160.1 633.85 1149.8
L 651.75 1138.65
Q 658.8 1134.2 662 1132 667.65 1128.1 671.65 1124.5 676.05 1120.5 677.5 1117.1 678.5 1114.8 678.4 1112.4 678.35 1109.9 677.05 1108 675.1 1105.15 671.1 1104.65 667.35 1104.2 663.9 1105.85 661.2 1107.15 658 1109.95 656.2 1111.55 652.65 1114.9 649.7 1117.5 645.55 1120.2
M 544.3 892.9
Q 539.75 893.65 534.75 896.45 531.55 898.2 526.1 902.2 508.7 915 502.85 919.05 489.6 928.25 478.5 934 470.2 938.3 454.75 944.8 437.9 951.9 430.9 955.3 426.7 957.35 416.35 962.85 407.15 967.7 401.75 970.2 394.5 973.6 385.15 977 379.2 979.15 368.2 982.8
L 311.45 1001.75
Q 306.4 1003.45 306.6 1006.3 306.8 1008.6 310.45 1010.05 318.45 1013.3 329.1 1012.95 336.5 1012.7 348.3 1010.4 404.15 999.5 453.85 978.45 506.4 956.15 549.2 923.7 552.6 921.15 554.55 919.35 557.35 916.8 559.05 914.25 561.05 911.25 561.7 907.95 562.45 904.35 561.35 901.25 559.7 896.55 554.5 894.25 549.65 892.05 544.3 892.9
M 645.25 907.45
Q 643.8 917.1 645.05 924.6 646.65 933.8 652.35 939.1 655.45 942 659.45 942.9 663.75 943.85 666.95 941.8 670.3 939.6 671.5 934.55 672.2 931.75 672.45 925.15 673.3 905.85 682.7 888.85 686.8 881.45 687.4 880.1 689.65 874.95 689.3 870.75 688.85 865.95 685.15 862.3 681.4 858.65 676.6 858.3 670.05 857.85 664.1 863.3 659.3 867.7 655.5 875.2 647.85 890.7 645.25 907.45
M 667.45 763.35
Q 658.05 762.4 651.95 768.35 647.8 772.45 645.75 779.35 644.55 783.55 643.4 792.55 642.25 801.65 641.1 805.8 639.1 812.75 635.05 816.95 631.7 820.35 626.3 822.6 622.6 824.1 616.05 825.65 584.55 833.15 551.9 835.1 548.35 835.3 531.65 836 519.2 836.5 511.35 837.25 492.65 839.05 457.05 846.9 420.7 854.9 402.8 856.8 398.35 857.25 396.35 857.8 392.8 858.65 390.65 860.55 386.8 863.9 387.2 869.8 387.55 875.4 391.3 879.4 394.55 882.9 399.95 885.05 404 886.7 410.2 887.85 435.1 892.35 463.05 888.2 470.55 887.1 488.7 883.35 505 879.95 514.35 878.85 522.25 877.9 533.45 877.45 539.85 877.2 552.65 876.8 586.05 875.3 618.95 868.6 630.65 866.25 638.3 863.7 648.6 860.2 656 855 669.75 845.4 677.55 827.8 684.4 812.25 685.6 792.95 686 786.3 685.35 781.65 684.45 775.55 681.6 771.35 676.85 764.3 667.45 763.35
M 972.8 903.75
Q 975.15 897.8 973.4 891.3 971.65 884.7 966.65 880.75 962.05 877.1 955.4 876.15 949.4 875.35 942.9 876.85 937.75 878.05 931.2 880.95 923.7 884.55 919.95 886.3 900.95 895.2 875.6 901.7 860.1 905.7 829.45 911.5
L 791.65 918.65
Q 767.1 923.35 754.15 925.3 733.3 928.45 716.4 929.2 709.45 929.5 704.95 929.1 698.75 928.5 694.1 926.35 692.05 925.35 691.05 924.9 689.25 924.15 687.8 924.1 685.8 923.95 683.85 925 682.05 925.95 680.7 927.65 678.35 930.55 678 934.6 677.6 938.45 679.05 942.15 681.6 948.65 688.95 953.5 694.85 957.35 703.1 959.55 709.25 961.15 718.4 962.2 739.1 964.45 765.1 963.35 780.55 962.65 811.85 959.75 848.55 956.35 867.4 953.2 898 948.1 921.05 938.9 940.7 931.05 958 919.35 963.5 915.65 966.7 912.6 971 908.35 972.8 903.75
M 984.15 951.1
Q 982 952.45 975.05 957.45 961.65 967.1 943.75 976.8 932.2 983.05 910.75 993.35 894.6 1001.1 885.7 1004.8 871.6 1010.6 859.65 1013.4 850.05 1015.65 837.75 1016.9 830.7 1017.65 815.55 1018.55 773.5 1021.05 754.4 1022.2 750.35 1022.45 748 1023.2 744.55 1024.3 743.15 1026.8 741.8822265625 1029.0396484375 742.55 1031.75 741.8166015625 1031.9326171875 741.1 1032.25 737.85 1033.65 735.75 1037.8 734.45 1040.35 733.65 1043.8 733.2 1045.85 732.6 1050.1
L 731.45 1058.35
Q 730.45 1065.7 730.15 1069.7 729.75 1076.05 730.45 1081.05 730.8 1083.6 731.85 1088.05 733.05 1092.95 733.4 1095 733.65 1096.45 734 1099.35 734.4 1101.85 734.85 1103.6 735.55 1106.2 737.5 1110.6
L 741.7 1120
Q 744.1 1125.45 745.7 1128.35 747.7 1132 750.6 1135.95 755.5 1142.75 759.75 1145.5 762.7 1147.45 765.9 1148.1 769.4 1148.85 772.5 1148 776.1 1146.85 777.55 1144.25 778.95 1141.75 778 1138.45 777.25 1135.7 775.1 1132.9 773.75 1131.2 769.95 1127.2 766.55 1123.65 764.95 1121.35 762.6 1117.8 760.5 1111.6 757.35 1102.35 756.9 1101.3 755.55 1098.3 754.95 1096.8 753.8 1094.15 753.4 1092.1 753.1 1090.75 752.9 1088.15 752.7 1085.45 752.45 1084.2 752.25 1083.2 751.5 1080.9 750.85 1078.8 750.65 1077.6 750 1074.05 751.15 1068.45 752.7 1060.9 752.8 1059.25 752.9 1057.95 752.85 1054.3 752.8 1051.15 753.1 1049.35 753.85 1045.8 754.2 1044.05 754.673828125 1041.7900390625 754.5 1040.05 756.4609375 1040.25 758.95 1040.25 767.05 1040.3 780.95 1038.85 796.9 1037.2 802.95 1036.95 809.25 1036.7 842.25 1038.1 866.25 1039.15 881.15 1035.9 887.35 1034.55 894.6 1032 899.65 1030.25 907.7 1027 934.35 1016.15 955.2 1005.45 979.85 992.75 999.75 978.65 1003.5 976 1005.65 974.1 1008.75 971.45 1010.6 968.65 1012.8 965.4 1013.45 961.8 1014.2 957.85 1012.85 954.55 1010.9 949.65 1005.15 947.5 999.85 945.5 994.15 946.75 989.5 947.85 984.15 951.1 Z"/>
</g>
</defs>

<g transform="matrix( 1, 0, 0, 1, 0,0) ">
<use xlink:href="#Layer1_0_FILL"/>
</g>

<g transform="matrix( 1, 0, 0, 1, 0,0) ">
<use xlink:href="#Layer0_0_FILL"/>
</g>
</svg>
