
<svg xmlns="http://www.w3.org/2000/svg" version="1.1" xmlns:xlink="http://www.w3.org/1999/xlink" preserveAspectRatio="none" x="0px" y="0px" width="2000px" height="2000px" viewBox="0 0 2000 2000">
<defs>
<g id="Layer1_0_FILL">
<path fill="#000000" stroke="none" d="
M 1446.15 1371
Q 1417.8 1344 1371.55 1308.85 1347.3 1290.4 1329.55 1278.3 1306.2 1262.3 1285.3 1251 1263.9 1239.45 1218.2 1219.9 1173.15 1200.6 1151.25 1188.65 1137.75 1181.3 1127.95 1174.35 1116 1165.9 1107.35 1156.6 1098.25 1146.75 1090.3 1133.3 1083.9 1122.4 1077.3 1107.3 1058.8 1064.8 1050.6 1018.7 1042.4 972.6 1045.05 926.3 1045.65 915.8 1044.45 909.9 1044.3 909.15 1044.15 908.5 1048.1 907.25 1051.65 906.05 1067.35 900.75 1079.55 893.5 1093.45 885.3 1103.6 874.35 1114.55 862.35 1119.7 848.55 1124.4 836.05 1123.25 824.75 1122 812.8 1113.7 799.7 1105.75 787.3 1094.35 777.75 1082.9 768.15 1069.35 762.55 1066.15 761.25 1063.25 760.45 1074.05 739.5 1084.45 718.2 1089.2 708.5 1091.2 703.05 1094.35 694.4 1094.7 687 1094.75 685.6 1094.55 684.3 1094.5 677.65 1092.15 671.6 1083.95 650.85 1049.3 640.55 1027.55 634.05 1001.1 630.8 980.2 628.2 951.9 627.2 920.85 626.05 897.75 627.6 868.6 629.5 844.55 635.9 824.15 641.25 810.15 650.5 793.2 661.75 787.35 677.75 784.1 686.7 784.15 698.3 784.2 706.5 786.1 719.4 790.8 751.15 799.6 784.25 797.2 784.75 794.6 785.6 781.2 789.8 769.75 798.15 760 805.25 752.8 814.6 736.4 825.5 727.25 844.2 717.55 864.05 719.75 884.95 721.15 898.2 726.9 907.65 730.05 912.9 735.75 918.9 746.5 929.95 757.5 936.1 764.7 940.05 776.9 944.3 798.35 951.65 816.35 954.65 830.45 957 843.35 956.85 842.9 961.5 844.25 968.2 854.3 1017.65 841.6 1068.2 828.9 1118.7 796.6 1157.5 772.75 1186.15 727.45 1218.45 724.35 1220.65 689.1 1244.95 665.9 1261 651.45 1272.3 604.55 1308.95 568.45 1356.1 555.55 1372.85 541.7 1394.2 516.4 1433.15 502.65 1465.05 484.75 1506.75 478.5 1553.2 472.45 1598.2 477.8 1644.7 483.15 1690.6 499.05 1734.25 515.05 1778.15 540.6 1816.3 590.9 1891.55 672.5 1942.15 751.4 1991.1 843.85 2007.5 888.6 2015.5 941 2016.55 984.2 2017.45 1038.75 2013.55 1062.75 2011.9 1080.9 2009.8 1103.55 2007.15 1122.7 2003.3 1150.6 1997.75 1182.6 1987.25 1207.2 1979.15 1240.9 1965.85 1289.4 1946.75 1323.45 1929.95 1367.15 1908.5 1400.85 1884.6 1460.2 1842.6 1503.45 1784.35 1544.1 1729.75 1555.25 1677.9 1563.4 1640.25 1558.2 1592.55 1553.85 1552.6 1541.5 1515.75 1528.7 1477.4 1508.05 1444.8 1484.55 1407.6 1446.15 1371
M 1315.3 1316.85
Q 1342.3 1335.55 1374.95 1362.3 1409.15 1390.35 1430.8 1412.75 1459.25 1442.1 1476.7 1471.65 1499.55 1510.4 1511.5 1562.8 1518.95 1595.6 1519 1621.95 1519.15 1662.35 1503.15 1703.15 1488.1 1741.25 1460.9 1775.1 1436.2 1805.85 1401.45 1833.35 1371.3 1857.3 1332.05 1879.9 1267.95 1916.85 1197.55 1941.1 1127.15 1965.3 1053.85 1975.65 992.2 1984.3 933.9 1982.3 871.8 1980.2 815.25 1965.95 755.6 1950.95 703.45 1922.65 648.9 1893.1 607.35 1851.55 564.05 1808.4 537.35 1754.4 509.7 1698.75 504.05 1639.95 499.15 1589.35 510.6 1537.05 521.65 1486.7 546.55 1439.95 570.25 1395.45 605.85 1355.35 639.5 1317.5 682.15 1285.25 695.1 1275.5 719.35 1258.75 745.8 1240.55 756.8 1232.4 799.9 1200.75 822.85 1170.9 854.85 1129.3 865.85 1073.15 876.2 1020.45 866.45 965 865.65 960.55 864.85 958.05 864.3 956.25 863.55 954.7 866.3 954 868.3 952.95 871.05 951.45 872.95 949.2 875 946.75 875.55 943.9 876.4 939.45 873.4 935.15 870.6 931.2 866.05 929.25 862.2 927.65 856.9 927.2 854.7 927 847.45 926.85 812.9 926.25 781 913.4 771.35 909.5 765.2 905.35 757.15 899.8 753.2 892.8 749.3 886 749.1 877.4 748.9 869.3 751.9 861.45 757.1 847.95 771.5 836.1 774.5 833.7 775.95 832.45 778.5 830.35 780 828.45 782.35 825.6 783.15 822.8 792.95 818.2 802.3 816.35 804.25 816 808.15 815.2 808.4 815.15 808.65 815.1 809.05 816.45 809.5 817.8 812.9 828.3 815.6 834.45 819.45 843.4 824.3 849.65 827.9 854.2 832.25 856.35 835.9 858.15 839.05 857.55 839.6 858.6 840.4 859.65 845.2 866.1 856.65 869.4 866.25 872.15 877.85 873.05 887.1 873.8 899.45 873.4 946.05 871.85 990.55 858.5 998.1 856.25 1002.55 854.25 1008.9 851.4 1013.15 847.6 1016.4 844.65 1019.5 840.1 1021.35 837.45 1024.6 831.7 1035.7 812.1 1046.4 792.3 1048.4 793.55 1050.9 794.85 1054.2 796.45 1060.85 799.5 1067.9 803.1 1073.75 808.6 1079.55 814.1 1083.6 820.95 1090.2 832.1 1088.55 841.65 1087.55 847.3 1083.55 853.15 1078.05 861.2 1068.65 867.7 1061.05 873 1050 877.75 1024.05 888.95 995.95 892.2 990.7 892.75 988.7 893.15 984.7 893.85 981.8 895.35 978.3 897.1 976.25 900.2 974.05 903.5 974.5 906.95 974.85 909.65 976.7 911.9 978.4 914.05 981 915.35 984.95 917.3 991.7 917.6 997.75 917.85 1004.75 917.1 1003.95 919.85 1003.45 922.9 1001.5 934.3 1002.25 948.8 1002.7 957.55 1004.9 974.7 1009.8 1012.2 1013.3 1032.35 1018.9 1064.05 1026.5 1088.85 1045.95 1151.8 1083.65 1188.85 1111.45 1216.25 1162.95 1239.75 1173.8 1244.7 1207.2 1258.8 1235 1270.5 1251.1 1278.5 1282.25 1294 1315.3 1316.85
M 902 658.9
Q 925.9 657.45 957.25 658.95 982.7 660.2 1001.9 662.8 1025.8 666.05 1045.7 672 1050.9 673.55 1054.1 674.95 1058.6 676.75 1061.85 679.1 1066.9 682.55 1067.4 686.7 1067.8 690.45 1064.05 695.3 1053.15 709.5 1029.4 717.25 1008.35 724 980.8 725.05 963.7 725.75 931.05 723.95 916.8 723.2 909.05 722.6 896.9 721.6 887.25 719.9 853.3 713.9 813.5 692.95 814.95 687.8 818.75 683.25 822.15 679.05 827.1 675.8 834.55 671.05 847.75 667.45 872.35 660.75 902 658.9
M 813.7 723.45
Q 855.95 741.95 902.05 748.95 948.2 756 994.1 750.85 1010.05 749.05 1023.15 746 1038.25 742.55 1051.05 737.15 1029.1 774 1009.2 812.3 1006.1 818.15 1004.35 820.9 1001.3 825.5 997.8 828.25 994.85 830.55 990.5 832.3 987.6 833.45 982.45 834.9 942.6 846.05 900.95 847 890.6 847.25 883.15 846.6 873.55 845.75 865.8 843.15 861.65 841.65 859.55 840.9 855.85 839.6 853.15 839.2 849.65 838.6 846.55 839.25 845.95 839.35 845.45 839.5 844.8 837.7 843.55 834.5 822.25 780.7 813.7 723.45
M 1413.9 1435.3
Q 1409.35 1433.25 1404.5 1433.7 1399.1 1427.95 1391.95 1423.05 1382.3 1416.4 1368.7 1410.6 1335.65 1396.45 1290.75 1391 1264.05 1387.75 1209.55 1386.1 1168.4 1384.9 1150.4 1384.75 1117.35 1384.5 1091.3 1386.2 1059.15 1388.35 1016.1 1395.1 966.3 1403.55 941.4 1407.7 847.3 1422.2 800.55 1430.45 719.3 1444.75 662.05 1462.9 622.8 1475.35 595.95 1490.1 561.95 1508.7 541.2 1533.9 527.45 1550.5 529.65 1563.8 530.5 1569.15 533.6 1573.6 532.2 1618.5 540.15 1661.35 548.45 1706.45 566.55 1746.45 585.35 1787.85 613.95 1822.05 643.45 1857.25 680.45 1881.25 708.5 1899.5 745.65 1914.05 773.85 1925.15 815.45 1936.9 843.4 1944.85 862.7 1948.95 888.8 1954.45 910.95 1955.8 927.65 1956.8 950.55 1955.85 963.8 1955.3 990.25 1953.7 1005.4 1953 1035.6 1951.75 1062.1 1950.45 1080.8 1947.8 1103.15 1944.55 1128.65 1937.7 1149.05 1932.25 1175.35 1923.2 1233.8 1903.1 1277.3 1880.8 1330 1853.7 1368.3 1819.75 1392.15 1798.55 1412.1 1773.35 1432 1748.15 1447.1 1720 1471.05 1675.4 1478.75 1629.6 1487.15 1579.4 1474.6 1535.25 1463.05 1494.5 1430.1 1450.4 1425.9 1444.75 1422.9 1441.75 1418.55 1437.35 1413.9 1435.3
M 1378.2 1444
Q 1384.5 1448.2 1388.25 1453.3 1392.55 1459.15 1393.25 1466.1 1394 1473.65 1390.25 1479.1 1387.5 1483.05 1382.3 1485.9 1378.75 1487.75 1372.35 1489.9 1320 1507.6 1251.8 1518.6 1210.85 1525.3 1128.4 1534.05
L 961.4 1551.8
Q 847.1 1563.95 790.35 1568.6 695.15 1576.4 618.8 1577.1 599.5 1577.3 588.25 1576.25 571.5 1574.65 558.75 1569.75 549.4 1566.1 547.85 1560.4 546.2 1554.35 553.4 1546 570.6 1525.9 598.55 1509.25 626.35 1492.75 663.15 1480.5 690.7 1471.35 731.95 1462.05 812.75 1443.8 895.05 1433.3 923.35 1429.65 974.3 1424.4
L 1036.2 1417.95
Q 1059.75 1415.45 1070.2 1414.5 1089.25 1412.8 1104.3 1412.1 1126.95 1411 1156.4 1411.4 1167.05 1411.6 1208.5 1412.7 1263.85 1414.25 1289.05 1417.3 1333.7 1422.7 1366 1437.4 1373.45 1440.8 1378.2 1444
M 1398.05 1505.55
Q 1409 1499.25 1414.45 1490.6 1414.9 1489.85 1415.35 1489.1 1424.45 1503.85 1430.9 1517.4 1444.85 1546.55 1448.85 1574 1454.35 1611.25 1442.8 1652.35 1432.65 1688.55 1410.1 1725.15 1386.55 1763.2 1355.4 1793.9 1323.25 1825.5 1285.45 1846.75 1265.95 1857.65 1240.15 1868.4 1224.7 1874.8 1193.25 1886.4 1158.8 1899.05 1140.75 1904.95 1111.35 1914.45 1087.1 1919.35 1067.95 1923.2 1045.05 1925.55 1027.4 1927.4 1002.65 1928.75 955.25 1931.4 921.55 1930.2 877.6 1928.6 841.45 1920.35 817.35 1914.85 789.95 1904.85 768.7 1897.15 740 1884.55 708.6 1870.75 689.75 1859.95 663.1 1844.6 645.25 1826.75 635.6 1817.2 625.35 1803.7 619.05 1795.4 607.7 1778.85 595.75 1761.5 589.8 1752.1 580.25 1737.05 573.9 1724.15 560.2 1696 552.75 1659.8 544.85 1621.7 545.1 1583.3 555.4 1588.95 570.75 1591.1 589.45 1593.8 612.05 1594.7 628.8 1595.35 653.6 1595.2 764.75 1594.6 903.35 1582.55 986.3 1575.3 1152.25 1556.4 1227.65 1547.8 1265.95 1541.35 1328.7 1530.8 1376.95 1514.45 1390.25 1510 1398.05 1505.55 Z"/>

<path fill="#A3713F" stroke="none" d="
M 902.05 748.95
Q 855.95 741.95 813.7 723.45 822.25 780.7 843.55 834.5 844.8 837.7 845.45 839.5 845.95 839.35 846.55 839.25 849.65 838.6 853.15 839.2 855.85 839.6 859.55 840.9 861.65 841.65 865.8 843.15 873.55 845.75 883.15 846.6 890.6 847.25 900.95 847 942.6 846.05 982.45 834.9 987.6 833.45 990.5 832.3 994.85 830.55 997.8 828.25 1001.3 825.5 1004.35 820.9 1006.1 818.15 1009.2 812.3 1029.1 774 1051.05 737.15 1038.25 742.55 1023.15 746 1010.05 749.05 994.1 750.85 948.2 756 902.05 748.95
M 957.25 658.95
Q 925.9 657.45 902 658.9 872.35 660.75 847.75 667.45 834.55 671.05 827.1 675.8 822.15 679.05 818.75 683.25 814.95 687.8 813.5 692.95 853.3 713.9 887.25 719.9 896.9 721.6 909.05 722.6 916.8 723.2 931.05 723.95 963.7 725.75 980.8 725.05 1008.35 724 1029.4 717.25 1053.15 709.5 1064.05 695.3 1067.8 690.45 1067.4 686.7 1066.9 682.55 1061.85 679.1 1058.6 676.75 1054.1 674.95 1050.9 673.55 1045.7 672 1025.8 666.05 1001.9 662.8 982.7 660.2 957.25 658.95 Z"/>

<path fill="#66FFFF" fill-opacity="0.2980392156862745" stroke="none" d="
M 1374.95 1362.3
Q 1342.3 1335.55 1315.3 1316.85 1282.25 1294 1251.1 1278.5 1235 1270.5 1207.2 1258.8 1173.8 1244.7 1162.95 1239.75 1111.45 1216.25 1083.65 1188.85 1045.95 1151.8 1026.5 1088.85 1018.9 1064.05 1013.3 1032.35 1009.8 1012.2 1004.9 974.7 1002.7 957.55 1002.25 948.8 1001.5 934.3 1003.45 922.9 1003.95 919.85 1004.75 917.1 997.75 917.85 991.7 917.6 984.95 917.3 981 915.35 978.4 914.05 976.7 911.9 974.85 909.65 974.5 906.95 974.05 903.5 976.25 900.2 978.3 897.1 981.8 895.35 984.7 893.85 988.7 893.15 990.7 892.75 995.95 892.2 1024.05 888.95 1050 877.75 1061.05 873 1068.65 867.7 1078.05 861.2 1083.55 853.15 1087.55 847.3 1088.55 841.65 1090.2 832.1 1083.6 820.95 1079.55 814.1 1073.75 808.6 1067.9 803.1 1060.85 799.5 1054.2 796.45 1050.9 794.85 1048.4 793.55 1046.4 792.3 1035.7 812.1 1024.6 831.7 1021.35 837.45 1019.5 840.1 1016.4 844.65 1013.15 847.6 1008.9 851.4 1002.55 854.25 998.1 856.25 990.55 858.5 946.05 871.85 899.45 873.4 887.1 873.8 877.85 873.05 866.25 872.15 856.65 869.4 845.2 866.1 840.4 859.65 839.6 858.6 839.05 857.55 835.9 858.15 832.25 856.35 827.9 854.2 824.3 849.65 819.45 843.4 815.6 834.45 812.9 828.3 809.5 817.8 809.05 816.45 808.65 815.1 808.4 815.15 808.15 815.2 804.25 816 802.3 816.35 792.95 818.2 783.15 822.8 782.35 825.6 780 828.45 778.5 830.35 775.95 832.45 774.5 833.7 771.5 836.1 757.1 847.95 751.9 861.45 748.9 869.3 749.1 877.4 749.3 886 753.2 892.8 757.15 899.8 765.2 905.35 771.35 909.5 781 913.4 812.9 926.25 847.45 926.85 854.7 927 856.9 927.2 862.2 927.65 866.05 929.25 870.6 931.2 873.4 935.15 876.4 939.45 875.55 943.9 875 946.75 872.95 949.2 871.05 951.45 868.3 952.95 866.3 954 863.55 954.7 864.3 956.25 864.85 958.05 865.65 960.55 866.45 965 876.2 1020.45 865.85 1073.15 854.85 1129.3 822.85 1170.9 799.9 1200.75 756.8 1232.4 745.8 1240.55 719.35 1258.75 695.1 1275.5 682.15 1285.25 639.5 1317.5 605.85 1355.35 570.25 1395.45 546.55 1439.95 521.65 1486.7 510.6 1537.05 499.15 1589.35 504.05 1639.95 509.7 1698.75 537.35 1754.4 564.05 1808.4 607.35 1851.55 648.9 1893.1 703.45 1922.65 755.6 1950.95 815.25 1965.95 871.8 1980.2 933.9 1982.3 992.2 1984.3 1053.85 1975.65 1127.15 1965.3 1197.55 1941.1 1267.95 1916.85 1332.05 1879.9 1371.3 1857.3 1401.45 1833.35 1436.2 1805.85 1460.9 1775.1 1488.1 1741.25 1503.15 1703.15 1519.15 1662.35 1519 1621.95 1518.95 1595.6 1511.5 1562.8 1499.55 1510.4 1476.7 1471.65 1459.25 1442.1 1430.8 1412.75 1409.15 1390.35 1374.95 1362.3
M 1404.5 1433.7
Q 1409.35 1433.25 1413.9 1435.3 1418.55 1437.35 1422.9 1441.75 1425.9 1444.75 1430.1 1450.4 1463.05 1494.5 1474.6 1535.25 1487.15 1579.4 1478.75 1629.6 1471.05 1675.4 1447.1 1720 1432 1748.15 1412.1 1773.35 1392.15 1798.55 1368.3 1819.75 1330 1853.7 1277.3 1880.8 1233.8 1903.1 1175.35 1923.2 1149.05 1932.25 1128.65 1937.7 1103.15 1944.55 1080.8 1947.8 1062.1 1950.45 1035.6 1951.75 1005.4 1953 990.25 1953.7 963.8 1955.3 950.55 1955.85 927.65 1956.8 910.95 1955.8 888.8 1954.45 862.7 1948.95 843.4 1944.85 815.45 1936.9 773.85 1925.15 745.65 1914.05 708.5 1899.5 680.45 1881.25 643.45 1857.25 613.95 1822.05 585.35 1787.85 566.55 1746.45 548.45 1706.45 540.15 1661.35 532.2 1618.5 533.6 1573.6 530.5 1569.15 529.65 1563.8 527.45 1550.5 541.2 1533.9 561.95 1508.7 595.95 1490.1 622.8 1475.35 662.05 1462.9 719.3 1444.75 800.55 1430.45 847.3 1422.2 941.4 1407.7 966.3 1403.55 1016.1 1395.1 1059.15 1388.35 1091.3 1386.2 1117.35 1384.5 1150.4 1384.75 1168.4 1384.9 1209.55 1386.1 1264.05 1387.75 1290.75 1391 1335.65 1396.45 1368.7 1410.6 1382.3 1416.4 1391.95 1423.05 1399.1 1427.95 1404.5 1433.7 Z"/>

<path fill="#00CC00" stroke="none" d="
M 1414.45 1490.6
Q 1409 1499.25 1398.05 1505.55 1390.25 1510 1376.95 1514.45 1328.7 1530.8 1265.95 1541.35 1227.65 1547.8 1152.25 1556.4 986.3 1575.3 903.35 1582.55 764.75 1594.6 653.6 1595.2 628.8 1595.35 612.05 1594.7 589.45 1593.8 570.75 1591.1 555.4 1588.95 545.1 1583.3 544.85 1621.7 552.75 1659.8 560.2 1696 573.9 1724.15 580.25 1737.05 589.8 1752.1 595.75 1761.5 607.7 1778.85 619.05 1795.4 625.35 1803.7 635.6 1817.2 645.25 1826.75 663.1 1844.6 689.75 1859.95 708.6 1870.75 740 1884.55 768.7 1897.15 789.95 1904.85 817.35 1914.85 841.45 1920.35 877.6 1928.6 921.55 1930.2 955.25 1931.4 1002.65 1928.75 1027.4 1927.4 1045.05 1925.55 1067.95 1923.2 1087.1 1919.35 1111.35 1914.45 1140.75 1904.95 1158.8 1899.05 1193.25 1886.4 1224.7 1874.8 1240.15 1868.4 1265.95 1857.65 1285.45 1846.75 1323.25 1825.5 1355.4 1793.9 1386.55 1763.2 1410.1 1725.15 1432.65 1688.55 1442.8 1652.35 1454.35 1611.25 1448.85 1574 1444.85 1546.55 1430.9 1517.4 1424.45 1503.85 1415.35 1489.1 1414.9 1489.85 1414.45 1490.6
M 1388.25 1453.3
Q 1384.5 1448.2 1378.2 1444 1373.45 1440.8 1366 1437.4 1333.7 1422.7 1289.05 1417.3 1263.85 1414.25 1208.5 1412.7 1167.05 1411.6 1156.4 1411.4 1126.95 1411 1104.3 1412.1 1089.25 1412.8 1070.2 1414.5 1059.75 1415.45 1036.2 1417.95
L 974.3 1424.4
Q 923.35 1429.65 895.05 1433.3 812.75 1443.8 731.95 1462.05 690.7 1471.35 663.15 1480.5 626.35 1492.75 598.55 1509.25 570.6 1525.9 553.4 1546 546.2 1554.35 547.85 1560.4 549.4 1566.1 558.75 1569.75 571.5 1574.65 588.25 1576.25 599.5 1577.3 618.8 1577.1 695.15 1576.4 790.35 1568.6 847.1 1563.95 961.4 1551.8
L 1128.4 1534.05
Q 1210.85 1525.3 1251.8 1518.6 1320 1507.6 1372.35 1489.9 1378.75 1487.75 1382.3 1485.9 1387.5 1483.05 1390.25 1479.1 1394 1473.65 1393.25 1466.1 1392.55 1459.15 1388.25 1453.3 Z"/>
</g>

<g id="Layer0_0_FILL">
<path fill="#000000" fill-opacity="0.2" stroke="none" d="
M 1514.9 1549.9
Q 1508.25 1556.2 1501.35 1568.65 1486.6 1595.3 1471.85 1615.4 1454.35 1639.1 1435 1656.25 1418.55 1670.85 1396.65 1684.2 1379.05 1694.95 1354.7 1706.65 1268.25 1748.2 1166.5 1771.5 1121.75 1781.8 1085.4 1785.65 1054.55 1788.95 1018.1 1788.95 989.45 1788.95 950.65 1786.85 891.55 1783.65 831.85 1777.15 780.8 1771.6 744.25 1764.65 697.2 1755.75 659 1742.15 615.1 1726.55 579.45 1703.5 540.45 1678.3 513.5 1645.55 509.7 1640.95 506.55 1638.9 502.1 1636 498.2 1637.4 493.6 1639.05 493.1 1644.95 492.6 1650.4 495.65 1655.05 496.85 1656.9 502.25 1663 506.45 1667.8 507.85 1671.45 502.4 1674.1 499.2 1680.15 496.25 1685.7 496.1 1692.4 495.95 1698.05 497.75 1704.8 499 1709.4 501.85 1716.8 523.4 1772.7 553.3 1815.05 587.4 1863.35 631.05 1892.15 645.25 1901.5 663.95 1910.95 676.2 1917.2 698.25 1927.2 777.65 1963.15 829.1 1978.5 903.15 2000.6 966.05 1997.4 981.15 1996.65 999.9 1994.15 1011.15 1992.65 1033.6 1989.05 1066.9 1983.7 1083.35 1980.65 1110.9 1975.55 1132.6 1970 1158.5 1963.4 1186.95 1953.35 1211.2 1944.8 1239.95 1932.8 1283.35 1914.6 1313.9 1897.95 1369.85 1867.5 1417.85 1824.8 1465.85 1782.05 1502.6 1730 1520.75 1704.3 1530.35 1683.3 1540.55 1661 1546.1 1634.1 1550.95 1610.6 1552.45 1582.6 1552.85 1575.25 1552.6 1570.6 1552.2 1564 1550.45 1558.85 1548.4 1552.9 1544.2 1548.65 1539.65 1544.05 1534 1542.95 1524.2 1541.1 1514.9 1549.9
M 805.45 755.2
Q 806.5 758.6 809.6 763.25 814 769.85 814.6 770.95 817.4 776 819.15 783.7 820.2 788.15 821.8 797.15 823.5 805.35 826.7 815.3 828.65 821.25 832.95 833.05 835.55 840.2 837.45 843.85 840.4 849.6 844.3 853.05 849.8 857.8 860.6 860.5 881.1 865.55 906.95 862.9 924.55 861.1 953.35 854.25 966.4 851.15 974.7 848.9 986.35 845.75 995.75 842.45 1003.95 839.55 1009.05 836.55 1015.9 832.5 1019.5 827.05 1022.1 823.2 1024.2 816.35 1027.2 806.55 1027.8 805.05 1029.55 800.65 1033.05 794.9 1035.05 791.6 1039.2 785.1 1046.45 773.15 1046.6 764.35 1046.7 756.7 1042.15 750.2 1037.5 743.5 1030.35 741.55 1024.8 740 1017.4 741.4 1014.4 742 1004.45 745 988.75 749.75 970.15 751.95 954.5 753.8 935.15 754 918.25 754.15 905.7 752.9 889.9 751.3 876.95 747.15 868.55 744.45 858.65 739.75 852.6 736.9 841.05 730.8 836.85 728.6 834.65 727.3 831.15 725.2 828.6 723.15 825.5 720.6 825.35 720.5 823.35 719.1 821.6 718.75 819.3 718.3 816.9 719.35 814.65 720.35 813 722.35 811.55 724 810.4 726.5 809.7 728.05 808.6 731.1 805.85 738.65 805.05 743.1 803.8 749.9 805.45 755.2 Z"/>
</g>
</defs>

<g transform="matrix( 1, 0, 0, 1, 0,0) ">
<use xlink:href="#Layer1_0_FILL"/>
</g>

<g transform="matrix( 1, 0, 0, 1, 0,0) ">
<use xlink:href="#Layer0_0_FILL"/>
</g>
</svg>
