
<svg xmlns="http://www.w3.org/2000/svg" version="1.1" xmlns:xlink="http://www.w3.org/1999/xlink" preserveAspectRatio="none" x="0px" y="0px" width="2000px" height="2000px" viewBox="0 0 2000 2000">
<defs>
<g id="Layer1_0_FILL">
<path fill="#000000" stroke="none" d="
M 1598.8 528.95
Q 1595.75 525.5 1591.6 524.05 1587.05 522.4 1583.1 523.7 1577.7 525.45 1574.7 532 1572.6 536.5 1571.35 544.45 1567.95 566.4 1565.4 578.65 1561.45 597.3 1555.9 611.8 1549.4 629 1539.9 642.55 1529.4 657.5 1515.85 667 1509.7 671.25 1501.4 675.5 1496.15 678.15 1486.15 682.6 1467.85 690.75 1457.85 693.8 1441.65 698.7 1428.15 697.65 1427.1 697.6 1426.1 697.55 1411.7 579.05 1402.65 508.3 1401.75 501.5 1400.9 498.15 1399.5 492.65 1396.9 488.9 1393.8 484.45 1388.8 482.6 1386.7 481.85 1384.7 481.75 1381.2 475.95 1374.85 471.15 1367.55 465.55 1355.3 460.35 1304.95 439.05 1237.1 431 1195.3 426.05 1114.05 424.15 1070.65 423.15 1048.9 423.05 1012.8 422.8 983.9 424.1 935.65 426.25 898.6 433.35 853.3 442.15 817.55 459.55 800.9 467.65 790.9 477.4 778.25 489.7 776.9 504.05 776.9 504.3 776.9 504.5 775.9 506.35 775.15 509 750.25 598 738.3 643.1 735.2 654.6 732.3 665.8 730.35 665.55 727.8 665.5 707.2 665.15 688.1 655.8 668.9 646.45 656.05 630.4 643.1 614.3 638.05 593.65 633 573 637.1 552.75 638.75 545.65 639.4 542 640.55 535.8 640.15 531.15 639.6 525.4 636.35 520.9 632.7 516.05 627.55 515.25 618.3 513.9 608.4 526.95 584.95 557.55 571.05 600.75 559.9 635.4 553.7 682.85 551.95 696.25 551.5 704.75 550.9 716.85 552.25 726.65 553.5 735.7 556.9 746.35 559.2 753.65 563.9 765.3 571.4 784.35 577.4 794.75 595.1 825.35 628.3 842.15 657.45 856.9 688 855.7 684.65 871.7 680.9 889.95
L 625.05 1160.55
Q 624.35 1163.75 624.25 1165.6 624.05 1168.45 624.7 1170.6 626.2 1175.5 631.3 1177.15 633.25 1179.9 636.2 1182.35 639.55 1185.1 646.15 1188.9 685.3 1211.45 726.15 1229.95 718.95 1239.3 706.95 1246.9 699.1 1251.85 687.15 1257.2 681.95 1248.05 676.35 1239.4 655.6 1207.35 629.65 1182.6 602.35 1156.55 570 1139.35 536.4 1121.45 500.8 1114.95 468.7 1109.15 433.45 1112.35 401 1115.4 367.15 1125.9 337.15 1135.25 304.45 1151.05 277.5 1164.05 244.95 1183.45 228.65 1193.1 218.45 1200.25 204.4 1210.05 194.2 1219.95 175.05 1238.5 156.95 1270.15 123.25 1329.2 112.15 1395 100.55 1463.25 115.5 1526.8 131 1592.65 173.6 1645.6 217.4 1699.9 277.8 1725.35 326.1 1745.7 383.2 1746.7 436.2 1747.65 490.7 1732.05 532.2 1720.1 568.85 1700.5 585.5 1691.6 600.6 1681.35 599.55 1684.7 598.75 1687.35 592.15 1709.45 589.4 1727.5 588.15 1735.6 589.35 1741.5 590.9 1749 596.35 1751.85 602.15 1754.9 609.8 1751.35 614.85 1748.95 622.4 1742.55 644.15 1723.9 671.05 1713.35 672.75 1721.55 673 1736.45 673.25 1752.9 674.25 1759.65 676.05 1772.25 682.45 1781.6 689.6 1792.2 700.3 1794.55 707.2 1796 715.25 1793.65 710.55 1810.55 705.5 1831.75 691.75 1889.9 690.65 1894.25 689.3 1899.15 687.6 1901.05 686.2 1902.65 683.7 1903.75 682.15 1904.3 679 1905.1
L 612.5 1920.9
Q 605.2 1922.6 601.15 1924.55 595.2 1927.4 592.7 1932.05 590.15 1936.95 591.7 1943.15 593.2 1948.85 597.45 1953.1 601.2 1956.8 606.95 1959.5 611 1961.4 617.8 1963.55 641.95 1971.15 673 1976.55 692.1 1979.85 729.2 1984.6 763.85 1989.1 781.3 1990.7 789.2 1991.5 794.05 1991.1 801.05 1990.4 805.75 1987.2 810.6 1983.85 813.75 1977.05 815.8 1972.7 817.9 1964.25 830.9 1913.6 839.55 1882.15 849.4 1846.5 858.85 1816.25 861.15 1822.15 863.6 1826.25 870.15 1837.2 879.75 1840.3 887.7 1842.85 897.45 1839.85 904.8 1837.55 914.15 1831.75 926.6 1823.95 946.15 1809 969.5 1791.15 977.65 1785.5 988.1 1778.35 997.65 1776.4 1009.6 1773.95 1016.3 1780.9 1019.6 1784.4 1021.2 1790.3 1022.05 1793.45 1023.1 1801.5 1024.05 1808.8 1025.3 1812.35 1027.2 1817.85 1031.05 1820.85 1035.7 1824.4 1042.45 1823.8 1048.6 1823.25 1054.15 1819.65 1058.4 1816.8 1063.3 1811.45 1068.7 1805.2 1071.45 1802.2 1082.2 1790.55 1096.15 1783.1 1103.95 1778.95 1108.65 1780.7 1111.9 1781.95 1114 1785.8 1115.5 1788.35 1116.85 1793.25
L 1124.7 1821.3
Q 1126.75 1828.7 1128.9 1832.7 1132.05 1838.55 1136.85 1840.8 1140.4 1842.45 1144.45 1842.05 1142.85 1852.15 1141.85 1859 1138.65 1881.35 1137.1 1899.4 1135.5 1917.65 1134.85 1940.65 1134.45 1954.4 1134.15 1981.95 1134.05 1986.8 1134.65 1989.6 1135.55 1993.75 1138.05 1996 1140 1997.8 1143.2 1998.55 1145.4 1999.1 1149.15 1999.25 1192.45 2001.8 1247.95 1995.8 1272.7 1993.15 1346.35 1982.1 1353.65 1981.05 1357.8 1979.4 1363.75 1976.95 1366.25 1972.45 1368.6 1968.15 1367.4 1962.75 1366.3 1957.75 1362.75 1953.75 1359.75 1950.35 1354.95 1947.6 1351.5 1945.6 1345.75 1943.2 1325.55 1934.5 1299.5 1925.55 1284.1 1920.2 1252.45 1910.15 1254.6 1886.75 1256.05 1874.65 1258.55 1855 1262.2 1839.5 1263.95 1832 1264.45 1829 1265.35 1823 1264.55 1818.4 1264.55 1818.25 1264.5 1818.15
L 1281.3 1793.4
Q 1286.55 1796.5 1291.4 1802.95 1293.4 1805.65 1299.35 1815.2 1304.1 1822.8 1307.6 1826.45 1312.7 1831.8 1318.8 1833.45 1328.65 1836.1 1339.05 1829.15 1347.45 1823.5 1354.8 1812.75 1367.15 1794.85 1374.8 1774.2 1378.95 1778.75 1382.95 1787.6 1388.5 1800.05 1389.65 1802.05 1394 1809.65 1400.75 1813.75 1408.35 1818.4 1415.35 1815.8 1428.95 1810.75 1427.2 1784.15 1423.75 1732.05 1415.85 1659.75 1406.3 1576.95 1401.75 1535.55 1399.75 1517.2 1398 1500.2 1398.2 1500.3 1398.35 1500.45 1403.1 1503.9 1412.6 1509.7 1417.05 1512.45 1419.1 1513.4 1422.5 1514.9 1430.1 1516.9 1474.75 1527.55 1509.1 1523.55 1514.1 1522.95 1517.35 1522 1518.25 1521.75 1519.05 1521.45 1524.45 1528.05 1529.05 1532.2 1536.35 1538.8 1545.55 1543.7 1545 1547.85 1544.9 1554.05 1544.8 1557.6 1544.65 1564.7 1544.5 1567.85 1544.1 1574.05 1543.95 1579.45 1544.45 1583.35 1544.65 1584.7 1545.35 1588.35 1546 1591.45 1546.2 1593.35 1546.25 1593.75 1546.35 1597.65 1546.5 1600.2 1546.85 1601.85 1547.3 1604.3 1548.65 1607 1549.5 1608.75 1551.35 1611.85 1556.7 1620.75 1560.05 1625.1 1565.45 1632.05 1571.45 1635.75 1576.85 1639.05 1586.25 1641.55 1609.45 1647.75 1627.3 1644.3 1637.9 1642.25 1646.7 1636.8 1655.95 1631 1661.25 1622.4 1665.3 1615.75 1668.35 1603.95 1670.1 1597.1 1671.4 1590.05 1675.05 1569.55 1675 1548.7 1680.15 1546.3 1685.85 1543.4 1698.4 1537 1706.95 1531.3 1717.85 1523.95 1725.45 1515.75 1734.15 1506.4 1738.85 1495.45 1743.9 1483.65 1743.35 1471.95 1742.85 1459.85 1736.2 1448.2 1730 1437.4 1719.8 1429.05 1713 1423.5 1704.4 1418.95 1719.1 1417.15 1728.4 1415.65 1742.6 1413.4 1752.2 1410.9 1764.95 1407.55 1774.95 1402.7 1786.4 1397.15 1794.85 1389 1804.15 1380.1 1808.6 1369.35 1811.25 1362.95 1812.6 1354.65 1813.55 1348.6 1814.1 1339.35 1815.1 1321.75 1813.35 1309.7 1810.9 1293.7 1803.25 1282.7 1796.85 1273.65 1789.3 1272.95 1784.5 1272.45 1779.6 1275.5 1775.45 1278.15 1772.1 1282.85 1770.7 1284.75 1766.65 1291.75 1763.3 1297.25 1760.65 1300.2 1755.75 1305.7 1747.5 1309.5 1742 1311.95 1731.95 1314.8 1721.95 1317.65 1711.9 1320.15 1712.25 1318.05 1712.55 1315.75 1734.35 1137.1 1787.2 964.65 1789.85 956.15 1790.7 951.7 1792.1 944.45 1791.3 938.6 1790.4 931.85 1786.25 924.45 1783.65 919.8 1777.65 911.8
L 1688.2 791.2
Q 1682.8 783.95 1678.65 780.55 1672.45 775.55 1666.2 775.75 1660.15 776 1654.5 781.15 1650.8 784.5 1645.5 791.85 1608.6 843.1 1557.65 879.9 1549.75 885.6 1546.85 888.15 1541.15 893.15 1538.25 898.3 1535.45 903.25 1534.2 910.15 1533.35 914.55 1532.75 922.85 1529.45 969.2 1528.25 991.15 1526.2 1029.25 1526.1 1059.65 1526.05 1078.45 1528.25 1148.35 1530 1203.1 1528.25 1237.05 1527.45 1254 1525.3 1288 1524.3 1315.85 1527.5 1336.4 1525.1 1335.95 1523.05 1335.4 1508.85 1331.75 1501.2 1322.7 1496.3 1315.7 1493.75 1312.4 1489.15 1306.45 1484.3 1304.85 1480.25 1303.55 1475.65 1304.85 1471.35 1306.1 1467.8 1309.15 1464.75 1311.7 1462 1315.75 1460.15 1318.45 1457.4 1323.45 1451.25 1334.9 1447.7 1343.7 1443.15 1355 1441.5 1365.2 1439.85 1375.4 1441.1 1385 1433 1379.25 1428.55 1374.65 1423.95 1369.9 1419.45 1362.85 1416.8 1358.8 1411.85 1349.95 1408.5 1344.15 1406.75 1340.5 1404.25 1335.65 1399.95 1325.55
L 1386.55 1294.1
Q 1386.6 1290.35 1386.7 1286.7 1386.8 1279.55 1386.45 1276.05 1386.3 1274.7 1386.1 1273.4 1396.1 1270.15 1405.55 1266.65 1449.95 1250.4 1485.5 1228.25 1493.8 1223.1 1498.05 1216.65 1503.35 1208.8 1499.6 1202.25 1498.35 1200.05 1496.3 1198.55 1496.3 1195.9 1495.85 1192.95 1493.6 1178.4 1486.7 1138.7 1466.65 1022.6 1445.9 860.4 1446.65 860.5 1447.5 860.6 1451.85 861.2 1459.15 861.35 1494.7 861.95 1520.3 856.15 1553 848.85 1574.2 830.65 1585.15 821.2 1594.5 807.45 1602.4 795.75 1609.55 780.2 1628.2 739.5 1632.65 694.1 1637.1 648.65 1626.65 605.1 1623.3 591.2 1617.7 574.5 1614.1 563.85 1606.9 544.45 1604.85 538.95 1603.55 536.25 1601.5 531.85 1598.8 528.95
M 1327.35 473.35
Q 1332.25 475.3 1335.8 477.85 1340.5 481.25 1346.85 489.25 1353.9 498.35 1357.35 501.35 1339.55 518.05 1311.55 528 1291.1 535.3 1258.8 540.7 1178.45 554.2 1088.7 555.55 1008.5 556.75 917.7 548.25 901.05 546.65 890.55 545.3 875.7 543.25 863.7 540.5 838.4 534.55 815.25 523.1 810.85 520.95 808.35 518.95 804.85 516.2 803.6 512.8 801.35 506.65 806.3 500.05 810.25 494.8 817.6 490.45 841.95 476.15 873.3 467.15 899.25 459.7 932.85 455.2 980.05 448.95 1039.55 448.5 1075.35 448.2 1146.65 450.55 1204.35 452.55 1233.25 455.25 1281.15 459.85 1318.15 470.4 1323.8 472 1327.35 473.35
M 1355.25 540.05
Q 1363.55 535.35 1369.25 531 1372.85 528.2 1375.9 525.15 1385.85 588.95 1396.55 669.15 1400.8 701.1 1417.35 831.65 1421.95 867.45 1426.3 900.5 1399.65 903.4 1385.8 904.4 1362.7 905.95 1345.55 902.85 1336.75 890.45 1324.75 879.5 1307.3 863.65 1284.65 852.25 1264.55 842.05 1239.6 835 1218.95 829.15 1192.15 824.8 1103.1 810.25 1013.45 820.55 993.55 823.1 983.65 824.25 966.25 826.2 953.7 826.45 941.45 826.7 908.8 824.4 880.5 822.4 864 823.85 834.6 826.3 808.75 839.5 781.85 853.3 765 875.85 761.6 880.4 758.75 885.15 758.65 885.05 758.55 885.05 735.5 880.55 713.2 872.85 716.4 858.05 719.6 843.35 719.75 843.05 719.9 842.75 721.7 839.1 721.3 835.5 750.55 702.9 783.45 570.85 788.4 550.85 789.95 540.55 790.15 539.15 790.3 537.85 792.85 540.5 795.85 542.85 803.9 549.25 815.25 553.95 823.85 557.55 836.65 561 873.8 571.2 919.7 576.4 953.85 580.2 1004.2 582.05 1065.6 584.45 1115.75 583.4 1175.05 582.05 1226.95 575.9 1265.35 571.35 1293.1 564.2 1328.35 555.15 1355.25 540.05
M 1575.3 623.3
Q 1579.05 614.65 1584.1 598.05
L 1589.3 581.2
Q 1608.6 629.2 1603.25 682.3 1597.85 735.65 1569.15 778.2 1557.65 795.15 1545.7 804.3 1529.75 816.35 1506.15 820.45 1487.6 823.65 1462.2 822.15 1453.9 821.65 1450.6 821.7 1445.3 821.8 1441.15 822.8 1434.45 767 1428.65 718.6 1448.45 718.95 1472.95 710.75 1507.45 699.15 1533.8 677.45 1562.25 654.05 1575.3 623.3
M 1671.75 813.8
Q 1672.8 814.75 1674.45 816.85 1716.5 870 1753.5 925.2 1757.05 930.55 1758.6 933.45 1759.4 935 1760.05 936.4 1758.6 937.55 1755.55 940.3 1749.7 945.6 1741.9 951.35 1736.9 955 1727.4 961.35
L 1699.8 979.95
Q 1687.1 988.55 1682.25 992.05 1664.2 1004.95 1652.75 1016.55
L 1617.8 983.95
Q 1609.55 976.35 1604.45 970.95 1601.2 967.45 1593.4 958.1 1587 950.3 1580.4 942.65 1572.35 933.25 1564.85 925.4
L 1560.25 920.6
Q 1561.1 916.6 1562.5 913.6 1564.7 909.1 1569.3 904.7 1571.9 902.3 1578.1 897.55 1623.25 862.75 1658.4 818.05 1663.75 811.2 1668.25 812 1670 812.3 1671.75 813.8
M 1727.9 979.3
Q 1736.3 974.3 1739.35 972.3 1742.5 970.15 1748.55 965.8
L 1760.55 957
Q 1760.15 958.65 1759.6 960.6 1727.35 1086.5 1716.55 1135.15 1694.6 1233.5 1686.4 1312.05 1685.65 1319.65 1687.15 1325.75 1656 1332.1 1624.45 1335.3 1637.9 1286.35 1647.05 1223.9 1652.65 1185.3 1660.3 1109.9 1662.85 1084.7 1663.1 1071.8 1663.5 1051.75 1660.05 1036 1662.05 1035.15 1662.9 1032.75 1663.65 1030.45 1662.9 1028.15 1663.8 1027.35 1664.8 1026.4
L 1675.65 1016.35
Q 1683.55 1009.05 1688.3 1005.7 1690.65 1004.05 1695.2 1001.45 1700.05 998.6 1702.05 997.3 1704.85 995.45 1709.35 991.95 1714.7 987.85 1716.6 986.5 1720.65 983.65 1727.9 979.3
M 1647.9 1029.5
Q 1647.65 1050.65 1647 1060.45 1646.4 1070.5 1644.05 1090.25
L 1641.05 1115.75
Q 1634.55 1170.75 1630.3 1197.75 1623.25 1243.2 1613.45 1278.55 1611.15 1286.95 1606.4 1303.6 1602.5 1318.15 1600.95 1329 1600.25 1333.65 1600.4 1337.25 1575 1338.8 1549.45 1338.3 1547.2 1338.25 1545.1 1338.2 1549.85 1293.05 1551.25 1236.25 1552 1202.8 1551.8 1133.6 1551.6 1065.75 1552.45 1030.95 1553.85 978 1558.35 935.05
L 1563.35 941.55
Q 1567 946.45 1568.9 948.8 1573.65 954.6 1583.55 965.85 1586.65 969.5 1592.8 976.95 1597.25 982.2 1602.2 987 1605.9 990.75 1613.6 997.9
L 1647.9 1029.5
M 1361.35 933.45
Q 1358.6 925.3 1354.4 917.3 1354.35 917.2 1354.3 917.05 1370.85 918.8 1387.85 917.1 1398.55 916 1411.6 913.2 1417.65 911.9 1427.5 909.45 1428.85 919.8 1430.25 929.85 1430 929.8 1429.75 929.8 1427.05 929.7 1422.3 930.4 1413.3 931.6 1408.35 932.6 1404.2 933.5 1400.55 934.55 1388.1 935.2 1375.6 935.15 1367 935.05 1362.9 933.9 1362.05 933.65 1361.35 933.45
M 1306 891.25
Q 1323.4 905.85 1333.95 923.8 1342.45 938.6 1344.65 953.75 1347.15 970.65 1341 984.3 1337 993.05 1329.1 1001.1 1322.7 1007.55 1312.9 1014.25 1274.4 1040.5 1214.9 1052.4 1163.2 1062.8 1098.75 1062.3 1054.1 1062.05 981.8 1055.45 949.95 1052.55 930.1 1050.05 901.9 1046.55 878.9 1041.8 856.55 1037.1 840.15 1031.3 819.8 1024.05 804.45 1013.65 787.05 1001.9 775.8 985.7 763.6 968.25 761.1 949.1 757.45 921.35 774.35 894.85 790.45 869.7 817.5 856.7 841.95 844.9 873.05 843.35 899.8 842.05 930.85 848.35 949.1 852.1 953.2 852.65 965.95 854.4 975.6 852.5 979.6 851.7 985.3 849.75 988.5 848.7 994.85 846.45 1006.2 842.75 1020.2 840.8 1031 839.3 1046.2 838.55 1115.55 834.95 1186.05 845.6 1210.4 849.3 1228.6 854 1251.15 859.8 1269.3 868.2 1289.9 877.7 1306 891.25
M 1362.7 985.55
Q 1366.9 985.85 1372.1 985.9 1375.45 985.9 1383.75 985.7 1396.55 985.4 1403.1 984.45 1413.8 982.95 1421.35 978.85 1423.55 977.6 1424.9 976.3 1425.6 976 1426.4 975.7 1432.45 973.45 1434.9 971 1433.5 968.6 1431 967.15 1428.5 965.65 1425.7 965.55 1423.8 965.4 1419.55 966.3 1409.45 968.25 1399.2 967.4 1396.05 967 1394.65 967.95 1393.45 968.85 1392.9 970.95 1392.9 971 1392.9 971.1 1379.3 970.8 1366.05 969.45 1366.7 961.45 1365.65 952.9 1365.45 951.05 1365.2 949.2
L 1376.85 949.4
Q 1388.85 949.65 1395.5 948.8 1400.8 948.1 1411.15 945.5 1412.75 945.05 1414.15 944.65 1417.2 944.1 1420.8 943.45 1426.95 942.15 1431.65 940.15 1435.45 968.05 1439.2 993.85 1435.2 993.3 1430.6 993.8 1425.95 994.2 1412.75 997.4 1383.9 1004.45 1354.65 1001.9 1358.65 995.75 1361.3 989.35 1362.05 987.45 1362.7 985.55
M 1392.45 1015.15
Q 1417.5 1012.85 1440.7 1004.05 1453.5 1092.75 1464.9 1155.75 1467.55 1170.7 1469.65 1179.25 1472.3 1190.15 1475.85 1198.95 1475.35 1199.15 1474.8 1199.45 1472.5 1200.7 1466.9 1204.25 1405.35 1243.85 1319.85 1263.5 1254.85 1278.45 1160.25 1284.45 1099.55 1288.35 1057.3 1286.6 973.6 1282.95 878.75 1255.4 804.2 1233.8 707.4 1192.3 688.8 1184.25 678.5 1178.85 664.35 1171.45 653.95 1163.3 653.95 1163.2 654 1163.1 655.75 1158.5 657.35 1149.9 674.35 1058.65 693.1 967.65 695.65 968.8 698.5 969.8 704.85 972 713.2 973.3 718.1 974.15 728.2 975.2
L 744.65 977
Q 746.1 977.15 747.3 976.5 748.5 975.85 748.3 974.95 748.45 975.05 748.55 975.05 750.35 979.9 752.7 984.65 762.2 1003.6 780.65 1019.05 796.75 1032.65 818.85 1042.9 848.6 1056.85 887.4 1064.75 916 1070.65 959.15 1074.75 1022.7 1080.7 1085.85 1081.95 1157.75 1083.4 1207 1075.25 1272.4 1064.45 1318.7 1034.9 1333.65 1025.4 1343.65 1015.2 1344.55 1014.3 1345.4 1013.45 1368.6 1017.35 1392.45 1015.15
M 1481.05 1337.2
Q 1486.55 1345.5 1495.8 1351.55 1504.3 1357 1514.85 1360.05 1524 1362.6 1535.4 1363.55 1543.7 1364.25 1556.2 1364.25 1645.45 1364.25 1731.7 1342.55 1751.4 1337.55 1763.05 1331.6 1779.45 1323.3 1786.9 1310.55 1789.65 1329.5 1788.4 1341.9 1786.75 1359.1 1777.7 1369.65 1768.8 1380.05 1749.9 1386.2 1736.9 1390.5 1720.9 1392.9 1708.35 1394.8 1691.15 1395.9 1650.6 1398.55 1609 1396.2 1596.7 1395.45 1590.5 1396.05 1580.25 1397.05 1573.55 1401.65 1571.35 1403.35 1569.85 1404.55 1563.45 1405.45 1557.15 1407.05 1552.75 1408.15 1548.6 1409.6 1527.75 1409.55 1517.2 1409.25 1498.05 1408.65 1486.05 1403.1 1475.8 1398.3 1470.95 1390.65 1467.3 1384.85 1466.8 1377.2 1466.25 1370.2 1468.25 1362.9 1470 1356.7 1473.75 1349.6 1476.05 1345.25 1481.05 1337.2
M 1361.45 1342
Q 1354.2 1342.25 1346.35 1353.15 1308.7 1404.6 1278.7 1461.95
L 1228.6 1364.9
Q 1224.75 1357.45 1221.6 1353.65 1216.9 1348 1211.25 1346.55 1204.45 1344.9 1196.8 1349.25 1191.2 1352.4 1184.4 1359.35 1154.55 1389.85 1118.65 1435.45 1097.95 1461.8 1057.4 1515.45 1053.55 1520.5 1050.5 1522.85 1046.15 1526.35 1041.7 1526.2 1037.15 1526 1033 1522.1 1030 1519.3 1026.65 1513.9 979.8 1438.55 954.05 1353.75 951.95 1346.95 949.95 1343.4 946.9 1338.1 942.4 1336.35 938.45 1334.8 933.35 1336.05 929.6 1336.95 924.5 1339.65 898.3 1353.45 872.15 1380.2 856.95 1395.75 828.4 1431.2 826.15 1434.05 824.4 1435.45 821.85 1437.55 819.2 1437.6 813.4 1437.7 808.6 1427.85 779.4 1368 753.7 1307.15 751.55 1302.05 748.35 1299.15 745.95 1296.95 743.6 1296.85 749.75 1267.1 752.4 1241.35 857.5 1285.1 973.6 1302.8 1149.9 1329.55 1320.1 1291.3 1340.2 1286.8 1358.65 1281.7 1359.85 1311.85 1361.45 1342
M 1363.05 1372.7
Q 1363.05 1372.6 1363.1 1372.6 1367.2 1442.45 1373.4 1512.25 1369.45 1515.3 1365.55 1520.45 1334.85 1559.7 1273.65 1638.4 1255.8 1619.25 1243.1 1584.1 1239.8 1575.1 1233.1 1553.65 1226.95 1533.95 1222.9 1523.35 1219.65 1514.85 1216.3 1510 1211.75 1503.25 1205.55 1500.7 1197.55 1497.4 1187.4 1501.4 1180 1504.25 1170.5 1511.55 1138.4 1536.1 1087.55 1583.35 1029.1 1637.7 1006 1656.85 1001.2 1660.9 998.05 1662.7 993.3 1665.4 988.95 1665.6 978.3 1666.05 967.55 1651.9 951.85 1631.3 937.65 1594.15 930.1 1573.5 926.25 1563.25 919.5 1544.9 913.85 1532.8 911.6 1528 909.6 1525.35 906.7 1521.65 903.05 1520.45 897.9 1518.85 892.05 1522.3 887.85 1524.75 882.65 1530.3
L 798.55 1620.85
Q 795 1624.7 792.5 1626.4 788.8 1629 785.15 1628.9 780.85 1628.85 776.9 1624.95 774.1 1622.2 771.05 1616.85 745.4 1572.65 721.2 1528.25 724.1 1519.9 726.4 1511.4 739.9 1462.15 734.9 1407.3 732.8 1384.25 727.6 1361.35 735.45 1332.85 739.9 1313.7
L 765.7 1371
Q 777.3 1396.85 783.55 1409.1 794.05 1430 804.6 1445.35 808.2 1450.6 811.25 1453.4 815.5 1457.25 820.05 1457.95 826.6 1458.95 833.15 1453.75 837.75 1450.2 843.45 1442.5 881.8 1391.55 933.15 1354.15 959.4 1444.65 1009.95 1524.35 1016.3 1534.4 1021.75 1539.65 1029.45 1547.1 1037.95 1548.15 1047.2 1549.35 1056.95 1543 1064.05 1538.4 1072.6 1528.85 1087.35 1512.45 1105.75 1488.75 1126.85 1461.1 1137.4 1447.35 1176.7 1396.05 1205.85 1369.4 1221.1 1401.75 1229.5 1418.8 1242.9 1445.9 1254.75 1467.2 1258.9 1474.65 1262.2 1478.5 1267.05 1484.05 1272.75 1485.85 1278.7 1487.75 1285.4 1485.45 1291.5 1483.3 1296.4 1478.45 1300.45 1474.4 1304.2 1468.05 1305.8 1465.3 1310.25 1456.4 1332.4 1411.85 1363.05 1372.7
M 1386.95 1343.7
L 1387.75 1345.6
Q 1391 1353.85 1393.15 1358.45 1402.4 1378.3 1418 1394 1433.8 1409.75 1453.55 1418.75 1457.15 1420.35 1459.55 1420.9 1461.25 1421.35 1462.85 1421.35 1468.65 1425.2 1475.9 1427.85 1491.1 1433.45 1509.65 1432.95 1510.5 1432.95 1511.45 1432.9 1510.75 1433.7 1510.05 1434.45 1503.4 1441.75 1499.5 1449.7 1495.1 1458.5 1494.55 1467.25 1493.8 1478.9 1499.65 1491.9 1501.5 1495.85 1504.15 1500.4 1503.75 1500.5 1503.4 1500.55 1493.9 1502.75 1481.5 1502.15 1477.4 1501.95 1468.9 1501.1
L 1453.8 1499.55
Q 1439.3 1498.15 1432.35 1496.45 1421.25 1493.9 1411.15 1488.45 1402.8 1484 1395.8 1477.9 1392.25 1441.1 1390.25 1411.3 1387.85 1376.1 1386.95 1343.7
M 1364.55 1572.3
Q 1371.55 1563.8 1377.4 1555.75 1387.35 1658.15 1401.7 1760.35 1394.05 1750.35 1386.7 1745.5 1376.9 1739.15 1368.4 1742.65 1363.9 1744.55 1360.15 1749.4 1357.7 1752.6 1354.45 1758.85
L 1329.4 1807.1
Q 1323.25 1804.35 1317.6 1796.9 1315.45 1794.1 1308.6 1782.9 1303.25 1774.25 1299.2 1770.5 1293.45 1765.15 1286.4 1765.15 1280.75 1765.1 1274.8 1768.95 1270.6 1771.7 1265.15 1777.35 1241.3 1802.05 1224.15 1831.75 1219.95 1827.3 1216.2 1819.5 1212.15 1810.25 1210.2 1805.75 1202.8 1788.95 1192.65 1785.1 1181.2 1780.75 1168.45 1789.5 1158.8 1795.95 1148.8 1809.55 1145.3 1791.1 1141 1781.05 1134.55 1766.05 1123.4 1759.6 1114.15 1754.2 1102.05 1754.85 1091 1755.35 1080.35 1760.75 1071.45 1765.3 1062.05 1773.55 1056.3 1778.6 1045.95 1789.25 1047.65 1773 1032.7 1761.05 1018.4 1749.6 1000.85 1750.8 985.65 1751.85 969.4 1761.2 958 1767.8 941.95 1781.35 923.2 1797.2 915.35 1802.6 899.6 1813.4 885.15 1816.75
L 864.85 1753.7
Q 860.4 1739.9 856.35 1732.7 850.3 1721.75 841.45 1717.05 830.5 1711.15 815.1 1714.7 804.5 1717.15 788.7 1725.3
L 703.35 1768.9 699.45 1722.9
Q 698.3 1708.9 695 1700.5 690.4 1688.75 681.1 1685.15 674.35 1682.55 666.6 1684.7 660.95 1686.25 652.45 1691.35 638.55 1699.6 638.05 1699.85 629.65 1704.3 622.85 1705.1 632 1677.2 640.95 1649.4 670.75 1621.8 692.15 1588.1 706.2 1566.05 715.75 1542.75 737.45 1587.55 765 1629.95 769.5 1636.85 773.1 1640.45 778.25 1645.65 784.05 1646.8 791.5 1648.25 799.65 1643.2 805.35 1639.65 812.7 1631.75
L 897.35 1541.55
Q 916.65 1594 941.15 1643.35 950.4 1661.95 959.65 1672.05 972.45 1686 987.45 1687.2 999.65 1688.2 1012.95 1680.35 1021.85 1675.15 1034.9 1663.15
L 1181.05 1529.8
Q 1184.8 1526.45 1187.65 1525 1191.7 1523 1195.05 1524.1 1197.9 1525.15 1200 1528.4 1201.35 1530.6 1202.75 1534.75 1219.35 1585.65 1220.95 1590 1232.4 1620.95 1246.15 1641.8 1252.65 1651.6 1260 1656.8 1269.2 1663.25 1278.1 1661.25 1282.8 1660.15 1287.6 1656.35 1290.55 1653.9 1295.4 1648.6
L 1336.5 1603.95
Q 1355.45 1583.3 1364.55 1572.3
M 1603.9 1424.45
Q 1604.7 1424.55 1605.45 1424.65 1610.5 1425.5 1611.7 1425.6 1615.2 1425.9 1617.85 1425.45 1618.65 1425.25 1619.4 1425.1 1631.4 1425.45 1636.75 1425.4 1641 1425.3 1645.75 1425.1 1646.75 1430.05 1650.5 1433.7 1653.75 1436.75 1659.15 1438.95 1660.9 1439.6 1669 1442.25 1680.75 1445.95 1691.7 1451.95 1698.8 1455.95 1703.15 1460.05 1708.65 1465.35 1710.3 1471.5 1712.65 1479.95 1707.6 1489.35 1703.35 1497.2 1695 1503.95 1683.15 1513.7 1667.7 1519.8 1653.4 1525.55 1636.95 1527.8 1622.15 1529.9 1605.3 1529.1 1590.75 1528.45 1573.7 1525.65 1565.95 1524.35 1560.8 1523 1553.85 1521.05 1548.55 1518.2 1541.95 1514.5 1535.9 1508.15 1531 1502.95 1525.75 1495.3 1520.35 1487.35 1518.05 1480.8 1514.95 1472.35 1516.35 1465.05 1518.35 1454.8 1529.9 1444.9 1545.05 1431.95 1565.4 1426.6 1570.4 1425.3 1575.4 1424.55 1576.1 1424.5 1576.8 1424.45 1587.05 1423.75 1603.9 1424.45
M 1562.1 1570.65
L 1560.7 1550.15
Q 1565.35 1551.7 1570.4 1552.95 1580.85 1555.5 1593.45 1556.75 1603.15 1557.7 1616.85 1558.1 1628.3 1558.5 1635.8 1558.2 1644.65 1557.75 1652 1556.35 1651.7 1560.9 1650.7 1567.7
L 1647.95 1585.4
Q 1646.3 1596.1 1644.75 1601.3 1642.5 1609.15 1638.5 1613.2 1635 1616.7 1629.2 1618.7 1623.1 1620.85 1615.3 1621.15 1609.45 1621.4 1601.15 1620.6 1594.25 1619.95 1589.85 1618.95 1583.8 1617.45 1579.45 1614.75 1569.8 1608.55 1565.6 1594.95 1564 1589.75 1563.15 1582.95 1562.6 1578.9 1562.1 1570.65
M 710.45 686.2
Q 719.6 686.5 727.5 684.45 714.55 734.8 704.75 777.95 700.7 795.75 695.1 822.25 690.65 822.55 688.15 822.65 663.75 823.9 641.2 811.95 618.65 800.05 605.95 779.15 602.55 773.55 599.25 766.2 597.05 761.4 593.6 752.75 589.85 743.35 588.15 738.25 585.35 730.15 584.1 723.35 582.45 714.65 582.55 704.15 582.65 695.95 583.8 684.75 589.45 632.2 609.7 583.55 612.4 617.1 634.6 644.75 656.75 672.45 688.85 682.3 700.1 685.8 710.45 686.2
M 702.5 923
Q 704.05 915.45 705.65 907.9 719.1 912.6 735 916.3 741.4 917.75 745.65 917.85 744.45 923.3 743.75 928.9 743.45 931.5 743.25 934.05 742.9 933.9 742.6 933.8 738.6 932.2 731.1 930.8 719.95 928.65 714.25 927.15 709.05 925.8 704.5 924.1 703.45 923.5 702.5 923
M 698.8 949.7
Q 697.85 949.35 697 949.05 698.4 942.1 699.9 935.15 711.65 941.5 723.6 942.85 730.1 943.6 735.25 942.55 735.5 942.55 735.75 942.65 739.9 943.4 742.9 943.45 743.05 955.7 746 967 744.2 966.25 742.2 965.55
L 698.8 949.7
M 750.5 891.8
Q 752.7 892.25 754.7 892.35 750.5 900.6 747.85 909.6 746.25 909 744.1 908.4 726.45 903.35 707.95 897.1 709.8 888.45 711.7 879.75
L 741.7 889.35
Q 747.5 891.2 750.5 891.8
M 695.4 1272.5
Q 708.55 1265.7 716.15 1260.8 723.9 1255.85 730.35 1250.5 723.35 1283 714.7 1317.35 712.45 1311.15 710.05 1304.95 703.35 1288.2 695.4 1272.5
M 1184.15 1812.6
Q 1188.25 1818 1192.5 1828.2 1197.85 1840.95 1199.8 1844.45 1204.55 1852.95 1211.9 1857.8 1219.95 1862.95 1227.7 1861.3 1223.85 1889.2 1222.95 1911.8 1222.8 1916.8 1223.1 1919.55 1223.55 1923.85 1225.2 1926.95 1227.45 1931.1 1232.65 1934.15 1236 1936.2 1242.5 1938.55 1276.5 1950.8 1312.2 1960.45 1235.65 1974.8 1157.7 1974.8 1155.45 1957.9 1156.5 1935.95 1157.05 1925.5 1159.9 1896.9 1162.3 1872.35 1162.5 1857.95 1162.65 1844.6 1161.25 1832.95 1161.9 1832.3 1162.5 1831.65 1168.95 1824.1 1172.35 1820.6 1178.35 1814.6 1184.15 1812.6
M 827.7 1738.95
Q 833.05 1740.95 836.6 1747.05 839.1 1751.3 841.35 1759.05
L 845.5 1772.95
Q 844.2 1774.1 843.2 1775.65 841.45 1778.2 840.15 1781.8 839.4 1784.05 838.2 1788.35
L 793.1 1955
Q 792.45 1957.6 791.7 1959.1 790.7 1961.25 789 1962.25 787.6 1963.15 785.5 1963.25 784.2 1963.3 781.7 1963.05 735.35 1957.85 711.45 1954.6 672.6 1949.25 641.75 1942.85 662.35 1936.35 683.7 1932.35 692.1 1930.8 695.75 1929.65 702.3 1927.65 706.4 1924.15 711.3 1920 714.25 1912.55 716.15 1907.7 718.1 1898.55
L 743.75 1780.35
Q 744.05 1779 744.25 1777.8 774.65 1758.45 807.15 1742.65 813.3 1739.7 817.3 1738.7 823.2 1737.25 827.7 1738.95
M 328.6 1171.45
L 353.05 1163.1
Q 360.35 1160.55 365.75 1158.7
L 365.8 1158.75
Q 367.25 1159.8 368.25 1161.05 406.15 1150.75 435.1 1147.55 486.35 1141.9 526.6 1155.25 557.55 1165.5 586.15 1188.2 611.45 1208.25 634.1 1237.3 649.65 1257.25 661.95 1278.6 660.8 1280.45 660.5 1283.15 659.95 1287.15 661.3 1292.2 664.1 1302.6 673.35 1322.95 682.45 1342.85 685.15 1353.75 687.3 1362.25 688.25 1373.2 688.8 1379.45 689.25 1392.95
L 691.65 1468.7
Q 692.05 1480.15 692.05 1486.55 692.05 1496.4 691.35 1504.35 688.95 1530.75 677.1 1556.7 665.9 1581.05 647.5 1602.55 615.8 1639.6 561.75 1669.45 561.7 1669.4 561.65 1669.4 539.95 1681.95 515.8 1691.95 446.8 1720.3 382.8 1717.8 333.15 1715.9 286.85 1695 240.4 1674.15 206.15 1638.3 171.85 1602.45 153 1555.25 134.15 1508.05 134.4 1458.35 134.55 1431.25 140.5 1400.8 145.5 1375.15 155.1 1344.55 165.55 1311.4 176.85 1289 191.55 1260.1 211.25 1241.4 211.7 1241 212.2 1240.6 214 1240.1 216.15 1239 220.45 1236.8 225.15 1232.75 227 1231.2 233.3 1225.35 234.3 1224.45 235.3 1223.55 240.05 1220.25 245.25 1216.5 246.9 1215.55 248.65 1214.55 248.95 1214.05 249.3 1213.6 277.45 1193 292.9 1185.45 300.55 1181.65 310.5 1177.9 316.75 1175.55 328.6 1171.45
M 510.35 1185.3
Q 476.2 1176.75 439.2 1180.05 405.7 1183.1 369.85 1195.6 338.8 1206.45 304.65 1225.05 287.2 1234.45 275.1 1242.85 259.7 1253.4 248.75 1264.85 239.4 1274.6 230.85 1287.45 223.75 1298.2 216.25 1312.45 192.35 1358.1 183.95 1403.4 174.5 1453.9 185.55 1498.4 193.3 1529.8 212.55 1562.4 239.95 1608.75 280.85 1639.05 324.9 1671.8 374 1677.45 411.6 1681.75 457.95 1670.2 521.7 1654.3 570.4 1616.2 623.2 1574.95 643.2 1518.55 658.35 1475.7 654.75 1421.6 651.9 1379.15 636.65 1323.5 631.25 1303.85 626.65 1291.2 620.35 1273.8 612.8 1260.45 597.8 1234.3 574.1 1215.7 546.85 1194.4 510.35 1185.3
M 265.15 1273.4
Q 272.4 1268.3 285.7 1260.6 325.75 1237.25 354.05 1224.8 392.65 1207.85 427.1 1202.2 467.1 1195.7 504 1204.55 544.1 1214.2 570.6 1239.85 572.25 1241.5 573.85 1243.15 572.8 1244.3 571.65 1245.85 570.65 1247.3 568.7 1250.25 565.85 1254.3 561.4 1258.8 559.25 1260.95 553.2 1266.65 543 1276.2 530.85 1288.75 523.45 1296.3 509.1 1311.55
L 438.6 1386.25
Q 434.75 1390.35 432.25 1393.25 431.65 1392.7 431.1 1392.15 420.75 1382.6 407.65 1380.7 399.7 1379.55 387.55 1381.3 375.3 1382.95 367.3 1386.4 356.5 1391 347.1 1400.75 343.25 1404.7 340.75 1408.6 334.65 1402.15 326.65 1394
L 299.6 1366.1
Q 291.5 1357.8 287.55 1353.55 269.8 1334.9 253.9 1315.4 249.7 1310.25 247.5 1307.15 244.1 1302.5 241.95 1298.35 241.35 1297.2 240.95 1296.45 243.85 1292.45 246.95 1289.05 254.2 1281.05 265.15 1273.4
M 236.05 1303.75
L 238.05 1306.75
Q 245.8 1318.5 250.2 1324.55 257.2 1334.25 263.75 1341.35 266.7 1344.6 271.8 1349.7 278.1 1356 280 1357.95 285.15 1363.3 296.4 1376.1
L 312.3 1394.35
Q 326.1 1410.3 335.65 1420.05 334.9 1422.3 334.05 1424.95 331.4 1433.85 330.5 1438.65 329.1 1446.4 329.95 1452.6 330.6 1457.3 333.25 1464.35 336.5 1473.25 339.7 1478.35 342.3 1482.5 345.8 1485.9 334.55 1503.45 320.9 1519.35 314.7 1526.55 312.4 1529.75 310.85 1532 307.55 1537.6 304.45 1542.7 302.5 1545.35 300.25 1548.4 293.35 1555.8 286.15 1563.6 277.7 1574.05 273.35 1579.45 262.9 1592.9 259.05 1597.9 257.5 1601.2 257.4 1601.45 257.3 1601.75 255.3 1599.25 253.3 1596.7 245.65 1586.8 235.5 1570.95 220.9 1547.85 212.4 1530.35 201.3 1507.55 196.65 1486.75 188.1 1449 197.1 1404.7 204.6 1367.95 224.45 1325.6 230 1313.95 234.35 1306.45 235.2 1305.1 236.05 1303.75
M 303.8 1563.1
Q 307.2 1559.6 308.8 1557.85 311.65 1554.75 313.55 1552.25 315.3 1549.85 317.8 1545.85 321.05 1540.55 321.9 1539.3 325.35 1534.15 331.85 1526.45 344.2 1511.85 355.65 1499.35 358.1 1496.75 359.35 1494.9 360.35 1495.35 361.4 1495.75 375.2 1501.2 389.55 1498.7 403.2 1496.35 415.25 1487.35 420.7 1483.3 425.25 1478.3 440.4 1492.85 460.1 1513.6 472 1526.2 495.7 1551.4
L 552.55 1610.7
Q 552.85 1611 553.15 1611.3 548.8 1614.75 544.4 1617.7 529.45 1627.9 508.85 1636.45 495.1 1642.15 470.85 1650.1 448 1657.65 435.05 1660.7 414.95 1665.55 398.25 1665.55 382.8 1665.6 365.25 1661.55 350.9 1658.3 333.3 1651.75 315.55 1645.2 302.3 1638.25 286.3 1629.75 274.45 1619.5 270.75 1616.3 267.05 1612.6 268.1 1611.1 269.1 1609.1 272.8 1601.75 278.95 1593.35 282.65 1588.25 290.45 1578.7 299.1 1568.15 303.8 1563.1
M 570.3 1275.85
Q 578.65 1268.1 583.9 1262.25 585.55 1260.35 586.75 1258.8 598.05 1274.65 606.55 1295.2 616.95 1320.4 625.5 1359.9 634.8 1402.9 636.3 1433.35 638.15 1473.8 627.6 1505.7 618.65 1532.85 597.3 1563.1 581.8 1585.05 565.5 1600.55 565.05 1600.1 564.6 1599.6 563.25 1598.2 559.6 1595.2 553.1 1589.8 545.35 1582.35 541.15 1578.25 531.85 1568.8
L 516.6 1553.35
Q 503.55 1540.1 497.2 1533.3
L 491.25 1526.9
Q 476.95 1510.9 469.55 1503.1 456.85 1489.7 445.9 1481.4 439.25 1476.3 439.15 1476.25 435.35 1473.15 433.05 1470.3 432.6 1469.75 432.25 1469.3 433.3 1467.75 434.25 1466.15 444.2 1449.45 445.4 1430.3 445.85 1421.7 444.3 1414.65 443.4 1410.7 441.9 1407.1 460.45 1388.6 499.3 1347.75
L 534.4 1310.9
Q 548.05 1296.55 556.15 1288.85 565.6 1280.15 570.3 1275.85
M 420.3 1414.3
Q 425.3 1420.15 426.55 1425.95 428 1432.25 425.25 1441.8 421.8 1453.45 415 1462.45 407.5 1472.25 397.5 1476.9 386.75 1481.85 374.85 1479.8 362.5 1477.65 355.4 1468.85 349.45 1461.4 348.55 1450.55 347.65 1440.7 351.1 1430.55 355.5 1417.35 364.25 1409.85 370.75 1404.25 379.35 1401.95 390.45 1398.9 401.4 1402.15 412.55 1405.5 420.3 1414.3
M 915.65 884.7
Q 907.65 879.25 896.1 875.35 876.7 868.7 864.6 874.25 859.75 877 857.1 877.95 855.25 878.6 852.4 878.95 849.1 879.35 847.5 879.6 833.65 881.8 821.35 894.2 811.1 904.6 808.95 915.5 806.8 926.1 812.1 939.55 814.6 946.05 818.55 952.3 825.65 963.35 836.7 971.05 847.75 978.75 860.65 981.6 873.5 984.4 886.8 982.05 900.05 979.65 911.15 972.6 916.6 969.05 923.65 962.8 927.75 959.05 930.25 956.4 933.6 952.7 935.7 949.15 941.2 939.8 940.7 927.75 940.2 916.4 934.7 906 927.75 892.9 915.65 884.7
M 879.25 898.25
Q 880.7 897.1 881.65 896.8 883.65 896.15 887.65 897.45 895.25 900.15 899.55 902.1 905.95 905.05 910.4 908.7 915.65 912.95 918.55 918.55 921.7 924.6 921.15 930.7 920.7 936.6 916.7 942.2 913.35 947.1 907.8 951.25 898.3 958.35 886.75 961.1 874.9 963.95 863.6 961.45 852.05 958.9 842.9 951 833.5 943 829.8 932.05 826.6 922.8 829.2 916 831.7 909.65 840.05 904.3 846.8 900.05 853.75 898.4 861.6 896.65 868.35 898.6 872.5 899.85 872.6 899.85 875.1 900.4 876.9 899.65 877.75 899.35 879.25 898.25
M 863.65 915.7
Q 861.45 914.35 858.9 914.2 859.05 914.55 858.6 914.75 858.2 914.9 857.75 914.8 854.95 914.4 852.25 915.75 849.6 917.05 848.2 919.5 846.8 922 847.05 924.95 847.3 927.9 849.05 930.1 850.8 932.3 853.6 933.4 856.25 934.45 859.15 934.2 863.15 933.9 865.55 931.65 866.75 930.55 867.5 928.9 868.65 926.65 868.55 924.05 868.45 921.45 867.15 919.25 865.9 917.05 863.65 915.7
M 1196.45 891.1
Q 1187 892.25 1180.25 894.15 1165.45 898.3 1154.55 908.05 1142.8 918.5 1139.4 932.05 1138 937.7 1137.7 945.9 1137.1 965.25 1142.9 978.3 1146.55 986.5 1153.6 994.25 1159.35 1000.55 1168 1007.2 1174.05 1011.8 1178.3 1013.7 1183.55 1016.1 1190.8 1016.85 1195.05 1017.35 1203.85 1017.4 1210.9 1017.4 1214.35 1017.15 1220.25 1016.75 1224.7 1015.4 1229.45 1013.95 1234.75 1010.9 1248.95 1002.9 1259.35 990.15 1269.9 977.25 1274.45 961.85 1276.65 954.7 1276.45 949.3 1276.25 943.15 1272.2 933.9 1267.7 923.65 1262.6 917.4 1257 910.55 1247 903.8 1232.1 893.8 1218.75 891.35 1209.3 889.7 1196.45 891.1
M 1189.3 912.2
Q 1199.1 910.05 1211.1 912.55 1220.7 914.5 1229.15 918.95 1237.9 923.5 1244.45 930.3 1249.5 935.55 1252.2 941.35 1255.3 947.85 1254.95 954.15 1254.6 961.7 1248.85 970.3 1239.5 984.3 1223.55 990.95 1207.2 997.75 1191.45 993.55 1175.3 989.25 1165.4 974.45 1155.35 959.35 1158.65 943.35 1160.95 932.05 1169.5 923.35 1178.05 914.7 1189.3 912.2
M 1209.9 934.15
Q 1209.8 934.8 1208.2 934.8 1205 934.6 1202.35 937.15 1199.9 939.6 1199.35 943 1198.65 947.6 1201.2 951.1 1203.3 954.2 1207.25 955.1 1211.2 956 1214.55 954.25 1217.6 952.6 1219.15 949.2 1220.7 945.85 1219.95 942.4 1219.15 939 1216.3 936.65 1213.4 934.25 1209.9 934.15 Z"/>

<path fill="#663333" stroke="none" d="
M 353.05 1163.1
L 328.6 1171.45
Q 316.75 1175.55 310.5 1177.9 300.55 1181.65 292.9 1185.45 277.45 1193 249.3 1213.6 248.95 1214.05 248.65 1214.55 246.9 1215.55 245.25 1216.5 240.05 1220.25 235.3 1223.55 234.3 1224.45 233.3 1225.35 227 1231.2 225.15 1232.75 220.45 1236.8 216.15 1239 214 1240.1 212.2 1240.6 211.7 1241 211.25 1241.4 191.55 1260.1 176.85 1289 165.55 1311.4 155.1 1344.55 145.5 1375.15 140.5 1400.8 134.55 1431.25 134.4 1458.35 134.15 1508.05 153 1555.25 171.85 1602.45 206.15 1638.3 240.4 1674.15 286.85 1695 333.15 1715.9 382.8 1717.8 446.8 1720.3 515.8 1691.95 539.95 1681.95 561.65 1669.4 561.7 1669.4 561.75 1669.45 615.8 1639.6 647.5 1602.55 665.9 1581.05 677.1 1556.7 688.95 1530.75 691.35 1504.35 692.05 1496.4 692.05 1486.55 692.05 1480.15 691.65 1468.7
L 689.25 1392.95
Q 688.8 1379.45 688.25 1373.2 687.3 1362.25 685.15 1353.75 682.45 1342.85 673.35 1322.95 664.1 1302.6 661.3 1292.2 659.95 1287.15 660.5 1283.15 660.8 1280.45 661.95 1278.6 649.65 1257.25 634.1 1237.3 611.45 1208.25 586.15 1188.2 557.55 1165.5 526.6 1155.25 486.35 1141.9 435.1 1147.55 406.15 1150.75 368.25 1161.05 367.25 1159.8 365.8 1158.75
L 365.75 1158.7
Q 360.35 1160.55 353.05 1163.1
M 439.2 1180.05
Q 476.2 1176.75 510.35 1185.3 546.85 1194.4 574.1 1215.7 597.8 1234.3 612.8 1260.45 620.35 1273.8 626.65 1291.2 631.25 1303.85 636.65 1323.5 651.9 1379.15 654.75 1421.6 658.35 1475.7 643.2 1518.55 623.2 1574.95 570.4 1616.2 521.7 1654.3 457.95 1670.2 411.6 1681.75 374 1677.45 324.9 1671.8 280.85 1639.05 239.95 1608.75 212.55 1562.4 193.3 1529.8 185.55 1498.4 174.5 1453.9 183.95 1403.4 192.35 1358.1 216.25 1312.45 223.75 1298.2 230.85 1287.45 239.4 1274.6 248.75 1264.85 259.7 1253.4 275.1 1242.85 287.2 1234.45 304.65 1225.05 338.8 1206.45 369.85 1195.6 405.7 1183.1 439.2 1180.05
M 426.55 1425.95
Q 425.3 1420.15 420.3 1414.3 412.55 1405.5 401.4 1402.15 390.45 1398.9 379.35 1401.95 370.75 1404.25 364.25 1409.85 355.5 1417.35 351.1 1430.55 347.65 1440.7 348.55 1450.55 349.45 1461.4 355.4 1468.85 362.5 1477.65 374.85 1479.8 386.75 1481.85 397.5 1476.9 407.5 1472.25 415 1462.45 421.8 1453.45 425.25 1441.8 428 1432.25 426.55 1425.95
M 1560.7 1550.15
L 1562.1 1570.65
Q 1562.6 1578.9 1563.15 1582.95 1564 1589.75 1565.6 1594.95 1569.8 1608.55 1579.45 1614.75 1583.8 1617.45 1589.85 1618.95 1594.25 1619.95 1601.15 1620.6 1609.45 1621.4 1615.3 1621.15 1623.1 1620.85 1629.2 1618.7 1635 1616.7 1638.5 1613.2 1642.5 1609.15 1644.75 1601.3 1646.3 1596.1 1647.95 1585.4
L 1650.7 1567.7
Q 1651.7 1560.9 1652 1556.35 1644.65 1557.75 1635.8 1558.2 1628.3 1558.5 1616.85 1558.1 1603.15 1557.7 1593.45 1556.75 1580.85 1555.5 1570.4 1552.95 1565.35 1551.7 1560.7 1550.15
M 1377.4 1555.75
Q 1371.55 1563.8 1364.55 1572.3 1355.45 1583.3 1336.5 1603.95
L 1295.4 1648.6
Q 1290.55 1653.9 1287.6 1656.35 1282.8 1660.15 1278.1 1661.25 1269.2 1663.25 1260 1656.8 1252.65 1651.6 1246.15 1641.8 1232.4 1620.95 1220.95 1590 1219.35 1585.65 1202.75 1534.75 1201.35 1530.6 1200 1528.4 1197.9 1525.15 1195.05 1524.1 1191.7 1523 1187.65 1525 1184.8 1526.45 1181.05 1529.8
L 1034.9 1663.15
Q 1021.85 1675.15 1012.95 1680.35 999.65 1688.2 987.45 1687.2 972.45 1686 959.65 1672.05 950.4 1661.95 941.15 1643.35 916.65 1594 897.35 1541.55
L 812.7 1631.75
Q 805.35 1639.65 799.65 1643.2 791.5 1648.25 784.05 1646.8 778.25 1645.65 773.1 1640.45 769.5 1636.85 765 1629.95 737.45 1587.55 715.75 1542.75 706.2 1566.05 692.15 1588.1 670.75 1621.8 640.95 1649.4 632 1677.2 622.85 1705.1 629.65 1704.3 638.05 1699.85 638.55 1699.6 652.45 1691.35 660.95 1686.25 666.6 1684.7 674.35 1682.55 681.1 1685.15 690.4 1688.75 695 1700.5 698.3 1708.9 699.45 1722.9
L 703.35 1768.9 788.7 1725.3
Q 804.5 1717.15 815.1 1714.7 830.5 1711.15 841.45 1717.05 850.3 1721.75 856.35 1732.7 860.4 1739.9 864.85 1753.7
L 885.15 1816.75
Q 899.6 1813.4 915.35 1802.6 923.2 1797.2 941.95 1781.35 958 1767.8 969.4 1761.2 985.65 1751.85 1000.85 1750.8 1018.4 1749.6 1032.7 1761.05 1047.65 1773 1045.95 1789.25 1056.3 1778.6 1062.05 1773.55 1071.45 1765.3 1080.35 1760.75 1091 1755.35 1102.05 1754.85 1114.15 1754.2 1123.4 1759.6 1134.55 1766.05 1141 1781.05 1145.3 1791.1 1148.8 1809.55 1158.8 1795.95 1168.45 1789.5 1181.2 1780.75 1192.65 1785.1 1202.8 1788.95 1210.2 1805.75 1212.15 1810.25 1216.2 1819.5 1219.95 1827.3 1224.15 1831.75 1241.3 1802.05 1265.15 1777.35 1270.6 1771.7 1274.8 1768.95 1280.75 1765.1 1286.4 1765.15 1293.45 1765.15 1299.2 1770.5 1303.25 1774.25 1308.6 1782.9 1315.45 1794.1 1317.6 1796.9 1323.25 1804.35 1329.4 1807.1
L 1354.45 1758.85
Q 1357.7 1752.6 1360.15 1749.4 1363.9 1744.55 1368.4 1742.65 1376.9 1739.15 1386.7 1745.5 1394.05 1750.35 1401.7 1760.35 1387.35 1658.15 1377.4 1555.75
M 1346.35 1353.15
Q 1354.2 1342.25 1361.45 1342 1359.85 1311.85 1358.65 1281.7 1340.2 1286.8 1320.1 1291.3 1149.9 1329.55 973.6 1302.8 857.5 1285.1 752.4 1241.35 749.75 1267.1 743.6 1296.85 745.95 1296.95 748.35 1299.15 751.55 1302.05 753.7 1307.15 779.4 1368 808.6 1427.85 813.4 1437.7 819.2 1437.6 821.85 1437.55 824.4 1435.45 826.15 1434.05 828.4 1431.2 856.95 1395.75 872.15 1380.2 898.3 1353.45 924.5 1339.65 929.6 1336.95 933.35 1336.05 938.45 1334.8 942.4 1336.35 946.9 1338.1 949.95 1343.4 951.95 1346.95 954.05 1353.75 979.8 1438.55 1026.65 1513.9 1030 1519.3 1033 1522.1 1037.15 1526 1041.7 1526.2 1046.15 1526.35 1050.5 1522.85 1053.55 1520.5 1057.4 1515.45 1097.95 1461.8 1118.65 1435.45 1154.55 1389.85 1184.4 1359.35 1191.2 1352.4 1196.8 1349.25 1204.45 1344.9 1211.25 1346.55 1216.9 1348 1221.6 1353.65 1224.75 1357.45 1228.6 1364.9
L 1278.7 1461.95
Q 1308.7 1404.6 1346.35 1353.15
M 1495.8 1351.55
Q 1486.55 1345.5 1481.05 1337.2 1476.05 1345.25 1473.75 1349.6 1470 1356.7 1468.25 1362.9 1466.25 1370.2 1466.8 1377.2 1467.3 1384.85 1470.95 1390.65 1475.8 1398.3 1486.05 1403.1 1498.05 1408.65 1517.2 1409.25 1527.75 1409.55 1548.6 1409.6 1552.75 1408.15 1557.15 1407.05 1563.45 1405.45 1569.85 1404.55 1571.35 1403.35 1573.55 1401.65 1580.25 1397.05 1590.5 1396.05 1596.7 1395.45 1609 1396.2 1650.6 1398.55 1691.15 1395.9 1708.35 1394.8 1720.9 1392.9 1736.9 1390.5 1749.9 1386.2 1768.8 1380.05 1777.7 1369.65 1786.75 1359.1 1788.4 1341.9 1789.65 1329.5 1786.9 1310.55 1779.45 1323.3 1763.05 1331.6 1751.4 1337.55 1731.7 1342.55 1645.45 1364.25 1556.2 1364.25 1543.7 1364.25 1535.4 1363.55 1524 1362.6 1514.85 1360.05 1504.3 1357 1495.8 1351.55 Z"/>

<path fill="#990000" stroke="none" d="
M 583.9 1262.25
Q 578.65 1268.1 570.3 1275.85 565.6 1280.15 556.15 1288.85 548.05 1296.55 534.4 1310.9
L 499.3 1347.75
Q 460.45 1388.6 441.9 1407.1 443.4 1410.7 444.3 1414.65 445.85 1421.7 445.4 1430.3 444.2 1449.45 434.25 1466.15 433.3 1467.75 432.25 1469.3 432.6 1469.75 433.05 1470.3 435.35 1473.15 439.15 1476.25 439.25 1476.3 445.9 1481.4 456.85 1489.7 469.55 1503.1 476.95 1510.9 491.25 1526.9
L 497.2 1533.3
Q 503.55 1540.1 516.6 1553.35
L 531.85 1568.8
Q 541.15 1578.25 545.35 1582.35 553.1 1589.8 559.6 1595.2 563.25 1598.2 564.6 1599.6 565.05 1600.1 565.5 1600.55 581.8 1585.05 597.3 1563.1 618.65 1532.85 627.6 1505.7 638.15 1473.8 636.3 1433.35 634.8 1402.9 625.5 1359.9 616.95 1320.4 606.55 1295.2 598.05 1274.65 586.75 1258.8 585.55 1260.35 583.9 1262.25
M 238.05 1306.75
L 236.05 1303.75
Q 235.2 1305.1 234.35 1306.45 230 1313.95 224.45 1325.6 204.6 1367.95 197.1 1404.7 188.1 1449 196.65 1486.75 201.3 1507.55 212.4 1530.35 220.9 1547.85 235.5 1570.95 245.65 1586.8 253.3 1596.7 255.3 1599.25 257.3 1601.75 257.4 1601.45 257.5 1601.2 259.05 1597.9 262.9 1592.9 273.35 1579.45 277.7 1574.05 286.15 1563.6 293.35 1555.8 300.25 1548.4 302.5 1545.35 304.45 1542.7 307.55 1537.6 310.85 1532 312.4 1529.75 314.7 1526.55 320.9 1519.35 334.55 1503.45 345.8 1485.9 342.3 1482.5 339.7 1478.35 336.5 1473.25 333.25 1464.35 330.6 1457.3 329.95 1452.6 329.1 1446.4 330.5 1438.65 331.4 1433.85 334.05 1424.95 334.9 1422.3 335.65 1420.05 326.1 1410.3 312.3 1394.35
L 296.4 1376.1
Q 285.15 1363.3 280 1357.95 278.1 1356 271.8 1349.7 266.7 1344.6 263.75 1341.35 257.2 1334.25 250.2 1324.55 245.8 1318.5 238.05 1306.75 Z"/>

<path fill="#FFFFCC" stroke="none" d="
M 308.8 1557.85
Q 307.2 1559.6 303.8 1563.1 299.1 1568.15 290.45 1578.7 282.65 1588.25 278.95 1593.35 272.8 1601.75 269.1 1609.1 268.1 1611.1 267.05 1612.6 270.75 1616.3 274.45 1619.5 286.3 1629.75 302.3 1638.25 315.55 1645.2 333.3 1651.75 350.9 1658.3 365.25 1661.55 382.8 1665.6 398.25 1665.55 414.95 1665.55 435.05 1660.7 448 1657.65 470.85 1650.1 495.1 1642.15 508.85 1636.45 529.45 1627.9 544.4 1617.7 548.8 1614.75 553.15 1611.3 552.85 1611 552.55 1610.7
L 495.7 1551.4
Q 472 1526.2 460.1 1513.6 440.4 1492.85 425.25 1478.3 420.7 1483.3 415.25 1487.35 403.2 1496.35 389.55 1498.7 375.2 1501.2 361.4 1495.75 360.35 1495.35 359.35 1494.9 358.1 1496.75 355.65 1499.35 344.2 1511.85 331.85 1526.45 325.35 1534.15 321.9 1539.3 321.05 1540.55 317.8 1545.85 315.3 1549.85 313.55 1552.25 311.65 1554.75 308.8 1557.85
M 285.7 1260.6
Q 272.4 1268.3 265.15 1273.4 254.2 1281.05 246.95 1289.05 243.85 1292.45 240.95 1296.45 241.35 1297.2 241.95 1298.35 244.1 1302.5 247.5 1307.15 249.7 1310.25 253.9 1315.4 269.8 1334.9 287.55 1353.55 291.5 1357.8 299.6 1366.1
L 326.65 1394
Q 334.65 1402.15 340.75 1408.6 343.25 1404.7 347.1 1400.75 356.5 1391 367.3 1386.4 375.3 1382.95 387.55 1381.3 399.7 1379.55 407.65 1380.7 420.75 1382.6 431.1 1392.15 431.65 1392.7 432.25 1393.25 434.75 1390.35 438.6 1386.25
L 509.1 1311.55
Q 523.45 1296.3 530.85 1288.75 543 1276.2 553.2 1266.65 559.25 1260.95 561.4 1258.8 565.85 1254.3 568.7 1250.25 570.65 1247.3 571.65 1245.85 572.8 1244.3 573.85 1243.15 572.25 1241.5 570.6 1239.85 544.1 1214.2 504 1204.55 467.1 1195.7 427.1 1202.2 392.65 1207.85 354.05 1224.8 325.75 1237.25 285.7 1260.6
M 727.5 684.45
Q 719.6 686.5 710.45 686.2 700.1 685.8 688.85 682.3 656.75 672.45 634.6 644.75 612.4 617.1 609.7 583.55 589.45 632.2 583.8 684.75 582.65 695.95 582.55 704.15 582.45 714.65 584.1 723.35 585.35 730.15 588.15 738.25 589.85 743.35 593.6 752.75 597.05 761.4 599.25 766.2 602.55 773.55 605.95 779.15 618.65 800.05 641.2 811.95 663.75 823.9 688.15 822.65 690.65 822.55 695.1 822.25 700.7 795.75 704.75 777.95 714.55 734.8 727.5 684.45
M 1363.1 1372.6
Q 1363.05 1372.6 1363.05 1372.7 1332.4 1411.85 1310.25 1456.4 1305.8 1465.3 1304.2 1468.05 1300.45 1474.4 1296.4 1478.45 1291.5 1483.3 1285.4 1485.45 1278.7 1487.75 1272.75 1485.85 1267.05 1484.05 1262.2 1478.5 1258.9 1474.65 1254.75 1467.2 1242.9 1445.9 1229.5 1418.8 1221.1 1401.75 1205.85 1369.4 1176.7 1396.05 1137.4 1447.35 1126.85 1461.1 1105.75 1488.75 1087.35 1512.45 1072.6 1528.85 1064.05 1538.4 1056.95 1543 1047.2 1549.35 1037.95 1548.15 1029.45 1547.1 1021.75 1539.65 1016.3 1534.4 1009.95 1524.35 959.4 1444.65 933.15 1354.15 881.8 1391.55 843.45 1442.5 837.75 1450.2 833.15 1453.75 826.6 1458.95 820.05 1457.95 815.5 1457.25 811.25 1453.4 808.2 1450.6 804.6 1445.35 794.05 1430 783.55 1409.1 777.3 1396.85 765.7 1371
L 739.9 1313.7
Q 735.45 1332.85 727.6 1361.35 732.8 1384.25 734.9 1407.3 739.9 1462.15 726.4 1511.4 724.1 1519.9 721.2 1528.25 745.4 1572.65 771.05 1616.85 774.1 1622.2 776.9 1624.95 780.85 1628.85 785.15 1628.9 788.8 1629 792.5 1626.4 795 1624.7 798.55 1620.85
L 882.65 1530.3
Q 887.85 1524.75 892.05 1522.3 897.9 1518.85 903.05 1520.45 906.7 1521.65 909.6 1525.35 911.6 1528 913.85 1532.8 919.5 1544.9 926.25 1563.25 930.1 1573.5 937.65 1594.15 951.85 1631.3 967.55 1651.9 978.3 1666.05 988.95 1665.6 993.3 1665.4 998.05 1662.7 1001.2 1660.9 1006 1656.85 1029.1 1637.7 1087.55 1583.35 1138.4 1536.1 1170.5 1511.55 1180 1504.25 1187.4 1501.4 1197.55 1497.4 1205.55 1500.7 1211.75 1503.25 1216.3 1510 1219.65 1514.85 1222.9 1523.35 1226.95 1533.95 1233.1 1553.65 1239.8 1575.1 1243.1 1584.1 1255.8 1619.25 1273.65 1638.4 1334.85 1559.7 1365.55 1520.45 1369.45 1515.3 1373.4 1512.25 1367.2 1442.45 1363.1 1372.6
M 1584.1 598.05
Q 1579.05 614.65 1575.3 623.3 1562.25 654.05 1533.8 677.45 1507.45 699.15 1472.95 710.75 1448.45 718.95 1428.65 718.6 1434.45 767 1441.15 822.8 1445.3 821.8 1450.6 821.7 1453.9 821.65 1462.2 822.15 1487.6 823.65 1506.15 820.45 1529.75 816.35 1545.7 804.3 1557.65 795.15 1569.15 778.2 1597.85 735.65 1603.25 682.3 1608.6 629.2 1589.3 581.2
L 1584.1 598.05 Z"/>

<path fill="#333333" stroke="none" d="
M 836.6 1747.05
Q 833.05 1740.95 827.7 1738.95 823.2 1737.25 817.3 1738.7 813.3 1739.7 807.15 1742.65 774.65 1758.45 744.25 1777.8 744.05 1779 743.75 1780.35
L 718.1 1898.55
Q 716.15 1907.7 714.25 1912.55 711.3 1920 706.4 1924.15 702.3 1927.65 695.75 1929.65 692.1 1930.8 683.7 1932.35 662.35 1936.35 641.75 1942.85 672.6 1949.25 711.45 1954.6 735.35 1957.85 781.7 1963.05 784.2 1963.3 785.5 1963.25 787.6 1963.15 789 1962.25 790.7 1961.25 791.7 1959.1 792.45 1957.6 793.1 1955
L 838.2 1788.35
Q 839.4 1784.05 840.15 1781.8 841.45 1778.2 843.2 1775.65 844.2 1774.1 845.5 1772.95
L 841.35 1759.05
Q 839.1 1751.3 836.6 1747.05
M 1192.5 1828.2
Q 1188.25 1818 1184.15 1812.6 1178.35 1814.6 1172.35 1820.6 1168.95 1824.1 1162.5 1831.65 1161.9 1832.3 1161.25 1832.95 1162.65 1844.6 1162.5 1857.95 1162.3 1872.35 1159.9 1896.9 1157.05 1925.5 1156.5 1935.95 1155.45 1957.9 1157.7 1974.8 1235.65 1974.8 1312.2 1960.45 1276.5 1950.8 1242.5 1938.55 1236 1936.2 1232.65 1934.15 1227.45 1931.1 1225.2 1926.95 1223.55 1923.85 1223.1 1919.55 1222.8 1916.8 1222.95 1911.8 1223.85 1889.2 1227.7 1861.3 1219.95 1862.95 1211.9 1857.8 1204.55 1852.95 1199.8 1844.45 1197.85 1840.95 1192.5 1828.2
M 716.15 1260.8
Q 708.55 1265.7 695.4 1272.5 703.35 1288.2 710.05 1304.95 712.45 1311.15 714.7 1317.35 723.35 1283 730.35 1250.5 723.9 1255.85 716.15 1260.8
M 1605.45 1424.65
Q 1604.7 1424.55 1603.9 1424.45 1587.05 1423.75 1576.8 1424.45 1576.1 1424.5 1575.4 1424.55 1570.4 1425.3 1565.4 1426.6 1545.05 1431.95 1529.9 1444.9 1518.35 1454.8 1516.35 1465.05 1514.95 1472.35 1518.05 1480.8 1520.35 1487.35 1525.75 1495.3 1531 1502.95 1535.9 1508.15 1541.95 1514.5 1548.55 1518.2 1553.85 1521.05 1560.8 1523 1565.95 1524.35 1573.7 1525.65 1590.75 1528.45 1605.3 1529.1 1622.15 1529.9 1636.95 1527.8 1653.4 1525.55 1667.7 1519.8 1683.15 1513.7 1695 1503.95 1703.35 1497.2 1707.6 1489.35 1712.65 1479.95 1710.3 1471.5 1708.65 1465.35 1703.15 1460.05 1698.8 1455.95 1691.7 1451.95 1680.75 1445.95 1669 1442.25 1660.9 1439.6 1659.15 1438.95 1653.75 1436.75 1650.5 1433.7 1646.75 1430.05 1645.75 1425.1 1641 1425.3 1636.75 1425.4 1631.4 1425.45 1619.4 1425.1 1618.65 1425.25 1617.85 1425.45 1615.2 1425.9 1611.7 1425.6 1610.5 1425.5 1605.45 1424.65
M 1387.75 1345.6
L 1386.95 1343.7
Q 1387.85 1376.1 1390.25 1411.3 1392.25 1441.1 1395.8 1477.9 1402.8 1484 1411.15 1488.45 1421.25 1493.9 1432.35 1496.45 1439.3 1498.15 1453.8 1499.55
L 1468.9 1501.1
Q 1477.4 1501.95 1481.5 1502.15 1493.9 1502.75 1503.4 1500.55 1503.75 1500.5 1504.15 1500.4 1501.5 1495.85 1499.65 1491.9 1493.8 1478.9 1494.55 1467.25 1495.1 1458.5 1499.5 1449.7 1503.4 1441.75 1510.05 1434.45 1510.75 1433.7 1511.45 1432.9 1510.5 1432.95 1509.65 1432.95 1491.1 1433.45 1475.9 1427.85 1468.65 1425.2 1462.85 1421.35 1461.25 1421.35 1459.55 1420.9 1457.15 1420.35 1453.55 1418.75 1433.8 1409.75 1418 1394 1402.4 1378.3 1393.15 1358.45 1391 1353.85 1387.75 1345.6
M 1333.95 923.8
Q 1323.4 905.85 1306 891.25 1289.9 877.7 1269.3 868.2 1251.15 859.8 1228.6 854 1210.4 849.3 1186.05 845.6 1115.55 834.95 1046.2 838.55 1031 839.3 1020.2 840.8 1006.2 842.75 994.85 846.45 988.5 848.7 985.3 849.75 979.6 851.7 975.6 852.5 965.95 854.4 953.2 852.65 949.1 852.1 930.85 848.35 899.8 842.05 873.05 843.35 841.95 844.9 817.5 856.7 790.45 869.7 774.35 894.85 757.45 921.35 761.1 949.1 763.6 968.25 775.8 985.7 787.05 1001.9 804.45 1013.65 819.8 1024.05 840.15 1031.3 856.55 1037.1 878.9 1041.8 901.9 1046.55 930.1 1050.05 949.95 1052.55 981.8 1055.45 1054.1 1062.05 1098.75 1062.3 1163.2 1062.8 1214.9 1052.4 1274.4 1040.5 1312.9 1014.25 1322.7 1007.55 1329.1 1001.1 1337 993.05 1341 984.3 1347.15 970.65 1344.65 953.75 1342.45 938.6 1333.95 923.8
M 1180.25 894.15
Q 1187 892.25 1196.45 891.1 1209.3 889.7 1218.75 891.35 1232.1 893.8 1247 903.8 1257 910.55 1262.6 917.4 1267.7 923.65 1272.2 933.9 1276.25 943.15 1276.45 949.3 1276.65 954.7 1274.45 961.85 1269.9 977.25 1259.35 990.15 1248.95 1002.9 1234.75 1010.9 1229.45 1013.95 1224.7 1015.4 1220.25 1016.75 1214.35 1017.15 1210.9 1017.4 1203.85 1017.4 1195.05 1017.35 1190.8 1016.85 1183.55 1016.1 1178.3 1013.7 1174.05 1011.8 1168 1007.2 1159.35 1000.55 1153.6 994.25 1146.55 986.5 1142.9 978.3 1137.1 965.25 1137.7 945.9 1138 937.7 1139.4 932.05 1142.8 918.5 1154.55 908.05 1165.45 898.3 1180.25 894.15
M 896.1 875.35
Q 907.65 879.25 915.65 884.7 927.75 892.9 934.7 906 940.2 916.4 940.7 927.75 941.2 939.8 935.7 949.15 933.6 952.7 930.25 956.4 927.75 959.05 923.65 962.8 916.6 969.05 911.15 972.6 900.05 979.65 886.8 982.05 873.5 984.4 860.65 981.6 847.75 978.75 836.7 971.05 825.65 963.35 818.55 952.3 814.6 946.05 812.1 939.55 806.8 926.1 808.95 915.5 811.1 904.6 821.35 894.2 833.65 881.8 847.5 879.6 849.1 879.35 852.4 878.95 855.25 878.6 857.1 877.95 859.75 877 864.6 874.25 876.7 868.7 896.1 875.35 Z"/>

<path fill="#CCCCCC" stroke="none" d="
M 754.7 892.35
Q 752.7 892.25 750.5 891.8 747.5 891.2 741.7 889.35
L 711.7 879.75
Q 709.8 888.45 707.95 897.1 726.45 903.35 744.1 908.4 746.25 909 747.85 909.6 750.5 900.6 754.7 892.35
M 697 949.05
Q 697.85 949.35 698.8 949.7
L 742.2 965.55
Q 744.2 966.25 746 967 743.05 955.7 742.9 943.45 739.9 943.4 735.75 942.65 735.5 942.55 735.25 942.55 730.1 943.6 723.6 942.85 711.65 941.5 699.9 935.15 698.4 942.1 697 949.05
M 705.65 907.9
Q 704.05 915.45 702.5 923 703.45 923.5 704.5 924.1 709.05 925.8 714.25 927.15 719.95 928.65 731.1 930.8 738.6 932.2 742.6 933.8 742.9 933.9 743.25 934.05 743.45 931.5 743.75 928.9 744.45 923.3 745.65 917.85 741.4 917.75 735 916.3 719.1 912.6 705.65 907.9
M 1440.7 1004.05
Q 1417.5 1012.85 1392.45 1015.15 1368.6 1017.35 1345.4 1013.45 1344.55 1014.3 1343.65 1015.2 1333.65 1025.4 1318.7 1034.9 1272.4 1064.45 1207 1075.25 1157.75 1083.4 1085.85 1081.95 1022.7 1080.7 959.15 1074.75 916 1070.65 887.4 1064.75 848.6 1056.85 818.85 1042.9 796.75 1032.65 780.65 1019.05 762.2 1003.6 752.7 984.65 750.35 979.9 748.55 975.05 748.45 975.05 748.3 974.95 748.5 975.85 747.3 976.5 746.1 977.15 744.65 977
L 728.2 975.2
Q 718.1 974.15 713.2 973.3 704.85 972 698.5 969.8 695.65 968.8 693.1 967.65 674.35 1058.65 657.35 1149.9 655.75 1158.5 654 1163.1 653.95 1163.2 653.95 1163.3 664.35 1171.45 678.5 1178.85 688.8 1184.25 707.4 1192.3 804.2 1233.8 878.75 1255.4 973.6 1282.95 1057.3 1286.6 1099.55 1288.35 1160.25 1284.45 1254.85 1278.45 1319.85 1263.5 1405.35 1243.85 1466.9 1204.25 1472.5 1200.7 1474.8 1199.45 1475.35 1199.15 1475.85 1198.95 1472.3 1190.15 1469.65 1179.25 1467.55 1170.7 1464.9 1155.75 1453.5 1092.75 1440.7 1004.05
M 1372.1 985.9
Q 1366.9 985.85 1362.7 985.55 1362.05 987.45 1361.3 989.35 1358.65 995.75 1354.65 1001.9 1383.9 1004.45 1412.75 997.4 1425.95 994.2 1430.6 993.8 1435.2 993.3 1439.2 993.85 1435.45 968.05 1431.65 940.15 1426.95 942.15 1420.8 943.45 1417.2 944.1 1414.15 944.65 1412.75 945.05 1411.15 945.5 1400.8 948.1 1395.5 948.8 1388.85 949.65 1376.85 949.4
L 1365.2 949.2
Q 1365.45 951.05 1365.65 952.9 1366.7 961.45 1366.05 969.45 1379.3 970.8 1392.9 971.1 1392.9 971 1392.9 970.95 1393.45 968.85 1394.65 967.95 1396.05 967 1399.2 967.4 1409.45 968.25 1419.55 966.3 1423.8 965.4 1425.7 965.55 1428.5 965.65 1431 967.15 1433.5 968.6 1434.9 971 1432.45 973.45 1426.4 975.7 1425.6 976 1424.9 976.3 1423.55 977.6 1421.35 978.85 1413.8 982.95 1403.1 984.45 1396.55 985.4 1383.75 985.7 1375.45 985.9 1372.1 985.9
M 1354.4 917.3
Q 1358.6 925.3 1361.35 933.45 1362.05 933.65 1362.9 933.9 1367 935.05 1375.6 935.15 1388.1 935.2 1400.55 934.55 1404.2 933.5 1408.35 932.6 1413.3 931.6 1422.3 930.4 1427.05 929.7 1429.75 929.8 1430 929.8 1430.25 929.85 1428.85 919.8 1427.5 909.45 1417.65 911.9 1411.6 913.2 1398.55 916 1387.85 917.1 1370.85 918.8 1354.3 917.05 1354.35 917.2 1354.4 917.3
M 1647 1060.45
Q 1647.65 1050.65 1647.9 1029.5
L 1613.6 997.9
Q 1605.9 990.75 1602.2 987 1597.25 982.2 1592.8 976.95 1586.65 969.5 1583.55 965.85 1573.65 954.6 1568.9 948.8 1567 946.45 1563.35 941.55
L 1558.35 935.05
Q 1553.85 978 1552.45 1030.95 1551.6 1065.75 1551.8 1133.6 1552 1202.8 1551.25 1236.25 1549.85 1293.05 1545.1 1338.2 1547.2 1338.25 1549.45 1338.3 1575 1338.8 1600.4 1337.25 1600.25 1333.65 1600.95 1329 1602.5 1318.15 1606.4 1303.6 1611.15 1286.95 1613.45 1278.55 1623.25 1243.2 1630.3 1197.75 1634.55 1170.75 1641.05 1115.75
L 1644.05 1090.25
Q 1646.4 1070.5 1647 1060.45
M 1739.35 972.3
Q 1736.3 974.3 1727.9 979.3 1720.65 983.65 1716.6 986.5 1714.7 987.85 1709.35 991.95 1704.85 995.45 1702.05 997.3 1700.05 998.6 1695.2 1001.45 1690.65 1004.05 1688.3 1005.7 1683.55 1009.05 1675.65 1016.35
L 1664.8 1026.4
Q 1663.8 1027.35 1662.9 1028.15 1663.65 1030.45 1662.9 1032.75 1662.05 1035.15 1660.05 1036 1663.5 1051.75 1663.1 1071.8 1662.85 1084.7 1660.3 1109.9 1652.65 1185.3 1647.05 1223.9 1637.9 1286.35 1624.45 1335.3 1656 1332.1 1687.15 1325.75 1685.65 1319.65 1686.4 1312.05 1694.6 1233.5 1716.55 1135.15 1727.35 1086.5 1759.6 960.6 1760.15 958.65 1760.55 957
L 1748.55 965.8
Q 1742.5 970.15 1739.35 972.3
M 1674.45 816.85
Q 1672.8 814.75 1671.75 813.8 1670 812.3 1668.25 812 1663.75 811.2 1658.4 818.05 1623.25 862.75 1578.1 897.55 1571.9 902.3 1569.3 904.7 1564.7 909.1 1562.5 913.6 1561.1 916.6 1560.25 920.6
L 1564.85 925.4
Q 1572.35 933.25 1580.4 942.65 1587 950.3 1593.4 958.1 1601.2 967.45 1604.45 970.95 1609.55 976.35 1617.8 983.95
L 1652.75 1016.55
Q 1664.2 1004.95 1682.25 992.05 1687.1 988.55 1699.8 979.95
L 1727.4 961.35
Q 1736.9 955 1741.9 951.35 1749.7 945.6 1755.55 940.3 1758.6 937.55 1760.05 936.4 1759.4 935 1758.6 933.45 1757.05 930.55 1753.5 925.2 1716.5 870 1674.45 816.85
M 1369.25 531
Q 1363.55 535.35 1355.25 540.05 1328.35 555.15 1293.1 564.2 1265.35 571.35 1226.95 575.9 1175.05 582.05 1115.75 583.4 1065.6 584.45 1004.2 582.05 953.85 580.2 919.7 576.4 873.8 571.2 836.65 561 823.85 557.55 815.25 553.95 803.9 549.25 795.85 542.85 792.85 540.5 790.3 537.85 790.15 539.15 789.95 540.55 788.4 550.85 783.45 570.85 750.55 702.9 721.3 835.5 721.7 839.1 719.9 842.75 719.75 843.05 719.6 843.35 716.4 858.05 713.2 872.85 735.5 880.55 758.55 885.05 758.65 885.05 758.75 885.15 761.6 880.4 765 875.85 781.85 853.3 808.75 839.5 834.6 826.3 864 823.85 880.5 822.4 908.8 824.4 941.45 826.7 953.7 826.45 966.25 826.2 983.65 824.25 993.55 823.1 1013.45 820.55 1103.1 810.25 1192.15 824.8 1218.95 829.15 1239.6 835 1264.55 842.05 1284.65 852.25 1307.3 863.65 1324.75 879.5 1336.75 890.45 1345.55 902.85 1362.7 905.95 1385.8 904.4 1399.65 903.4 1426.3 900.5 1421.95 867.45 1417.35 831.65 1400.8 701.1 1396.55 669.15 1385.85 588.95 1375.9 525.15 1372.85 528.2 1369.25 531
M 1335.8 477.85
Q 1332.25 475.3 1327.35 473.35 1323.8 472 1318.15 470.4 1281.15 459.85 1233.25 455.25 1204.35 452.55 1146.65 450.55 1075.35 448.2 1039.55 448.5 980.05 448.95 932.85 455.2 899.25 459.7 873.3 467.15 841.95 476.15 817.6 490.45 810.25 494.8 806.3 500.05 801.35 506.65 803.6 512.8 804.85 516.2 808.35 518.95 810.85 520.95 815.25 523.1 838.4 534.55 863.7 540.5 875.7 543.25 890.55 545.3 901.05 546.65 917.7 548.25 1008.5 556.75 1088.7 555.55 1178.45 554.2 1258.8 540.7 1291.1 535.3 1311.55 528 1339.55 518.05 1357.35 501.35 1353.9 498.35 1346.85 489.25 1340.5 481.25 1335.8 477.85 Z"/>

<path fill="#FFFFFF" stroke="none" d="
M 881.65 896.8
Q 880.7 897.1 879.25 898.25 877.75 899.35 876.9 899.65 875.1 900.4 872.6 899.85 872.5 899.85 868.35 898.6 861.6 896.65 853.75 898.4 846.8 900.05 840.05 904.3 831.7 909.65 829.2 916 826.6 922.8 829.8 932.05 833.5 943 842.9 951 852.05 958.9 863.6 961.45 874.9 963.95 886.75 961.1 898.3 958.35 907.8 951.25 913.35 947.1 916.7 942.2 920.7 936.6 921.15 930.7 921.7 924.6 918.55 918.55 915.65 912.95 910.4 908.7 905.95 905.05 899.55 902.1 895.25 900.15 887.65 897.45 883.65 896.15 881.65 896.8
M 858.9 914.2
Q 861.45 914.35 863.65 915.7 865.9 917.05 867.15 919.25 868.45 921.45 868.55 924.05 868.65 926.65 867.5 928.9 866.75 930.55 865.55 931.65 863.15 933.9 859.15 934.2 856.25 934.45 853.6 933.4 850.8 932.3 849.05 930.1 847.3 927.9 847.05 924.95 846.8 922 848.2 919.5 849.6 917.05 852.25 915.75 854.95 914.4 857.75 914.8 858.2 914.9 858.6 914.75 859.05 914.55 858.9 914.2
M 1211.1 912.55
Q 1199.1 910.05 1189.3 912.2 1178.05 914.7 1169.5 923.35 1160.95 932.05 1158.65 943.35 1155.35 959.35 1165.4 974.45 1175.3 989.25 1191.45 993.55 1207.2 997.75 1223.55 990.95 1239.5 984.3 1248.85 970.3 1254.6 961.7 1254.95 954.15 1255.3 947.85 1252.2 941.35 1249.5 935.55 1244.45 930.3 1237.9 923.5 1229.15 918.95 1220.7 914.5 1211.1 912.55
M 1208.2 934.8
Q 1209.8 934.8 1209.9 934.15 1213.4 934.25 1216.3 936.65 1219.15 939 1219.95 942.4 1220.7 945.85 1219.15 949.2 1217.6 952.6 1214.55 954.25 1211.2 956 1207.25 955.1 1203.3 954.2 1201.2 951.1 1198.65 947.6 1199.35 943 1199.9 939.6 1202.35 937.15 1205 934.6 1208.2 934.8 Z"/>
</g>

<g id="Layer0_0_FILL">
<path fill="#000000" fill-opacity="0.2" stroke="none" d="
M 747.8 886.9
Q 743.65 883.85 737.1 881.25 719.95 874.4 709.7 879.85 705 882.35 701.35 887.7 698.55 891.85 696 898.3 689.5 914.85 687.4 932.35 686.6 939.2 687 944.05 687.55 950.45 690.15 955.05 694 961.9 702.8 966 709.2 968.95 719.7 971 729.6 972.9 736.3 972.35 745.4 971.55 750.55 966.35 757.6 959.25 756.65 944.85 756.5 942.8 755.3 933.35 754.4 926.35 754.65 921.9 755.85 913 756.3 908.6 757.15 900.8 755.15 895.85 753.1 890.8 747.8 886.9
M 1354.25 932.95
Q 1357.75 935.95 1362.25 936.6 1364.3 936.95 1364.55 937 1365.8 937.3 1366.5 938 1367.6 939.15 1367.6 942.1 1367.65 944.85 1367.5 950.3 1367.55 955.15 1368.15 958.5 1368.35 959.45 1368.8 961.3 1369.15 962.9 1369.2 964.1 1369.35 966.95 1368 970.75 1366.2 976 1362.85 979.55 1361.9 980.5 1358.8 983 1356.2 985.1 1354.95 986.65 1352.1 990.2 1352 995.05 1351.9 999.9 1354.6 1003.55 1358.45 1008.65 1366.1 1010.05 1371.05 1010.95 1379.55 1010 1391.15 1008.7 1402.45 1006.1 1406.3 1005.25 1407.8 1005 1410.85 1004.55 1413.2 1004.8 1415.35 1005.05 1418.8 1006.3 1422.85 1007.7 1424.3 1008.05 1431 1009.55 1437.75 1006.35 1444.4 1003.2 1447.9 997.1 1451.3 991.1 1451 983.75 1450.7 976.55 1447 970.55 1443.7 965.85 1442.4 963.4 1440.1 959.15 1440.9 955.7 1441.3 954.05 1442.55 952.1 1443.3 950.95 1444.9 948.75 1449.15 942.25 1448.6 934.15 1448 925.85 1442.55 920.65 1441.9 920 1439.45 917.95 1437.45 916.3 1436.5 915.05 1435.45 913.75 1434.25 911.25 1432.7 908.15 1432.2 907.3 1430.15 903.9 1426.75 901.55 1423.4 899.2 1419.45 898.5 1415.5 897.8 1411.55 898.85 1407.55 899.85 1404.45 902.35 1403.25 903.35 1400.95 905.7 1398.75 908 1397.45 909 1392.35 913.05 1383.7 914 1376.1 914.85 1368.5 913.15 1365 912.3 1363.2 912 1360.1 911.45 1357.85 911.95 1353.6 912.85 1351.15 917.1 1348.7 921.25 1349.7 925.65 1350.6 929.9 1354.25 932.95
M 683.85 1964.95
Q 692.35 1966.3 700.8 1967.35 719.65 1969.8 743.35 1972 757.5 1973.3 786.05 1975.6 791.35 1976 794.2 1975.8 798.65 1975.45 801.7 1973.6 805.05 1971.55 806.8 1967.75 808.5 1964.05 808.05 1960.1 807.6 1956.2 805.2 1952.85 802.85 1949.55 799.3 1947.7 796.4 1946.15 792.35 1945.45 789.85 1945 785 1944.65
L 701.6 1938.55
Q 680.4 1937 669.9 1935.85 652.35 1933.9 638.55 1930.8 634.45 1929.85 632.2 1929.8 628.65 1929.7 626.3 1931.25 623.1 1933.45 622.9 1938 622.75 1942.3 625.35 1945.6 627.55 1948.45 631.5 1950.55 634.1 1952 638.95 1953.65 660.75 1961.1 683.85 1964.95
M 1153.65 1958.65
Q 1149 1959.9 1146.7 1962.95 1144.45 1965.9 1144.95 1969.9 1145.5 1973.95 1148.4 1976.25 1150.3 1977.75 1153.3 1978.5 1155.3 1978.95 1158.85 1979.25 1203.2 1983 1248.25 1981.7 1266 1981.2 1278.85 1979.85 1294.7 1978.25 1311.2 1974.85 1318.1 1973.45 1322.05 1971.75 1327.75 1969.25 1330.7 1965.15 1334.3 1960.1 1333.1 1953.45 1331.95 1946.8 1326.8 1943.3 1322.25 1940.15 1315.2 1940.15 1310.75 1940.1 1302.65 1941.65 1232.95 1954.9 1162.35 1957.6 1156.7 1957.85 1153.65 1958.65
M 1225.9 1851.9
Q 1224.5 1851.85 1223.55 1851.5 1221.6 1850.85 1219.3 1847.85 1218.35 1846.65 1214.45 1840.9 1206.85 1829.7 1197.15 1817.8 1194.15 1814.2 1192.15 1812.45 1189.1 1809.8 1186 1808.9 1180.3 1807.25 1173.4 1810.7 1171 1811.9 1167.85 1814.1 1166.1 1815.4 1162.6 1817.95 1156.75 1822.05 1155.3 1823.3 1151.45 1826.65 1150.1 1830.25 1149 1833.15 1149.35 1836.35 1149.75 1839.55 1151.5 1842.1 1153.25 1844.65 1156.15 1846.15 1159 1847.65 1162.1 1847.65 1165.45 1847.65 1169.1 1845.85 1171.9 1844.5 1175.3 1841.8 1177.85 1839.75 1179.35 1840.3 1180.1 1840.6 1181.15 1841.95
L 1194.7 1860.35
Q 1198.75 1865.85 1200.65 1868.65 1203.85 1873.35 1205.9 1877.4 1206.55 1878.6 1207.75 1880.9 1208.8 1882.9 1209.9 1884.2 1213 1888 1218.2 1889.3 1223.3 1890.55 1228.15 1888.95 1232.8 1887.4 1236.5 1883.65 1240 1880.1 1242 1875.35 1243.45 1872.1 1243.65 1868.85 1243.9 1865.65 1242.8 1862.55 1241.75 1859.45 1239.6 1857.1 1237.4 1854.75 1234.45 1853.35 1231.45 1852 1228.3 1851.9 1226.7 1851.9 1225.9 1851.9
M 829.35 1724.8
Q 823.6 1722.95 816.4 1725.75 812.35 1727.4 804.95 1732.35 773.05 1753.6 737.7 1769.25 731.3 1772.1 728.25 1774.3 723.45 1777.8 722.15 1782.25 721.05 1786.1 722.75 1790.05 724.45 1794 728 1795.85 732.8 1798.3 739.5 1796.65 741.9 1796 745.05 1794.7 746.85 1793.95 750.45 1792.35 755.1 1790.35 764.2 1787.3 773.65 1784.15 778 1782.35 781.9 1780.75 797.5 1772.85 809.4 1766.85 817.45 1764.7 824.3 1776.15 829.9 1788.5 832.45 1794.1 833.8 1796.35 836.3 1800.55 839.4 1802.75 842.35 1804.8 846.05 1805.35 849.75 1805.9 853.15 1804.75 856.6 1803.65 859.25 1801.05 861.9 1798.45 863.15 1795.05 865.65 1788.35 862.6 1779.85 861.5 1776.7 859.4 1772.85 858.65 1771.35 855.55 1766.1 849.6 1755.65 845.15 1745 842.6 1739.05 842.5 1738.9 840.95 1735.5 839.4 1733.1 835.15 1726.65 829.35 1724.8
M 428.5 1442.85
Q 422.25 1444.55 407.4 1451.05 394.2 1456.9 386.1 1458.35 379.05 1459.6 371.85 1458.95 364.65 1458.25 357.95 1455.7 352.25 1453.55 350.3 1453.15 345.85 1452.25 342.95 1454.1 340.4 1455.7 339.6 1459 338.8 1462.15 339.9 1465.25 341.7 1470.2 347.9 1474.5 356.1 1480.25 366.55 1482.8 376.45 1485.15 387 1484.3 405.85 1482.8 425.7 1471.45 432.95 1467.35 437 1462.55 442.1 1456.45 441.3 1450.1 441 1447.65 439.8 1445.7 438.45 1443.55 436.35 1442.7 433.7 1441.55 428.5 1442.85
M 122.15 1508.1
Q 122.85 1510.4 124.6 1514.45 139.1 1547.85 149.85 1569.25 164.6 1598.7 179.85 1621.45 217.5 1677.5 265.35 1704.9 306.95 1728.75 359 1732.7 407.9 1736.4 457.3 1722.15 502.2 1709.2 547.1 1681.85 586.25 1658 626.45 1622.5 651.4 1600.5 667.75 1581.45 671.7748046875 1576.7771484375 675.45 1572.1 663.9208984375 1599.362890625 655.25 1615.4 639.7 1644.2 621.1 1663.1 616.25 1668 614.9 1669.6 611.65 1673.5 610.3 1677.15 608.8 1681.2 609.3 1685.55 609.8 1689.95 612.25 1693.4 614.75 1696.9 618.75 1698.75 622.8 1700.65 627 1700.15 631.1 1699.7 635.35 1696.95 638.45 1694.9 642.35 1691 649.8 1683.5 657.05 1673.5 662.8 1665.5 669.6 1654.3 708.7 1589.6 727.4 1516.4 730.05 1505.9 730.85 1499.25 732 1489.7 730.4 1482.05 728.8 1474.6 724.35 1472.95 722.8134765625 1472.4037109375 721.1 1472.65 721.5744140625 1470.984375 722.05 1469.25 724.5 1460.4 724 1453.95 723.3 1445.45 717.45 1442.2 713.45 1440 708.4 1441.2 703.7 1442.3 700.05 1445.75 697 1448.6 694.4 1453.3 693.05 1455.75 690.25 1461.9 663.5 1521.25 615.9 1570.7 570 1618.35 510.6 1650.8 464.1 1676.2 419.2 1685.6 367.85 1696.3 323.4 1684.85 292.25 1676.8 262.9 1657.4 235.95 1639.6 212.35 1613.5 191.7 1590.65 172.35 1560.1 157 1535.95 139.45 1501.75 137.4 1497.9 135.7 1495.95 133.1 1493.15 130.1 1492.9 126.85 1492.65 124.3 1495.4 121.85 1497.95 121.45 1501.5 121.1 1504.5 122.15 1508.1
M 1735.35 962.45
Q 1732.55 964.45 1724.65 970.9 1687.85 1001.15 1644.55 1020.5 1633.3 1004.2 1616.25 986.15 1606.1 975.45 1584.45 954.75 1579.2 949.65 1576.1 947.15 1571.25 943.2 1566.75 941 1561.4 938.35 1555.9 937.95 1549.9 937.5 1545.05 939.9 1537.5 943.6 1534.9 952.85 1532.4 961.65 1535.65 970.05 1537.05 973.75 1540.95 980.05 1545.1 986.7 1546.5 989.95 1549.05 995.9 1549.9 1004.05 1550.4 1009 1550.4 1018.7 1550.35 1075.6 1549.85 1102.9 1549.05 1149.75 1546.45 1187 1542.6 1242 1532.4 1310.6 1530.65 1322.35 1530.85 1328.95 1531.2 1339.15 1535.65 1345.95 1541.15 1354.35 1553.1 1358.2 1561.45 1360.9 1575.6 1361.9 1582.7 1362.4 1586.45 1362.3 1592.45 1362.15 1597.05 1360.7 1602.5 1359 1606.4 1355.25 1610.65 1351.25 1611.55 1346.15 1625.3 1347.75 1632.35 1348.05 1643.9 1348.5 1653 1346.8 1663.8 1344.8 1672.45 1339.45 1681.95 1333.6 1686.7 1324.9 1689.9 1319 1691.45 1310.45 1692.15 1306.65 1693.35 1295.1 1695.95 1270.3 1703.1 1240.05 1707.4 1221.65 1717.45 1185.9
L 1772.5 989.55
Q 1774.95 980.7 1775.2 975.3 1775.55 967.25 1771.85 962.1 1768.05 956.8 1760.75 955.3 1754 953.9 1747.2 956.15 1741.6 958 1735.35 962.45
M 1639.15 1115.05
Q 1639.35 1114.8 1639.5 1114.95
L 1639.5 1143.4
Q 1639.5 1145.05 1639 1145.7
L 1639 1115.55
Q 1639 1115.3 1639.15 1115.05
M 1467.95 1373.45
Q 1465.15 1372.15 1462.75 1372.4 1459.2 1372.85 1457.1 1376.35 1455.05 1379.75 1455.65 1383.5 1456.5 1389.25 1463.25 1395.75 1491.85 1423.1 1550.85 1423.65 1583.25 1423.95 1627.2 1417.1 1652.55 1413.15 1703.1 1403.95 1737.5 1398.25 1750.05 1395 1776 1388.25 1793.1 1376.35 1803.75 1368.9 1807.45 1360.95 1809.75 1355.9 1809.35 1350.5 1808.9 1344.75 1805.45 1340.95 1801.95 1337.05 1796.05 1335.95 1790.7 1335 1785 1336.5 1780.55 1337.75 1774.95 1340.75 1768.55 1344.45 1765.35 1346.25 1752.3 1353.6 1734.95 1359 1722.8 1362.8 1702.85 1367.15 1635.7 1381.85 1566.9 1389.05 1536.9 1392.2 1517.9 1390.55 1490.95 1388.25 1472.65 1376.3 1469.45 1374.15 1467.95 1373.45
M 1403.35 1457.1
Q 1400.1 1455.1 1398.45 1454.1 1395.55 1452.4 1393.25 1451.6 1390.35 1450.55 1387.6 1450.65 1384.5 1450.75 1382.2 1452.25 1378.85 1454.45 1378.05 1458.95 1377.3 1463.2 1379.1 1467.15 1380.65 1470.55 1383.95 1473.7 1386.35 1476.05 1390.5 1478.85 1412.5 1493.8 1440.55 1501.45 1466.35 1508.45 1495.4 1508.7 1504.05 1508.75 1509.6 1507.35 1515.0201171875 1506.0306640625 1518.6 1503.15 1530.619140625 1515.60625 1548.1 1523.35 1569.35 1532.8 1593.8 1533.25 1600.05 1533.4 1607.75 1532.95 1612.75 1532.65 1621.65 1531.9 1636.3 1530.65 1645.55 1529.55 1658.65 1527.95 1669.25 1525.7 1688.4 1521.65 1711.6 1513 1716.7 1511.05 1719.35 1509.55 1723.45 1507.2 1725.6 1504.1 1729 1499.2 1727.55 1492.75 1726.15 1486.25 1720.95 1483.3 1715.65 1480.25 1707.9 1481.6 1703.4 1482.35 1694.4 1485.75 1675.8 1492.8 1652.1 1497.1 1635.15 1500.15 1608.55 1502.85 1595.2 1504.25 1587.3 1504.15 1570.55 1503.95 1554.55 1497.95 1538.55 1491.95 1525.75 1481.1 1521.7 1477.65 1519.1 1476.35 1518.2974609375 1475.9537109375 1517.5 1475.7 1514.83515625 1473.8796875 1511.65 1473.25 1508.55 1472.6 1504.45 1473.05 1503.15 1473.15 1497.2 1474.15 1481.9 1476.6 1464.25 1474.7 1449.4 1473.1 1431.7 1468.25 1423.25 1465.95 1417.1 1463.6 1409.4 1460.7 1403.35 1457.1
M 1550.8 1560.05
Q 1554.2 1565.55 1562.8 1570.45 1582.25 1581.75 1610.5 1586.15 1632.2 1589.6 1649.3 1587.35 1657.85 1586.3 1663.55 1583.55 1671.05 1579.8 1673.95 1573.45 1676.2 1568.55 1675.05 1562.95 1673.95 1557.35 1670 1553.7 1663.45 1547.7 1651.25 1548.15 1647.95 1548.25 1641.3 1549.15 1634.7 1550 1631.35 1550.1 1625.7 1550.3 1614.5 1548.8 1601.45 1547.05 1594.95 1546 1584.15 1544.2 1575.6 1542.05 1570.55 1540.7 1569.05 1540.4 1565.35 1539.6 1562.4 1539.65 1558.8 1539.7 1555.75 1540.95 1552.4 1542.35 1550.55 1544.95 1548.3 1548.1 1548.45 1552.45 1548.65 1556.45 1550.8 1560.05
M 578.9 617.3
Q 575.15 624.35 572.5 635.35 566.85 659 568.5 683.55 570.15 708.15 578.95 730.8 582.9 741.05 589.8 754.2 598.75 771.4 607.3 784 617.7 799.35 629.25 810.5 642.2 823.1 657.15 830.8 673.3 839.2 689.85 840.8 701.7 842 708.95 838.3 713.5 835.95 716.15 831.7 718.95 827.2 718.25 822.55 717.6 818 713.75 814.35 710.25 811.05 705.3 809.35 701.65 808.1 695.85 807.35 686.4 806.15 686.2 806.1 657.35 801.2 631.6 769.7 610.35 743.75 600.65 712.9 590.45 680.2 595.6 649.15 597.3 640.2 598.05 635.75 599.35 627.9 599.05 622.3 598.8 617.4 596.65 613.7 594.2 609.4 590.2 609 586.8 608.6 583.6 611.3 580.95 613.5 578.9 617.3
M 1595.25 624.8
Q 1593.75 629.25 1592.45 638.35 1588.05 668.75 1578.7 700.4 1574.2 715.85 1569.65 725 1561.4 741.45 1546 754.7 1531.9 766.85 1513.4 775.05 1497.5 782.15 1477 787 1462.3 790.5 1439.2 794 1434.75 794.65 1432.6 795.15 1428.95 795.95 1426.3 797.25 1423.1 798.75 1420.9 801.2 1418.5 803.85 1417.85 806.95 1417 811.05 1419.3 815.25 1421.4 819.15 1425.35 821.5 1428.75 823.5 1433.45 824.45 1437.05 825.2 1442.15 825.35 1452.6986328125 825.749609375 1464.1 824.35 1465.9275390625 828.248828125 1469.6 830.65 1472.95 832.85 1477.7 833.85 1481.25 834.65 1486.5 834.85 1502.35 835.55 1513.6 831.65 1519.05 829.8 1525.3 826.15 1529 824 1536.25 819.1 1553.8 807.3 1562.1 801.1 1576.15 790.55 1585.9 780.55 1590.15 776.15 1592.5 772.75 1595.75 768.15 1596.85 763.65 1598.15 758.5 1596.5 753.5 1595.77421875 751.3021484375 1594.6 749.6 1605.061328125 733.5626953125 1612.7 713.55 1623.55 685.05 1629.6 645.55 1631.15 635.25 1630.35 628.6 1629.2 619.3 1623.55 614.45 1619.25 610.8 1613.15 610.6 1607.05 610.45 1602.5 613.85 1597.7 617.5 1595.25 624.8
M 1362 1271.5
Q 1353.4 1269.85 1342.35 1271.8 1336.85 1272.75 1322.8 1276.55 1289.3 1285.6 1246.25 1291.1 1220.3 1294.45 1168.5 1298.75 1130.5 1301.9 1112.05 1302.9 1080.6 1304.65 1055.5 1303.9 990.3 1302.05 904.85 1281.45 875.8 1274.45 830.65 1261.85 767.85 1244.4 756.7 1241.45 750.3 1239.8 746.05 1239.95 740.15 1240.15 737.1 1243.7 734.55 1246.7 734.85 1251.2 735.1 1255.4 737.65 1258.9 739.85 1261.9 743.6 1264.35 746.25 1266.1 750.85 1268.3 765.15 1275.15 783.9 1281.65 795 1285.5 818 1292.5 886.7 1313.45 922.2 1322.2 980.65 1336.55 1028.65 1340.3 1047.35 1341.75 1070.95 1342.1 1084.45 1342.25 1113.3 1342.05 1192.3 1341.35 1233.3 1338.8 1299.75 1334.65 1351.85 1323 1382.45 1316.15 1385.3 1298.95 1386.85 1289.5 1379.35 1281.25 1372.3 1273.45 1362 1271.5 Z"/>
</g>
</defs>

<g transform="matrix( 1, 0, 0, 1, 0,0) ">
<use xlink:href="#Layer1_0_FILL"/>
</g>

<g transform="matrix( 1, 0, 0, 1, 0,0) ">
<use xlink:href="#Layer0_0_FILL"/>
</g>
</svg>
